<svg width="270" height="130" viewBox="0 0 270 130" fill="none" xmlns="http://www.w3.org/2000/svg"><rect width="270" height="130" rx="10" fill="#fff"/><path d="M69.391 77.749s.443 4.51 3.986 4.51c0 0 7.53-3.607 7.53-8.568V61.967s2.213-1.803 2.213 2.706-.442 9.015-.442 9.015-2.879 4.28-3.764 5.186c.247-.144 11.23-6.75 6.421-23.223 0 0 15.899-12.593 14.18-18.014.24.486 4.393 9.072 3.534 11.702l-11.07 8.566 12.399-5.867s.442 6.313-.443 8.117l-10.186 3.616 9.3-1.353s-.442 6.764-3.1 7.665h-6.643l6.2 1.805s-2.214 5.41-3.985 5.41c-1.719 0-6.758-1.27-7.073-1.348l6.184 2.251s-1.329 5.867-4.871 4.058l-2.658-1.804 3.1 3.607s-7.528 6.314-15.942 7.666H59.316c-8.413-1.352-15.942-7.666-15.942-7.666l3.1-3.607-2.657 1.804c-3.543 1.803-4.871-4.058-4.871-4.058l6.183-2.25c-.314.076-5.358 1.347-7.073 1.347-1.77 0-3.985-5.41-3.985-5.41l6.2-1.805h-6.64c-2.658-.901-3.1-7.665-3.1-7.665l9.3 1.353-10.186-3.607c-.885-1.804-.442-8.118-.442-8.118l12.396 5.858-11.068-8.562c-.86-2.63 3.295-11.216 3.534-11.703-1.719 5.425 14.18 18.015 14.18 18.015-4.81 16.473 5.06 22.398 5.31 22.541 2.927 3.492-1.001-2.598-2.652-4.504 0 0-.443-4.51-.443-9.015 0-4.506 2.213-2.706 2.213-2.706v11.724c0 4.96 7.53 8.568 7.53 8.568 3.543 0 3.986-4.51 3.986-4.51l-.111-5.867 5.313-4.058" fill="#FF6C00"/><path d="m99.507 37.617.008.023-.008-.023Zm-65.434 0c0 .01 0 .014-.008.023l.008-.023Z" stroke="#000" stroke-miterlimit="10"/><path d="M66.845 91.277V74.14l.939-2.493" fill="#FF6C00"/><path d="M73.377 82.259s7.53-3.606 7.53-8.568V61.967s2.213-1.803 2.213 2.706-.442 9.015-.442 9.015-2.879 4.284-3.764 5.185m-18.711 3.386s-7.53-3.606-7.53-8.568V61.967s-2.213-1.803-2.213 2.706.443 9.015.443 9.015 3.351 4.85 4.096 6.088c.207.345-.48-.49-.442-.452" fill="#FF2400"/><path d="m74.896 81.41-7.942 10.317-.11-17.586.94-2.493 1.607-3.819v9.92s.36 3.652 3.013 4.383c.295.081 1.598-.175 2.492-.722Z" fill="#FF3E01"/><path d="M46.457 73.69s-1.201-3.832 1.014-15.105c-.044-.07-2.215 8.567 2.213 15.782 2.232 3.635 8.182 6.153 11.515 9.015 4.341 3.74 5.913 7.441 6.117 8.377.049.229-18.96-6.57-20.859-18.069Z" fill="#FF4900"/><path d="M87.327 73.917s1.329-3.157-.885-14.43c-.442-.45 1.329 7.666-3.1 14.882-2.23 3.635-7.832 6.153-11.164 9.015-3.654 3.148-4.71 6.711-5.076 8.326-.066.31 16.683-6.07 20.225-17.793Z" fill="#FF5A00"/><path d="M117.098 52.292a6.79 6.79 0 0 1 .518-2.671 6.266 6.266 0 0 1 1.51-2.147 7.409 7.409 0 0 1 2.446-1.482 11.225 11.225 0 0 1 3.354-.667v-1.717h2.24v1.717c1.14.052 2.266.277 3.341.667.908.327 1.745.83 2.466 1.48a6.203 6.203 0 0 1 1.516 2.147 7.15 7.15 0 0 1 0 5.35 6.188 6.188 0 0 1-1.516 2.156 7.478 7.478 0 0 1-2.466 1.482c-1.075.39-2.201.615-3.341.667v2.422h-2.24v-2.42a11.225 11.225 0 0 1-3.354-.668 7.424 7.424 0 0 1-2.446-1.482 6.237 6.237 0 0 1-1.51-2.156 6.838 6.838 0 0 1-.518-2.678Zm7.828-4.977c-.8.023-1.591.175-2.343.453a5.407 5.407 0 0 0-1.762 1.07 4.508 4.508 0 0 0-1.108 1.558 5.037 5.037 0 0 0 0 3.812 4.445 4.445 0 0 0 1.108 1.55 5.591 5.591 0 0 0 1.762 1.07 7.248 7.248 0 0 0 2.343.46v-9.972Zm2.24 9.974a7.313 7.313 0 0 0 2.35-.46 5.565 5.565 0 0 0 1.769-1.071 4.439 4.439 0 0 0 1.107-1.551 4.808 4.808 0 0 0 .375-1.913 4.773 4.773 0 0 0-.375-1.906 4.538 4.538 0 0 0-1.107-1.551 5.4 5.4 0 0 0-1.769-1.07 7.434 7.434 0 0 0-2.35-.452v9.974Zm20.946-.141h-7.267l-1.686 4.408h-2.372l6.722-17.944h1.953l6.709 17.944h-2.377l-1.682-4.408Zm-6.571-2.004h5.881l-2.944-7.828-2.937 7.828Zm23.746-3.129a5.33 5.33 0 0 1 1.325.973 5.1 5.1 0 0 1 .916 1.363 4.93 4.93 0 0 1-1.175 5.634 5.882 5.882 0 0 1-1.776 1.145 5.684 5.684 0 0 1-2.227.429h-6.708V43.612h6.571a5.515 5.515 0 0 1 2.022.362c.586.23 1.12.576 1.573 1.018.452.443.814.972 1.064 1.558.259.602.389 1.253.382 1.91a3.849 3.849 0 0 1-.313 1.641 5.226 5.226 0 0 1-.671 1.1 4.337 4.337 0 0 1-.983.814Zm-7.405-.859h4.331a3.04 3.04 0 0 0 1.161-.223c.348-.138.668-.34.943-.598a2.76 2.76 0 0 0 .616-.849c.144-.322.218-.672.217-1.026a2.83 2.83 0 0 0-.217-1.113 2.644 2.644 0 0 0-.616-.89 2.909 2.909 0 0 0-.943-.613 3.278 3.278 0 0 0-1.161-.246h-4.331v5.558Zm4.468 8.415c.992 0 1.803-.315 2.432-.945a3.12 3.12 0 0 0 .929-2.337 2.994 2.994 0 0 0-.249-1.203 2.95 2.95 0 0 0-.708-.995 3.386 3.386 0 0 0-1.051-.681 3.548 3.548 0 0 0-1.353-.25h-4.468v6.411h4.468Zm25.426-6.987a9.318 9.318 0 0 1-.683 3.589 9.719 9.719 0 0 1-1.817 2.893 8.23 8.23 0 0 1-2.637 1.935 7.362 7.362 0 0 1-6.243 0 8.086 8.086 0 0 1-2.624-1.935 9.728 9.728 0 0 1-1.817-2.893 9.3 9.3 0 0 1-.683-3.59 9.337 9.337 0 0 1 .683-3.576 9.72 9.72 0 0 1 1.817-2.908 8.284 8.284 0 0 1 2.624-1.932 7.364 7.364 0 0 1 6.243 0 8.225 8.225 0 0 1 2.637 1.933 9.694 9.694 0 0 1 1.817 2.908 9.33 9.33 0 0 1 .683 3.576Zm-14.263 0c-.01.973.157 1.94.492 2.852.311.83.769 1.593 1.352 2.254a5.983 5.983 0 0 0 1.927 1.488 5.009 5.009 0 0 0 4.48 0 5.973 5.973 0 0 0 1.927-1.488 7.67 7.67 0 0 0 1.339-2.254c.344-.91.516-1.877.506-2.852a7.837 7.837 0 0 0-.506-2.852 7.61 7.61 0 0 0-1.339-2.267 5.806 5.806 0 0 0-1.927-1.475 5.022 5.022 0 0 0-4.48 0 6.077 6.077 0 0 0-1.927 1.475 7.855 7.855 0 0 0-1.352 2.267 8.031 8.031 0 0 0-.492 2.852Zm24.717-8.972a5.554 5.554 0 0 1 3.95 1.656 5.982 5.982 0 0 1 1.203 1.78 5.212 5.212 0 0 1 0 4.243 5.982 5.982 0 0 1-1.203 1.78 5.554 5.554 0 0 1-1.775 1.21 5.232 5.232 0 0 1-2.173.43h-3.772v6.843h-2.24V43.611h6.01Zm0 9.111a3.23 3.23 0 0 0 1.285-.263 3.18 3.18 0 0 0 1.079-.766c.313-.33.558-.718.724-1.144a3.97 3.97 0 0 0 .281-1.391 3.753 3.753 0 0 0-.998-2.533 3.309 3.309 0 0 0-1.079-.751 3.427 3.427 0 0 0-1.284-.278h-3.778v7.122l3.77.004Zm20.945 8.833V47.745l-8.812 13.813h-1.949V43.612h2.24v13.813l8.811-13.813h1.954v17.944h-2.244Zm19.006-15.957h-5.313v15.954h-2.241V45.6h-5.315v-1.987h12.871l-.002 1.986ZM131.745 72.666c.179.07.348.167.501.286.136.117.253.256.345.41.11.194.164.414.156.636a1.578 1.578 0 0 1-.507 1.162 1.902 1.902 0 0 1-.575.36 1.95 1.95 0 0 1-.734.134 2.278 2.278 0 0 1-.806-.133 1.82 1.82 0 0 1-1.019-.919c-.1-.209-.16-.434-.18-.665h.569c.048.322.202.618.437.84.226.203.559.304.999.304.333.016.658-.1.908-.323a1.006 1.006 0 0 0 .346-.76.962.962 0 0 0-.322-.7c-.213-.214-.524-.32-.932-.32h-.561v-.572h.501c.18.003.358-.028.526-.092.136-.052.263-.127.375-.223a.81.81 0 0 0 .218-.305.91.91 0 0 0-.221-1.002c-.187-.19-.487-.286-.898-.286a1.287 1.287 0 0 0-.89.286c-.213.19-.361.446-.421.729h-.562a1.63 1.63 0 0 1 .169-.6c.094-.196.228-.37.393-.51a2.12 2.12 0 0 1 .576-.336 1.96 1.96 0 0 1 .734-.133 2.04 2.04 0 0 1 .726.122c.202.072.389.181.551.323.147.131.267.29.352.47.081.17.124.358.125.548.006.21-.042.419-.141.604a1.696 1.696 0 0 1-.302.392 1.59 1.59 0 0 1-.436.273Zm4.935-2.742c.279-.004.558.045.819.143.237.094.452.233.636.411.176.176.314.388.403.623.101.253.151.524.148.797v3.697h-.38l-.183-.828h-.067a2.244 2.244 0 0 1-.41.449 1.975 1.975 0 0 1-1.338.44c-.628 0-1.109-.15-1.443-.453a1.48 1.48 0 0 1-.502-1.145 1.597 1.597 0 0 1 .166-.715 1.59 1.59 0 0 1 .525-.591 2.85 2.85 0 0 1 .941-.392 5.84 5.84 0 0 1 1.437-.143h.691v-.318a1.365 1.365 0 0 0-.392-1.015 1.427 1.427 0 0 0-1.051-.386c-.444 0-.782.096-1.014.286-.229.19-.4.443-.489.729h-.563c.074-.438.301-.834.641-1.114a2.11 2.11 0 0 1 .618-.349c.26-.09.533-.132.807-.126Zm-.312 5.16a1.62 1.62 0 0 0 1.278-.485 1.683 1.683 0 0 0 .477-1.3v-.513h-.691a5.803 5.803 0 0 0-1.21.106c-.27.047-.53.14-.77.273-.169.092-.309.23-.405.4a1.161 1.161 0 0 0-.122.498.93.93 0 0 0 .367.702c.24.216.607.322 1.076.322v-.003Zm9.062-5.095v5.61h-.569V70.56h-3.373v5.037h-.562v-5.61h4.504Zm6.309 0v5.61h-.562v-2.29a3.207 3.207 0 0 1-.978.432 2.623 2.623 0 0 1-.654.077c-.599 0-1.072-.176-1.419-.528-.346-.352-.52-.834-.52-1.445v-1.856h.562v1.849a1.38 1.38 0 0 0 .389 1.011 1.42 1.42 0 0 0 1.055.39c.207 0 .413-.03.611-.09.171-.053.339-.117.502-.191.159-.082.31-.177.452-.286v-2.683h.562Zm4.306-.065c.279-.004.557.044.819.143.236.094.452.233.635.41.177.177.314.389.403.623.099.254.146.525.141.797v3.698h-.379l-.183-.829h-.068a2.25 2.25 0 0 1-.41.45 1.953 1.953 0 0 1-.539.31 1.97 1.97 0 0 1-.799.13c-.629 0-1.11-.15-1.443-.453a1.479 1.479 0 0 1-.502-1.145 1.597 1.597 0 0 1 .166-.715c.123-.24.304-.443.525-.591.289-.187.608-.32.942-.392a5.841 5.841 0 0 1 1.436-.144h.692V71.9a1.372 1.372 0 0 0-.392-1.015 1.434 1.434 0 0 0-1.052-.386c-.444 0-.782.095-1.014.286-.229.19-.399.442-.49.728h-.561c.073-.438.301-.834.64-1.113a2.09 2.09 0 0 1 .619-.349c.262-.09.537-.133.814-.126Zm-.313 5.16a1.617 1.617 0 0 0 1.278-.485 1.678 1.678 0 0 0 .478-1.3v-.513h-.692a5.802 5.802 0 0 0-1.21.106c-.27.047-.53.139-.77.273-.169.092-.309.23-.405.4a1.16 1.16 0 0 0-.122.497.962.962 0 0 0 .106.394.912.912 0 0 0 .261.309c.242.215.601.322 1.076.322v-.003Zm6.744-4.587a1.794 1.794 0 0 0-.764.167c-.242.118-.46.28-.643.48-.188.212-.335.46-.433.728a2.629 2.629 0 0 0 0 1.837c.101.267.248.514.433.729.18.2.399.36.643.472.238.116.499.176.764.174.408.013.807-.134 1.113-.41.294-.267.513-.609.635-.99h.624a2.956 2.956 0 0 1-.843 1.419c-.426.38-.98.579-1.546.554a2.362 2.362 0 0 1-1.009-.218 2.5 2.5 0 0 1-.813-.596 2.899 2.899 0 0 1-.544-.903 3.385 3.385 0 0 1 0-2.298 2.89 2.89 0 0 1 .544-.902c.229-.254.506-.46.813-.604a2.293 2.293 0 0 1 1.009-.212 2.179 2.179 0 0 1 1.546.554c.409.381.701.874.843 1.42h-.629a2.353 2.353 0 0 0-.636-.99 1.583 1.583 0 0 0-1.107-.411Zm3.553-.508h4.317v.572h-1.877v5.037h-.562v-5.037h-1.878v-.572Zm10.443 0v5.61h-.562v-4.657l-3.442 4.656h-.501v-5.61h.562v4.659l3.442-4.651.501-.007Zm9.992 0v5.61h-.562v-4.657l-3.442 4.656h-.502v-5.61h.562v4.659l3.443-4.651.501-.007Zm7.673.508a1.8 1.8 0 0 0-.764.167 2.123 2.123 0 0 0-1.076 1.208 2.629 2.629 0 0 0 0 1.837c.102.268.248.514.435.729.179.2.397.361.641.472.238.116.499.176.764.174.409.013.807-.134 1.113-.41.294-.267.514-.609.635-.99h.63a2.945 2.945 0 0 1-.843 1.419c-.426.38-.98.579-1.546.554a2.366 2.366 0 0 1-1.009-.218 2.485 2.485 0 0 1-.812-.596 2.857 2.857 0 0 1-.544-.903 3.361 3.361 0 0 1 0-2.298c.124-.333.309-.639.544-.902a2.55 2.55 0 0 1 .812-.604 2.303 2.303 0 0 1 1.009-.212 2.179 2.179 0 0 1 1.546.554c.409.38.702.874.843 1.42h-.63a2.328 2.328 0 0 0-.635-.99 1.585 1.585 0 0 0-1.113-.411Zm8.628 3.7a2.21 2.21 0 0 1-.317.53 2.44 2.44 0 0 1-1.125.808 2.548 2.548 0 0 1-1.443.052 2.588 2.588 0 0 1-1.247-.742 2.812 2.812 0 0 1-.549-.903 3.361 3.361 0 0 1 0-2.298 2.85 2.85 0 0 1 .544-.901c.229-.254.505-.46.812-.604a2.302 2.302 0 0 1 1.009-.212 2.367 2.367 0 0 1 1.767.771c.481.514.746 1.2.735 1.91 0 .06-.004.118-.013.175l-.025.144-.024.124h-4.452c.028.29.103.574.22.84.107.24.256.457.44.642a1.913 1.913 0 0 0 1.407.56c.186.002.371-.025.55-.08a1.67 1.67 0 0 0 .446-.22c.121-.08.233-.177.33-.285.093-.11.174-.208.238-.3l.697-.01Zm-2.317-3.7c-.241 0-.481.048-.703.143-.22.1-.421.238-.593.41a2.423 2.423 0 0 0-.447.623c-.125.25-.212.52-.257.797h3.944a2.506 2.506 0 0 0-.22-.797 2.359 2.359 0 0 0-.422-.623 1.89 1.89 0 0 0-.591-.41 1.748 1.748 0 0 0-.711-.143Zm9.501 2.289a3.25 3.25 0 0 1-.201 1.152 2.92 2.92 0 0 1-.545.903 2.501 2.501 0 0 1-.813.597c-.317.146-.661.22-1.009.217a2.022 2.022 0 0 1-.825-.154 2.82 2.82 0 0 1-.587-.355 2.57 2.57 0 0 1-.466-.511h-.06v3.005h-.562v-7.651h.38l.189.953h.061c.13-.19.286-.36.465-.505.181-.142.378-.261.587-.355.261-.113.543-.166.825-.155a2.43 2.43 0 0 1 1.009.212c.31.141.586.347.812.604.236.263.421.569.546.901.133.365.2.753.194 1.142Zm-2.568 2.29c.265.001.526-.058.765-.175.239-.115.455-.275.635-.472.19-.213.339-.46.44-.728.113-.294.169-.607.166-.922a2.449 2.449 0 0 0-.606-1.644 2.06 2.06 0 0 0-.635-.48 1.679 1.679 0 0 0-.765-.167 1.797 1.797 0 0 0-.764.168 2.055 2.055 0 0 0-.636.479c-.189.213-.338.46-.44.728a2.629 2.629 0 0 0 0 1.838c.102.268.251.515.44.728.179.2.395.36.636.472.238.12.499.184.764.186v-.011Zm7.56-2.41a2 2 0 0 1 .5.286c.137.117.253.256.346.41.109.194.163.414.155.636.002.215-.043.428-.131.623a1.585 1.585 0 0 1-.363.51 1.737 1.737 0 0 1-1.199.461h-2.378v-5.609h2.194c.234-.002.467.037.689.116a1.6 1.6 0 0 1 .531.31c.144.13.26.288.343.464.083.179.126.374.125.572.005.197-.04.392-.131.566-.075.14-.17.268-.281.38a1.426 1.426 0 0 1-.4.275Zm-2.502-2.105v1.85h1.626a1.14 1.14 0 0 0 .826-.286.896.896 0 0 0 .3-.671.822.822 0 0 0-.306-.611 1.17 1.17 0 0 0-.82-.286l-1.626.004Zm0 2.423v2.042h1.81c.154 0 .306-.03.447-.09a1.27 1.27 0 0 0 .357-.23c.099-.093.18-.203.239-.326a.846.846 0 0 0 0-.752 1.079 1.079 0 0 0-.239-.324 1.253 1.253 0 0 0-.357-.23 1.111 1.111 0 0 0-.447-.09h-1.81Zm10.002-2.995v5.61h-.562v-4.657l-3.442 4.656h-.501v-5.61h.561v4.659l3.442-4.651.502-.007Zm4.495.508a1.805 1.805 0 0 0-.765.167 2.16 2.16 0 0 0-.641.48 2.24 2.24 0 0 0-.433.728 2.629 2.629 0 0 0 0 1.837c.1.267.247.514.433.729.18.2.398.36.641.472.239.116.501.176.765.174.409.013.807-.134 1.113-.41.294-.267.513-.609.636-.99h.629a2.956 2.956 0 0 1-.843 1.419c-.426.38-.98.579-1.546.554a2.362 2.362 0 0 1-1.009-.218 2.485 2.485 0 0 1-.812-.596 2.885 2.885 0 0 1-.546-.903 3.385 3.385 0 0 1 0-2.298c.126-.333.31-.638.546-.902.228-.254.504-.46.812-.604a2.296 2.296 0 0 1 1.009-.212 2.179 2.179 0 0 1 1.546.554c.409.381.701.874.843 1.42h-.629a2.353 2.353 0 0 0-.636-.99 1.585 1.585 0 0 0-1.113-.411Zm-87.787 14.531v2.041h-.563V85.6h-4.637v1.47h-.562v-2.042h.312c.139-.07.263-.168.366-.287.109-.125.2-.265.27-.416a2.04 2.04 0 0 0 .178-.641l.379-3.698h3.442v5.036l.815.006Zm-4.076-1.338c-.017.22-.067.436-.149.64a1.88 1.88 0 0 1-.236.417c-.082.113-.184.21-.299.286h3.381v-4.469h-2.375l-.322 3.126Zm10.075-3.698V85.6h-.562v-5.036h-2.504l-.252 3.126c-.056.705-.215 1.21-.479 1.515a1.236 1.236 0 0 1-.962.458h-.141c-.047 0-.084-.011-.128-.02a.39.39 0 0 1-.111-.037v-.514h.251a.857.857 0 0 0 .657-.336c.187-.226.303-.58.345-1.065l.313-3.697 3.573-.002Zm3.43 3.383a2.098 2.098 0 0 1-.667-.336 1.725 1.725 0 0 1-.449-.498 1.537 1.537 0 0 1-.199-.828 1.669 1.669 0 0 1 .507-1.214 1.81 1.81 0 0 1 .575-.37 1.95 1.95 0 0 1 .734-.134h2.248v5.608h-.562v-2.17h-1.564l-1.437 2.167h-.691l1.505-2.225Zm2.188-.51v-2.3h-1.686a1.25 1.25 0 0 0-.908.333 1.089 1.089 0 0 0-.346.811 1.12 1.12 0 0 0 .343.82c.249.23.576.35.911.333l1.686.003Zm8.238-2.364c-.263 0-.522.058-.761.17-.242.117-.459.28-.642.48a2.23 2.23 0 0 0-.433.728 2.623 2.623 0 0 0 0 1.835c.1.267.247.514.433.728.18.201.398.363.642.474.239.116.5.175.765.175.409.013.807-.134 1.113-.411.293-.267.513-.61.635-.99h.63a2.957 2.957 0 0 1-.843 1.42 2.18 2.18 0 0 1-1.546.553 2.388 2.388 0 0 1-1.01-.218 2.497 2.497 0 0 1-.812-.598 2.874 2.874 0 0 1-.545-.903 3.38 3.38 0 0 1 0-2.296c.125-.333.31-.64.545-.903a2.59 2.59 0 0 1 .812-.604 2.322 2.322 0 0 1 1.01-.212 2.183 2.183 0 0 1 1.546.554c.408.382.701.874.843 1.42h-.63a2.35 2.35 0 0 0-.635-.99 1.583 1.583 0 0 0-1.117-.412Zm8.75-.509V85.6h-.562v-5.036h-3.373V85.6h-.569v-5.608h4.504Zm6.811 4.208a2.18 2.18 0 0 1-.319.528 2.425 2.425 0 0 1-1.124.81 2.503 2.503 0 0 1-.814.125 2.525 2.525 0 0 1-1.876-.816 2.792 2.792 0 0 1-.551-.903 3.38 3.38 0 0 1 0-2.296c.125-.333.309-.64.544-.903.229-.254.506-.46.813-.604a2.322 2.322 0 0 1 1.009-.212 2.382 2.382 0 0 1 1.767.772 2.732 2.732 0 0 1 .733 1.911 1.03 1.03 0 0 1-.012.175c0 .048-.015.097-.024.142-.008.047-.017.084-.024.125h-4.445c.028.29.102.575.221.84.106.24.256.457.439.641.18.179.391.321.623.418.249.102.515.15.783.143a1.753 1.753 0 0 0 .996-.299 1.73 1.73 0 0 0 .331-.286 3.84 3.84 0 0 0 .238-.297l.692-.014Zm-2.318-3.699c-.241 0-.479.049-.702.144-.221.1-.422.239-.593.41a2.392 2.392 0 0 0-.446.623c-.126.25-.212.519-.257.797h3.943a2.501 2.501 0 0 0-.22-.797 2.315 2.315 0 0 0-.422-.623 1.887 1.887 0 0 0-.593-.41 1.74 1.74 0 0 0-.71-.144Zm9.625 4.527v2.042h-.562V85.6h-4.638v-5.608h.562v5.036h3.252v-5.036h.562v5.036h.824Zm.99-5.036h4.316v.572h-1.876V85.6h-.562v-5.036h-1.878v-.572Zm10.321 4.208c-.08.191-.187.37-.317.529-.29.375-.681.656-1.125.81a2.487 2.487 0 0 1-.812.124 2.521 2.521 0 0 1-1.877-.816 2.79 2.79 0 0 1-.55-.902 3.356 3.356 0 0 1 0-2.297c.124-.333.309-.64.544-.903.229-.254.506-.459.813-.604a2.32 2.32 0 0 1 1.009-.211c.332-.002.661.066.966.198.301.136.573.33.8.573a2.735 2.735 0 0 1 .734 1.912c.001.058-.003.117-.012.174l-.025.143-.024.125h-4.445c.028.29.103.574.221.84.107.24.256.456.44.64a1.893 1.893 0 0 0 1.405.562 1.752 1.752 0 0 0 1.326-.585c.093-.108.173-.208.238-.298l.691-.013Zm-2.317-3.698a1.79 1.79 0 0 0-.709.143 1.968 1.968 0 0 0-.592.41 2.372 2.372 0 0 0-.447.623c-.126.25-.212.52-.258.797h3.944a2.478 2.478 0 0 0-.219-.797 2.357 2.357 0 0 0-.422-.623 1.856 1.856 0 0 0-.593-.41 1.732 1.732 0 0 0-.704-.143Zm3.614-.51h.69l1.505 2.297 1.504-2.297h.678l-1.815 2.739 1.956 2.87h-.702l-1.627-2.422-1.627 2.421h-.682l1.938-2.869-1.818-2.739Zm10.443 0V85.6h-.569v-2.614h-3.373V85.6h-.562v-5.608h.562v2.422h3.373v-2.422h.569Zm6.811 0V85.6h-.562v-4.658l-3.442 4.656h-.501v-5.606h.562v4.65l3.443-4.65h.5Zm2.864 2.676V85.6h-.563v-5.608h.563v2.676l2.501-2.676h.752l-2.507 2.676 2.767 2.932h-.752l-2.761-2.932Zm9.439-2.676V85.6h-.563v-4.658l-3.443 4.656h-.5v-5.606h.562v4.65l3.443-4.65h.501Z" fill="#000"/></svg>