<svg width="270" height="130" viewBox="0 0 270 130" fill="none" xmlns="http://www.w3.org/2000/svg"><rect width="270" height="130" rx="10" fill="#fff"/><path d="M43.037 74.467c-.07 0-.138 0-.203-.006-.652-.035-.74-.19-.778-.258l-2.509-4.44a.712.712 0 0 1-.092-.35v-1.31h2.524l1.878 5.926c.034.113.003.272-.194.355-.145.06-.393.083-.626.083Zm-.608-.517c.155.065.691.089.949.05l-1.728-5.45h-1.743v.861c0 .046.012.091.034.131l2.488 4.408Zm2.751.44c-.64 0-.703-.061-.77-.124a.246.246 0 0 1-.078-.18v-5.082c0-.06-.004-.153-.005-.231 0-.157-.003-.318.175-.363l.175-.043.086.171 2.231 5.004a.57.57 0 0 1-.492.802c-.605.032-1.025.045-1.322.045Zm-.4-.46c.18.017.618.026 1.696-.03a.123.123 0 0 0 .107-.174l-1.802-4.04v4.245Z" fill="#000"/><path d="m36.523 69.35-.387-.227.836-1.421a1.038 1.038 0 0 1 1.14-.638c.156.026.304.088.432.18l1.265.9-.262.363-1.268-.902a.592.592 0 0 0-.898.273l-.006.018-.01.017-.842 1.437Zm10.311-3.31-2.438 2.43.318.316 2.437-2.43-.317-.316Z" fill="#000"/><path d="M40.254 74.622H34.96v-.203l-.07.009-.612-4.665v-.015a.731.731 0 0 1 .735-.736h1.249a1.02 1.02 0 0 1 .782.365l3.715 3.955c.297.295.581.639.454.945-.128.305-.556.345-.958.345Zm-4.946-.447h4.946c.377 0 .501-.051.537-.072-.011-.041-.066-.17-.354-.459l-.005-.005-3.727-3.967-.005-.005a.567.567 0 0 0-.44-.208h-1.248a.287.287 0 0 0-.286.272l.582 4.444Zm-7.566 3.981-.388-.226 1.707-2.922-1.76-2.924.386-.23 1.896 3.15-1.84 3.152Z" fill="#000"/><path d="m29.266 78.156-.389-.226 1.709-2.922-1.76-2.924.384-.23 1.897 3.15-1.841 3.152Z" fill="#000"/><path d="M41.796 86.163H40.31a.548.548 0 0 1-.548-.546v-1.625a.096.096 0 0 0-.042-.08l-.102-.065c-.463-.29-1.325-.832-1.605-2.39a3.394 3.394 0 0 1 .096-1.637c.398-1.233 1.333-1.648 1.832-1.87l.066-.03a.097.097 0 0 0 .056-.087v-1.898a.098.098 0 0 0-.099-.097h-7.72a.095.095 0 0 0-.082.044l-1.342 2.134a.525.525 0 0 1-.45.249h-4.423a.53.53 0 0 1-.434-.829l1.67-2.376a.105.105 0 0 0 0-.116l-1.643-2.329a.554.554 0 0 1 .456-.87h4.366a.542.542 0 0 1 .465.263l1.334 2.124a.097.097 0 0 0 .084.047h1.638a.368.368 0 0 0-.015-.126l-1.325-4.748a.913.913 0 0 1 .125-.763l.373-.56a.1.1 0 0 0 .018-.057v-4.03a1.104 1.104 0 0 1 .42-.871l.908-.72a.099.099 0 0 0 .034-.074.098.098 0 0 0-.03-.075l-.993-.99a.888.888 0 0 1-.228-.865l.63-2.31a.535.535 0 0 1 .961-.157l.914 1.367a3.38 3.38 0 0 1 .574 1.889v.367a.097.097 0 0 0 .047.083l2.488 1.375a.09.09 0 0 0 .052.012h.006l2.401-.262a.12.12 0 0 0 .102-.09l.463-2.003a.088.088 0 0 0-.056-.11.092.092 0 0 0-.12.034l-.11.163a.526.526 0 0 1-.615.21l-1.308-.434a.533.533 0 0 1-.337-.673l.761-2.28a.096.096 0 0 0-.01-.086l-.752-.994a.528.528 0 0 1-.108-.328v-.484a.098.098 0 0 0-.099-.098h-1.362a.545.545 0 0 1-.403-.177l-2.76-3.002a.544.544 0 0 1 .402-.913h1.798a.62.62 0 0 0 .231-.065 1.366 1.366 0 0 0 .727-.793 1.533 1.533 0 0 0-.072-1.194 3.018 3.018 0 0 0-.76-.97l-.687-.59a.537.537 0 0 1-.138-.642.547.547 0 0 1 .145-.187l.074-.061a6.932 6.932 0 0 1 3.46-1.533l.502-.074v4.626c.107-.387.16-.787.16-1.19V45.2l.73.334a8.197 8.197 0 0 1 2.925 2.266 8.164 8.164 0 0 1 1.627 3.317l.103.426h-2.498a2.36 2.36 0 0 0-1.38.438l-.257.187a.657.657 0 0 0-.168.905c.065.094.152.17.255.22.306.153.644.232.986.232h.073a1.534 1.534 0 0 1 1.122.491l3.184 3.438a.54.54 0 0 1 .144.367v8.304c0 .014.004.029.01.041l.514 1.024a.815.815 0 0 1 .086.362v6.525a.098.098 0 0 0 .098.098h2.24a.099.099 0 0 0 .082-.043.092.092 0 0 0 .009-.09l-.977-2.342a.525.525 0 0 1 .444-.73.53.53 0 0 1 .318.075l5.756 3.493a.554.554 0 0 1 .012.94l-5.493 3.484a.546.546 0 0 1-.809-.634l.79-2.365a.1.1 0 0 0-.096-.127h-8.064a.098.098 0 0 0-.098.097v1.895a.096.096 0 0 0 .057.088l.102.045c.46.2 1.148.503 1.605 1.491.386.837.427 1.793.114 2.66-.377 1.063-1.052 1.492-1.452 1.747l-.08.052a.095.095 0 0 0-.041.08v1.623a.543.543 0 0 1-.338.507.548.548 0 0 1-.21.042ZM32.245 75.39h7.723a.55.55 0 0 1 .548.545v1.895a.543.543 0 0 1-.32.496l-.07.031c-.468.208-1.253.557-1.59 1.598-.143.461-.17.95-.08 1.423.245 1.365.968 1.819 1.402 2.09l.108.066a.541.541 0 0 1 .245.455v1.625c0 .026.01.051.03.07a.097.097 0 0 0 .069.028h1.486c.026 0 .051-.01.07-.029a.098.098 0 0 0 .029-.069v-1.622a.54.54 0 0 1 .244-.455l.084-.053c.376-.239.945-.601 1.27-1.52a3.069 3.069 0 0 0-.097-2.323c-.386-.834-.96-1.085-1.38-1.268l-.107-.047a.547.547 0 0 1-.321-.496v-1.895a.545.545 0 0 1 .547-.545h8.068a.543.543 0 0 1 .54.46.546.546 0 0 1-.02.255l-.793 2.37a.096.096 0 0 0 .085.128c.02 0 .04-.004.056-.014l5.493-3.483a.107.107 0 0 0 .036-.144.105.105 0 0 0-.037-.038l-5.756-3.493a.075.075 0 0 0-.093.008.075.075 0 0 0-.021.092l.978 2.341a.543.543 0 0 1-.506.753h-2.239a.549.549 0 0 1-.547-.545v-6.528a.363.363 0 0 0-.038-.161l-.514-1.025a.537.537 0 0 1-.057-.24V57.82a.095.095 0 0 0-.024-.061l-3.186-3.44a1.081 1.081 0 0 0-.792-.347h-.076c-.41 0-.816-.096-1.183-.28a1.106 1.106 0 0 1-.612-.902 1.1 1.1 0 0 1 .464-.986l.255-.186a2.811 2.811 0 0 1 1.642-.524h1.93a7.714 7.714 0 0 0-1.547-3.062 7.745 7.745 0 0 0-2.724-2.092l-.093-.043v2.828a4.92 4.92 0 0 1-.255 1.568l-.074.212a.376.376 0 0 1-.733-.12V45.81a6.487 6.487 0 0 0-3.227 1.43l-.073.061a.097.097 0 0 0-.027.114.09.09 0 0 0 .024.032l.688.59c.364.307.66.687.869 1.113a1.98 1.98 0 0 1 .09 1.544 1.803 1.803 0 0 1-.965 1.047c-.129.064-.27.1-.415.105H34.93a.095.095 0 0 0-.09.058.094.094 0 0 0 .018.105l2.76 3.003a.097.097 0 0 0 .073.03h1.362a.549.549 0 0 1 .547.546v.486c0 .02.005.039.017.054l.752.999a.54.54 0 0 1 .08.5l-.76 2.28a.084.084 0 0 0 .054.105l1.309.434a.08.08 0 0 0 .096-.03l.112-.167a.547.547 0 0 1 .986.425l-.46 2.002a.566.566 0 0 1-.49.434l-2.398.262a.544.544 0 0 1-.32-.061h-.005l-2.49-1.379a.542.542 0 0 1-.28-.475v-.367c0-.583-.173-1.153-.498-1.638l-.914-1.367a.082.082 0 0 0-.084-.035.083.083 0 0 0-.07.062l-.63 2.31a.44.44 0 0 0 .112.43l.992.986a.548.548 0 0 1-.041.812l-.91.724a.664.664 0 0 0-.251.524v4.026a.549.549 0 0 1-.092.305l-.375.561a.477.477 0 0 0-.066.393l1.326 4.75c.057.215.035.403-.066.53a.417.417 0 0 1-.344.16h-1.646a.542.542 0 0 1-.466-.259l-1.333-2.123a.098.098 0 0 0-.085-.047h-4.365a.103.103 0 0 0-.094.057.104.104 0 0 0 .007.111l1.643 2.332a.552.552 0 0 1 0 .624l-1.671 2.378a.079.079 0 0 0-.005.082.08.08 0 0 0 .07.042h4.425a.08.08 0 0 0 .065-.037l1.342-2.135a.54.54 0 0 1 .467-.257Zm30.468-.086c1.365 0 2.127.72 2.127 1.892v1.213c0 1.168-.762 1.89-2.127 1.89-1.365 0-2.137-.719-2.137-1.89v-1.213c0-1.169.765-1.892 2.137-1.892Zm0 1.18c-.485 0-.763.222-.763.648v1.342c0 .426.278.649.763.649s.755-.225.755-.649v-1.34c0-.425-.277-.647-.755-.647v-.004Zm6.86-.794v.607c0 .216-.076.291-.298.291h-1.026v3.328c0 .21-.076.283-.297.283h-.784c-.221 0-.29-.074-.29-.284v-3.327h-1.033c-.222 0-.291-.075-.291-.29v-.609c0-.21.07-.283.29-.283h3.43c.223 0 .299.074.299.283Zm4.737.993c0 .452-.145.756-.498.993v.026c.443.19.7.575.7 1.162 0 .872-.728 1.338-1.705 1.338H70.75c-.222 0-.298-.075-.298-.284V75.69c0-.216.076-.29.298-.29h2.03c.957 0 1.53.459 1.53 1.283Zm-1.815-.197h-.67v.744h.67c.278 0 .424-.1.424-.365 0-.264-.146-.378-.423-.378h-.001Zm.131 1.83h-.802v.79h.804c.298 0 .444-.114.444-.397 0-.27-.146-.392-.444-.392h-.002Zm6.344-2.626v.607c0 .216-.077.291-.3.291h-1.828v.6h1.461c.222 0 .299.075.299.284v.61c0 .216-.077.29-.299.29h-1.461v.648h1.891c.215 0 .291.066.291.284v.611c0 .21-.076.284-.29.284h-2.967c-.221 0-.297-.074-.297-.284V75.69c0-.21.076-.283.297-.283h2.904c.222 0 .298.074.298.283Zm4.787 0v.607c0 .216-.076.291-.298.291h-1.025v3.328c0 .21-.077.283-.299.283h-.783c-.222 0-.29-.074-.29-.284v-3.327h-1.034c-.221 0-.29-.075-.29-.29v-.609c0-.21.069-.283.29-.283h3.431c.222 0 .297.074.297.283Zm2.833-.386c1.068 0 1.733.426 2.025 1.18.068.196.02.297-.188.364l-.74.257c-.216.06-.299.027-.375-.183-.125-.304-.333-.439-.723-.439-.547 0-.762.23-.762.702v1.23c0 .473.215.703.762.703.388 0 .61-.149.723-.44.083-.209.166-.257.374-.182l.741.257c.209.065.256.169.188.365-.292.756-.957 1.179-2.024 1.179-1.365 0-2.134-.72-2.134-1.891v-1.21c0-1.169.769-1.892 2.134-1.892Zm6.708.386v.607c0 .216-.077.291-.299.291h-1.025v3.328c0 .21-.076.283-.298.283h-.783c-.221 0-.291-.074-.291-.284v-3.327H89.57c-.222 0-.292-.075-.292-.29v-.609c0-.21.07-.283.292-.283H93c.221 0 .298.074.298.283Zm4.74.993c0 .452-.147.756-.5.993v.026c.444.19.7.575.7 1.162 0 .872-.728 1.338-1.704 1.338h-2.058c-.222 0-.298-.075-.298-.284V75.69c0-.216.076-.29.298-.29h2.03c.957 0 1.532.459 1.532 1.283Zm-1.816-.197h-.672v.744h.672c.277 0 .422-.1.422-.365 0-.264-.145-.378-.422-.378Zm.131 1.83h-.803v.79h.804c.298 0 .443-.114.443-.397 0-.27-.143-.392-.443-.392Zm6.34-2.626v.607c0 .216-.076.291-.297.291h-1.83v.6h1.462c.223 0 .298.075.298.284v.61c0 .216-.075.29-.298.29h-1.462v.648h1.892c.215 0 .291.066.291.284v.611c0 .21-.076.284-.291.284h-2.966c-.221 0-.298-.074-.298-.284V75.69c0-.21.077-.283.298-.283h2.904c.221 0 .297.074.297.283Zm5.122 0v4.226c0 .21-.076.283-.291.283h-.789c-.214 0-.291-.074-.291-.283v-1.551H105.1v1.55c0 .21-.066.284-.292.284h-.782c-.223 0-.298-.074-.298-.283V75.69c0-.216.075-.29.298-.29h.782c.222 0 .292.073.292.29v1.492h1.347V75.69c0-.216.076-.29.291-.29h.789c.212 0 .288.073.288.29Zm5.239 0v4.226c0 .21-.076.283-.291.283h-.789c-.215 0-.291-.074-.291-.283v-1.551h-1.346v1.55c0 .21-.066.284-.29.284h-.784c-.221 0-.297-.074-.297-.283V75.69c0-.216.076-.29.297-.29h.784c.221 0 .29.073.29.29v1.492h1.345V75.69c0-.216.076-.29.291-.29h.788c.217 0 .293.073.293.29Zm3.166-.386c1.365 0 2.127.72 2.127 1.892v1.213c0 1.168-.762 1.89-2.127 1.89-1.365 0-2.134-.72-2.134-1.89v-1.213c0-1.169.762-1.892 2.134-1.892Zm0 1.18c-.486 0-.762.222-.762.648v1.342c0 .426.276.649.762.649.484 0 .755-.223.755-.649v-1.34c0-.425-.277-.647-.755-.647v-.004Zm6.666-.794v.607c0 .216-.077.291-.299.291h-1.828v.6h1.459c.222 0 .299.075.299.284v.61c0 .216-.077.29-.299.29h-1.461v.648h1.891c.215 0 .291.066.291.284v.611c0 .21-.076.284-.291.284h-2.966c-.221 0-.297-.074-.297-.284V75.69c0-.21.076-.283.297-.283h2.903c.224 0 .301.074.301.283Zm4.753-.386c1.068 0 1.733.426 2.023 1.18.07.196.021.297-.186.364l-.741.257c-.215.06-.299.027-.375-.183-.125-.304-.333-.439-.723-.439-.547 0-.762.23-.762.702v1.23c0 .473.215.703.762.703.388 0 .61-.149.723-.44.083-.209.166-.257.375-.182l.741.257c.207.065.256.169.186.365-.29.756-.955 1.179-2.023 1.179-1.365 0-2.134-.72-2.134-1.891v-1.21c-.001-1.169.769-1.892 2.134-1.892Zm6.708.386v.607c0 .216-.076.291-.297.291h-1.026v3.328c0 .21-.077.283-.298.283h-.781c-.221 0-.291-.074-.291-.284v-3.327h-1.032c-.222 0-.291-.075-.291-.29v-.609c0-.21.066-.283.291-.283h3.426c.223 0 .299.074.299.283Zm4.88 1.404c0 1.067-.701 1.669-1.775 1.669h-.854v1.152c0 .21-.066.284-.292.284h-.782c-.223 0-.298-.074-.298-.284V75.69c0-.21.075-.283.298-.283h1.912c1.082 0 1.791.614 1.791 1.688Zm-1.421-.006c0-.298-.197-.5-.519-.5h-.687v.992h.687c.325 0 .519-.195.519-.492Zm4.378-1.784c1.365 0 2.127.72 2.127 1.892v1.213c0 1.168-.762 1.89-2.127 1.89-1.365 0-2.134-.72-2.134-1.89v-1.213c0-1.169.762-1.892 2.134-1.892Zm0 1.18c-.485 0-.762.222-.762.648v1.342c0 .426.277.649.762.649s.755-.223.755-.649v-1.34c0-.425-.277-.647-.755-.647v-.004Zm7.359-.794v4.226c0 .21-.076.283-.298.283h-.776c-.222 0-.298-.074-.298-.29v-1.146c0-.757.076-.939.264-1.675h-.056c-.256.696-.353.898-.651 1.391l-.956 1.588c-.056.101-.132.135-.285.135h-.838c-.222 0-.298-.075-.298-.284V75.69c0-.21.076-.284.298-.284h.783c.222 0 .291.074.291.284v1.154c0 .737-.035.953-.256 1.669h.048c.277-.682.367-.912.665-1.405l.943-1.572c.062-.094.131-.135.291-.135h.831c.222-.001.298.073.298.289Zm4.906 0v.607c0 .216-.077.291-.298.291h-1.026v3.328c0 .21-.076.283-.298.283h-.782c-.223 0-.292-.074-.292-.284v-3.327h-1.032c-.222 0-.291-.075-.291-.29v-.609c0-.21.065-.283.291-.283h3.43c.221 0 .298.074.298.283Zm4.38 0v.607c0 .216-.077.291-.298.291h-1.829v.6h1.465c.221 0 .298.075.298.284v.61c0 .216-.077.29-.298.29h-1.465v.648h1.891c.215 0 .291.066.291.284v.611c0 .21-.076.284-.291.284h-2.965c-.222 0-.298-.074-.298-.284V75.69c0-.21.076-.283.298-.283h2.903c.221 0 .298.074.298.283Zm5.176 0v4.225c0 .21-.076.284-.298.284h-.783c-.222 0-.292-.074-.292-.284v-3.327h-.83v.635c0 1.965-.624 2.627-1.447 3.026-.194.1-.29.054-.393-.136l-.395-.688c-.104-.19-.055-.284.139-.393.415-.236.748-.533.748-1.803v-1.54c0-.21.077-.283.298-.283h2.957c.22 0 .296.074.296.283Zm1.15 4.225V75.69c0-.21.077-.283.298-.283h.784c.221 0 .29.074.29.283v1.155h.855c1.074 0 1.774.602 1.774 1.668 0 1.067-.707 1.69-1.787 1.69h-1.913c-.224 0-.301-.075-.301-.287Zm1.372-.898h.687c.328 0 .519-.203.519-.5 0-.296-.194-.492-.519-.492h-.687v.992Zm5.583-3.713c1.068 0 1.733.426 2.024 1.18.069.196.021.297-.187.364l-.741.257c-.215.06-.298.027-.374-.183-.126-.304-.333-.439-.723-.439-.548 0-.763.23-.763.702v1.23c0 .473.215.703.763.703.388 0 .61-.149.723-.44.082-.209.166-.257.374-.182l.741.257c.208.065.256.169.187.365-.291.756-.956 1.179-2.024 1.179-1.365 0-2.133-.72-2.133-1.891v-1.21c0-1.169.768-1.892 2.133-1.892Zm6.71.386v.607c0 .216-.077.291-.299.291h-1.025v3.328c0 .21-.076.283-.298.283h-.783c-.222 0-.291-.074-.291-.284v-3.327h-1.032c-.222 0-.291-.075-.291-.29v-.609c0-.21.069-.283.291-.283h3.429c.222 0 .299.074.299.283Zm4.739.993c0 .452-.147.756-.499.993v.026c.443.19.7.575.7 1.162 0 .872-.729 1.338-1.705 1.338h-2.058c-.222 0-.298-.075-.298-.284V75.69c0-.216.076-.29.298-.29h2.031c.956 0 1.531.459 1.531 1.283Zm-1.816-.197h-.672v.744h.672c.277 0 .422-.1.422-.365 0-.264-.144-.378-.422-.378Zm.131 1.83h-.804v.79h.804c.298 0 .444-.114.444-.397 0-.27-.145-.392-.443-.392h-.001Zm4.857-3.012c1.365 0 2.127.72 2.127 1.892v1.213c0 1.168-.762 1.89-2.127 1.89-1.365 0-2.134-.72-2.134-1.89v-1.213c0-1.169.762-1.892 2.134-1.892Zm0 1.18c-.485 0-.762.222-.762.648v1.342c0 .426.277.649.762.649s.755-.223.755-.649v-1.34c0-.425-.274-.647-.755-.647v-.004ZM87.724 53.366v1.359c0 .731-.254.982-.993.982h-7.13v2.737h5.907c.74 0 .993.252.993.961v1.826c0 .732-.254.983-.993.983H79.6v2.78h7.34c.715 0 .969.229.969.96v1.733c0 .71-.254.96-.97.96h-9.88c-.74 0-.994-.25-.994-.96v-14.32c0-.71.255-.962.993-.962h9.674c.739 0 .992.252.992.961Zm31.423.026v1.358c0 .732-.258.983-1.011.983h-7.26v2.737h6.015c.752 0 1.011.251 1.011.96v1.826c0 .733-.259.983-1.011.983h-6.015v2.78h7.472c.729 0 .986.229.986.961v1.732c0 .71-.259.961-.986.961h-10.06c-.752 0-1.011-.251-1.011-.96V53.391c0-.71.259-.961 1.011-.961h9.849c.752 0 1.01.251 1.01.96Zm-16.936 6.892v-.091c1.186-.794 1.673-1.815 1.673-3.334 0-2.767-1.931-4.31-5.14-4.31h-6.81c-.743 0-1 .25-1 .976v14.2c0 .703.257.953 1 .953h6.905c3.279 0 5.717-1.565 5.717-4.492.003-1.975-.857-3.265-2.345-3.902Zm-3.798 5.109h-4.055v-9.64h3.585c1.264 0 1.926.525 1.926 1.726s-.662 1.663-1.925 1.663a.538.538 0 0 0-.538.535v1.745a.535.535 0 0 0 .537.535h.47c1.293 0 1.925.529 1.925 1.703 0 1.232-.632 1.731-1.925 1.731v.002Zm36.635-7.24c0 3.617-2.169 5.654-5.492 5.654h-3.459v3.914c0 .71-.214.961-.901.961h-1.603c-.687 0-.92-.251-.92-.96v-14.33c0-.71.236-.961.92-.961h5.921c3.346 0 5.534 2.083 5.534 5.722Zm-3.635-.018c0-1.418-.846-2.386-2.266-2.386h-2.992v4.74h2.992c1.419 0 2.266-.936 2.266-2.354Zm19.102-4.682V67.72c0 .707-.246.957-.939.957h-1.496c-.693 0-.94-.25-.94-.957v-5.53h-5.63v5.53c0 .707-.224.957-.94.957h-1.473c-.716 0-.962-.25-.962-.957V53.453c0-.729.246-.982.962-.982h1.473c.716 0 .94.25.94.982v5.036h5.63v-5.036c0-.729.247-.982.94-.982h1.496c.693.004.939.255.939.982Zm3.815 14.268V53.392c0-.71.246-.961.962-.961h1.59c.717 0 .94.251.94.961l.117 4.382h3.691c3.468 0 5.728 2.037 5.728 5.654 0 3.639-2.4 5.254-5.891 5.254h-6.177c-.714 0-.96-.251-.96-.96Zm3.589-2.317h3.173c1.505 0 2.403-.983 2.403-2.424 0-1.44-.898-2.392-2.403-2.392h-3.173v4.816Zm12.133-12.974h2.056c.525 0 .697.228.697.91v14.316c0 .682-.174.91-.697.91h-2.056c-.526 0-.698-.228-.698-.91V53.34c0-.682.175-.91.698-.91Zm19.169.91v14.316c0 .682-.174.91-.697.91h-2.057c-.523 0-.697-.228-.697-.91v-8l-5.728 8.333c-.226.328-.417.505-.622.546-.09.022-.182.032-.274.03h-2.057c-.526 0-.696-.227-.696-.91V53.34c0-.683.173-.91.696-.91h2.057c.526 0 .697.227.697.91v8.15l5.739-8.345a2.4 2.4 0 0 1 .245-.31c.086-.296.28-.404.642-.404h2.058c.52 0 .694.226.694.909Zm21.595-.044V64.98h.991c.657 0 .866.219.866.894v4.058c0 .676-.206.917-.866.917h-1.683c-.66 0-.887-.24-.887-.917v-1.316h-8.609v1.316c0 .676-.227.917-.867.917h-1.82c-.64 0-.867-.24-.867-.917v-4.056c0-.676.227-.894.867-.894h.454c1.051-.938 1.65-3.247 1.65-6.715v-4.972c0-.676.226-.917.887-.917h8.994c.663.001.89.24.89.917Zm-7.209 4.561c0 2.797-.526 5.681-1.37 7.08h5.16V55.7h-3.79v2.157Zm17.52-5.452c4.057 0 6.321 2.333 6.321 6.106v3.926c0 3.773-2.264 6.106-6.321 6.106-4.075 0-6.343-2.333-6.343-6.106V58.51c0-3.773 2.265-6.105 6.343-6.105Zm0 3.117c-1.679 0-2.638.838-2.638 2.438v5.028c0 1.6.959 2.439 2.638 2.439 1.654 0 2.614-.838 2.614-2.439v-5.03c.001-1.6-.958-2.438-2.613-2.438l-.001.002Zm-34.172-7.824a.585.585 0 0 1 .563.748c-.526 1.671-1.962 2.655-4.152 2.655-2.202 0-3.641-.982-4.167-2.655a.582.582 0 0 1 .564-.748h.973a.593.593 0 0 1 .573.458c.215.891.938 1.354 2.059 1.354 1.104 0 1.826-.463 2.041-1.354a.59.59 0 0 1 .571-.458h.975ZM70.135 63.17a.58.58 0 0 0-.576.473c-.208 1.24-1.159 1.885-2.666 1.885-1.74 0-2.735-.837-2.735-2.438v-5.027c0-1.6.995-2.438 2.735-2.438 1.359 0 2.265.524 2.584 1.538a.577.577 0 0 0 .554.397h2.649a.594.594 0 0 0 .572-.464.586.586 0 0 0-.002-.262c-.647-2.714-2.86-4.323-6.359-4.323-4.228 0-6.577 2.333-6.577 6.106v3.925c0 3.775 2.35 6.107 6.577 6.107 3.694 0 5.955-1.799 6.453-4.792a.582.582 0 0 0-.332-.629.59.59 0 0 0-.247-.054l-2.63-.004Z" fill="#000"/><path d="M242.34 63.583v-2.11c-.024.799-.007 1.474 0 2.11Zm-8.091-.267c.005-.38.011-.763 0-1.188v1.188Z" fill="#fff"/><path d="M245.741 53.391v13.696c0 .676-.227.894-.884.894h-1.653c-.657 0-.862-.218-.862-.894v-8.53c-.281.868-.901 2.507-1.282 3.296l-1.151 2.464c-.226.437-.431.634-.985.634h-1.376c-.554 0-.761-.154-.985-.634l-1.213-2.464c-.342-.655-.815-2.06-1.097-2.99v4.453c-.005.222-.008.444-.008.674v3.096c0 .677-.225.895-.884.895h-1.626c-.657 0-.882-.218-.882-.894V53.39c0-.354.058-.585.201-.727.144-.141.359-.189.681-.189h1.931c.72 0 .924.131 1.212.675l3.39 7.067 3.389-7.044c.287-.59.472-.698 1.15-.698h2.054c.323 0 .542.053.682.19.14.136.198.372.198.726Z" fill="#000"/><path d="M245.741 52.667v.727c0-.354-.059-.585-.202-.727h.202Z" fill="#FF0"/><path d="M230.849 52.667h.201c-.143.142-.201.373-.201.727v-.727Z" fill="#fff"/><path d="M234.248 63.316v1.272h-.008v-.596c0-.231.003-.452.008-.676Z" fill="#FF0"/></svg>