<svg width="270" height="130" viewBox="0 0 270 130" fill="none" xmlns="http://www.w3.org/2000/svg"><rect width="270" height="130" rx="10" fill="#fff"/><path fill-rule="evenodd" clip-rule="evenodd" d="M128.341 36.139c3.925 0 7.192 3.938 7.704 9.028a18.4 18.4 0 0 0-1.481.896c-.36.236-.692.486-1.052.743l-.07 1.792a17.376 17.376 0 0 1 2.679-1.847c-.062 5.687-3.53 10.299-7.78 10.299-4.249 0-7.717-4.612-7.765-10.3a17.32 17.32 0 0 1 2.678 1.848l-.069-1.792c-.34-.257-.692-.507-1.052-.743a17.436 17.436 0 0 0-1.488-.896c.505-5.09 3.772-9.028 7.696-9.028Zm-24.474 17.258c1.135-.93 3.35-1.39 5.876-1.549a20.453 20.453 0 0 0 5.018 4.68 16.119 16.119 0 0 0 2.838 1.5 33.984 33.984 0 0 1-4.312-.29c-6.395-.862-11.213-2.473-9.42-4.341Zm5.461-2.146c-3.177.382-5.703 1.11-6.534 1.958-2.36 2.466 2.132 5.042 9.074 6.146 3.987.632 12.729 1.098 16.473-1.007 3.745 2.084 12.459 1.64 16.474 1.007 6.921-1.104 11.434-3.68 9.074-6.146-.831-.847-3.357-1.576-6.534-1.958 1.62-2.445 2.111-4.924.886-6.771-1.184-1.73-5.537-1.959-9.884-.348-1.003-5.208-5.115-9.132-10.016-9.132-4.9 0-8.997 3.924-10.015 9.132-4.354-1.61-8.7-1.389-9.884.348-1.225 1.847-.734 4.326.886 6.77Zm43.488 2.146c-1.135-.93-3.35-1.39-5.877-1.549a20.448 20.448 0 0 1-5.017 4.68 16.154 16.154 0 0 1-2.838 1.5 34.058 34.058 0 0 0 4.312-.29c6.395-.862 11.212-2.473 9.42-4.341Zm-43.557-8.334c1.675-1.93 5.537-1.042 8.88.458a14.01 14.01 0 0 0-.042 1.084 11.936 11.936 0 0 0 5.178 10.07 15.36 15.36 0 0 1-7.184-2.334c-4.908-3.014-8.473-6.84-6.832-9.292v.014Zm74.475 18.785a4.874 4.874 0 0 0-1.149 1.931 2.092 2.092 0 0 0 0 1.34 1.007 1.007 0 0 0 .976.799 2.612 2.612 0 0 0 1.502-.694c.489-.401.836-.949.99-1.563.116-.37.163-.758.138-1.146a1.732 1.732 0 0 0-.29-.916.828.828 0 0 0-.692-.355 2.552 2.552 0 0 0-1.475.59v.014Zm-87.55 11.536.166-1.39a9.187 9.187 0 0 1-1.467.515 1.19 1.19 0 0 0-.505.257.613.613 0 0 0-.215.36.565.565 0 0 0 .187.473.69.69 0 0 0 .56.125 9.737 9.737 0 0 0 1.274-.34Zm35.895-7.57c.236 0 .775-.063 1.613-.153.837-.09 1.599-.166 2.277-.222a25.67 25.67 0 0 1 2.076-.083c3.544 0 5.738.833 6.583 2.5a6.565 6.565 0 0 1 .477 3.597 6.882 6.882 0 0 1-.803 2.521 5.068 5.068 0 0 1-1.751 1.882 4.607 4.607 0 0 1-2.533.695 7.983 7.983 0 0 1-3.675-1.028l-.637 5.264h-5.44l1.813-14.973Zm19.325-.507a10.983 10.983 0 0 1 2.602-.27 8.083 8.083 0 0 1 2.444.346 5.773 5.773 0 0 1 1.841.952c.492.377.904.85 1.211 1.389.294.508.482 1.07.554 1.653.051.461.051.927 0 1.389a5.834 5.834 0 0 1-.54 1.826 6.163 6.163 0 0 1-1.198 1.639 6.513 6.513 0 0 1-1.792 1.264 7.776 7.776 0 0 1-2.354.694c-.688.094-1.381.145-2.076.153a7.238 7.238 0 0 1-3.46-.77 4.713 4.713 0 0 1-2.077-2.042 4.587 4.587 0 0 1-.464-2.681 6.03 6.03 0 0 1 1.599-3.32 7.102 7.102 0 0 1 3.71-2.222Zm.789 4.035a2.64 2.64 0 0 0-.692 1.486c-.069.48.023.968.263 1.39a1.21 1.21 0 0 0 1.052.694 1.684 1.684 0 0 0 1.121-.528c.38-.392.623-.896.692-1.438a2.491 2.491 0 0 0-.249-1.472 1.046 1.046 0 0 0-.941-.695 1.874 1.874 0 0 0-1.246.563Zm-35.667-3.847h5.247l-.118.986a4.848 4.848 0 0 1 1.849-.993 7.657 7.657 0 0 1 2.387-.382 5.647 5.647 0 0 1 2.146.389 3.148 3.148 0 0 1 1.522 1.236c.375.625.526 1.36.43 2.083l-.886 7.334h-5.441l.693-5.5a1.143 1.143 0 0 0-.263-.973 1.095 1.095 0 0 0-.831-.354 1.802 1.802 0 0 0-1.252.576 2.723 2.723 0 0 0-.742 1.64l-.56 4.632h-5.447l1.266-10.674Zm22.309 3.36c.816.105 1.121 1.029.99 2.133a1.918 1.918 0 0 1-1.89 1.778c-.817-.104-1.115-1.035-.983-2.14.033-.478.246-.927.595-1.256a1.893 1.893 0 0 1 1.288-.514Zm-34.719-2.881a36.32 36.32 0 0 1 5.676-.57c1.854 0 3.177.257 3.959.757a2.364 2.364 0 0 1 .907 2.174 2.483 2.483 0 0 1-.693 1.438 3.006 3.006 0 0 1-1.564.854c.653.15 1.234.52 1.647 1.048a2.46 2.46 0 0 1 .298 1.605l-.048.382a2.71 2.71 0 0 1-1.163 1.701 6.351 6.351 0 0 1-2.34.972 14.63 14.63 0 0 1-3.156.313 24.991 24.991 0 0 1-4.63-.459l.076-3.277c1.45.594 2.985.953 4.547 1.062.431-.006.85-.147 1.198-.403a1.307 1.307 0 0 0 .644-.923c.089-.695-.436-1.334-1.579-1.882a2.37 2.37 0 0 0 1.143-.563c.257-.21.432-.505.491-.833a.787.787 0 0 0-.574-.917 4.504 4.504 0 0 0-.824-.049 16.023 16.023 0 0 0-4.845.917l.83-3.347ZM95.81 78.169l-1.453.187a9.72 9.72 0 0 1-1.495.111 4.773 4.773 0 0 1-3.108-.882 2.577 2.577 0 0 1-.976-2.236 3.874 3.874 0 0 1 .81-1.903 3.672 3.672 0 0 1 1.488-1.041 10.307 10.307 0 0 1 2.174-.55c.865-.138 1.64-.25 2.332-.353.245-.016.483-.092.692-.223a.645.645 0 0 0 .318-.395c0-.146-.076-.271-.29-.382a2.069 2.069 0 0 0-.942-.167c-1.605.1-3.186.44-4.692 1.007l.837-3.368a35.824 35.824 0 0 1 5.537-.57 9.024 9.024 0 0 1 3.717.632 2.08 2.08 0 0 1 1.385 1.98l-.99 8.153H95.81ZM57.742 64.474h2.803l.062-.195a1.154 1.154 0 0 0-.062-1.007c-.47-.694-1.433-.417-1.993 0-.393.3-.675.723-.803 1.202h-.007Zm6.866 2.944-2.512 3.64c-2.956.478-7.012 1.221-9.552-.869-1.121-.917-1.384-2.396-.761-4.43.224-.758.519-1.492.878-2.195a5.75 5.75 0 0 1 1.897-2.084 9.677 9.677 0 0 1 2.838-1.34c2.076-.611 4.88-.757 6.818.424a3.56 3.56 0 0 1 1.55 1.868 4.4 4.4 0 0 1 0 2.778l-.208.59c-.103.27-.18.472-.228.618h-8.16c-.111 1.107.618 1.658 2.187 1.653a22.977 22.977 0 0 0 5.26-.653h-.007Zm-21.367-6.306c.305 0 2.409-.048 2.928-.048a5.599 5.599 0 0 1 3.115.75 3.312 3.312 0 0 1 1.453 1.965 4.66 4.66 0 0 1-.097 2.549 7.278 7.278 0 0 1-1.28 2.43 6.99 6.99 0 0 1-2.208 1.834 5.813 5.813 0 0 1-2.769.694H33.766l4.547-15.278h13.414l-1.211 4.063h-6.963l-.312 1.041ZM33.164 73.557h41.563l-.941 4.5H31.793l1.37-4.5Zm40.892-.458c-.138-2.695-.25-5.382-.346-8.112l-3.8 6.306h-5.634l7.918-11.514H78.5l.726 7.799a26.323 26.323 0 0 1 4.52-.424 13.345 13.345 0 0 1 2.99.306c.76.13 1.476.452 2.077.937 1.135.986.692 2.584-.09 3.646a4.383 4.383 0 0 1-1.454 1.264 8.06 8.06 0 0 1-1.89.695 29.12 29.12 0 0 1-2.532.465c-.247.02-.485.102-.693.236-.214.14-.325.264-.346.382-.02.118.09.271.305.382.31.128.647.185.982.167a18.625 18.625 0 0 0 4.845-1.07l-.788 3.313c-1.828.333-3.68.51-5.538.528a10.288 10.288 0 0 1-3.952-.632 2.076 2.076 0 0 1-1.502-2.007 4.053 4.053 0 0 1 1.211-2.403 5.276 5.276 0 0 1 2.125-1.18c.799-.223 1.952-.455 3.461-.695a1.56 1.56 0 0 0 .692-.216.574.574 0 0 0 .305-.402c0-.167-.09-.306-.333-.43a2.492 2.492 0 0 0-1.107-.195c-3.177-.028-5.586 1.84-8.458 2.854Zm125.833-4.764.36-1.202c-.526.181-1.1.299-1.64.438-.216.052-.419.15-.596.285a.769.769 0 0 0-.297.382.582.582 0 0 0 .026.23.573.573 0 0 0 .119.2.736.736 0 0 0 .54.215 1.73 1.73 0 0 0 .692-.194l.796-.354Zm-.941 3.16-1.551.201c-.558.084-1.123.126-1.689.125-1.473 0-2.533-.32-3.183-.951a2.406 2.406 0 0 1-.624-2.41 4.845 4.845 0 0 1 3.039-3.18c.797-.28 1.62-.478 2.457-.591l2.576-.382a1.81 1.81 0 0 0 .795-.243.874.874 0 0 0 .415-.424c.042-.153-.034-.298-.242-.41a1.923 1.923 0 0 0-.982-.18 19.434 19.434 0 0 0-5.254 1.083l1.467-3.632a41.015 41.015 0 0 1 6.098-.611 8.97 8.97 0 0 1 3.89.694 1.812 1.812 0 0 1 1.094 2.133l-2.616 8.792-5.69-.014ZM182.177 60.48c1.866-.576 3.8-.9 5.752-.965 1.656 0 2.854.389 3.592 1.167.389.456.682.986.86 1.56.179.573.239 1.176.179 1.773a8.504 8.504 0 0 1-.291 1.43 7.787 7.787 0 0 1-.956 2.043 8.385 8.385 0 0 1-1.619 1.812 9.243 9.243 0 0 1-2.243 1.39 10.21 10.21 0 0 1-2.769.77 13.84 13.84 0 0 1-2.388.174 8.518 8.518 0 0 1-2.92-.452l1.031 6.945h-5.08l-.125-5.625-2.831 5.68h-5.08l-.928-5.68-2.125 5.68h-5.059l4.782-10.674h5.607l1.177 5.174 2.318-5.174h3.412a5.613 5.613 0 0 1 .174-1.652l1.536-5.14a6.883 6.883 0 0 1 2.61-3.778 10.358 10.358 0 0 1 4.014-1.673 34.699 34.699 0 0 1 5.046-.493c1.924-.07 3.129-.14 3.606-.222l-1.267 4.278a14.059 14.059 0 0 0-3.716-.445 16.558 16.558 0 0 0-2.838.23 9.914 9.914 0 0 0-2.347.694c-.623.291-.983.61-1.086.951a.776.776 0 0 0 0 .118c-.019.065-.028.1-.028.104Zm27.43-.479h5.848l-1.107 3.702h3.274l1.1-3.702h5.821l-3.426 11.508h-5.869l1.329-4.48h-3.191l-1.335 4.48h-5.87L209.607 60Zm25.208 0h6.229l-4.741 5.209 1.938 6.264h-6.229l-1.384-6.299 4.187-5.174Zm2.381 29.613-.561 2.694h3.129l.561-2.694h-3.129Zm1.135-7.39-.692 6.348h2.679l1.855-6.348h-3.842Zm-6.631 4.521c.533 0 .561.5.561.695a6.67 6.67 0 0 1-.388 1.986c-.131.368-.373.861-.934.861-.228 0-.526-.131-.526-.694a7.05 7.05 0 0 1 .484-2.257.942.942 0 0 1 .803-.618v.027Zm.402-2.16c-3.682 0-5.537 2.418-5.537 4.792 0 1.007.463 3.098 4.049 3.098 3.461 0 5.488-2.25 5.488-4.681 0-1.625-1.031-3.236-4-3.236v.028Zm-5.835 2.334.443-2.16h-6.23l-1.529 7.542h3.613l1.086-5.382h2.617Zm-12.507.951v-.146c.256-1.277.948-1.333 1.204-1.333.257 0 .727.146.727.875 0 .152-.014.303-.042.452v.16l-1.889-.008Zm4.7 1.535.103-.444a6.32 6.32 0 0 0 .187-1.389 3.06 3.06 0 0 0-.159-1.035c-.214-.604-.976-1.916-3.461-1.916a4.877 4.877 0 0 0-3.609 1.327 4.925 4.925 0 0 0-1.54 3.534 2.741 2.741 0 0 0 .989 2.208 4.74 4.74 0 0 0 3.046.833c1.147.008 2.29-.137 3.399-.43l.401-1.958c-.917.305-1.872.478-2.838.513-1.523 0-1.55-.819-1.509-1.194l4.991-.049Zm-21.388-4.646-1.53 7.542h10.009l-.429 2.083h3.197l.852-4.27h-1.024l1.093-5.382h-3.301l-1.087 5.382h-1.149l1.087-5.382h-3.233l-1.093 5.382h-1.15l1.094-5.382-3.336.027Zm-9.87 0 1.204 7.702-.117.243a1.306 1.306 0 0 1-1.219.653 3.304 3.304 0 0 1-1.079-.174l-.43 2.125c.68.174 1.376.272 2.077.292 2.125 0 3.544-.896 4.658-3.021l4.153-7.847h-3.544l-1.875 4.75h-.042l-.062-4.75-3.724.027Zm-5.392 5.382h-1.979a4.869 4.869 0 0 0 1.336-2.777l.083-.431h1.204l-.644 3.208Zm4.361-5.382h-7.33l-.284 1.465c-.318 1.584-.63 2.897-1.993 3.917h-.616l-.879 4.25h3.273l.43-2.083h3.599l-.429 2.084h3.267l.879-4.25h-1.004l1.087-5.383Zm-18.446 0 1.204 7.73-.111.243a1.306 1.306 0 0 1-1.225.653 3.29 3.29 0 0 1-1.072-.174l-.437 2.125c.691.175 1.4.273 2.112.292 2.125 0 3.543-.896 4.665-3.021l4.152-7.848h-3.543l-1.883 4.75h-.041l-.056-4.75h-3.765Zm-5.952 5.556c-.52 0-.603-.389-.603-.695.028-.54.135-1.074.318-1.583.229-.57.568-.694.859-.694.533 0 .588.402.588.694.003.271-.027.542-.09.806-.125.597-.339 1.444-1.072 1.444v.028Zm5.779-9.243a6.74 6.74 0 0 1-2.167.507c-1.633.16-3.239.145-4.845 1.062-2.076 1.195-3.156 4.104-3.156 6.466 0 1.277.429 3.368 3.876 3.368 4.153 0 5.537-2.604 5.537-4.361 0-1.945-1.509-2.778-3.46-2.778a3.895 3.895 0 0 0-3.115 1.347h-.097l.083-.34a2.398 2.398 0 0 1 1.896-1.883c.881-.193 1.778-.3 2.679-.319a4.612 4.612 0 0 0 2.215-.493l.554-2.576Zm-19.332 5.673c.526 0 .554.5.554.695a6.701 6.701 0 0 1-.388 1.986c-.124.368-.367.861-.928.861-.228 0-.532-.131-.532-.694a6.863 6.863 0 0 1 .491-2.257.928.928 0 0 1 .803-.618v.027Zm.402-2.16c-3.69 0-5.538 2.418-5.538 4.792 0 1.007.457 3.098 4.043 3.098 3.46 0 5.495-2.25 5.495-4.681 0-1.625-1.031-3.236-4-3.236v.028Zm-5.842 2.334.443-2.16h-6.23l-1.536 7.542h3.613l1.093-5.382h2.617Zm-12.514.924v-.146c.242-1.25.948-1.34 1.176-1.34.229 0 .734.145.734.875a2.01 2.01 0 0 1-.049.451v.16h-1.861Zm4.706 1.534.097-.444c.116-.454.179-.92.187-1.39a3.081 3.081 0 0 0-.159-1.034c-.214-.604-.976-1.917-3.461-1.917a4.883 4.883 0 0 0-4.742 2.936 4.928 4.928 0 0 0-.408 1.926 2.719 2.719 0 0 0 1.011 2.16 4.718 4.718 0 0 0 3.038.833 12.97 12.97 0 0 0 3.399-.43l.401-1.96a10.15 10.15 0 0 1-2.837.515c-1.523 0-1.551-.82-1.509-1.195h4.983Zm-13.372-2.66c.533 0 .56.5.56.695a6.672 6.672 0 0 1-.387 1.986c-.132.368-.374.861-.934.861-.229 0-.527-.132-.527-.694.037-.774.2-1.537.485-2.257a.945.945 0 0 1 .81-.59h-.007Zm.401-2.16c-3.682 0-5.537 2.417-5.537 4.793 0 1.007.464 3.097 4.049 3.097 3.461 0 5.489-2.25 5.489-4.68.007-1.598-1.025-3.21-3.993-3.21h-.008ZM110.56 89.17h.519c.319 0 .907 0 .907.618 0 .375-.249.882-1.211.882h-.513l.298-1.5Zm.575-2.82h.442c.257 0 .845 0 .845.535 0 .23-.118.778-1.121.778h-.416l.25-1.312Zm-2.97-1.61-1.53 7.541h5.538c2.132 0 3.184-1.312 3.184-2.465a1.513 1.513 0 0 0-.438-1.036 1.499 1.499 0 0 0-1.03-.443v-.042a2.13 2.13 0 0 0 1.292-.706 2.14 2.14 0 0 0 .528-1.377c0-1.493-1.605-1.493-2.117-1.493l-5.427.02Zm-8.492 0-.444 2.16h2.008l-1.087 5.381h3.613l1.094-5.382h2.007l.443-2.16h-7.634Zm-9.082 1.777-.339 1.695h-.277a.74.74 0 0 1-.563-.17.749.749 0 0 1-.267-.525 1.02 1.02 0 0 1 1.149-1.007l.297.007Zm3.918-1.784h-5.537c-2.305 0-3.558 1.57-3.558 2.992a1.611 1.611 0 0 0 1.108 1.556l-2.194 2.994h3.716l1.385-2.508h.387l-.505 2.508h3.62l1.578-7.542Zm-13.15 0-2.396 3.528h-.076l.692-3.528h-3.301l-1.516 7.542h3.592l2.367-3.528h.07l-.693 3.528H83.4l1.536-7.542h-3.578Zm-6.604 2.159.45-2.16h-6.23l-1.578 7.543h3.62l1.108-5.383h2.63Zm-12.057.112c.18 0 .692.062.692.84a4.43 4.43 0 0 1-.319 1.52c-.283.695-.692.834-1.003.834-.312 0-.692-.125-.692-.833a4.125 4.125 0 0 1 .311-1.521c.277-.64.65-.84.997-.84h.014Zm-.589-2.271h-3.37l-2.18 10.687h3.612l.88-4.11a2.121 2.121 0 0 0 2.076 1.138c2.332 0 4.153-1.972 4.153-5.028 0-2.716-1.952-2.861-2.603-2.861a3.205 3.205 0 0 0-2.768 1.451h-.063l.263-1.277Zm-10.056 3.11v-.145c.242-1.25.948-1.34 1.176-1.34.229 0 .734.145.734.875a2.501 2.501 0 0 1-.049.451v.16h-1.861Zm4.7 1.535.103-.444a6 6 0 0 0 .187-1.39 3.082 3.082 0 0 0-.145-1.068c-.215-.605-.976-1.917-3.461-1.917a4.883 4.883 0 0 0-4.742 2.935 4.915 4.915 0 0 0-.408 1.926 2.716 2.716 0 0 0 .99 2.208 4.72 4.72 0 0 0 3.038.834c1.147.008 2.29-.138 3.399-.43l.401-1.959a10.18 10.18 0 0 1-2.837.514c-1.523 0-1.55-.82-1.51-1.195l4.984-.014ZM39.53 84.732l-1.536 7.542h3.613l.56-2.778h1.288l-.554 2.778h3.613l1.537-7.542h-3.613l-.526 2.604h-1.301l.532-2.604H39.53Zm-8.838 1.389-.416 2.083h3.461a2.883 2.883 0 0 1-2.768 1.632 5.623 5.623 0 0 1-2.36-.493l-.783 2.556c1.03.326 2.098.51 3.177.548 4.693 0 7.046-3.07 7.046-6.188a3.87 3.87 0 0 0-.742-2.514 3.848 3.848 0 0 0-2.172-1.458 10.206 10.206 0 0 0-4.443-.063l-.79 2.611c1.35-.437 3.98-.645 4.244 1.306l-3.454-.02ZM239.03 73.62h-55.247l.761 4.368h55.892l-1.406-4.368Zm-91.606-28.57c-1.675-1.932-5.537-1.043-8.88.457.028.362.041.723.041 1.084a11.95 11.95 0 0 1-1.317 5.69 11.918 11.918 0 0 1-3.853 4.38 15.369 15.369 0 0 0 7.178-2.334c4.9-3 8.471-6.826 6.831-9.278Zm79.598 11.16h5.869l-4.547 15.278h-5.87l4.548-15.279ZM42.106 64.861l-.692 2.32h.332c.102.007.203.007.305 0a3.484 3.484 0 0 0 1.696-.299 1.516 1.516 0 0 0 .789-.854.941.941 0 0 0-.208-.916 1.252 1.252 0 0 0-1.01-.417 4.14 4.14 0 0 0-1.212.166Zm195.741 8.73 1.342 4.368-1.342-4.368Z" fill="#004E89"/></svg>