<svg width="281" height="130" viewBox="0 0 281 130" fill="none" xmlns="http://www.w3.org/2000/svg"><rect width="281" height="130" rx="10" fill="#fff"/><path d="m73.902 67.5 4.976-20.878 6.489 23.63-5.354 19.692H64.925L50 40.148h16.548L73.902 67.5Zm35.259 22.444H93.316L79.635 40.148h16.764l12.762 49.796Zm.162-49.796h15.142l-13.519 47.206-6.76-26.543 5.137-20.663Z" fill="url(#a)"/><path d="M185.82 62.14c-.054.109-.054.163-.108.27-.054.055-.162.108-.216.162-.108.054-.217.054-.379.054h-1.135c-.163 0-.271-.054-.379-.054-.108-.054-.162-.054-.216-.162a.412.412 0 0 1-.108-.27l-2.975-10.735-2.758 10.736c0 .108-.054.162-.108.27a.745.745 0 0 1-.216.161c-.108.054-.217.054-.379.054h-1.189c-.163 0-.271-.054-.379-.054-.108-.054-.162-.054-.216-.162a.412.412 0 0 1-.108-.27l-3.732-13.11c-.054-.16-.054-.323-.054-.377 0-.108 0-.162.108-.215.054-.055.162-.108.325-.108h1.081c.108 0 .217.053.325.053.054.054.108.054.162.108 0 .054.054.108.054.216l3.191 11.87 3.028-11.87a.41.41 0 0 1 .108-.216c.054-.053.108-.108.162-.108.054-.053.163-.053.325-.053h1.027c.109 0 .217.053.271.053.054.054.108.054.162.108.054.054.054.108.108.216l3.245 11.87 3.136-11.87c0-.054.054-.162.054-.216 0-.053.055-.108.163-.108.054-.053.162-.053.27-.053h.487c.216 0 .378 0 .541.053.108 0 .216.054.27.108.054.054.108.108.108.216s0 .216-.054.378L185.82 62.14Zm14.277-.377v.324c0 .107-.054.161-.054.27-.055.053-.055.107-.109.161-.054.054-.108.054-.162.054h-6.868a.877.877 0 0 1-.487-.162c-.162-.108-.216-.323-.216-.593V49.139c0-.27.054-.486.216-.594a.877.877 0 0 1 .487-.162h6.76c.054 0 .108 0 .162.054.054.054.108.054.108.162.054.054.054.162.054.27 0 .108.055.216.055.377 0 .108 0 .27-.055.324 0 .108-.054.162-.054.216-.054.054-.054.108-.108.162-.054.054-.108.054-.162.054h-5.57v4.37h4.759c.054 0 .108 0 .162.054.054.054.108.054.108.161.054.054.054.162.054.216v.702c0 .108-.054.161-.054.215-.054.054-.054.108-.108.108s-.108.054-.162.054h-4.759v5.072h5.624c.054 0 .108 0 .162.054.054.053.108.053.108.161.055.054.055.162.055.216.054.108.054.27.054.378Zm12.492-3.291c0 .431-.054.863-.162 1.24-.108.378-.27.702-.487 1.026-.216.324-.432.54-.757.81a4.242 4.242 0 0 1-2.163.916c-.433.054-.865.108-1.406.108h-3.731a.872.872 0 0 1-.487-.162c-.162-.108-.216-.323-.216-.593V49.139c0-.27.054-.486.216-.594a.872.872 0 0 1 .487-.162h3.244c.866 0 1.569.054 2.109.216.541.162.974.378 1.352.701.379.324.649.702.811 1.133.163.432.271.971.271 1.511 0 .324-.054.647-.108.971-.054.324-.217.593-.379.863s-.378.486-.595.702a2.03 2.03 0 0 1-.811.485c.379.054.757.216 1.082.378.324.216.649.431.865.755.27.324.433.648.595 1.08.162.377.27.808.27 1.294Zm-2.866-6.312c0-.324-.054-.648-.162-.917-.108-.27-.271-.54-.433-.702-.162-.162-.486-.323-.811-.431-.324-.108-.757-.162-1.298-.162h-1.947v4.586h2.164c.486 0 .865-.054 1.189-.216.325-.108.541-.324.757-.54.217-.215.325-.485.433-.755.054-.27.108-.594.108-.863Zm.865 6.42c0-.432-.054-.81-.216-1.133-.162-.324-.324-.594-.595-.81a2.747 2.747 0 0 0-.973-.485c-.379-.108-.865-.162-1.46-.162h-2.272v5.018h2.758c.433 0 .812-.054 1.136-.162.324-.108.595-.27.865-.432a2.05 2.05 0 0 0 .595-.755c.054-.324.162-.648.162-1.08Zm-30.933 17.534v.378c0 .108-.054.162-.054.27-.054.054-.054.108-.108.162-.055.054-.109.054-.163.054h-5.191v4.801h4.921c.054 0 .108 0 .162.054.054 0 .108.054.108.108.054.054.054.162.054.216v.755c0 .108-.054.162-.054.216-.054.054-.054.108-.108.162-.054.054-.108.054-.162.054h-4.921v5.934c0 .054 0 .108-.054.162-.054.054-.054.108-.162.108-.055 0-.163.054-.271.054-.108 0-.27.054-.487.054-.162 0-.324 0-.432-.054-.108 0-.217-.054-.271-.054-.054 0-.108-.054-.162-.108-.054-.054-.054-.108-.054-.162V76.06c0-.27.054-.485.216-.593a.877.877 0 0 1 .487-.162h6.381c.054 0 .108 0 .163.054.054.054.108.054.108.162.054.054.054.162.054.27v.323Zm14.601 6.15c0 1.133-.162 2.158-.432 3.129-.271.917-.649 1.726-1.19 2.374-.541.647-1.19 1.133-2.001 1.51a7.75 7.75 0 0 1-2.866.54c-1.082 0-2.001-.162-2.758-.486-.757-.324-1.406-.755-1.947-1.403-.487-.593-.865-1.348-1.136-2.265-.27-.918-.378-1.943-.378-3.13 0-1.133.162-2.157.432-3.02a6.383 6.383 0 0 1 1.244-2.32c.541-.648 1.244-1.133 2.055-1.457a7.75 7.75 0 0 1 2.866-.54c1.028 0 1.947.162 2.758.486.757.323 1.406.755 1.947 1.403.541.593.919 1.348 1.136 2.212.108.755.27 1.78.27 2.967Zm-2.001.108c0-.81-.054-1.565-.216-2.266-.162-.702-.379-1.295-.703-1.78-.324-.486-.757-.918-1.352-1.188-.541-.27-1.244-.431-2.055-.431-.811 0-1.514.162-2.055.485-.541.324-1.027.702-1.352 1.241-.324.486-.595 1.133-.757 1.78-.162.702-.216 1.403-.216 2.159 0 .809.054 1.618.216 2.32.162.7.379 1.294.703 1.834.325.54.757.917 1.298 1.187s1.244.431 2.055.431c.811 0 1.514-.162 2.109-.485.541-.324 1.027-.702 1.352-1.241a6.24 6.24 0 0 0 .757-1.834c.108-.702.216-1.457.216-2.212Zm14.439 5.125v.324c0 .108 0 .161-.054.215 0 .054-.054.108-.054.162-.055.054-.055.108-.163.162-.054.054-.216.162-.486.324-.217.162-.541.27-.866.431-.324.162-.757.27-1.189.378a6.05 6.05 0 0 1-1.46.162c-.92 0-1.731-.162-2.488-.486a5.284 5.284 0 0 1-1.893-1.348c-.541-.594-.919-1.35-1.189-2.212-.271-.864-.433-1.889-.433-3.022 0-1.187.162-2.212.433-3.129.324-.917.757-1.726 1.297-2.32a5.145 5.145 0 0 1 1.947-1.456c.757-.324 1.623-.486 2.542-.486.433 0 .811.054 1.19.108.378.054.757.162 1.081.27.325.108.649.27.865.431.271.162.433.27.541.378l.216.216c.055.054.055.108.055.162 0 .054.054.162.054.27v.701c0 .108-.054.162-.054.27-.055.054-.055.108-.109.162-.054.053-.108.053-.162.053-.108 0-.27-.053-.432-.215-.163-.162-.433-.324-.703-.486-.271-.162-.649-.324-1.082-.485-.433-.162-.919-.216-1.514-.216-.649 0-1.19.108-1.731.377-.54.27-.973.648-1.352 1.133-.378.486-.649 1.08-.865 1.78-.216.702-.324 1.511-.324 2.428 0 .918.108 1.673.27 2.374.216.702.487 1.295.865 1.727.379.485.811.809 1.352 1.079.541.216 1.136.377 1.785.377.541 0 1.081-.054 1.46-.216.433-.161.811-.27 1.081-.485.325-.162.541-.324.758-.486.216-.161.324-.215.432-.215.054 0 .108 0 .108.054.054 0 .054.053.108.108 0 .053.055.161.055.27.108.053.108.215.108.377Zm13.195-3.237c0 .863-.108 1.618-.378 2.32-.27.701-.595 1.24-1.082 1.726-.486.486-1.027.81-1.73 1.08a7.411 7.411 0 0 1-2.271.377c-.812 0-1.515-.108-2.164-.324a4.154 4.154 0 0 1-1.676-1.025c-.487-.432-.811-.971-1.082-1.672-.27-.648-.378-1.457-.378-2.32v-8.848c0-.054 0-.108.054-.162.054-.054.054-.054.162-.108.054 0 .162-.054.271-.054.108 0 .27-.054.486-.054.163 0 .325 0 .433.054.108 0 .216.054.27.054.054 0 .108.054.163.108.054.054.054.108.054.162v8.578c0 .647.054 1.24.216 1.726s.379.918.703 1.241c.324.324.649.594 1.082.755.432.162.919.27 1.46.27.54 0 1.027-.054 1.46-.216.432-.161.811-.377 1.081-.7.271-.325.541-.702.703-1.188.163-.485.217-1.025.217-1.672v-8.794c0-.054 0-.108.054-.162.054-.054.054-.054.162-.108.054 0 .162-.054.27-.054.108 0 .271-.054.433-.054.162 0 .324 0 .433.054.108 0 .216.054.27.054.054 0 .108.054.162.108.054.054.054.108.054.162v8.686h.108Zm6.597 5.449a8.99 8.99 0 0 1-1.298-.108c-.432-.054-.757-.162-1.081-.27-.325-.108-.595-.216-.812-.378-.216-.108-.378-.216-.432-.323-.108-.108-.162-.216-.162-.324-.055-.162-.055-.324-.055-.54v-.377c0-.108.055-.216.055-.27.054-.054.054-.108.108-.162.054-.054.108-.054.162-.054.108 0 .27.054.433.162.162.108.432.27.703.432.27.162.649.27 1.081.431.433.108.865.216 1.46.216.433 0 .811-.054 1.136-.162.324-.108.649-.27.865-.485a1.51 1.51 0 0 0 .541-.756c.108-.27.216-.647.216-.97 0-.378-.108-.756-.27-1.026-.162-.27-.433-.54-.703-.755-.325-.216-.649-.432-1.028-.594-.378-.161-.757-.377-1.189-.54a12.092 12.092 0 0 1-1.19-.593 4.85 4.85 0 0 1-1.028-.809c-.324-.323-.54-.647-.757-1.079a4.195 4.195 0 0 1-.27-1.51c0-.594.108-1.133.324-1.565.217-.486.541-.863.92-1.187.378-.323.865-.54 1.352-.701a5.81 5.81 0 0 1 1.73-.27c.325 0 .649.054.974.108.324.054.594.108.919.216.27.108.541.216.757.324.216.107.379.215.433.27l.162.161c0 .054.054.108.054.162 0 .054 0 .162.054.216v.701c0 .108-.054.162-.054.27 0 .054-.054.108-.108.162-.054.054-.108.054-.162.054-.055 0-.217-.054-.379-.162a3.61 3.61 0 0 0-.649-.324c-.27-.108-.541-.27-.865-.378a3.606 3.606 0 0 0-1.136-.161c-.378 0-.757.053-1.027.161-.271.108-.541.27-.703.432-.217.162-.325.378-.433.647a1.722 1.722 0 0 0-.162.756c0 .377.108.755.27 1.025.162.27.433.54.757.755.325.216.649.432 1.028.593.378.162.757.378 1.19.54.432.162.811.378 1.189.593.379.216.757.486 1.028.81.324.323.54.647.757 1.079.162.431.27.917.27 1.456 0 .648-.108 1.241-.378 1.78-.271.54-.595.972-1.028 1.295-.432.378-.973.648-1.514.81-.757.108-1.406.216-2.055.216Z" fill="#484848"/><path d="M121.599 58.545h12.871l3.191-18.397h15.087l-8.76 49.58h-30.987l4.218-12.678h14.006l1.136-6.636H119.49l2.109-11.87Z" fill="url(#b)"/><path d="M162.079 37h-.865v56h.865V37Z" fill="#484848"/><defs><linearGradient id="a" x1="60.437" y1="89.89" x2="120.9" y2="44.164" gradientUnits="userSpaceOnUse"><stop offset="0" stop-color="#F1C0CC"/><stop offset="1" stop-color="#A57CFE"/></linearGradient><linearGradient id="b" x1="150.91" y1="40.148" x2="117.594" y2="86.458" gradientUnits="userSpaceOnUse"><stop stop-color="#E9B9D1"/><stop offset="1" stop-color="#A57CFE"/></linearGradient></defs></svg>