<svg width="270" height="130" viewBox="0 0 270 130" fill="none" xmlns="http://www.w3.org/2000/svg"><rect width="270" height="130" rx="10" fill="#fff"/><g clip-path="url(#a)"><g clip-path="url(#b)"><path fill-rule="evenodd" clip-rule="evenodd" d="m139.404 67.927-18.28 2.309v2.092l18.28-1.299v-3.102Zm0 4.979-18.28 1.01v2.093h18.28v-3.103Zm0-39.905-18.28 11.474v2.092l18.28-10.535V33Zm0 4.979v3.03l-18.28 9.237v-2.092l18.28-10.175Zm0 4.98v3.03l-18.28 7.938v-2.093l18.28-8.876Zm0 5.05-18.28 7.505v2.093l18.28-6.567v-3.03Zm0 4.98-18.28 6.205v2.093l18.28-5.268v-3.03Zm0 4.978V61l-18.28 3.969v-2.093l18.28-4.907Zm0 4.98v3.03l-18.28 2.598v-2.093l18.28-3.536Z" fill="#55615F"/><path fill-rule="evenodd" clip-rule="evenodd" d="m139.407 67.926 9.64 2.309v2.092l-9.64-1.299v-3.102Zm0 4.979 9.64.938v2.092h-9.64v-3.03Zm0-39.905 9.64 11.474v2.092l-9.64-10.535V33Zm0 4.98v3.03l9.64 9.236v-2.092l-9.64-10.175Zm0 4.978v3.03l9.64 7.938v-2.092l-9.64-8.876Zm0 5.051 9.64 7.577v2.093l-9.64-6.639v-3.03Zm0 4.98 9.64 6.205v2.093l-9.64-5.268v-3.03Zm0 4.979v3.03l9.64 3.969v-2.093l-9.64-4.907Zm0 4.978v3.031l9.64 2.67v-2.092l-9.64-3.609Z" fill="#55A395"/><path d="M67.264 76.008h15.233c7.92 0 12.578-3.646 12.578-9.883 0-5.93-4.048-9.18-11.447-9.18h-7.877v-4.963h16.974v-6.72H67.264v30.746Zm8.487-6.237v-6.633h6.18c2.96 0 4.44 1.054 4.44 3.25 0 2.197-1.568 3.383-4.44 3.383h-6.18Zm120.464 6.237h9.705l-9.618-15.9 9.531-14.846h-9.052l-7.269 11.947h-4.134V45.262h-8.574v30.746h8.574V64.236h3.917l6.92 11.772Z" fill="#55615F"/></g><path d="M67.403 84.271h6.912v1.593h-4.942v1.778h2.373c1.036 0 1.823.218 2.361.654.546.436.82 1.066.82 1.889 0 .864-.302 1.535-.906 2.012-.603.478-1.455.716-2.556.716h-4.062v-8.642Zm3.952 7.16c.505 0 .893-.098 1.162-.295.269-.206.403-.502.403-.89 0-.756-.522-1.135-1.565-1.135h-1.982v2.32h1.982Zm6.487-7.16h1.97v5.63l4.085-5.63h1.86v8.642h-1.958v-5.617l-4.086 5.617h-1.871v-8.642Zm16.322 4.136c.498.173.885.445 1.162.815.286.362.428.786.428 1.272a2 2 0 0 1-.513 1.37c-.343.387-.808.683-1.395.889a5.666 5.666 0 0 1-1.908.309 7.173 7.173 0 0 1-1.762-.223 6.422 6.422 0 0 1-1.651-.679l.611-1.432c.375.23.787.408 1.236.531.457.115.901.173 1.333.173.587 0 1.073-.107 1.456-.321.391-.214.587-.514.587-.901a.801.801 0 0 0-.404-.729c-.26-.164-.62-.247-1.076-.247h-2.092v-1.506h1.945c.4 0 .71-.082.93-.247a.791.791 0 0 0 .342-.679c0-.337-.163-.6-.489-.79-.318-.19-.73-.284-1.236-.284-.375 0-.762.053-1.162.16-.4.1-.778.251-1.137.457l-.6-1.555a6.286 6.286 0 0 1 2.936-.704 5.55 5.55 0 0 1 1.847.296c.563.198 1.012.486 1.346.864.334.38.502.82.502 1.322 0 .411-.11.777-.33 1.098-.22.321-.523.568-.906.741Zm12.42-4.136v8.642h-1.982V89.37h-3.89v3.543H98.73v-8.642h1.982v3.408h3.89V84.27h1.982Zm10.182 7.037v1.605h-6.63v-8.642h6.471v1.605h-4.502v1.877h3.976v1.555h-3.976v2h4.661Zm7.033 1.754c-.873 0-1.664-.19-2.373-.568a4.375 4.375 0 0 1-1.664-1.593c-.399-.683-.599-1.453-.599-2.309 0-.856.2-1.621.599-2.296a4.258 4.258 0 0 1 1.664-1.593c.709-.387 1.505-.58 2.385-.58.742 0 1.411.132 2.007.395a4.017 4.017 0 0 1 1.516 1.136l-1.272 1.185c-.579-.675-1.297-1.012-2.153-1.012a2.8 2.8 0 0 0-1.419.358c-.416.23-.742.555-.979.975-.228.42-.342.897-.342 1.432 0 .535.114 1.013.342 1.433.237.42.563.748.979.987.416.23.889.346 1.419.346.856 0 1.574-.342 2.153-1.025l1.272 1.185a3.965 3.965 0 0 1-1.516 1.149c-.604.263-1.277.395-2.019.395Zm14.42-3.63h-1.37v3.481h-1.969v-8.642h1.969v3.494h1.419l2.251-3.494h2.092l-2.801 4.173 2.887 4.47h-2.251l-2.227-3.482Zm12.746-1.025c.522.157.921.412 1.199.766.277.353.416.79.416 1.308 0 .766-.29 1.363-.869 1.79-.571.428-1.39.642-2.459.642h-4.22v-8.642h3.988c.995 0 1.769.194 2.324.58.555.387.832.939.832 1.655 0 .428-.106.806-.318 1.136a2.22 2.22 0 0 1-.893.765Zm-3.964-.555h1.847c.433 0 .759-.087.979-.26.22-.18.33-.444.33-.79 0-.337-.114-.597-.342-.778-.22-.18-.542-.271-.967-.271h-1.847v2.099Zm2.178 3.58c.929 0 1.394-.37 1.394-1.111 0-.716-.465-1.074-1.394-1.074h-2.178v2.185h2.178Zm12.173-.371h-3.976l-.758 1.852h-2.031l3.817-8.642h1.957l3.829 8.642h-2.079l-.759-1.852Zm-.624-1.518-1.358-3.309-1.358 3.309h2.716Zm9.711-5.272c.759 0 1.415.128 1.97.383.562.255.995.617 1.296 1.086.302.47.453 1.025.453 1.667 0 .634-.151 1.19-.453 1.667-.301.469-.734.831-1.296 1.086-.555.247-1.211.37-1.97.37h-1.725v2.383h-1.981v-8.642h3.706Zm-.11 4.63c.595 0 1.048-.128 1.358-.383.31-.263.465-.633.465-1.11 0-.487-.155-.857-.465-1.112-.31-.264-.763-.395-1.358-.395h-1.615v3h1.615Zm12.849-3.001h-2.74v7.013h-1.958v-7.012h-2.728v-1.63h7.426v1.63Zm8.019 5.161h-3.975l-.759 1.852h-2.03l3.816-8.642h1.958l3.829 8.642h-2.08l-.759-1.852Zm-.623-1.518-1.358-3.309-1.358 3.309h2.716Zm13.709-5.272v8.642h-1.957v-7.012h-2.936l-.061 1.802c-.041 1.227-.139 2.223-.294 2.988-.155.757-.416 1.342-.783 1.753-.359.404-.864.605-1.517.605a4.34 4.34 0 0 1-.978-.136l.122-1.691c.106.033.224.05.355.05.473 0 .803-.28.991-.84.187-.568.305-1.453.354-2.654l.123-3.507h6.581Z" fill="#55615F"/></g><defs><clipPath id="a"><path fill="#fff" transform="translate(64 33)" d="M0 0h142v63H0z"/></clipPath><clipPath id="b"><path fill="#fff" transform="translate(64 33)" d="M0 0h142.355v53.989H0z"/></clipPath></defs></svg>