<svg width="270" height="130" viewBox="0 0 270 130" fill="none" xmlns="http://www.w3.org/2000/svg"><rect width="270" height="130" rx="10" fill="#fff"/><path d="M26.427 93.016h16.01V91.69h-16.01v1.327Zm0-2.07h16.01v-.373l-16.01.106v.266Z" fill="#B89B58"/><path d="M31.503 65.714c.012-.74.245-1.452.658-2.005.725-1.023 3.09-1.01 4.14-1.328.28-.05.54-.207.741-.446.2-.239.332-.548.374-.882v-3.984c-.047.332-.18.638-.38.876s-.457.396-.736.452c-1.026.411-3.414.372-4.139 1.328a3.488 3.488 0 0 0-.658 2.005v3.984Z" fill="#88733E"/><path d="M37.36 60.987a3.458 3.458 0 0 0-.658-2.006c-.725-1.022-3.09-1.009-4.128-1.328a1.327 1.327 0 0 1-.733-.456 1.77 1.77 0 0 1-.383-.872v-3.97c.052.33.186.633.385.87.2.237.454.397.73.458 1.027.385 3.404.372 4.129 1.328.413.554.646 1.265.658 2.005v3.97Z" fill="#B89D58"/><path d="M31.503 75.182c.012-.74.245-1.451.658-2.005.725-1.023 3.09-1.01 4.14-1.328.28-.048.542-.204.743-.443.201-.24.332-.55.372-.885v-3.997a1.705 1.705 0 0 1-.374.882c-.2.24-.46.396-.742.446-1.026.385-3.414.372-4.139 1.328a3.505 3.505 0 0 0-.658 2.018v3.984Z" fill="#88733E"/><path d="M37.36 70.428a3.505 3.505 0 0 0-.658-2.018c-.725-1.023-3.09-1.01-4.128-1.328a1.29 1.29 0 0 1-.738-.45 1.731 1.731 0 0 1-.378-.878v-3.97c.05.33.184.634.383.871.2.237.455.396.733.456 1.026.372 3.403.372 4.128 1.328.413.554.646 1.265.658 2.005v3.984Z" fill="#B89D58"/><path d="M31.503 84.584c.012-.744.245-1.46.658-2.019.725-1.009 3.09-.996 4.14-1.327.282-.047.543-.201.745-.441a1.68 1.68 0 0 0 .37-.888v-3.97a1.718 1.718 0 0 1-.376.88c-.2.239-.46.396-.74.448-1.026.372-3.414.372-4.139 1.328a3.458 3.458 0 0 0-.658 2.005v3.984Z" fill="#88733E"/><path d="M37.36 79.856a3.504 3.504 0 0 0-.658-2.018c-.725-1.023-3.09-1.01-4.128-1.328a1.29 1.29 0 0 1-.738-.45 1.731 1.731 0 0 1-.378-.878v-3.984c.047.332.18.638.38.876s.457.396.736.452c1.026.385 3.403.372 4.128 1.328.413.56.646 1.274.658 2.019v3.983Zm0 9.363a3.458 3.458 0 0 0-.658-2.006c-.725-1.022-3.09-1.009-4.128-1.328a1.328 1.328 0 0 1-.733-.456 1.772 1.772 0 0 1-.383-.871v-3.971c.049.331.182.636.382.874s.456.396.734.454c1.026.385 3.403.372 4.128 1.328.413.554.646 1.265.658 2.005v3.97ZM34.404 44.64c-.167.21-.313.44-.435.69-.145.24-.324.398-.212.704.186.547.403 1.08.647 1.593.245-.536.46-1.09.647-1.66.123-.305-.089-.504-.234-.743-.12-.21-.26-.406-.413-.584Zm2.589 4.09.937-2.444-.97.292v2.152h.033Zm-5.088 0v-2.138l-1.015-.306.982 2.417.033.027Zm2.533-7.198c.377 1.28.923 2.482 1.617 3.56.558.796.29.57-.122 1.739a5.59 5.59 0 0 0-.48 2.098c.703-.093.848-1.78.948-2.563.067-.452.123-.584.469-.717 1.25-.465 1.205 0 2.399-1.554.156-.199.223-.265.312-.16.145.306-.38 1.329-.547 1.648a22.386 22.386 0 0 0-1.684 5.311h-5.802a23.584 23.584 0 0 0-1.707-5.311c-.067-.173-.937-1.846-.424-1.66l.982 1.075c.87.81 1.897.186 2.053 1.328.111.784.245 2.523.96 2.656a5.52 5.52 0 0 0-.458-2.045 7.873 7.873 0 0 0-.357-.85c-.223-.465 0-.65.19-.916a15.464 15.464 0 0 0 1.65-3.639ZM70.143 44.3c0 .112-.112.378-.337.798a33.97 33.97 0 0 0-.843 1.806 30.53 30.53 0 0 1-.548 1.239l-.548 1.26c-.183.42-.351.826-.506 1.218-.154.378-.295.735-.421 1.071-.14.392-.302.854-.485 1.386a67.528 67.528 0 0 0-.527 1.554 41.13 41.13 0 0 0-.4 1.428c-.112.42-.169.728-.169.924 0 .196.043.315.127.357a.888.888 0 0 0 .653-.042c.126-.07.246-.14.358-.21a3.47 3.47 0 0 0 .38-.294l.168.441c-.154.14-.358.322-.61.546a7.682 7.682 0 0 1-.802.651c-.295.21-.604.392-.927.546-.309.154-.597.231-.864.231a.742.742 0 0 1-.4-.105c-.099-.056-.148-.189-.148-.399 0-.14.05-.413.148-.819.112-.406.288-.966.526-1.68.197-.616.422-1.274.675-1.974.267-.7.527-1.386.78-2.058.266-.686.512-1.323.737-1.911a91.34 91.34 0 0 1 .57-1.491l-.127-.042c-.295.336-.583.679-.864 1.029a80.857 80.857 0 0 1-2.444 2.919c-.577.644-1.3 1.449-2.171 2.415-.38.42-.724.798-1.033 1.134-.295.336-.59.658-.885.966-.281.308-.569.602-.864.882-.295.266-.618.546-.97.84a2.685 2.685 0 0 1-.568.357 1.649 1.649 0 0 1-.738.189c-.197 0-.337-.063-.422-.189-.07-.126-.105-.315-.105-.567 0-.21.063-.539.19-.987.126-.462.28-.973.463-1.533.197-.56.4-1.134.612-1.722a91.03 91.03 0 0 1 .61-1.596c.59-1.54 1.146-2.968 1.666-4.284a85.957 85.957 0 0 1 1.685-3.969h-.084c-.183.21-.506.609-.97 1.197-.449.574-.983 1.253-1.6 2.037A178.588 178.588 0 0 1 54 52.973l-1.243 1.47a64.473 64.473 0 0 1-1.37 1.575 75.175 75.175 0 0 1-1.454 1.533c-.492.49-.97.924-1.433 1.302a7.815 7.815 0 0 1-1.349.903c-.422.238-.8.357-1.138.357-.435 0-.653-.238-.653-.714 0-.42.133-.84.4-1.26.281-.42.611-.77.99-1.05h.232c-.014.07-.02.14-.02.21v.147c0 .07.006.147.02.231a.89.89 0 0 0 .085.252.752.752 0 0 0 .21.21.762.762 0 0 0 .38.084c.098 0 .218-.021.358-.063.14-.056.31-.147.506-.273.21-.14.45-.329.716-.567.281-.252.604-.574.97-.966a208.966 208.966 0 0 0 2.655-2.94c.843-.952 1.658-1.904 2.444-2.856.787-.966 1.56-1.946 2.318-2.94A99.782 99.782 0 0 0 59.9 44.51a7.154 7.154 0 0 0-.906-.147 13.053 13.053 0 0 0-1.18-.042c-.435 0-1.011.021-1.728.063-.716.028-1.531.147-2.444.357-.9.21-1.883.539-2.95.987-1.054.448-2.143 1.085-3.267 1.911-.422.322-.815.658-1.18 1.008a8.38 8.38 0 0 0-.906 1.008c-.253.336-.45.658-.59.966-.14.308-.211.588-.211.84 0 .182.05.315.147.399a.65.65 0 0 0 .4.126c.17 0 .324-.021.464-.063.141-.056.303-.133.485-.231v.273a2.26 2.26 0 0 1-.99.777 3.044 3.044 0 0 1-1.16.252c-.603 0-.905-.28-.905-.84 0-.462.161-.945.484-1.449a8.644 8.644 0 0 1 1.244-1.491 14.64 14.64 0 0 1 1.58-1.365 30.08 30.08 0 0 1 1.517-1.071 17.942 17.942 0 0 1 3.477-1.743 25.22 25.22 0 0 1 3.246-.987c.997-.224 1.875-.364 2.634-.42a26.297 26.297 0 0 1 1.728-.084c.618 0 1.152.021 1.601.063.45.028.836.056 1.16.084.365.042.68.084.948.126-.099.168-.24.448-.422.84-.182.392-.386.84-.61 1.344-.212.49-.436 1.022-.675 1.596-.225.56-.443 1.106-.654 1.638-.379.966-.73 1.876-1.053 2.73-.31.84-.583 1.596-.822 2.268a51.669 51.669 0 0 0-.548 1.722c-.126.476-.19.819-.19 1.029 0 .07.008.133.022.189.014.042.07.063.168.063.127 0 .429-.21.906-.63.492-.42 1.145-1.085 1.96-1.995.14-.168.386-.448.738-.84.35-.406.765-.882 1.243-1.428.478-.56.99-1.176 1.538-1.848a90.274 90.274 0 0 0 1.686-2.079c.534-.672.949-1.267 1.243-1.785.295-.518.563-.959.801-1.323.24-.35.436-.588.59-.714.155-.14.345-.252.57-.336.14-.056.301-.091.484-.105a6.09 6.09 0 0 1 .358-.021c.14 0 .211.056.211.168Zm23.278-.462c0 .224-.176.539-.527.945-.337.406-.934.931-1.791 1.575a79.002 79.002 0 0 1-1.939 1.428c-.534.378-1.011.714-1.433 1.008-.421.28-.815.546-1.18.798-.352.252-.724.532-1.117.84.154.322.33.79.527 1.407.196.616.393 1.281.59 1.995l.421 1.512c.14.504.296.952.464 1.344.169.392.351.714.548.966.196.238.422.357.674.357.225 0 .457-.05.696-.147.253-.112.477-.26.674-.441l.169.231c-.042.07-.155.196-.337.378-.183.182-.4.37-.654.567-.239.196-.499.37-.78.525-.28.154-.54.231-.78.231a1.06 1.06 0 0 1-.779-.315c-.197-.21-.38-.497-.548-.861a9.206 9.206 0 0 1-.463-1.26 48.655 48.655 0 0 0-.485-1.575 17.579 17.579 0 0 1-.295-1.008 45.594 45.594 0 0 0-.358-1.302c-.127-.448-.26-.854-.4-1.218-.142-.364-.275-.616-.401-.756-.295.756-.584 1.491-.864 2.205-.24.616-.5 1.267-.78 1.953l-.737 1.764a9.5 9.5 0 0 1-.317.714 5.088 5.088 0 0 1-.252.483 3.499 3.499 0 0 1-.253.336c-.07.084-.155.16-.253.231-.183.14-.4.252-.654.336-.252.084-.45.126-.59.126-.112 0-.182-.021-.21-.063a.298.298 0 0 1-.043-.168c0-.07.05-.21.148-.42.112-.224.274-.56.485-1.008.379-.784.702-1.477.97-2.079.266-.616.512-1.204.737-1.764.238-.56.47-1.127.695-1.701.225-.574.485-1.232.78-1.974a557.655 557.655 0 0 0 1.349-3.486c.196-.532.358-.987.484-1.365.14-.392.232-.644.274-.756a68.448 68.448 0 0 1-.927-.084 4.71 4.71 0 0 0-.421-.021c-.534 0-1.16.021-1.876.063-.716.042-1.517.175-2.403.399-.87.21-1.819.539-2.844.987-1.012.448-2.073 1.071-3.182 1.869-.436.322-.836.658-1.202 1.008a8.372 8.372 0 0 0-.906 1.008c-.253.336-.45.658-.59.966-.126.308-.19.588-.19.84 0 .112.036.231.106.357.07.112.218.168.442.168.183 0 .338-.021.464-.063.127-.056.288-.133.485-.231v.273a3.04 3.04 0 0 1-1.117.777c-.408.168-.752.252-1.033.252-.604 0-.906-.28-.906-.84 0-.42.162-.882.485-1.386a9.333 9.333 0 0 1 1.243-1.512 16.64 16.64 0 0 1 1.58-1.386 16.363 16.363 0 0 1 1.518-1.092c1.18-.728 2.31-1.31 3.393-1.743a19.665 19.665 0 0 1 3.119-.966 18.161 18.161 0 0 1 2.824-.42c.899-.07 1.728-.105 2.486-.105.253 0 .527.021.822.063.295.042.52.077.674.105l-2.887 7.077c.52-.392.984-.735 1.391-1.029.407-.308.801-.602 1.18-.882l1.18-.882a51.49 51.49 0 0 0 1.37-1.029c.225-.168.457-.35.696-.546.238-.21.456-.42.653-.63.196-.21.358-.413.484-.609.127-.196.19-.378.19-.546 0-.154-.063-.26-.19-.315a1.371 1.371 0 0 0-.316-.105v-.168c.45-.238.886-.399 1.307-.483.421-.098.723-.147.906-.147a.96.96 0 0 1 .337.063c.127.042.19.16.19.357ZM64.58 71.063c-.141.308-.31.672-.507 1.092-.196.42-.4.861-.61 1.323-.211.448-.415.903-.612 1.365a25.08 25.08 0 0 0-.463 1.218l-.57 1.66c-.196.56-.442 1.238-.737 2.036a69.39 69.39 0 0 0-.38 1.071c-.14.406-.21.742-.21 1.008 0 .196.098.294.295.294.127 0 .26-.028.4-.084.14-.07.267-.14.38-.21a1.96 1.96 0 0 0 .379-.294l.169.441c-.155.14-.359.315-.611.525-.24.21-.5.413-.78.61a7.75 7.75 0 0 1-.864.482 1.97 1.97 0 0 1-.843.21c-.267 0-.4-.196-.4-.588 0-.126.02-.301.063-.525.056-.238.126-.497.21-.777.085-.28.183-.574.295-.882l.338-.924.337-.945c.168-.434.358-.93.569-1.49.21-.56.435-1.149.674-1.765a29.71 29.71 0 0 1 .738-1.743c.253-.56.491-1.057.716-1.49.239-.449.45-.77.632-.967.281-.308.527-.497.738-.567.21-.07.372-.105.485-.105.028 0 .049.007.063.021h.105Zm3.814-.945a.9.9 0 0 1-.253.63c-.155.182-.33.33-.527.441a3.12 3.12 0 0 1-.759.336l-.105-.084a.991.991 0 0 0 .02-.23c0-.295-.133-.575-.4-.84-.267-.267-.66-.505-1.18-.715-.505-.21-1.145-.378-1.917-.504-.759-.126-1.644-.189-2.656-.189a2.977 2.977 0 0 0-.231.42c-.07.14-.148.308-.232.504l-.253.651c-.098.238-.21.518-.337.84-.127.322-.323.826-.59 1.512-.253.686-.555 1.484-.906 2.394-.338.91-.71 1.897-1.117 2.961-.408 1.05-.822 2.1-1.244 3.15-.196.462-.414.896-.653 1.302-.239.392-.485.686-.738.882-.084.07-.196.14-.337.21-.14.07-.288.133-.442.19-.14.07-.274.118-.4.146a1.014 1.014 0 0 1-.296.063l-.126-.168c.028-.056.077-.16.147-.315.085-.154.176-.329.274-.525.113-.21.225-.434.338-.672l.358-.672c.253-.504.52-1.092.8-1.764.296-.672.598-1.386.907-2.142.309-.77.625-1.568.948-2.394.337-.826.667-1.645.99-2.457.282-.686.52-1.253.717-1.7.21-.463.393-.84.548-1.135.169-.308.316-.553.442-.735a9.22 9.22 0 0 1 .38-.546h-.527c-.688 0-1.475.035-2.36.105-.871.056-1.813.196-2.824.42a21.13 21.13 0 0 0-3.14.987 17.705 17.705 0 0 0-3.309 1.764c-.899.602-1.608 1.246-2.128 1.932-.506.686-.759 1.316-.759 1.89 0 .35.176.525.527.525.155 0 .302-.02.443-.063.154-.042.33-.119.527-.23v.272a2.66 2.66 0 0 1-1.096.777c-.422.168-.773.252-1.054.252-.337 0-.576-.084-.716-.252-.127-.182-.19-.42-.19-.714 0-.42.162-.875.485-1.365a9.696 9.696 0 0 1 1.222-1.47c.492-.49 1.019-.945 1.58-1.365.562-.42 1.075-.77 1.539-1.05a20.98 20.98 0 0 1 3.414-1.617 27.703 27.703 0 0 1 3.35-.987 23.726 23.726 0 0 1 2.972-.483 22.89 22.89 0 0 1 2.339-.147h.274l1.032-.84h.422a24 24 0 0 1-.274.42l-.295.42c.885.014 1.763.07 2.634.168.885.084 1.679.21 2.381.378.703.168 1.272.371 1.707.61.436.237.654.51.654.818Zm6.073 5.586c0 .686-.105 1.38-.316 2.08-.197.685-.52 1.378-.97 2.078-.238.364-.54.784-.906 1.26-.365.462-.787.903-1.264 1.323a8.139 8.139 0 0 1-1.58 1.05c-.563.28-1.167.42-1.813.42-.21 0-.428-.007-.653-.02a4.188 4.188 0 0 1-.548-.064c-.14.364-.302.791-.485 1.281l-.59 1.764c-.506 1.47-.843 2.52-1.011 3.15a6.57 6.57 0 0 0-.064.483 2.622 2.622 0 0 0-.042.273c-.112.322-.358.616-.737.882-.408.294-.766.441-1.075.441-.21 0-.316-.126-.316-.378 0-.126.049-.35.147-.672.085-.308.225-.721.422-1.239l2.592-6.594a2.882 2.882 0 0 1-.232-1.092v-.252c.014-.07.028-.133.042-.189l.57.252 1.79-4.473c.366-.924.548-1.519.548-1.785 0-.126-.056-.189-.168-.189-.099 0-.281.056-.548.168-.267.112-.646.315-1.138.61l-.127-.4.864-.504c.352-.196.71-.378 1.075-.546a8.79 8.79 0 0 1 1.033-.44c.337-.127.604-.19.8-.19.17 0 .253.098.253.294 0 .084-.119.42-.358 1.008a36.539 36.539 0 0 1-.906 2.08l.105.02c.225-.252.464-.532.717-.84.267-.308.548-.609.843-.903.295-.308.604-.595.927-.86a4.92 4.92 0 0 1 1.033-.694c.295-.154.625-.23.99-.23.337 0 .604.125.8.377.197.238.296.658.296 1.26Zm-1.812.861c0-.364-.043-.63-.127-.798-.07-.168-.21-.252-.421-.252-.295 0-.632.154-1.012.462a7.822 7.822 0 0 0-1.117 1.134c-.38.462-.758.98-1.138 1.554-.365.56-.695 1.106-.99 1.638-.253.448-.457.868-.611 1.26-.155.378-.281.728-.38 1.05.45.308.99.462 1.623.462.534 0 1.04-.196 1.517-.588a5.508 5.508 0 0 0 1.096-1.176 8.38 8.38 0 0 0 .822-1.47 8.633 8.633 0 0 0 .548-1.638c.126-.56.19-1.106.19-1.638ZM84.6 74.927a3.59 3.59 0 0 0-.527.693 9.173 9.173 0 0 0-.505.924l-.4.903c-.141.35-.303.75-.486 1.197-.182.448-.33.826-.442 1.134l-.274.756c-.225.63-.337 1.036-.337 1.218 0 .21.105.315.316.315.267 0 .555-.098.864-.294.323-.21.647-.434.97-.672l.168.441c-.31.252-.632.511-.97.777-.322.266-.653.511-.99.735a5.625 5.625 0 0 1-.97.546c-.308.14-.59.21-.842.21-.323 0-.485-.168-.485-.504 0-.364.162-.966.485-1.806l.548-1.449h-.148a45.661 45.661 0 0 1-1.517 1.701c-.45.476-.864.868-1.243 1.176a5.36 5.36 0 0 1-1.033.672 2.42 2.42 0 0 1-.97.21c-.744 0-1.116-.49-1.116-1.47 0-.476.07-.952.21-1.428.141-.49.33-.959.57-1.407.238-.448.52-.882.843-1.302.323-.42.674-.812 1.053-1.176a12 12 0 0 1 1.286-1.07c.463-.35.955-.652 1.475-.904a8.643 8.643 0 0 1 1.601-.63 6.126 6.126 0 0 1 1.665-.23c.253 0 .513.055.78.167.28.098.421.26.421.483v.084Zm-1.454.357c-.112-.098-.28-.16-.506-.189a3.027 3.027 0 0 0-.59-.063c-.449 0-.906.126-1.37.378a7.364 7.364 0 0 0-1.306.945c-.407.378-.78.791-1.117 1.24a9.991 9.991 0 0 0-.822 1.26c-.28.56-.512 1.077-.695 1.553-.169.462-.253.861-.253 1.197 0 .294.05.497.148.61.098.111.252.167.463.167.295 0 .64-.154 1.033-.462.393-.308.78-.672 1.159-1.092.393-.42.752-.847 1.074-1.28a9.83 9.83 0 0 0 .738-1.093c.14-.252.31-.588.506-1.008.112-.266.218-.518.316-.756.112-.252.267-.497.463-.735.268-.308.52-.532.759-.672Zm13.177-6.426c0 .644-.365 1.463-1.095 2.457-.24.308-.541.651-.906 1.03a25.034 25.034 0 0 1-2.635 2.351 19.56 19.56 0 0 1-1.475 1.071v.084a6.47 6.47 0 0 1 .949-.168c.294-.042.555-.063.78-.063.392 0 .723.091.99.273.28.182.421.54.421 1.071 0 .35-.07.728-.21 1.134-.14.406-.338.82-.59 1.24-.24.42-.52.84-.844 1.26a16.52 16.52 0 0 1-1.032 1.175c-.717.728-1.42 1.253-2.108 1.575-.674.308-1.278.462-1.812.462-.323 0-.576-.063-.758-.189a1.394 1.394 0 0 1-.422-.44 2.03 2.03 0 0 1-.168-.568 8.432 8.432 0 0 1-.022-.546c0-.616.106-1.274.317-1.974.224-.714.484-1.449.78-2.205.252-.63.575-1.316.969-2.058.393-.742.835-1.484 1.327-2.226a29.925 29.925 0 0 1 1.56-2.142 17.88 17.88 0 0 1 1.664-1.827 9.319 9.319 0 0 1 1.665-1.28c.548-.323 1.068-.484 1.56-.484.365 0 .64.077.822.231.182.14.273.392.273.756Zm-1.77 1.008c0-.434-.203-.65-.61-.65-.352 0-.717.132-1.097.398-.365.266-.73.616-1.096 1.05-.365.42-.716.896-1.053 1.428a26.944 26.944 0 0 0-.948 1.617 51.126 51.126 0 0 0-.78 1.533c-.225.49-.4.903-.527 1.24a24.41 24.41 0 0 0-.906 2.625c-.113.433-.21.853-.295 1.26-.07.391-.106.741-.106 1.05 0 .363.064.671.19.923.127.252.372.378.738.378.309 0 .625-.091.948-.273.323-.182.682-.483 1.075-.903a6.289 6.289 0 0 0 1.18-1.806c.323-.7.484-1.372.484-2.016 0-.14-.007-.294-.02-.462a1.233 1.233 0 0 0-.148-.504.843.843 0 0 0-.358-.378c-.169-.098-.408-.147-.717-.147a2.87 2.87 0 0 0-.948.147c-.267.084-.435.147-.506.19v-.568c.366-.238.857-.58 1.475-1.029a20.202 20.202 0 0 0 1.813-1.533 12.134 12.134 0 0 0 1.559-1.785c.435-.616.653-1.21.653-1.785Zm7.963 6.237a6.35 6.35 0 0 1-.527 2.5 10.762 10.762 0 0 1-1.349 2.288c-.8 1.036-1.594 1.792-2.38 2.268-.773.462-1.581.693-2.424.693-1.32 0-1.981-.728-1.981-2.184 0-.532.091-1.085.274-1.659a8.66 8.66 0 0 1 .737-1.7 9.575 9.575 0 0 1 1.138-1.576 8.934 8.934 0 0 1 1.412-1.323 6.557 6.557 0 0 1 1.58-.882 4.573 4.573 0 0 1 1.708-.336c.576 0 1.018.175 1.327.525.324.336.485.798.485 1.386Zm-1.728.777c0-.63-.092-1.064-.274-1.302-.182-.252-.499-.378-.948-.378-1.012 0-1.925.672-2.74 2.016-.829 1.33-1.243 2.723-1.243 4.18 0 .461.098.84.295 1.133.197.28.52.42.97.42a2 2 0 0 0 1.074-.315 4.33 4.33 0 0 0 .97-.86c.294-.35.555-.743.78-1.177.238-.448.434-.896.589-1.344a8.55 8.55 0 0 0 .379-1.28c.099-.42.148-.785.148-1.093Zm13.337-8.022c0 .644-.366 1.463-1.096 2.457-.239.308-.541.651-.906 1.03a25.122 25.122 0 0 1-2.634 2.352c-.492.391-.984.748-1.475 1.07v.084c.337-.084.653-.14.948-.168.295-.042.555-.063.78-.063.393 0 .723.091.99.273.281.182.422.54.422 1.071 0 .35-.071.728-.211 1.134a6.611 6.611 0 0 1-.59 1.24c-.239.42-.52.84-.843 1.26a16.29 16.29 0 0 1-1.033 1.175c-.716.728-1.419 1.253-2.107 1.575-.674.308-1.279.462-1.812.462-.324 0-.577-.063-.759-.189a1.385 1.385 0 0 1-.421-.44 1.997 1.997 0 0 1-.169-.568 8.354 8.354 0 0 1-.021-.546c0-.616.105-1.274.316-1.974.225-.714.485-1.449.78-2.205.253-.63.575-1.316.969-2.058.393-.742.836-1.484 1.328-2.226a29.614 29.614 0 0 1 1.559-2.142 17.857 17.857 0 0 1 1.665-1.827 9.323 9.323 0 0 1 1.665-1.28c.548-.323 1.067-.484 1.559-.484.365 0 .639.077.822.231.182.14.274.392.274.756Zm-1.77 1.008c0-.434-.204-.65-.611-.65-.352 0-.717.132-1.096.398a6.297 6.297 0 0 0-1.096 1.05c-.365.42-.716.896-1.054 1.428a27.047 27.047 0 0 0-.948 1.617 53.605 53.605 0 0 0-.78 1.533c-.225.49-.4.903-.526 1.24a21.34 21.34 0 0 0-.485 1.28c-.155.448-.295.896-.422 1.344-.112.434-.21.854-.295 1.26-.07.392-.105.742-.105 1.05 0 .364.063.672.19.924.126.252.372.378.737.378.309 0 .625-.091.949-.273.322-.182.681-.483 1.074-.903a6.278 6.278 0 0 0 1.18-1.806c.323-.7.485-1.372.485-2.016 0-.14-.007-.294-.021-.462a1.224 1.224 0 0 0-.148-.504.838.838 0 0 0-.358-.378c-.168-.098-.407-.147-.716-.147-.352 0-.668.05-.949.147-.267.084-.435.147-.505.19v-.568c.365-.238.856-.58 1.475-1.029a20.227 20.227 0 0 0 1.812-1.533 12.175 12.175 0 0 0 1.56-1.785c.435-.616.653-1.21.653-1.785Zm11.376 4.515c0 .084-.197.56-.59 1.428-.38.868-.892 2.184-1.539 3.948a32.6 32.6 0 0 0-.252.651c-.085.21-.162.413-.232.61a4.46 4.46 0 0 0-.169.524 1.47 1.47 0 0 0-.063.357c0 .14.021.224.063.252.042.028.113.042.211.042.112 0 .267-.056.463-.168.197-.112.394-.238.591-.378a7.26 7.26 0 0 0 .695-.546l.169.441c-.155.14-.386.343-.696.61-.295.251-.618.503-.969.755a8.326 8.326 0 0 1-1.054.672c-.351.182-.66.273-.927.273-.183 0-.302-.049-.358-.147a.556.556 0 0 1-.085-.315c0-.126.042-.336.127-.63.084-.308.197-.658.337-1.05a88.465 88.465 0 0 1 .969-2.562c.169-.434.324-.84.464-1.218.141-.378.26-.686.358-.924.197-.504.401-.987.611-1.449.225-.462.443-.77.654-.924.225-.154.414-.266.569-.336.154-.07.309-.105.463-.105.042 0 .084.007.127.021.042.014.063.07.063.168Zm-4.468 4.137c0 .35-.098.784-.295 1.302-.196.518-.506 1.022-.927 1.512a5.756 5.756 0 0 1-.59.588c-.225.21-.47.42-.738.63a8.534 8.534 0 0 1-.843.546 4.14 4.14 0 0 1-.864.378c-.449.154-.821.245-1.116.273a6.127 6.127 0 0 1-.864.063c-.351 0-.597-.084-.738-.252a.947.947 0 0 1-.211-.588c0-.238.05-.518.148-.84.099-.322.253-.749.463-1.28.099-.253.226-.582.38-.988.168-.406.337-.826.505-1.26l.485-1.28a18.8 18.8 0 0 0 .464-1.345.856.856 0 0 0 .063-.294c0-.126-.056-.189-.169-.189-.112 0-.266.042-.463.126a9.972 9.972 0 0 0-.548.273 8.154 8.154 0 0 0-.674.378l-.127-.399c.169-.112.387-.245.653-.399.282-.154.569-.3.864-.44.295-.155.569-.288.822-.4.268-.126.478-.217.632-.273.295-.112.548-.168.759-.168a.3.3 0 0 1 .169.042c.056.028.084.112.084.252 0 .028-.021.105-.063.231a9.997 9.997 0 0 1-.401 1.008c-.07.196-.133.378-.189.546-.098.238-.204.497-.316.777-.099.266-.218.56-.359.882a8.997 8.997 0 0 1 1.307-.588c.45-.154.878-.23 1.285-.23.534 0 .9.111 1.096.335.211.21.316.567.316 1.071Zm-1.665.525c0-.224-.027-.399-.084-.525a.558.558 0 0 0-.232-.294.557.557 0 0 0-.295-.126 2.886 2.886 0 0 0-.358-.02c-.238 0-.506.055-.801.167a3.512 3.512 0 0 0-.8.378c-.127.322-.267.658-.422 1.008-.14.35-.274.7-.4 1.05-.127.336-.232.651-.316.945-.07.294-.106.539-.106.735 0 .182.042.322.127.42.098.098.274.147.526.147.352 0 .71-.098 1.075-.294.38-.21.724-.483 1.033-.819.309-.35.562-.763.758-1.239.197-.476.295-.987.295-1.533Zm14.412-4.137c0 .28-.091.574-.274.882a5.34 5.34 0 0 1-.674.861c-.267.28-.548.546-.843.798a26.84 26.84 0 0 1-.78.61 11.22 11.22 0 0 1-1.559.965 9.294 9.294 0 0 1-1.749.693 4.134 4.134 0 0 0-.127.61 3.454 3.454 0 0 0-.042.398c0 .728.148 1.253.443 1.575.295.322.737.483 1.327.483.506 0 1.012-.133 1.518-.399.519-.28.983-.56 1.39-.84l.169.315a8.147 8.147 0 0 1-.864.693 9.577 9.577 0 0 1-1.054.672 6.506 6.506 0 0 1-1.159.483 3.78 3.78 0 0 1-1.159.19c-.716 0-1.292-.19-1.728-.568-.421-.392-.632-.987-.632-1.785 0-1.694.688-3.269 2.065-4.725a10.92 10.92 0 0 1 1.012-.924 9.671 9.671 0 0 1 1.18-.86 7.113 7.113 0 0 1 1.285-.61 4.08 4.08 0 0 1 1.328-.23c.618 0 .927.237.927.713Zm-1.77.82c0-.323-.183-.484-.548-.484-.281 0-.583.112-.906.336a5.333 5.333 0 0 0-.948.861c-.295.35-.569.742-.822 1.176a5.8 5.8 0 0 0-.569 1.302 5.49 5.49 0 0 0 1.201-.399c.449-.21.864-.462 1.243-.756.38-.294.696-.616.949-.966.266-.35.4-.707.4-1.07Zm23.431-7.057a5.862 5.862 0 0 1-1.096 1.66 4.756 4.756 0 0 1-1.707 1.175c-.772.322-1.517.518-2.233.588-.703.056-1.433.084-2.192.084-.871 0-1.588.007-2.149.021a8.757 8.757 0 0 0-1.476.147c-.407.07-.772.182-1.095.336a5.872 5.872 0 0 0-1.054.672l-.084-.294c.308-.294.597-.532.864-.714.266-.196.519-.357.758-.483a5.95 5.95 0 0 1 .759-.315c.253-.084.527-.168.822-.252a7.16 7.16 0 0 1 1.327-.252c.45-.056.899-.09 1.349-.105l1.37-.042c.477-.014.955-.056 1.433-.126.899-.112 1.693-.329 2.381-.65.703-.323 1.299-.855 1.791-1.597l.232.147Zm-1.264 6.048c0 .168-.035.385-.106.651a22.4 22.4 0 0 1-.569 1.785c-.112.294-.218.56-.316.798l-.695 1.743-.211.525c-.084.21-.168.427-.253.651a14.6 14.6 0 0 0-.189.61 1.566 1.566 0 0 0-.085.42c0 .195.092.293.274.293a.978.978 0 0 0 .38-.105c.168-.084.393-.23.674-.44l.695-.547.169.441c-.885.798-1.623 1.386-2.213 1.764-.59.364-1.067.546-1.433.546-.295 0-.442-.154-.442-.462 0-.126.028-.294.084-.504.056-.21.119-.434.19-.672l.253-.756c.098-.252.189-.483.273-.693l.738-1.974c.239-.644.422-1.169.548-1.575.126-.42.19-.686.19-.798 0-.182-.077-.273-.232-.273-.253 0-.534.105-.843.315a5.653 5.653 0 0 0-.948.777 14.76 14.76 0 0 0-.949 1.05c-.309.392-.597.784-.864 1.176-.266.378-.498.735-.695 1.071a6.682 6.682 0 0 0-.422.777l-.4.903a8.888 8.888 0 0 0-.126.294.366.366 0 0 1-.106.19l-.379.42c-.239.251-.45.426-.632.524-.169.112-.324.168-.464.168-.169 0-.253-.098-.253-.294 0-.154.077-.42.232-.798.155-.378.337-.812.548-1.302l.527-1.239c.477-1.148.822-2.065 1.032-2.75.211-.7.316-1.12.316-1.26 0-.127-.049-.19-.147-.19-.239 0-.52.105-.843.315-.309.21-.639.483-.99.82a13.97 13.97 0 0 0-1.054 1.133 23.96 23.96 0 0 0-.948 1.218c-.295.392-.548.756-.759 1.092a6.422 6.422 0 0 0-.443.798l-.358.861a8.888 8.888 0 0 0-.126.294.366.366 0 0 1-.106.19l-.379.42c-.239.251-.45.426-.632.524-.169.112-.324.168-.464.168-.168 0-.253-.091-.253-.273 0-.098.056-.287.169-.567.113-.28.239-.58.379-.903l1.075-2.583c.351-.84.632-1.603.843-2.289.211-.686.316-1.176.316-1.47 0-.154-.049-.23-.148-.23-.098 0-.273.048-.526.146-.239.098-.625.308-1.159.63l-.127-.399c.197-.126.457-.28.78-.462.337-.196.681-.385 1.032-.567.366-.182.724-.336 1.075-.462s.646-.189.885-.189c.169 0 .253.098.253.294 0 .07-.049.26-.147.567-.085.294-.225.7-.422 1.218l-.948 2.394.147.042a31.719 31.719 0 0 1 1.539-1.743 19.81 19.81 0 0 1 1.538-1.428c.492-.42.956-.749 1.391-.987.435-.238.815-.357 1.138-.357.169 0 .281.05.337.147a.756.756 0 0 1 .084.378c0 .392-.218 1.17-.653 2.331l-.548 1.491c.632-.672 1.244-1.309 1.834-1.91.59-.617 1.229-1.19 1.917-1.723.604-.476 1.18-.714 1.728-.714.281 0 .422.175.422.525Zm8.723.19c0 .28-.092.573-.274.881a5.396 5.396 0 0 1-.674.861c-.267.28-.548.546-.843.798a26.84 26.84 0 0 1-.78.61 11.19 11.19 0 0 1-1.559.965 9.304 9.304 0 0 1-1.75.693 4.266 4.266 0 0 0-.126.61 3.454 3.454 0 0 0-.042.398c0 .728.147 1.253.442 1.575.295.322.738.483 1.328.483.506 0 1.012-.133 1.517-.399.52-.28.983-.56 1.391-.84l.169.315a8.147 8.147 0 0 1-.864.693 9.77 9.77 0 0 1-1.054.672 6.476 6.476 0 0 1-1.159.483c-.393.126-.78.19-1.159.19-.717 0-1.293-.19-1.728-.568-.422-.392-.632-.987-.632-1.785 0-1.694.688-3.269 2.065-4.725.295-.308.632-.616 1.011-.924.38-.322.773-.609 1.181-.86.421-.253.85-.456 1.285-.61a4.08 4.08 0 0 1 1.328-.23c.618 0 .927.237.927.713Zm-1.77.818c0-.322-.183-.483-.548-.483-.281 0-.583.112-.906.336-.324.224-.64.511-.949.861-.295.35-.569.742-.821 1.176a5.8 5.8 0 0 0-.569 1.302 5.49 5.49 0 0 0 1.201-.399c.449-.21.864-.462 1.243-.756.379-.294.695-.616.948-.966.267-.35.401-.707.401-1.07Zm11.023-1.47c0 .21-.148.518-.443.924-.28.392-.632.833-1.053 1.323-.407.476-.85.966-1.328 1.47a65.4 65.4 0 0 0-1.243 1.386l.168.945c.057.28.106.532.148.756.042.224.084.413.126.567.085.28.162.483.232.61.127.195.295.293.506.293.309 0 .689-.175 1.138-.525a8.65 8.65 0 0 0 1.096-1.008l.147.441c-1.362 1.61-2.543 2.415-3.54 2.415-.38 0-.667-.413-.864-1.239a35.487 35.487 0 0 1-.443-2.247 18.14 18.14 0 0 1-.548.61c-.182.21-.386.426-.611.65-.786.798-1.391 1.372-1.812 1.722-.422.336-.794.504-1.117.504a.442.442 0 0 1-.358-.189c-.085-.126-.127-.336-.127-.63 0-.182.029-.413.085-.693.393 0 .997-.224 1.812-.672a10.317 10.317 0 0 0 2.529-1.953l-.401-2.75c-.084-.589-.189-.96-.316-1.114-.126-.168-.337-.252-.632-.252a2.67 2.67 0 0 0-1.033.231c-.351.14-.688.287-1.011.441l-.084-.399c.168-.112.421-.259.758-.44.352-.197.717-.386 1.096-.568.379-.182.738-.336 1.075-.462.351-.14.618-.21.801-.21.225 0 .372.133.442.4.084.265.169.727.253 1.385l.358 2.73a19.23 19.23 0 0 0 1.686-2.016c.534-.714.998-1.526 1.391-2.436.099-.042.218-.09.358-.147a1.38 1.38 0 0 1 .569-.105c.071 0 .12.014.148.042.028.028.042.098.042.21Zm10.14.126-.211.42a8.07 8.07 0 0 1-.232.504 6.85 6.85 0 0 1-.211.462l-.126.315c-.14.364-.33.847-.569 1.45-.238.587-.52 1.308-.843 2.162-.196.49-.372.938-.527 1.344-.14.392-.21.68-.21.861 0 .14.021.224.063.252.042.028.112.042.21.042.113 0 .268-.056.464-.168a6.79 6.79 0 0 0 .59-.378 7.36 7.36 0 0 0 .696-.546l.168.441c-.154.14-.386.343-.695.61-.295.251-.618.503-.97.755a8.387 8.387 0 0 1-1.053.672c-.351.182-.66.273-.928.273-.182 0-.301-.049-.358-.147a.556.556 0 0 1-.084-.315c0-.126.021-.294.063-.504.057-.21.12-.434.19-.672.084-.238.168-.483.253-.735.098-.252.189-.49.274-.714l.758-2.016c-.322.112-.59.19-.8.231-.211.042-.457.084-.738.126-.407.07-.765.112-1.075.126-.309.014-.604.035-.885.063l-1.138 2.982c-.07.224-.147.385-.232.483-.069.07-.217.203-.442.4a4.625 4.625 0 0 1-.653.482c-.183.112-.344.168-.485.168-.127 0-.204-.028-.232-.084a.545.545 0 0 1-.021-.168c0-.07.049-.238.147-.504.113-.266.268-.616.464-1.05l.527-1.239c.141-.322.26-.616.358-.882.113-.28.183-.44.211-.483-.154.028-.316.056-.485.084a6.574 6.574 0 0 0-.484.063l.084-.336c.407-.182.78-.322 1.117-.42.084-.224.183-.49.295-.798.112-.308.218-.609.316-.903.099-.308.176-.58.232-.819.07-.238.105-.413.105-.525 0-.154-.063-.23-.19-.23-.112 0-.259.041-.442.125a4.77 4.77 0 0 0-.548.252c-.211.112-.435.238-.674.378l-.127-.399c.225-.14.513-.308.864-.504.352-.196.71-.378 1.075-.546.365-.182.71-.329 1.032-.44.338-.127.605-.19.801-.19.071 0 .127.021.169.063.056.028.084.105.084.231a1 1 0 0 1-.063.273c-.028.126-.07.273-.127.441-.056.168-.119.35-.189.546-.07.182-.133.357-.19.525l-.822 2.142c.337-.056.668-.098.991-.126l.99-.084a21.143 21.143 0 0 0 1.454-.168l.59-1.617a9.84 9.84 0 0 1 .443-1.07c.155-.28.337-.498.548-.652.225-.154.45-.273.674-.357.225-.098.415-.147.569-.147.042 0 .084.014.127.042.042.014.063.063.063.147Zm9.188 1.722a6.35 6.35 0 0 1-.527 2.5 10.762 10.762 0 0 1-1.349 2.288c-.801 1.036-1.594 1.792-2.381 2.268-.773.462-1.581.693-2.424.693-1.32 0-1.98-.728-1.98-2.184 0-.532.091-1.085.274-1.659a8.682 8.682 0 0 1 .737-1.7 9.575 9.575 0 0 1 1.138-1.576 8.951 8.951 0 0 1 1.412-1.323 6.577 6.577 0 0 1 1.58-.882 4.583 4.583 0 0 1 1.707-.336c.577 0 1.019.175 1.328.525.323.336.485.798.485 1.386Zm-1.728.777c0-.63-.091-1.064-.274-1.302-.183-.252-.499-.378-.949-.378-1.011 0-1.924.672-2.739 2.016-.829 1.33-1.243 2.723-1.243 4.18 0 .461.098.84.295 1.133.196.28.52.42.969.42a2 2 0 0 0 1.075-.315c.351-.224.674-.511.969-.86.295-.35.555-.743.78-1.177.239-.448.436-.896.59-1.344a8.67 8.67 0 0 0 .379-1.28c.099-.42.148-.785.148-1.093Zm10.913-2.415c0 .14-.119.441-.358.903-.239.448-.485.966-.738 1.554-.126.294-.302.686-.526 1.176-.211.476-.422.966-.633 1.47-.196.504-.372.966-.526 1.386-.155.42-.232.714-.232.882 0 .196.098.294.295.294.14 0 .281-.028.421-.084.141-.07.274-.14.401-.21a3.83 3.83 0 0 0 .421-.294l.169.441c-.155.14-.366.315-.633.525-.252.21-.534.42-.842.63a5.875 5.875 0 0 1-.928.504c-.309.14-.597.21-.864.21-.323 0-.484-.175-.484-.525 0-.168.042-.406.126-.714.098-.308.218-.65.358-1.029.141-.378.295-.777.464-1.197.182-.42.358-.819.527-1.197.168-.392.323-.742.463-1.05.141-.308.253-.553.338-.735.239-.532.414-.93.526-1.197.113-.28.169-.476.169-.588 0-.084-.056-.126-.169-.126-.351 0-.835.245-1.454.735-.604.49-1.278 1.176-2.023 2.058a13.924 13.924 0 0 0-1.412 1.995c-.393.7-.59 1.442-.59 2.226 0 .154.008.26.021.315a3.242 3.242 0 0 1-.695.756c-.267.21-.506.315-.716.315a.621.621 0 0 1-.422-.147c-.098-.084-.147-.259-.147-.525 0-.49.344-1.26 1.032-2.31a21.595 21.595 0 0 1 1.791-2.31 26.993 26.993 0 0 1 2.255-2.31c.183-.168.393-.336.632-.504.253-.182.506-.35.759-.504.253-.154.492-.294.717-.42.224-.126.421-.224.59-.294.239-.112.526-.203.864-.273.337-.07.59-.105.758-.105.056 0 .119.014.19.042.07.014.105.091.105.231Zm8.76 1.638a6.35 6.35 0 0 1-.527 2.5 10.8 10.8 0 0 1-1.348 2.288c-.801 1.036-1.595 1.792-2.382 2.268-.772.462-1.58.693-2.423.693-1.321 0-1.981-.728-1.981-2.184 0-.532.092-1.085.274-1.659a8.682 8.682 0 0 1 .737-1.7 9.634 9.634 0 0 1 1.138-1.576 8.995 8.995 0 0 1 1.412-1.323 6.564 6.564 0 0 1 1.581-.882 4.576 4.576 0 0 1 1.707-.336c.576 0 1.019.175 1.327.525.324.336.485.798.485 1.386Zm-1.728.777c0-.63-.091-1.064-.274-1.302-.182-.252-.498-.378-.948-.378-1.012 0-1.925.672-2.74 2.016-.829 1.33-1.243 2.723-1.243 4.18 0 .461.098.84.295 1.133.197.28.52.42.969.42.38 0 .738-.105 1.075-.315.351-.224.674-.511.969-.86.296-.35.556-.743.78-1.177.239-.448.436-.896.59-1.344.169-.448.295-.875.38-1.28.098-.42.147-.785.147-1.093Zm7.774-2.037c0 .462-.19 1.001-.569 1.617-.38.602-.949 1.4-1.707 2.394-.352.462-.64.854-.864 1.176a7.033 7.033 0 0 0-.485.798 2.74 2.74 0 0 0-.232.546 1.61 1.61 0 0 0-.063.42c0 .224.063.378.19.462.14.07.267.105.379.105.183 0 .365-.035.548-.105.182-.07.365-.16.548-.273.182-.112.351-.23.506-.357.168-.14.322-.273.463-.399l.211.273-.885.882a6.867 6.867 0 0 1-.927.777c-.31.224-.626.406-.949.546-.323.14-.66.21-1.011.21-.337 0-.576-.077-.717-.23-.126-.14-.189-.33-.189-.568 0-.196.049-.406.147-.63.098-.238.253-.518.464-.84.211-.322.485-.707.822-1.155.337-.448.744-.98 1.222-1.596.295-.392.527-.735.695-1.029.183-.294.316-.553.401-.777.098-.238.154-.44.168-.609.028-.182.042-.357.042-.525 0-.196-.056-.329-.168-.399a.743.743 0 0 0-.4-.105c-.141 0-.303.042-.485.126-.183.07-.373.168-.569.294a5.976 5.976 0 0 0-.569.4 17.74 17.74 0 0 0-.527.461l-.211-.273c.267-.238.555-.49.864-.756.323-.266.654-.51.991-.735a5.97 5.97 0 0 1 1.074-.546 2.96 2.96 0 0 1 1.117-.23.85.85 0 0 1 .443.125c.154.07.232.245.232.525Zm10.698-.462c0 .028-.084.231-.253.61-.168.377-.358.846-.569 1.406l-1.306 3.36c-.056.154-.127.336-.211.546a15.3 15.3 0 0 0-.421 1.176 1.566 1.566 0 0 0-.085.42c0 .196.092.294.274.294.099 0 .282-.077.548-.23.282-.155.682-.442 1.201-.862l.169.441c-.885.798-1.623 1.386-2.213 1.764-.59.364-1.067.546-1.433.546-.295 0-.442-.154-.442-.462 0-.168.021-.357.063-.567.057-.21.12-.427.19-.65l.253-.715c.098-.252.189-.483.274-.693l.632-1.575c.168-.434.309-.784.421-1.05.113-.28.204-.504.274-.672.071-.182.134-.336.19-.462h-.19l-.569.693c-.407.49-.849 1.015-1.327 1.575s-.955 1.106-1.433 1.638a37.592 37.592 0 0 1-1.412 1.491c-.464.448-.885.82-1.265 1.113a1.202 1.202 0 0 1-.379.21 1.251 1.251 0 0 1-.421.084.45.45 0 0 1-.359-.147.508.508 0 0 1-.105-.336c0-.112.021-.273.063-.483a6.14 6.14 0 0 1 .253-.756c.253-.672.52-1.358.801-2.058.281-.7.534-1.344.758-1.932.239-.602.429-1.12.569-1.554.155-.434.232-.72.232-.86 0-.127-.056-.19-.168-.19-.183 0-.513.126-.991.378l-.695.4-.127-.4c.226-.154.499-.329.822-.525a17.89 17.89 0 0 1 1.012-.546 9.748 9.748 0 0 1 1.011-.42c.324-.126.605-.189.843-.189.169 0 .253.098.253.294 0 .112-.077.378-.232.798-.14.42-.309.89-.506 1.407a26.692 26.692 0 0 1-.59 1.491c-.196.49-.343.861-.442 1.113-.449 1.134-.674 1.757-.674 1.87 0 .181.056.272.168.272.113 0 .295-.112.548-.336.267-.224.562-.511.885-.86.323-.35.661-.736 1.012-1.156.351-.434.688-.847 1.011-1.239.323-.406.611-.77.864-1.092.253-.336.436-.58.548-.735l.59-.756c.099-.112.197-.21.295-.294.099-.098.197-.182.295-.252.478-.35.914-.525 1.307-.525.126 0 .189.063.189.19Zm10.476 0c0 .028-.085.231-.253.61a25.2 25.2 0 0 0-.569 1.406l-1.307 3.36c-.056.154-.126.336-.211.546a7.866 7.866 0 0 0-.231.61 12.35 12.35 0 0 0-.19.566 1.556 1.556 0 0 0-.084.42c0 .196.091.294.274.294.098 0 .281-.077.548-.23.281-.155.681-.442 1.201-.862l.168.441c-.885.798-1.622 1.386-2.212 1.764-.59.364-1.068.546-1.433.546-.295 0-.443-.154-.443-.462 0-.168.021-.357.063-.567.056-.21.12-.427.19-.65l.253-.715c.098-.252.19-.483.274-.693l.632-1.575c.169-.434.309-.784.421-1.05.113-.28.204-.504.274-.672.071-.182.134-.336.19-.462h-.19l-.569.693c-.407.49-.85 1.015-1.327 1.575a89.95 89.95 0 0 1-1.433 1.638 36.877 36.877 0 0 1-1.412 1.491 15.8 15.8 0 0 1-1.264 1.113 1.219 1.219 0 0 1-.38.21 1.256 1.256 0 0 1-.421.084.45.45 0 0 1-.359-.147.508.508 0 0 1-.105-.336c0-.112.021-.273.063-.483.056-.224.141-.476.253-.756.253-.672.52-1.358.801-2.058.281-.7.534-1.344.759-1.932.239-.602.428-1.12.569-1.554.154-.434.231-.72.231-.86 0-.127-.056-.19-.168-.19-.183 0-.513.126-.991.378l-.695.4-.126-.4c.224-.154.498-.329.821-.525a18.24 18.24 0 0 1 1.012-.546 9.748 9.748 0 0 1 1.011-.42c.324-.126.604-.189.843-.189.169 0 .253.098.253.294 0 .112-.077.378-.232.798-.14.42-.308.89-.505 1.407-.183.504-.38 1.001-.59 1.491-.197.49-.345.861-.443 1.113-.45 1.134-.674 1.757-.674 1.87 0 .181.056.272.168.272.113 0 .295-.112.548-.336.267-.224.562-.511.885-.86.324-.35.661-.736 1.012-1.156.351-.434.688-.847 1.011-1.239.324-.406.612-.77.864-1.092.253-.336.436-.58.548-.735l.59-.756c.098-.112.197-.21.295-.294.098-.098.197-.182.295-.252.478-.35.914-.525 1.307-.525.126 0 .19.063.19.19Z" fill="#B89D58"/></svg>