<svg width="270" height="130" viewBox="0 0 270 130" fill="none" xmlns="http://www.w3.org/2000/svg"><rect width="270" height="130" rx="10" fill="#fff"/><path d="M132.505 85.328V76.52h6.575v8.808h-1.86v-7.37h-2.848v7.37h-1.867Zm19.847 0h-1.77a7.375 7.375 0 0 1-.281-1.777 2.765 2.765 0 0 1-2.787 1.96 2.619 2.619 0 0 1-1.977-.77 2.703 2.703 0 0 1-.745-1.94c0-2.022 1.659-3.034 4.976-3.036h.533v-.66c0-.914-.586-1.37-1.745-1.37-1.16 0-1.77.456-1.92 1.37l-1.583-.253a2.587 2.587 0 0 1 1.058-1.81 4.35 4.35 0 0 1 2.685-.713 6.09 6.09 0 0 1 1.558.17c.381.105.731.303 1.017.576.259.244.457.545.578.88.132.533.186 1.082.159 1.63v3.974a6.61 6.61 0 0 0 .244 1.769Zm-2.034-4.483c-2.403 0-3.605.615-3.605 1.846-.006.347.124.682.362.934a1.425 1.425 0 0 0 1.098.387 1.871 1.871 0 0 0 1.6-.718 2.663 2.663 0 0 0 .545-1.63v-.82Zm9.907 7.471h-1.892V76.52h1.774v1.537c.575-1.133 1.414-1.7 2.518-1.7a2.474 2.474 0 0 1 2.181 1.276c.581.985.863 2.118.814 3.26a6.579 6.579 0 0 1-.777 3.261 2.51 2.51 0 0 1-2.319 1.382 2.395 2.395 0 0 1-2.303-1.41l.004 4.19Zm0-6.587a2.38 2.38 0 0 0 .528 1.594 1.57 1.57 0 0 0 1.189.636 1.375 1.375 0 0 0 1.285-.852 4.813 4.813 0 0 0 .432-2.128 4.904 4.904 0 0 0-.432-2.185 1.31 1.31 0 0 0-1.22-.852 1.544 1.544 0 0 0-1.261.69 2.945 2.945 0 0 0-.517 1.805l-.004 1.292Zm12.161 3.599v-7.263h-2.279V76.52h6.401v1.545h-2.246v7.263h-1.876Zm9.142 0V76.52h1.86v3.407h3.218V76.52h1.855v8.808h-1.855V81.46h-3.218v3.868h-1.86Zm18.399-2.804 1.677.24a3.748 3.748 0 0 1-1.286 1.973 3.607 3.607 0 0 1-2.368.775 3.456 3.456 0 0 1-2.754-1.223 4.99 4.99 0 0 1-1.042-3.335 5.088 5.088 0 0 1 1.046-3.3 3.48 3.48 0 0 1 2.848-1.313 3.202 3.202 0 0 1 2.722 1.28 5.415 5.415 0 0 1 .956 3.313v.229h-5.619c-.013.484.041.968.158 1.439.112.37.334.696.635.937.33.277.75.421 1.18.407.92.008 1.53-.468 1.847-1.422Zm-.113-2.637a2.307 2.307 0 0 0-.534-1.553 1.726 1.726 0 0 0-2.575-.037 2.622 2.622 0 0 0-.606 1.59h3.715Zm9.524 8.429h-1.888V76.52h1.775v1.537c.572-1.133 1.411-1.7 2.518-1.7a2.473 2.473 0 0 1 2.181 1.276c.58.985.863 2.118.813 3.26a6.589 6.589 0 0 1-.776 3.261 2.513 2.513 0 0 1-2.32 1.382 2.405 2.405 0 0 1-2.307-1.41l.004 4.19Zm0-6.587c-.02.579.17 1.144.533 1.594a1.539 1.539 0 0 0 1.188.636 1.363 1.363 0 0 0 1.29-.852c.309-.666.46-1.394.439-2.128a4.846 4.846 0 0 0-.427-2.185 1.31 1.31 0 0 0-1.22-.852 1.527 1.527 0 0 0-1.258.69 2.94 2.94 0 0 0-.52 1.805l-.025 1.292Zm-62.463-23.64 3.922.473a10.291 10.291 0 0 1-2.725 6.276c-1.566 1.647-3.622 2.462-6.169 2.446-2.148 0-3.889-.583-5.224-1.749a11.21 11.21 0 0 1-3.088-4.744 19.222 19.222 0 0 1-1.087-6.607c0-3.867.849-7.015 2.547-9.444a8.105 8.105 0 0 1 7.007-3.636 7.872 7.872 0 0 1 5.814 2.324c1.551 1.554 2.527 3.775 2.925 6.664l-3.922.46c-.724-3.831-2.319-5.747-4.785-5.747-1.584 0-2.814.797-3.69 2.389-.876 1.592-1.315 3.902-1.318 6.929 0 3.079.47 5.402 1.411 6.97.941 1.567 2.187 2.354 3.736 2.36a3.96 3.96 0 0 0 3.165-1.582 6.576 6.576 0 0 0 1.481-3.782Zm7.296 8.812V41.512h16.807v25.389h-4.231V45.234h-8.345V66.9h-4.231Zm37.232 0h-15.261V41.512h15.107V45.3h-10.872v6.888h8.74v3.668h-8.74v7.113h11.026V66.9Zm3.89 0V41.512h4.235v21.456h8.378V41.512h4.215v21.456h2.958v9.285h-2.942l-.512-5.352h-16.332Zm-78.662 33.369L85.632 68.98a4.54 4.54 0 0 1-.195-6.049L115 28.693a13.268 13.268 0 0 1 5.428 2.52 15.402 15.402 0 0 1 5.871 12.268v42.454a15.578 15.578 0 0 1-4.293 10.834 13.688 13.688 0 0 1-5.375 3.501Z" fill="#403F3F"/><path d="M112.372 101H68.837c-7.65 0-13.915-6.778-13.915-15.081V43.48c0-8.303 6.266-15.081 13.927-15.081H111.2L82.08 62.14a5.517 5.517 0 0 0 .245 7.337l31.15 31.474a9.917 9.917 0 0 1-1.103.049Z" fill="#403F3F"/><path d="M116.633 100.271A269188.765 269188.765 0 0 0 86.455 69.93a5.597 5.597 0 0 1-2.128-4.394 5.535 5.535 0 0 1 1.924-4.08l28.746-32.779c1.98.42 3.837 1.287 5.432 2.535a15.401 15.401 0 0 1 5.871 12.269v42.454a15.578 15.578 0 0 1-4.293 10.834 13.704 13.704 0 0 1-5.374 3.502Z" fill="#E6B34E"/><path d="M122.007 96.77 93.269 68.086a3.602 3.602 0 0 1-.187-4.805l27.346-32.07a15.432 15.432 0 0 1 5.871 12.268v42.455a15.573 15.573 0 0 1-4.292 10.834Z" fill="#403F3F"/></svg>