<svg width="270" height="130" viewBox="0 0 270 130" fill="none" xmlns="http://www.w3.org/2000/svg"><rect width="270" height="130" rx="10" fill="#fff"/><path d="M203.771 93.794h-5.458a38.219 38.219 0 0 0 9.58-12.984 38.513 38.513 0 0 0 0-31.626 38.224 38.224 0 0 0-9.58-12.984h5.458l37.822 28.801-37.822 28.793Z" fill="url(#a)"/><path d="M37.592 50.995c1.105 0 1.976-.245 2.612-.736a3.458 3.458 0 0 0 1.257-1.713l4.149.257a7.597 7.597 0 0 1-2.72 4.064 8.535 8.535 0 0 1-2.367 1.266 8.72 8.72 0 0 1-2.931.472 8.794 8.794 0 0 1-3.333-.633 8.381 8.381 0 0 1-4.573-4.369 7.776 7.776 0 0 1-.678-3.249 7.803 7.803 0 0 1 .678-3.236 8.374 8.374 0 0 1 1.834-2.629 8.46 8.46 0 0 1 2.722-1.757 8.831 8.831 0 0 1 3.35-.633 8.314 8.314 0 0 1 2.861.477c.836.297 1.62.724 2.324 1.266a7.676 7.676 0 0 1 2.686 4.063l-4.149.257a3.83 3.83 0 0 0-.469-.928 3.22 3.22 0 0 0-.775-.772 4.146 4.146 0 0 0-1.092-.542 4.438 4.438 0 0 0-1.397-.211 4.517 4.517 0 0 0-4.204 2.789 4.965 4.965 0 0 0 0 3.713 4.51 4.51 0 0 0 .977 1.463 4.46 4.46 0 0 0 1.458.973c.564.236 1.17.354 1.78.348Zm8.424-8.379h11.2v3.352h-3.735v8.506h-3.733v-8.506h-3.732v-3.352Zm19.772-.129a5.887 5.887 0 0 1 4.162 1.715 6.12 6.12 0 0 1 1.3 1.92c.328.765.493 1.59.484 2.424a6.007 6.007 0 0 1-.484 2.422 6.154 6.154 0 0 1-1.3 1.92 5.887 5.887 0 0 1-4.162 1.715 5.195 5.195 0 0 1-1.313-.156 5.251 5.251 0 0 1-1.009-.361 4.39 4.39 0 0 1-.858-.515v5.027h-3.733V42.616h2.766l.552 1.16c.296-.25.62-.462.968-.633a7.71 7.71 0 0 1 1.134-.439c.484-.147.987-.22 1.493-.217ZM68 48.546a2.808 2.808 0 0 0-.771-2.042 2.767 2.767 0 0 0-1.995-.856 2.748 2.748 0 0 0-1.995.856 2.791 2.791 0 0 0-.77 2.042 2.807 2.807 0 0 0 .77 2.042 2.768 2.768 0 0 0 1.995.855 2.75 2.75 0 0 0 1.995-.855 2.793 2.793 0 0 0 .77-2.042Zm5.39 0a5.794 5.794 0 0 1 .514-2.43 6.248 6.248 0 0 1 1.396-1.96 6.594 6.594 0 0 1 2.069-1.32 6.958 6.958 0 0 1 5.062 0c.76.305 1.457.75 2.055 1.313a6.245 6.245 0 0 1 1.393 1.967 6.068 6.068 0 0 1 0 4.873 6.22 6.22 0 0 1-1.393 1.951 6.557 6.557 0 0 1-2.06 1.317 6.957 6.957 0 0 1-5.062 0 6.557 6.557 0 0 1-2.06-1.317 6.218 6.218 0 0 1-1.396-1.957 5.806 5.806 0 0 1-.517-2.437Zm9.265 0c0-.911-.267-1.634-.802-2.167a2.82 2.82 0 0 0-3.928 0c-.533.535-.8 1.257-.801 2.167-.002.91.266 1.631.801 2.165a2.815 2.815 0 0 0 3.928 0c.536-.532.804-1.254.804-2.165h-.002Zm5.948 5.928V42.616h3.734v6.573l4.84-6.573h3.456v11.858H96.9V47.9l-4.84 6.574h-3.457Zm13.69-11.858h11.198v3.352h-3.733v8.506h-3.732v-8.506h-3.733v-3.352Zm24.335 8.379c-.176.5-.428.97-.747 1.393a5.441 5.441 0 0 1-1.244 1.198 6.196 6.196 0 0 1-1.729.844 7.389 7.389 0 0 1-2.226.31 6.336 6.336 0 0 1-2.447-.477 6.474 6.474 0 0 1-2.02-1.316 6.318 6.318 0 0 1-1.382-1.958 6.065 6.065 0 0 1 .01-4.873 6.246 6.246 0 0 1 1.397-1.96 6.593 6.593 0 0 1 2.06-1.314 6.958 6.958 0 0 1 4.963-.038 5.878 5.878 0 0 1 1.979 1.248 5.856 5.856 0 0 1 1.325 1.954c.329.802.494 1.664.484 2.532 0 .133-.01.266-.027.398-.019.13-.037.254-.057.374-.019.139-.036.268-.054.388h-8.72c.177.49.489.919.898 1.236a2.597 2.597 0 0 0 1.729.568 3.06 3.06 0 0 0 .898-.116c.211-.06.412-.15.595-.27.174-.094.325-.226.442-.386l3.873.265Zm-5.808-5.413a2.57 2.57 0 0 0-1.729.578c-.428.35-.74.822-.898 1.355h5.255a2.794 2.794 0 0 0-.9-1.355 2.564 2.564 0 0 0-1.728-.578Zm19.499-2.966v11.858h-3.736v-8.506h-2.897l-.419 4.641c-.112 1.29-.554 2.279-1.327 2.966-.773.688-1.852 1.031-3.236 1.03-.185 0-.342 0-.472-.015a2.888 2.888 0 0 1-.33-.038 1.423 1.423 0 0 1-.306-.078V51.51h.419c.558 0 .954-.116 1.189-.348.234-.232.391-.675.469-1.327l.691-7.22h9.955Zm9.124 3.609a5.003 5.003 0 0 1 1.828.323 4.55 4.55 0 0 1 1.436.876c.402.364.727.807.955 1.301a4.001 4.001 0 0 1 0 3.25 4.04 4.04 0 0 1-.955 1.3 4.54 4.54 0 0 1-1.436.878 5.003 5.003 0 0 1-1.826.321h-6.362V42.616h3.733v3.61h2.627Zm-.685 5.414c.403.024.801-.1 1.118-.348a1.295 1.295 0 0 0 .298-1.453 1.296 1.296 0 0 0-.298-.43 1.647 1.647 0 0 0-1.118-.339h-1.936v2.57h1.936Zm19.076-9.023v11.858h-3.733v-4.253h-4.426v4.253h-3.733V42.616h3.733v4.253h4.426v-4.253h3.733Zm8.296-.258a5.98 5.98 0 0 1 2.094.361 4.97 4.97 0 0 1 1.675 1.02A4.58 4.58 0 0 1 181 45.297c.261.62.393 1.287.387 1.96v7.217h-2.767l-.551-1.158a6.214 6.214 0 0 1-1.047.643 6.26 6.26 0 0 1-1.177.452c-.49.134-.998.2-1.507.194-1.382 0-2.441-.314-3.18-.941a3.015 3.015 0 0 1-1.105-2.411 3.492 3.492 0 0 1 .372-1.612 3.187 3.187 0 0 1 1.257-1.266 7.538 7.538 0 0 1 2.336-.825 18.767 18.767 0 0 1 3.632-.293 1.813 1.813 0 0 0-.469-1.342 1.624 1.624 0 0 0-1.189-.464 1.607 1.607 0 0 0-.837.194 2.47 2.47 0 0 0-.513.399 1.48 1.48 0 0 0-.304.568l-3.733-.258c.104-.566.301-1.11.58-1.612a4.226 4.226 0 0 1 1.093-1.265 5.076 5.076 0 0 1 1.646-.827 7.598 7.598 0 0 1 2.206-.292Zm-.837 9.669a2.393 2.393 0 0 0 1.702-.608 2.056 2.056 0 0 0 .649-1.584v-.517c-.652-.008-1.303.03-1.949.116-.408.051-.807.16-1.185.323-.24.097-.443.269-.58.49-.103.19-.155.403-.153.62a1.046 1.046 0 0 0 .402.825c.323.24.72.357 1.12.33l-.006.005Zm14.11-1.161-2.351 3.608h-4.009l2.903-4.253a4.838 4.838 0 0 1-1.105-.772 4.32 4.32 0 0 1-.762-1.072 3.484 3.484 0 0 1-.345-1.629 3.827 3.827 0 0 1 .345-1.622c.228-.495.552-.939.954-1.304a4.6 4.6 0 0 1 1.439-.875 4.985 4.985 0 0 1 1.825-.323h6.361v11.85h-3.733v-3.608h-1.522Zm1.798-2.837V45.45h-2.212c-.403-.024-.801.1-1.121.348a1.305 1.305 0 0 0 0 1.882c.32.248.718.371 1.121.348h2.212ZM65.227 74.26h11.2v3.353h-3.724v8.506H68.97v-8.506h-3.743v-3.352Zm24.344 8.38c-.175.5-.427.97-.745 1.392a5.531 5.531 0 0 1-1.256 1.199c-.53.37-1.111.654-1.727.844a7.387 7.387 0 0 1-2.228.31 6.422 6.422 0 0 1-4.466-1.793 6.303 6.303 0 0 1-1.381-1.959 6.041 6.041 0 0 1 0-4.873 6.216 6.216 0 0 1 1.396-1.96 6.546 6.546 0 0 1 2.06-1.314 6.96 6.96 0 0 1 4.964-.038 5.855 5.855 0 0 1 1.976 1.249 5.83 5.83 0 0 1 1.328 1.96c.33.802.495 1.663.485 2.532 0 .133-.01.267-.029.399-.019.128-.035.253-.055.373-.018.12-.037.268-.054.388h-8.7c.176.49.488.918.898 1.236.49.392 1.102.593 1.726.568a3.08 3.08 0 0 0 .901-.116c.21-.06.41-.15.594-.27.174-.094.325-.227.443-.387l3.87.26Zm-5.808-5.415a2.566 2.566 0 0 0-1.726.58c-.428.35-.74.822-.899 1.354h5.253a2.77 2.77 0 0 0-.898-1.354 2.568 2.568 0 0 0-1.73-.58Zm19.357-2.965-3.871 5.802 4.147 6.057h-4.145L96.9 82.511l-2.351 3.608H90.4l4.148-6.057-3.871-5.801h4.147l2.075 3.352 2.075-3.352h4.145Zm13.416 0v11.86h-3.735v-4.254h-4.424v4.253h-3.732V74.261h3.732v4.253h4.424V74.26h3.735Zm2.765 11.86V74.26h3.733v6.575l4.84-6.574h3.456v11.858h-3.735v-6.573l-4.838 6.573h-3.456Zm22.399 0-3.872-5.286v5.285h-3.724V74.26h3.735v4.766l3.457-4.77h4.285l-4.296 5.677 4.702 6.186H141.7Zm11.062-12.117a5.979 5.979 0 0 1 2.093.361 4.97 4.97 0 0 1 1.675 1.019 4.59 4.59 0 0 1 1.093 1.56 4.93 4.93 0 0 1 .387 1.959v7.217h-2.761l-.555-1.16c-.327.25-.677.466-1.047.645-.377.189-.77.34-1.176.452-.491.134-.999.2-1.508.194-1.382 0-2.441-.314-3.18-.943a3.021 3.021 0 0 1-1.105-2.409 3.495 3.495 0 0 1 .372-1.612 3.19 3.19 0 0 1 1.257-1.266 7.534 7.534 0 0 1 2.336-.823 18.79 18.79 0 0 1 3.637-.295 1.814 1.814 0 0 0-.469-1.342 1.644 1.644 0 0 0-1.19-.464 1.606 1.606 0 0 0-.837.194 2.5 2.5 0 0 0-.513.399 1.463 1.463 0 0 0-.304.567L147.234 78c.105-.566.3-1.11.58-1.612.278-.49.649-.92 1.094-1.266a5.11 5.11 0 0 1 1.645-.825 7.602 7.602 0 0 1 2.209-.293Zm-.838 9.667a2.39 2.39 0 0 0 1.702-.606 2.074 2.074 0 0 0 .649-1.584v-.517c-.651-.008-1.303.03-1.949.116a4.36 4.36 0 0 0-1.189.323c-.24.097-.443.269-.58.49-.103.19-.156.403-.153.62a1.047 1.047 0 0 0 .402.824 1.69 1.69 0 0 0 1.124.332l-.006.002Z" fill="#000"/><defs><radialGradient id="a" cx="0" cy="0" r="1" gradientUnits="userSpaceOnUse" gradientTransform="matrix(39.4528 0 0 34.5881 214.074 64.949)"><stop stop-color="#FFCD01"/><stop offset=".75" stop-color="#FF8900"/></radialGradient></defs></svg>