<svg width="270" height="130" viewBox="0 0 270 130" fill="none" xmlns="http://www.w3.org/2000/svg"><rect width="270" height="130" rx="10" fill="#fff"/><path d="M75.915 76.531c.112-.173.262-.445.436-.766.336-.535.52-1.15.535-1.78a1.487 1.487 0 0 0-.248-.889c-.138-.197-.25-.58-1.893-.951-.784-.185-7.27-.185-12.66-3.348.385 0 9.41.877 13.046 1.359a.816.816 0 0 0 .837-.34.8.8 0 0 0 .122-.29.785.785 0 0 0 0-.507c-.648-1.396-1.793-2.113-5.989-4.436a19.038 19.038 0 0 1-4.481-2.965c-.473-.445-.598-.778-1.245-1.322a10.5 10.5 0 0 0-3.536-2.075 10.025 10.025 0 0 0-2.95-.569 12.45 12.45 0 0 1 5.44-.667 4.025 4.025 0 0 0-1.12-.976c-2.328-1.347-5.291.284-5.677.494a8.092 8.092 0 0 0-3.163 3.39 8.014 8.014 0 0 0-.771 4.555 8.412 8.412 0 0 0 2.85 4.942 10.77 10.77 0 0 0 3.275 2.063 10.91 10.91 0 0 1-2.49-.445 11.195 11.195 0 0 1-5.901-4.448 9.362 9.362 0 0 1-1.68-6.079c.31-2.47 1.792-3.434 1.344-4.213-.449-.778-2.926-1.087-11.74 1.606.925-1.2 2-2.28 3.2-3.212 5.265-4.028 10.42-9.699 2.688-16.062a16.59 16.59 0 0 1 5.976 1.409c4.059 1.779 6.4 4.942 9.624 9.242 1.718 2.322 3.734 5.448 5.278 7.71a19.273 19.273 0 0 0 5.864 6.177c.575.368 1.174.698 1.793.988a37.786 37.786 0 0 1-2.69-2.755c-2.826-3.2-3.896-5.51-7.096-10.304a123.631 123.631 0 0 0-3.15-4.535 21.48 21.48 0 0 1 8.566 1.693 16.066 16.066 0 0 1 7.681 5.56c2.59 3.707 3.1 8.253 2.565 10.057a6.31 6.31 0 0 0-.337 2.039c.04.77.173 1.534.399 2.273.311 1.236.436 1.236.548 1.853a6.025 6.025 0 0 1-.56 3.759 6.09 6.09 0 0 1-2.702 2.691l.012.074Z" fill="#59A370"/><path d="M70.886 75.184c.202.848.319 1.713.348 2.583a5.183 5.183 0 0 1-1.556 3.558 10.185 10.185 0 0 1-2.153 1.903 2.785 2.785 0 0 1-2.7.458 2.779 2.779 0 0 1-1.166-.8 2.745 2.745 0 0 1-.616-1.264v-.198c-.386-2.014-.697-3.546-2.005-4.806a8.172 8.172 0 0 0-4.257-1.866 25.982 25.982 0 0 1-3.2-1.013 12.598 12.598 0 0 1-5.13-3.262 11.317 11.317 0 0 1-3.124-5.04 12.61 12.61 0 0 1-.324-5.412 18.443 18.443 0 0 0-6.81.89 20.235 20.235 0 0 0-10.967 9.463 35.59 35.59 0 0 1 5.85 0c11.579.976 20.293 7.278 23.331 11.998a17.414 17.414 0 0 1 2.229 4.941c.374 1.52.508 3.087.398 4.646a43.356 43.356 0 0 0 3.46-1.779 27.025 27.025 0 0 0 8.454-6.635 5.857 5.857 0 0 0 1.619-3.978 6.152 6.152 0 0 0-1.681-4.386Zm-.959-28.133a19.142 19.142 0 0 0-1.058-5.98c1.12 1.409 2.03 2.607 2.69 3.559a43.015 43.015 0 0 1 2.975 4.398 31.008 31.008 0 0 1 1.68 3.336 23.413 23.413 0 0 0-6.349-5.263l.062-.05Z" fill="#59A370"/><path d="M69.554 75a.74.74 0 0 0-.635-.545 53.688 53.688 0 0 1-3.573-.555c-.896-.161-1.693-.359-2.49-.544a.739.739 0 0 0-.958.42.736.736 0 0 0 .212.828 10.067 10.067 0 0 1 2.203 3.175c.39.942.556 1.961.486 2.978a.737.737 0 0 0 .403.723.745.745 0 0 0 .281.08h.212l.448-.112a4.87 4.87 0 0 0 1.92-1.117 4.826 4.826 0 0 0 1.218-1.848A4.908 4.908 0 0 0 69.553 75Zm-4.868-14.309a10.03 10.03 0 0 1 2.49.235c1.967.766 2.191 1.78 2.29 2.063-.441.751-.936 1.47-1.48 2.15a3.879 3.879 0 0 1-1.812 1.053 3.9 3.9 0 0 1-2.098-.04 4.28 4.28 0 0 1-1.59-.842 4.243 4.243 0 0 1-1.099-1.419A4.307 4.307 0 0 1 61.773 60a1.51 1.51 0 0 0 .187 1.038 1.602 1.602 0 0 0 1.245.717c.363.022.72-.098.996-.334a1.36 1.36 0 0 0 .485-.729Zm40.722 10.749v1.236c-.45.379-.92.733-1.407 1.063-.558.376-1.14.714-1.743 1.013-.636.311-1.299.568-1.979.766a7.867 7.867 0 0 1-2.141.296 10.366 10.366 0 0 1-4.022-.691 8.41 8.41 0 0 1-3.063-2.076A9.244 9.244 0 0 1 89.1 69.71a12.985 12.985 0 0 1-.672-4.361c-.02-1.467.232-2.925.746-4.3a9.868 9.868 0 0 1 2.055-3.336 9.44 9.44 0 0 1 3.087-2.15 9.638 9.638 0 0 1 3.86-.754 13.62 13.62 0 0 1 1.593.1c.598.073 1.183.16 1.743.271.56.111 1.12.222 1.668.358.548.136.984.272 1.382.408v4.683h-.772l-.946-2.583a.756.756 0 0 0-.236-.407l-.361-.247a8.437 8.437 0 0 0-1.071-.495 10.602 10.602 0 0 0-1.245-.444c-.423-.112-.86-.21-1.245-.285a8.503 8.503 0 0 0-1.245-.098 5.224 5.224 0 0 0-2.43.55 5.18 5.18 0 0 0-1.89 1.612 8.338 8.338 0 0 0-1.245 2.755 14.73 14.73 0 0 0-.436 3.843c0 3.055.652 5.35 1.955 6.882a6.921 6.921 0 0 0 2.539 1.822 6.97 6.97 0 0 0 3.088.525c.726.01 1.45-.072 2.154-.247a9.013 9.013 0 0 0 1.63-.618 7.83 7.83 0 0 0 1.32-.877c.374-.309.722-.605 1.033-.89l.25.013Zm10.719 4.362a9.675 9.675 0 0 1-3.996-.803 8.274 8.274 0 0 1-2.938-2.187 9.427 9.427 0 0 1-1.792-3.323 13.687 13.687 0 0 1-.61-4.263 12.861 12.861 0 0 1 .634-4.114 10.27 10.27 0 0 1 1.855-3.336 8.708 8.708 0 0 1 2.926-2.212 9.321 9.321 0 0 1 3.959-.815 9.597 9.597 0 0 1 4.195.815 8.349 8.349 0 0 1 2.926 2.286 9.69 9.69 0 0 1 1.718 3.336c.626 2.148.741 4.41.336 6.61a11.983 11.983 0 0 1-.735 2.471c-.319.786-.738 1.53-1.244 2.212a8.084 8.084 0 0 1-1.78 1.779 8.626 8.626 0 0 1-2.391 1.235 9.91 9.91 0 0 1-3.063.31Zm.287-1.05a5.146 5.146 0 0 0 2.689-.704 5.789 5.789 0 0 0 1.93-1.903 9.256 9.256 0 0 0 1.157-2.866c.271-1.146.405-2.32.399-3.497a18.535 18.535 0 0 0-.436-4.052 9.973 9.973 0 0 0-1.245-3.151 6.12 6.12 0 0 0-2.104-2.076 6.072 6.072 0 0 0-2.938-.68 5.247 5.247 0 0 0-2.814.742 5.98 5.98 0 0 0-1.905 1.99 8.95 8.95 0 0 0-1.095 2.853 15.361 15.361 0 0 0-.348 3.373c-.015 1.336.114 2.67.386 3.979a10.306 10.306 0 0 0 1.245 3.163 6.042 6.042 0 0 0 2.091 2.1 5.635 5.635 0 0 0 3 .779l-.012-.05Zm10.756-.099 1.88-.383a.912.912 0 0 0 .485-.321.735.735 0 0 0 .156-.258.739.739 0 0 0 .043-.298v-16.26a.86.86 0 0 0-.684-.89l-1.88-.345v-.692h7.358a15.05 15.05 0 0 1 3.634.37 6.427 6.427 0 0 1 2.241 1.001c.497.37.884.864 1.121 1.433.194.51.299 1.05.311 1.594a4.847 4.847 0 0 1-.311 1.78 4.696 4.696 0 0 1-.897 1.445 5.21 5.21 0 0 1-1.394 1.1 7.082 7.082 0 0 1-1.793.728c.76.025 1.511.162 2.229.408a5.879 5.879 0 0 1 1.793.976 4.6 4.6 0 0 1 1.244 1.495c.309.614.462 1.292.449 1.977a5.99 5.99 0 0 1-.324 2.039 4.797 4.797 0 0 1-.897 1.52 5.32 5.32 0 0 1-1.369 1.1 8.405 8.405 0 0 1-1.693.691 10.01 10.01 0 0 1-1.905.37c-.657.075-1.318.112-1.979.112h-7.818v-.692Zm6.573-10.206c.838.014 1.674-.077 2.49-.271a4.458 4.458 0 0 0 1.631-.754 2.85 2.85 0 0 0 .896-1.235 4.38 4.38 0 0 0 .262-1.607 6.072 6.072 0 0 0-.299-2.001 3.39 3.39 0 0 0-.897-1.372 3.74 3.74 0 0 0-1.519-.778 8.066 8.066 0 0 0-2.116-.247h-1.78v8.228l1.332.038Zm1.792 9.774a5.487 5.487 0 0 0 3.574-.964 3.9 3.9 0 0 0 .954-1.448 3.856 3.856 0 0 0 .228-1.715 6.225 6.225 0 0 0-.324-2.2 3.197 3.197 0 0 0-.995-1.433 4.33 4.33 0 0 0-1.743-.803 11.281 11.281 0 0 0-2.49-.247h-2.278v8.81h3.074Zm9.487.432 1.868-.383a.9.9 0 0 0 .498-.321.8.8 0 0 0 .199-.556v-16.26a.869.869 0 0 0-.697-.89l-1.868-.346v-.691h14.816v4.707h-.822l-1.071-3.138a.934.934 0 0 0-.199-.359.487.487 0 0 0-.399-.148h-7.083v7.994h4.668a.529.529 0 0 0 .424-.124.91.91 0 0 0 .211-.345l.834-2.397h.672v6.857h-.722l-.896-2.36a.897.897 0 0 0-.199-.37.57.57 0 0 0-.436-.149h-4.606v8.847h8.378a.486.486 0 0 0 .386-.136.892.892 0 0 0 .212-.383l.984-3.546h.821v5.152h-15.973v-.655Zm21.389 0 2.166-.383a.759.759 0 0 0 .485-.309.846.846 0 0 0 .2-.556v-17.15h-4.706a.527.527 0 0 0-.436.137 1.055 1.055 0 0 0-.199.37L162.925 60h-.784v-4.83h16.968V60h-.772l-1.071-3.237a.937.937 0 0 0-.199-.358.471.471 0 0 0-.398-.148h-4.78v17.137a.792.792 0 0 0 .199.568.933.933 0 0 0 .51.296l2.166.396v.68h-8.403l.05-.68Zm13.943 0 1.867-.383a.915.915 0 0 0 .486-.321.751.751 0 0 0 .199-.556v-16.26a.866.866 0 0 0-.685-.89l-1.867-.345v-.68h7.78v.68l-1.855.383c-.197.05-.374.158-.51.309a.939.939 0 0 0-.199.568v7.104h9.847v-7.129a.792.792 0 0 0-.199-.568 1.246 1.246 0 0 0-.485-.321l-1.843-.371v-.68h7.781v.705l-1.868.383a.822.822 0 0 0-.497.309.868.868 0 0 0-.187.568v16.235c-.011.202.056.4.187.556.13.151.304.26.497.309l1.868.395v.68h-7.781v-.68l1.867-.383a.871.871 0 0 0 .486-.321.754.754 0 0 0 .199-.556v-7.994h-9.847v7.994a.8.8 0 0 0 .199.556.96.96 0 0 0 .51.309l1.855.395v.68h-7.805v-.68Zm21.736 0 1.88-.383a.911.911 0 0 0 .486-.321.8.8 0 0 0 .199-.556v-16.26a.87.87 0 0 0-.685-.89l-1.88-.345v-.692h7.818v.692l-1.854.383a.884.884 0 0 0-.71.864v14.827l10.283-15.395v-1.42h5.167v.74l-1.88.384a.897.897 0 0 0-.722.852v16.26a.755.755 0 0 0 .199.556.897.897 0 0 0 .486.309l1.88.395v.68h-7.794v-.68l1.868-.383a.9.9 0 0 0 .498-.321.875.875 0 0 0 .199-.556V58.628l-10.346 15.395v1.31h-5.166l.074-.68Zm36.951.853a1.482 1.482 0 0 1-.585-.272 2.46 2.46 0 0 1-.486-.519l-.56-.766-5.714-7.846-2.353-.32v7.709a.8.8 0 0 0 .186.556.963.963 0 0 0 .511.309l1.867.383v.692h-7.793v-.754l1.867-.383a.947.947 0 0 0 .498-.309.862.862 0 0 0 .2-.568V57.133a.861.861 0 0 0-.183-.573.874.874 0 0 0-.515-.316l-1.867-.383v-.692h7.793v.729l-1.867.383a.885.885 0 0 0-.697.865v7.759h1.245c.376-.002.75-.06 1.108-.173.376-.1.719-.296.996-.568.452-.459.868-.95 1.245-1.47.312-.443.595-.905.846-1.385.233-.42.441-.853.623-1.297l.523-1.235c.161-.408.348-.803.535-1.236a8.49 8.49 0 0 1 .697-1.161c.169-.237.356-.46.561-.668.185-.177.39-.334.609-.469a2.38 2.38 0 0 1 .698-.26c.274-.059.553-.088.834-.086h.734l.897.111-.548 2.793h-1.905c-.334.002-.654.13-.896.358-.29.267-.549.565-.772.89a17.13 17.13 0 0 0-.735 1.322c-.249.494-.523.976-.797 1.47a13.055 13.055 0 0 1-.946 1.544c-.351.47-.77.887-1.245 1.236l6.063 8.253.398.321.412.47.435.432c.111.104.242.184.386.235l1.482.358v.68l-2.827.198c-.321.02-.643 0-.958-.062Z" fill="#59A370"/></svg>