<svg width="270" height="130" viewBox="0 0 270 130" fill="none" xmlns="http://www.w3.org/2000/svg"><rect width="270" height="130" rx="10" fill="#fff"/><path d="M59.25 74.389v7.952a15.627 15.627 0 0 1-4.36 2.734 12.271 12.271 0 0 1-4.683.913c-1.611.07-3.22-.2-4.717-.793a11.351 11.351 0 0 1-3.968-2.65 12.335 12.335 0 0 1-3.212-8.895 12.313 12.313 0 0 1 3.325-8.764 10.797 10.797 0 0 1 3.724-2.598 10.884 10.884 0 0 1 4.473-.844 10.48 10.48 0 0 1 5.211 1.222 9.677 9.677 0 0 1 3.63 3.647l-1.425.982a8.273 8.273 0 0 0-2.732-3.218 6.645 6.645 0 0 0-3.77-1.067 6.64 6.64 0 0 0-3.214.736 6.569 6.569 0 0 0-2.45 2.188 13.527 13.527 0 0 0-2.065 7.971 12.502 12.502 0 0 0 2.006 7.573 6.496 6.496 0 0 0 2.44 2.055 6.576 6.576 0 0 0 3.134.653 7.75 7.75 0 0 0 2.588-.43 5.836 5.836 0 0 0 2.069-1.24v-8.123l3.997-.004Zm4.88 11.015V61.842h7.77c2.36-.17 4.71.434 6.687 1.72a6.113 6.113 0 0 1 1.784 2.305c.398.898.572 1.88.507 2.86a5.113 5.113 0 0 1-1.616 3.99 7.156 7.156 0 0 1-4.587 1.618l6.285 11.05h-4.914L69.653 73.44a10.51 10.51 0 0 0 5.3-1.377 4.118 4.118 0 0 0 1.203-1.533 4.08 4.08 0 0 0 .359-1.91 4.806 4.806 0 0 0-.317-2.125 4.845 4.845 0 0 0-1.213-1.78 6.988 6.988 0 0 0-4.583-1.377h-1.737v22.084l-4.535-.019Z" fill="#002D4D"/><path d="m80.824 85.404 9.758-24.096 10.149 24.096h-4.684l-2.467-6.266h-8.236l-2.447 6.266h-2.073Zm5.211-7.735h6.944l-3.474-8.606-3.47 8.606Zm17.526 7.735V61.842h4.032l12.295 16.264V61.842h2.12v23.562h-2.096L105.68 66.642v18.762h-2.119Zm24.507 0V61.842h5.856c3.887-.25 7.737.885 10.854 3.199a11.174 11.174 0 0 1 3.011 4.07 11.08 11.08 0 0 1 .893 4.969 10.853 10.853 0 0 1-3.193 8.176 11.604 11.604 0 0 1-3.898 2.391c-1.448.532-2.987.77-4.529.703l-8.994.054Zm4.38-21.79v20.035h2.623c1.17.018 2.338-.112 3.474-.387a5.8 5.8 0 0 0 2.342-1.16 7.993 7.993 0 0 0 2.24-3.443c.563-1.61.845-3.304.835-5.009a10.043 10.043 0 0 0-.522-3.943 10.106 10.106 0 0 0-2.014-3.44 9.788 9.788 0 0 0-3.38-2.03 9.845 9.845 0 0 0-3.916-.534l-1.682-.09Z" fill="#002D4D"/><path d="M153.051 85.404V61.842h8.509a8.846 8.846 0 0 1 5.972 1.883 6.448 6.448 0 0 1 1.683 2.336 6.39 6.39 0 0 1 .491 2.828 6.372 6.372 0 0 1-2.034 4.94 7.958 7.958 0 0 1-5.523 1.72h-4.684v9.778l-4.414.077Zm4.41-11.216h1.952a6.68 6.68 0 0 0 4.43-1.257 4.738 4.738 0 0 0 1.472-3.79 5.828 5.828 0 0 0-1.46-4.336 6.152 6.152 0 0 0-4.43-1.466h-1.952l-.012 10.849Zm26.734 11.801a12.256 12.256 0 0 1-4.685-.894 11.928 11.928 0 0 1-3.926-2.619 11.52 11.52 0 0 1-2.709-3.956 13.57 13.57 0 0 1 0-9.728 11.401 11.401 0 0 1 2.658-3.941 12.37 12.37 0 0 1 3.943-2.6 12.278 12.278 0 0 1 8.392-.308 12.83 12.83 0 0 1 3.474 1.72 11.63 11.63 0 0 1 3.692 4.317 13.289 13.289 0 0 1 .433 10.551 11.598 11.598 0 0 1-2.658 3.957 11.954 11.954 0 0 1-3.943 2.58 12.033 12.033 0 0 1-4.644.862l-.027.059Zm7.436-12.343a13.474 13.474 0 0 0-2.085-7.828 6.223 6.223 0 0 0-2.278-2.197 6.285 6.285 0 0 0-6.147 0 6.215 6.215 0 0 0-2.278 2.197 13.41 13.41 0 0 0-2.084 7.828 13.394 13.394 0 0 0 2.092 7.817 6.223 6.223 0 0 0 2.276 2.186 6.297 6.297 0 0 0 6.131 0 6.216 6.216 0 0 0 2.276-2.186 13.356 13.356 0 0 0 2.097-7.817Zm23.849 10.002v1.737h-14.801V61.842h4.414v21.806h10.387Zm7.088 1.756h-4.395V61.842h4.395v23.562Zm6.686-4.474a6.256 6.256 0 0 0 1.998 2.32 4.57 4.57 0 0 0 2.624.828 4.13 4.13 0 0 0 2.955-1.053c.399-.359.722-.792.952-1.275a4.018 4.018 0 0 0 .386-1.927c0-1.988-1.772-3.709-5.316-5.163a10.173 10.173 0 0 1-4.063-2.634 5.62 5.62 0 0 1-1.198-3.701 6.638 6.638 0 0 1 2.001-4.986 7.397 7.397 0 0 1 2.468-1.51 7.443 7.443 0 0 1 2.865-.451 8.254 8.254 0 0 1 4.293 1.083 6.62 6.62 0 0 1 2.732 3.094l-1.561 1.033a5.34 5.34 0 0 0-1.737-2.545 4.497 4.497 0 0 0-2.814-.913 3.867 3.867 0 0 0-1.531.261 3.83 3.83 0 0 0-1.299.842 3.878 3.878 0 0 0-1.073 2.874 3.42 3.42 0 0 0 .905 2.393 10.168 10.168 0 0 0 3.474 2.046 14.127 14.127 0 0 1 5.211 3.203 6.007 6.007 0 0 1 1.249 3.926 6.813 6.813 0 0 1-.552 2.815 6.88 6.88 0 0 1-1.661 2.348 7.917 7.917 0 0 1-5.609 2.066 9.048 9.048 0 0 1-4.239-.929 8.534 8.534 0 0 1-3.072-2.893l1.612-1.152Z" fill="#0080A4"/><path d="M123.885 54.284h-.902v-5.886h4.985v5.886h-.905v-5.163h-3.178v5.163Zm11.137-3.012c.05.815-.21 1.62-.731 2.255a2.593 2.593 0 0 1-2.017.808 2.685 2.685 0 0 1-1.425-.387 2.411 2.411 0 0 1-.952-.963 3.623 3.623 0 0 1-.332-1.721 3.23 3.23 0 0 1 .73-2.236 2.589 2.589 0 0 1 2.014-.812 2.542 2.542 0 0 1 1.982.828 3.23 3.23 0 0 1 .731 2.228Zm-4.536 0a2.778 2.778 0 0 0 .453 1.72 1.747 1.747 0 0 0 2.693 0 2.77 2.77 0 0 0 .449-1.72 2.715 2.715 0 0 0-.449-1.721 1.617 1.617 0 0 0-1.358-.585 1.572 1.572 0 0 0-1.335.569 2.736 2.736 0 0 0-.453 1.737Zm8.875 3.132a2.608 2.608 0 0 1-1.058-.205 2.025 2.025 0 0 1-.8-.653c.019.325.019.652 0 .978v2.41h-.905v-8.606h.729l.126.808c.2-.3.477-.544.803-.704a2.49 2.49 0 0 1 1.058-.208 2.223 2.223 0 0 1 1.823.812c.483.643.724 1.434.679 2.235a3.41 3.41 0 0 1-.659 2.255 2.21 2.21 0 0 1-1.796.878Zm-.121-5.353a1.608 1.608 0 0 0-1.32.5 2.535 2.535 0 0 0-.417 1.581v.14a2.91 2.91 0 0 0 .417 1.72 1.57 1.57 0 0 0 1.336.534 1.396 1.396 0 0 0 1.217-.534 2.91 2.91 0 0 0 .434-1.72 2.799 2.799 0 0 0-.434-1.722 1.44 1.44 0 0 0-1.233-.499Zm8.181.12h-1.928v5.163h-.901v-5.163h-1.913v-.773h4.742v.773Zm4.829 5.114-.207-.828c-.228.325-.532.59-.886.773-.353.14-.733.204-1.113.19a1.989 1.989 0 0 1-1.389-.449 1.692 1.692 0 0 1-.504-1.288c0-1.147.962-1.774 2.885-1.88h1.007v-.386a1.513 1.513 0 0 0-.297-1.033 1.221 1.221 0 0 0-.956-.325 3.93 3.93 0 0 0-1.737.445l-.257-.712a4.389 4.389 0 0 1 2.014-.499 2.29 2.29 0 0 1 1.58.465 1.933 1.933 0 0 1 .504 1.5v4.026h-.644Zm-2.034-.639a1.831 1.831 0 0 0 1.323-.464 1.716 1.716 0 0 0 .504-1.257v-.534h-.906a3.334 3.334 0 0 0-1.561.33 1.007 1.007 0 0 0-.469.912.925.925 0 0 0 .297.739c.218.186.494.29.781.294l.031-.02Zm8.982.639h-.901V49.12h-1.738a21.293 21.293 0 0 1-.39 3.029 4.189 4.189 0 0 1-.675 1.72 1.288 1.288 0 0 1-1.062.519 1.569 1.569 0 0 1-.468 0v-.743h.277c.418 0 .749-.437.991-1.307.309-1.3.496-2.626.559-3.96h3.474l-.067 5.906Zm5.698-5.887v2.479h3.333v-2.48h.906v5.887h-.906v-2.65h-3.333v2.65h-.902v-5.886h.902Zm8.65 6.006a2.755 2.755 0 0 1-2.084-.773 3.08 3.08 0 0 1-.781-2.201 3.41 3.41 0 0 1 .714-2.255 2.356 2.356 0 0 1 1.893-.843 2.264 2.264 0 0 1 1.753.696c.458.539.694 1.23.659 1.934v.568h-4.063a2.31 2.31 0 0 0 .519 1.582 1.836 1.836 0 0 0 1.409.534 4.751 4.751 0 0 0 1.893-.387v.774a4.949 4.949 0 0 1-.905.294c-.332.058-.67.084-1.007.077Zm-.242-5.376a1.49 1.49 0 0 0-1.148.464 2.12 2.12 0 0 0-.503 1.273h3.123a1.927 1.927 0 0 0-.367-1.223 1.337 1.337 0 0 0-1.105-.514Zm9.138 7.302h-.859v-2.046h-4.18v2.046h-.867v-2.804h.469a7.759 7.759 0 0 0 1.092-2.255 9.592 9.592 0 0 0 .434-2.823h3.052v5.163h.851l.008 2.72Zm-1.737-2.804v-4.425h-1.339a9.756 9.756 0 0 1-.468 2.41 6.861 6.861 0 0 1-.972 2l2.779.015Zm7.814-3.647a1.112 1.112 0 0 1-.328.878c-.27.214-.597.348-.941.387v.12c.413.034.803.2 1.113.471a1.235 1.235 0 0 1 .347.928 1.464 1.464 0 0 1-.609 1.273 2.976 2.976 0 0 1-1.737.449h-2.732v-5.987h2.607c1.515 0 2.28.49 2.28 1.48Zm-.886 0a.634.634 0 0 0-.328-.604 2.256 2.256 0 0 0-1.007-.174h-1.737v1.722h1.526c.402.029.804-.041 1.171-.205a.71.71 0 0 0 .293-.654l.082-.085Zm.176 2.545a.773.773 0 0 0-.371-.688 2.52 2.52 0 0 0-1.214-.225h-1.702v2.034h1.745c.983 0 1.475-.344 1.475-1.032l.067-.09Zm2.986-4.026v5.028l3.217-5.029h1.128v5.887h-.836v-5.009l-3.247 5.029h-1.128v-5.907h.866Zm8.896.015h.831v2.858l2.452-2.858h.991l-2.475 2.858 2.674 3.013h-1.042l-2.588-3.013v3.013h-.832v-3.013l-2.607 2.978h-1.07l2.694-2.978-2.467-2.858h.944l2.487 2.858.008-2.858Zm6.303-.015v5.028l3.212-5.029h1.133v5.887h-.972v-5.009l-3.217 5.029h-1.128v-5.907h.972Zm9.294 5.043.175-.499.223-.638 1.616-3.89h1.147v5.87h-.8v-4.87l-.102.31-.316.851-1.526 3.732h-.745l-1.53-3.732c-.152-.366-.282-.74-.391-1.122v4.831h-.8v-5.87h1.093l1.561 3.735c.148.426.285.855.395 1.292Zm10.196-2.169a3.232 3.232 0 0 1-.73 2.255 2.557 2.557 0 0 1-2.015.808 2.674 2.674 0 0 1-1.424-.387 2.414 2.414 0 0 1-.953-1.052 3.636 3.636 0 0 1-.332-1.617 3.234 3.234 0 0 1 .731-2.25 2.594 2.594 0 0 1 2.014-.812 2.533 2.533 0 0 1 1.979.827c.517.625.778 1.42.73 2.228Zm-4.532 0c-.047.606.11 1.211.445 1.72a1.734 1.734 0 0 0 1.174.617 1.743 1.743 0 0 0 1.5-.616 2.79 2.79 0 0 0 .449-1.721 2.723 2.723 0 0 0-.453-1.721 1.622 1.622 0 0 0-1.355-.585 1.571 1.571 0 0 0-1.315.569 2.756 2.756 0 0 0-.418 1.737h-.027Zm8.493 3.132a2.558 2.558 0 0 1-1.998-.773 3.206 3.206 0 0 1-.71-2.22 3.31 3.31 0 0 1 .71-2.29 2.603 2.603 0 0 1 2.05-.808c.285-.001.57.027.85.085.235.047.463.122.68.224l-.277.774a4.786 4.786 0 0 0-.645-.19 2.806 2.806 0 0 0-.624 0c-1.161 0-1.74.763-1.737 2.29a2.683 2.683 0 0 0 .433 1.721 1.535 1.535 0 0 0 1.304.584 4.005 4.005 0 0 0 1.53-.31v.759a3.266 3.266 0 0 1-1.566.154Zm6.914-5.233h-1.929v5.163h-.901v-5.163h-1.913v-.773h4.743v.773Zm2.032-.773v5.028l3.213-5.029h1.127v5.887h-.831v-5.009l-3.212 5.029h-1.132v-5.907h.835ZM62.373 61.78 45.73 51.813V44l16.643 9.967v7.813Z" fill="#182E55"/><path d="m26.623 61.78 16.624-9.967V44l-16.624 9.967v7.813Z" fill="#0080A4"/><path d="m33.4 60.6-.036 19.277-6.741 4.027.016-19.258 6.76-4.045Z" fill="#182E55"/></svg>