<svg width="270" height="130" viewBox="0 0 270 130" fill="none" xmlns="http://www.w3.org/2000/svg"><rect width="270" height="130" rx="10" fill="#fff"/><path d="M47.41 58.173c.594 0 1.088.044 1.445.078.55.028 1.093.143 1.607.339.427.174.754.31.792.552.047.288-.352.473-1.129 1.11-1.21.992-1.622 1.668-1.746 1.881-.15.262-.266.542-.344.833-.046.167-.345 1.35.177 1.763.17.136.273.064.576.257.213.14.394.323.533.537.383.514 1.542.77 2.458.653 1.422-.183 2.651-1.314 2.854-2.437a6.992 6.992 0 0 0 0-1.526c-.07-.81-.203-1.113-.02-1.506.182-.393.514-.53.972-.791 1.146-.673 1.671-1.105 1.861-1.542.088-.198.09-.601.1-1.408 0-1.013.014-1.522-.218-1.624-.231-.103-.771.257-1.029.655-.324.478-.149.75-.475 1.228-.327.478-.872.745-.972.653-.1-.093.357-.565.596-1.347.278-.92-.229-1.215.06-1.783.1-.195.593-.514 1.586-1.17.401-.256.697-.444.83-.811.086-.229.044-.363.14-.653.128-.393.383-.804.496-.77.113.033.02.618.02 1.01 0 1.651 1.85 3.168 3.15 3.854 1.893 1.012 3.6.817 3.6 1.05 0 .348-3.73.199-7.017 1.923-1.525.799-2.18 1.596-2.479 2.336-.147.367-.334 1.028-.417 1.328-.285 1.028-.275 1.25-.434 1.822-.226.81-.72 2.57-1.903 2.912-.306.09-.602.033-1.19-.078-1.114-.21-1.495-.603-2.418-.88a6.129 6.129 0 0 0-2.057-.232 6.296 6.296 0 0 0-2.085.231c-.924.278-1.304.67-2.418.881-.588.111-.884.168-1.19.078-1.183-.342-1.674-2.102-1.903-2.912-.16-.573-.15-.796-.435-1.822-.082-.288-.27-.96-.416-1.328-.299-.74-.952-1.542-2.48-2.336-3.309-1.722-7.035-1.573-7.04-1.91 0-.233 1.697-.038 3.6-1.05 1.301-.694 3.158-2.21 3.15-3.855 0-.39-.108-.974.02-1.01.13-.036.369.38.497.77.095.291.054.425.14.654.133.367.428.547.832.812.99.647 1.484.974 1.584 1.169.288.568-.218.863.06 1.783.238.771.701 1.247.596 1.347-.105.1-.645-.175-.972-.653-.327-.478-.162-.766-.486-1.251-.257-.388-.759-.771-1.029-.656-.228.103-.228.612-.218 1.624 0 .807.013 1.21.1 1.409.19.44.715.87 1.862 1.542.447.256.79.395.972.79.182.397.049.697-.02 1.507a7.018 7.018 0 0 0 0 1.526c.202 1.123 1.432 2.254 2.856 2.436.908.116 2.073-.13 2.456-.652a1.84 1.84 0 0 1 .53-.532c.3-.196.403-.124.573-.257.514-.414.224-1.596.18-1.763a3.68 3.68 0 0 0-.357-.833c-.124-.213-.533-.889-1.746-1.88-.772-.638-1.173-.823-1.13-1.11.04-.242.368-.379.793-.553a5.285 5.285 0 0 1 1.607-.34 16.89 16.89 0 0 1 1.448-.077" fill="#D9AB5E"/><path d="M59.582 48.663c-.216.093.044 1.141.396 2.57.342 1.388.514 2.092.833 2.454.65.77 1.612 1.012 2.893 1.349 1.237.321 1.327.129 1.746.396 1.566 1 1.057 4.22 1.347 4.24.183 0 .584-1.241.635-2.696.165-4.792-3.494-8.804-3.728-8.675-.075.041.21.498.514 1.86.303 1.362.489 2.182.157 2.418-.514.358-1.988-.84-2.695-1.505-1.373-1.29-1.86-2.511-2.098-2.41Zm-24.404.18c.216.093-.04 1.141-.396 2.57-.342 1.39-.514 2.092-.83 2.457-.648.765-1.602 1.017-2.888 1.346-1.237.324-1.327.128-1.743.396-1.572 1.007-1.06 4.23-1.343 4.245-.193.013-.594-1.241-.643-2.693-.164-4.793 3.492-8.806 3.73-8.678.074.041-.212.501-.515 1.863-.304 1.362-.491 2.182-.16 2.416.515.36 1.99-.84 2.695-1.506 1.376-1.298 1.86-2.519 2.093-2.416Z" fill="#D9AB5E"/><path d="m47.053 49.26-4.114-1.784a2.058 2.058 0 0 0-.047-.673 2.023 2.023 0 0 0-.833-1.27c-1.057-.58-2.877 1.044-3.132 1.27-1.401 1.249-1.777 2.587-2.021 2.495-.244-.093-.17-1.372.435-2.495.514-.972 1.157-1.27 1.028-1.586-.188-.48-1.82-.257-2.615-.16-1.322.176-2.535.337-3.806.952-3.124 1.513-4.227 4.635-4.639 4.438-.324-.157.155-1.912.792-3.454a19.529 19.529 0 0 1 3.459-5.52c.244.131.602.314 1.041.514.345.15.61.257.654.257 1.056.39 2.6-.36 4.312-.514a7.74 7.74 0 0 1 2.083.118c1.936.393 3.209 1.583 4.16 2.498a13.618 13.618 0 0 1 3.243 4.913Zm.65 0 4.114-1.784a2.056 2.056 0 0 1 .039-.673c.102-.515.401-.97.833-1.27 1.057-.58 2.878 1.044 3.132 1.27 1.402 1.249 1.777 2.587 2.021 2.495.245-.093.17-1.372-.437-2.495-.514-.972-1.154-1.27-1.028-1.586.187-.48 1.82-.257 2.615-.16 1.322.176 2.535.337 3.806.952 3.124 1.513 4.235 4.625 4.628 4.438.322-.157-.164-1.915-.792-3.446a19.527 19.527 0 0 0-3.428-5.528c-.257.131-.601.314-1.041.514-.345.15-.61.257-.656.257-1.054.39-2.597-.36-4.31-.514a7.74 7.74 0 0 0-2.082.118c-1.94.404-3.225 1.593-4.174 2.508a13.605 13.605 0 0 0-3.24 4.903Z" fill="#D9AB5E"/><path d="M47.367 46.28c.442-.888 1.87-3.54 4.508-4.815a12.23 12.23 0 0 1 2.617-.86 14.47 14.47 0 0 1 2.829-.24c.923.013 1.484.108 2.528-.028.417-.023.828-.11 1.219-.257 1.257-.557 1.967-2.002 1.725-2.259-.139-.149-.53.155-1.286.386-1.15.355-2.121.21-2.975.09-2.525-.368-3.297-1.724-4.904-2.03-1.257-.244-3.507.38-6.503 3.556" fill="#D9AB5E"/><path d="M47.367 46.28c-.442-.888-1.836-3.545-4.474-4.82a12.4 12.4 0 0 0-2.618-.86 14.463 14.463 0 0 0-2.828-.24c-.924 0-1.484.108-2.528-.028a4.115 4.115 0 0 1-1.219-.257c-1.257-.558-1.967-2.002-1.725-2.259.139-.149.53.154 1.285.386 1.15.354 2.122.21 2.976.09 2.514-.368 3.314-1.725 4.903-2.03 1.258-.245 3.248.12 6.244 3.297m3.192 16.029c-.092 0-.059-1.012-.133-2.467-.041-.832-.083-1.11.074-1.541.205-.521.577-.96 1.057-1.247.556-.326 1.121-.344 2.057-.372.408.011.815-.008 1.22-.06.35-.051.694-.137 1.028-.257.052.143.078.294.074.445-.023 1.013-1.411 1.647-1.486 1.68a5.991 5.991 0 0 1-1.175.342c-.361.03-.711.137-1.029.311-.195.124-.442.33-.4.417.04.087.197.04.28.03.239-.03 1.684-.213 1.725-.09.023.07-.357.296-.759.432-.354.119-.514.098-1.16.257a4.444 4.444 0 0 0-.514.134c-.828.38-.74 1.991-.858 1.986Zm-6.397.087c.093 0 .06-1.01.134-2.464.04-.835.082-1.11-.075-1.542a2.554 2.554 0 0 0-1.057-1.248c-.555-.324-1.12-.342-2.057-.37a8.22 8.22 0 0 1-1.219-.06 5.405 5.405 0 0 1-1.028-.257 1.205 1.205 0 0 0-.075.445c.023 1.012 1.412 1.647 1.486 1.678.379.156.773.27 1.175.342.362.03.713.136 1.03.313.195.121.441.33.4.416-.04.088-.198.04-.28.029-.24-.029-1.684-.214-1.726-.088-.023.067.358.293.76.43.354.12.513.097 1.159.257.174.03.346.076.514.133.818.383.738 1.992.859 1.986ZM54.531 68.72c.633.534 4.665 4.047 4.531 9.307-.1 3.978-2.553 7.81-6.107 9.87.097-.432.146-.875.146-1.318a5.905 5.905 0 0 0-.694-2.785 6.47 6.47 0 0 0 1.152-.871c2.417-1.969 3.214-5.654 2.343-8.606a8.793 8.793 0 0 0-2.757-4.15l-11.633.151a8.9 8.9 0 0 0-1.736 2.225c-1.597 2.914-1.8 7.303.604 9.85a7.76 7.76 0 0 0 1.592 1.303 5.926 5.926 0 0 0-.638 4.022c-2.813-1.794-4.844-4.75-5.433-7.833-.849-4.422 1.442-8.138 1.61-8.403.63-.988 1.41-1.87 2.314-2.616l14.706-.146Z" fill="#D9AB5E"/><path d="M47.163 93.8a7.235 7.235 0 0 1-7.1-5.838 7.343 7.343 0 0 1-.133-1.383 7.22 7.22 0 0 1 7.224-7.084 7.22 7.22 0 0 1 7.224 7.084c0 .54-.06 1.078-.18 1.604a7.176 7.176 0 0 1-7.035 5.617Zm-4.567-6.326a4.649 4.649 0 0 0 5.017 3.742 4.65 4.65 0 0 0 4.202-4.637 4.577 4.577 0 0 0-.543-2.18 4.651 4.651 0 0 0-5.233-2.328 4.65 4.65 0 0 0-3.443 5.403ZM57.459 62.54a4.623 4.623 0 0 1-1.01 2.955 2.93 2.93 0 0 1 1.128.514c.414.288.735.69.923 1.159.258.716.113 1.433 0 1.96-.113.527-.218.604-.18.892.088.637.713 1.007.983 1.218.586.457 1.149 1.45 1.041 3.803.426-.23.816-.52 1.16-.86.424-.425.992-.99 1.129-1.874a2.872 2.872 0 0 0-.237-1.575c-.303-.697-.663-.8-.982-1.486a3.028 3.028 0 0 1-.299-1.426c.072-1.159.978-1.917 1.22-2.11a8.738 8.738 0 0 0-1.397-1.426 9.004 9.004 0 0 0-3.48-1.744Z" fill="#D9AB5E"/><path d="M58.866 59.718c-.17.987.041 1.557.278 1.901.594.859 1.594.656 3.291 1.822.98.674 1.083 1.028 1.111 1.19.1.542-.221 1.141-.673 1.981-.258.46-.32.499-.4.674-.256.557-.15 1.541 1.428 3.446a12.272 12.272 0 0 0 1.468-2.339 13.248 13.248 0 0 0 1.111-7.452c-.396.175-1.046.141-1.774.049-1.37-.17-2.525-1.046-3.063-2.585l-2.777 1.313Zm-21.263 2.744a4.62 4.62 0 0 0 1.01 2.94 2.916 2.916 0 0 0-1.128.514 2.591 2.591 0 0 0-.923 1.159c-.27.717-.113 1.436 0 1.96.113.525.218.605.177.892-.085.64-.71 1.008-.98 1.218-.586.458-1.15 1.45-1.028 3.804a5.083 5.083 0 0 1-1.16-.861c-.424-.424-.993-.99-1.129-1.874a2.855 2.855 0 0 1 .237-1.572c.303-.7.663-.802.982-1.488a3.03 3.03 0 0 0 .298-1.426c-.072-1.16-.977-1.917-1.221-2.11a8.877 8.877 0 0 1 4.865-3.156Z" fill="#D9AB5E"/><path d="M36.036 59.68c.173.986-.04 1.556-.277 1.9-.594.857-1.595.656-3.292 1.823-.98.673-1.082 1.028-1.11 1.187-.1.545.22 1.14.676 1.981.257.463.319.514.396.674.257.56.151 1.541-1.428 3.448a12.356 12.356 0 0 1-1.468-2.338 13.246 13.246 0 0 1-1.108-7.453c.393.175 1.044.142 1.774.052 1.368-.172 2.523-1.046 3.063-2.585l2.774 1.31ZM47.49 76.827c-.02.033-.059.023-.077 0a3.646 3.646 0 0 0-2.234-1.524 3.419 3.419 0 0 0-2.037.257c-.62-1.567-1.286-3.469-.982-3.685.535-.375 2.45.157 3.15.219 1.96.17 3.6.18 5.52-.209 1.286-.257 1.77-.043 1.847 0 .347.152-.363 2.118-.982 3.685a3.41 3.41 0 0 0-2.037-.257 3.373 3.373 0 0 0-2.168 1.514Zm31.838-6.707a.99.99 0 0 0 .956-1.028V56.344a.989.989 0 0 0-.956-1.028h-.851v-.568h10.96l.105-.797h.427v5.466h-.427l-.106-1.028c-.17-1.57-1.597-3.084-3.3-3.084h-3.83V70.12h1.915v.57h-5.744v-.57h.85Z" fill="#D9AB5E"/><path d="M84.61 71.079h-6.52v-1.342h1.238a.602.602 0 0 0 .57-.64V56.344a.603.603 0 0 0-.57-.64H78.09v-1.342H89.1l.106-.796h1.15v6.237h-1.16l-.142-1.37c-.144-1.318-1.35-2.73-2.916-2.73h-3.445v14.034h1.915v1.342Zm-4.59-.771h1.902V55.146H80.02a1.424 1.424 0 0 1 .65 1.21v12.736a1.42 1.42 0 0 1-.65 1.216Zm7.258-15.162a4.075 4.075 0 0 1 2.315 2.287v-2.287h-2.315Zm5.396 15.547v-.573h.85a.986.986 0 0 0 .957-1.028V56.344a.989.989 0 0 0-.956-1.028h-.851v-.568h6.384c3.408 0 5.534 2.256 5.534 5.24 0 2.983-2.126 5.25-5.534 5.25h-2.553v4.882h1.916v.57l-5.747.003Zm3.831-6.036h2.13c2.126 0 3.723-1.686 3.723-4.67 0-2.983-1.608-4.669-3.723-4.669h-2.13v9.339Z" fill="#D9AB5E"/><path d="M98.807 71.079h-6.519v-1.342h1.237a.599.599 0 0 0 .57-.64V56.344a.598.598 0 0 0-.57-.64h-1.237v-1.341h6.77c3.488 0 5.915 2.313 5.915 5.625s-2.432 5.623-5.914 5.623h-2.165v4.126h1.915l-.002 1.342Zm-4.59-.771h1.905V55.147H94.22a1.415 1.415 0 0 1 .65 1.21v12.735a1.43 1.43 0 0 1-.652 1.216Zm5.914-15.09c1.605.66 2.608 2.413 2.608 4.77 0 2.356-1.003 4.111-2.608 4.767 2.476-.404 4.071-2.218 4.071-4.767 0-2.55-1.589-4.366-4.066-4.772l-.005.002Zm-3.237 9.054h1.743c2.026 0 3.343-1.684 3.343-4.284 0-2.6-1.311-4.284-3.343-4.284h-1.743v8.568Zm9.658 5.848h.627c.957 0 1.384-.455 1.702-1.367l4.886-14.35h.959l5.107 14.35c.342.98.64 1.367 1.597 1.367h.532v.57h-5.299v-.57h1.489l-1.639-4.556h-5.855l-1.543 4.556h1.384v.57h-3.947v-.57Zm9.789-5.01-2.767-8.095-2.767 8.087 5.534.007Z" fill="#D9AB5E"/><path d="M122.369 71.079h-6.092v-1.342h1.327l-1.363-3.785h-5.305l-1.286 3.785h1.23v1.342h-4.714v-1.342h1.028c.721 0 1.044-.257 1.34-1.107l4.984-14.609h1.504l5.202 14.606c.322.925.527 1.11 1.232 1.11h.918l-.005 1.342Zm-3.741-.771h1.835c-.473-.257-.73-.725-.971-1.424l-5.018-14.092h-.411l-.422 1.239 3.235 9.407 1.752 4.87Zm-10.459 0h.466l.187-.553a1.766 1.766 0 0 1-.653.553Zm3.179-5.584h4.456l-2.23-6.51-2.226 6.51Zm12.273-9.405v-.571h5.534v.57h-1.703v6.492h7.972v-5.466a.986.986 0 0 0-.957-1.028h-.851v-.568h5.534v.57h-1.702V70.12h1.702v.57h-5.523v-.57h.85a.989.989 0 0 0 .957-1.028v-6.828h-7.972v7.856h1.703v.57h-5.544v-.57h.851a.995.995 0 0 0 .694-.314 1 1 0 0 0 .265-.714V56.344a1 1 0 0 0-.265-.714.985.985 0 0 0-.694-.314l-.851.002Z" fill="#D9AB5E"/><path d="M139.546 71.079h-6.305v-1.342h1.237a.61.61 0 0 0 .419-.2.604.604 0 0 0 .151-.44V62.65h-7.199v7.087h1.702v1.342h-6.316v-1.342h1.237a.606.606 0 0 0 .542-.404.589.589 0 0 0 .031-.236V56.344a.589.589 0 0 0-.152-.44.596.596 0 0 0-.421-.2h-1.237v-1.341h6.316v1.341h-1.702v5.72h7.199v-5.08a.586.586 0 0 0-.151-.44.61.61 0 0 0-.419-.2h-1.237v-1.341h6.305v1.341h-1.703v14.033h1.703v1.342Zm-4.372-.771h1.903V55.147h-1.903a1.415 1.415 0 0 1 .651 1.21v12.735a1.429 1.429 0 0 1-.656 1.216h.005Zm-10.005 0h1.903V55.147h-1.903a1.426 1.426 0 0 1 .653 1.21v12.735a1.431 1.431 0 0 1-.658 1.216h.005Zm15.523 4.712v-4.9h1.916l4.372-14.804h-1.705v-.568h9.257v.57h-1.8V70.12h2.019v4.898h-.437l-.106-1.028c-.19-2.074-1.363-3.302-3.299-3.302h-6.385c-1.939 0-3.109 1.228-3.299 3.302l-.108 1.028-.425.002Zm2.554-4.9h6.493a.986.986 0 0 0 .957-1.028V56.344a.982.982 0 0 0-.264-.714.986.986 0 0 0-.693-.314h-2.129l-4.364 14.804Z" fill="#D9AB5E"/><path d="M155.127 75.406h-1.147l-.142-1.372c-.177-1.907-1.211-2.955-2.915-2.955h-6.398c-1.705 0-2.742 1.048-2.916 2.952l-.145 1.375h-1.156v-5.669h2.01l4.138-14.033h-1.574v-1.341h10.029v1.341h-1.8v14.033h2.021l-.005 5.67Zm-4.696-5.098h.478c1.705 0 2.932.902 3.446 2.47v-2.27h-2.021V55.134h-1.903a1.429 1.429 0 0 1 .651 1.21v12.748a1.436 1.436 0 0 1-.651 1.216Zm-9.352.2v2.267a3.374 3.374 0 0 1 2.147-2.267h-2.147Zm2.685-.77h5.975a.6.6 0 0 0 .571-.64V56.343a.586.586 0 0 0-.151-.44.592.592 0 0 0-.42-.2h-1.841l-4.134 14.033Zm21.064.955v-.573h.851a.993.993 0 0 0 .96-1.028V56.344a1 1 0 0 0-.265-.714.989.989 0 0 0-.695-.314h-.851v-.568h6.38c3.405 0 5.534 2.256 5.534 5.24 0 2.983-2.121 5.25-5.534 5.25h-2.556v4.882h1.916v.57l-5.74.003Zm3.832-6.036h2.129c2.129 0 3.726-1.686 3.726-4.67 0-2.983-1.597-4.669-3.726-4.669h-2.129v9.339Z" fill="#D9AB5E"/><path d="M170.951 71.079h-6.508v-1.342h1.237a.606.606 0 0 0 .542-.404.589.589 0 0 0 .031-.236V56.344a.589.589 0 0 0-.151-.44.612.612 0 0 0-.422-.2h-1.237v-1.341h6.765c3.485 0 5.915 2.313 5.915 5.625s-2.435 5.623-5.915 5.623h-2.169v4.126h1.912v1.342Zm-4.589-.771h1.902V55.147h-1.902a1.426 1.426 0 0 1 .653 1.21v12.735a1.422 1.422 0 0 1-.643 1.216h-.01Zm5.914-15.09c1.607.66 2.61 2.413 2.61 4.77 0 2.356-1.003 4.111-2.61 4.767 2.476-.404 4.073-2.218 4.073-4.767 0-2.55-1.582-4.366-4.058-4.772l-.015.002Zm-3.245 9.054h1.743c2.029 0 3.343-1.684 3.343-4.284 0-2.6-1.311-4.284-3.343-4.284h-1.743v8.568Zm10.846-8.953v-.571h5.621v.57h-1.8v12.64l8.09-11.275v-.34a.982.982 0 0 0-.265-.713.989.989 0 0 0-.694-.314h-.849v-.568h5.657v.57h-1.799V70.12h1.799v.57h-5.657v-.57h.851a.99.99 0 0 0 .96-1.028V57.595l-8.09 11.276v1.249h1.8v.57h-5.624v-.57h.846a.995.995 0 0 0 .694-.314 1 1 0 0 0 .265-.714V56.344a1 1 0 0 0-.265-.714.985.985 0 0 0-.694-.314l-.846.002Z" fill="#D9AB5E"/><path d="M196.016 71.079h-6.414v-1.342h1.237a.606.606 0 0 0 .542-.404.627.627 0 0 0 .032-.236V58.796l-7.319 10.199v.742h1.8v1.342h-6.403v-1.342h1.232a.606.606 0 0 0 .542-.404.589.589 0 0 0 .031-.236V56.344a.589.589 0 0 0-.152-.44.596.596 0 0 0-.421-.2h-1.237v-1.341h6.393v1.341h-1.801v11.05l7.319-10.2v-.215a.607.607 0 0 0-.152-.44.592.592 0 0 0-.421-.2h-1.238v-1.336H196v1.341h-1.8v14.033h1.8l.016 1.342Zm-4.485-.771h1.903V55.147h-1.911a1.426 1.426 0 0 1 .653 1.21v12.735a1.423 1.423 0 0 1-.653 1.216h.008Zm-10.111 0h1.903V55.147h-1.903a1.426 1.426 0 0 1 .653 1.21v12.735a1.423 1.423 0 0 1-.653 1.216Zm17.977-15.788h.424v1.367h.108c.399-.31.83-.577 1.286-.797a8.164 8.164 0 0 1 3.513-.797c4.258 0 7.662 3.644 7.662 8.427 0 4.782-3.381 8.428-7.673 8.428-3.086 0-4.554-2.618-5.533-2.618-.404 0-.554.341-.703.683a3.14 3.14 0 0 0-.149.684h-.427v-.29c0-2.46.746-3.233 1.492-3.233 1.596 0 2.571 4.211 5.32 4.211 2.875 0 5.428-2.754 5.428-7.858a14.382 14.382 0 0 0-.17-2.163h-.575c-3.065 0-3.533 5.139-6.28 5.139-.828 0-1.211-.365-1.404-.797a2.321 2.321 0 0 1-.19-.799h.424c0 .455.213.684.638.684 1.597 0 2.129-4.898 5.961-4.898a3.51 3.51 0 0 1 1.342.229c-.746-3.395-2.829-5.24-5.174-5.24-2.638 0-4.371 1.845-4.683 3.76l-.213 1.366h-.424V54.52Z" fill="#D9AB5E"/><path d="M204.717 71.534c-2.111 0-3.533-1.162-4.477-1.933-.414-.336-.841-.686-1.057-.686-.123 0-.185.077-.339.432a2.747 2.747 0 0 0-.129.58l-.028.355h-1.167v-.676c0-3.266 1.311-3.618 1.877-3.618.887 0 1.542.894 2.229 1.84.81 1.113 1.731 2.372 3.086 2.372 3.463 0 5.043-3.873 5.043-7.473a13.558 13.558 0 0 0-.121-1.778h-.239c-1.366 0-2.163 1.213-3.007 2.495-.843 1.282-1.728 2.632-3.273 2.632-.864 0-1.455-.347-1.757-1.028a2.617 2.617 0 0 1-.223-.925l-.031-.414h1.227v.385c0 .285.082.298.257.298.411 0 .854-.722 1.324-1.485.882-1.439 2.093-3.412 4.629-3.412.27 0 .539.022.805.066-.772-2.672-2.51-4.306-4.629-4.306-2.473 0-4.035 1.726-4.302 3.433l-.257 1.693h-1.142v-6.247h1.196v1.082c.236-.15.514-.3.823-.463a8.526 8.526 0 0 1 3.687-.84c4.513 0 8.049 3.87 8.049 8.812 0 4.941-3.541 8.809-8.054 8.809Zm-5.534-3.39c.491 0 .957.38 1.543.861a8.031 8.031 0 0 0 2.338 1.465c-.857-.537-1.505-1.427-2.058-2.195-.552-.768-1.113-1.524-1.607-1.524-.558 0-.933.689-1.059 1.89a.952.952 0 0 1 .843-.497Zm11.212-7.375c.089.646.135 1.298.136 1.95 0 3.613-1.324 6.425-3.41 7.612 2.865-1.074 4.886-4.035 4.886-7.612s-2.031-6.568-4.921-7.626c1.53.863 2.681 2.592 3.193 4.926l.17.77-.054-.02Zm-7.972 4.369c.213.109.45.16.689.149 1.129 0 1.857-1.11 2.629-2.285.771-1.174 1.591-2.39 2.934-2.742h-.126c-2.112 0-3.104 1.62-3.981 3.045-.61.995-1.137 1.853-1.98 1.853-.052 0-.105-.004-.157-.01l-.008-.01Zm-2.648-8.876v1.721a4.882 4.882 0 0 1 2.291-2.831 6.57 6.57 0 0 0-1.89 1.033l-.108.087-.293-.01Zm13.178 13.858h.854c1.085 0 1.617-.568 2.021-1.935l3.831-12.87h-1.702v-.567h9.152v.57h-1.8V70.12h1.8v.57h-5.639v-.57h.851a.984.984 0 0 0 .897-.645 1 1 0 0 0 .06-.383V56.344a1 1 0 0 0-.06-.383 1.002 1.002 0 0 0-.519-.557.986.986 0 0 0-.378-.088h-2.129L215.82 70.12h2.022v.57h-4.886l-.003-.57Z" fill="#D9AB5E"/><path d="M227.496 71.079h-6.401v-1.342h1.237a.608.608 0 0 0 .416-.204.606.606 0 0 0 .147-.44v-12.75a.604.604 0 0 0-.571-.64h-1.841l-4.135 14.033h1.89v1.342h-5.657v-1.342h1.239c.751 0 1.237-.257 1.651-1.66l3.672-12.373h-1.571v-1.341h9.924v1.341h-1.801v14.033h1.801v1.342Zm-4.483-.771h1.903V55.147h-1.903a1.432 1.432 0 0 1 .653 1.197v12.748a1.425 1.425 0 0 1-.653 1.216Zm-8.198 0h.556l.177-.594a2.002 2.002 0 0 1-.733.594Zm15.537-16.357.106.797h12.029l.105-.797h.425v5.466h-.425l-.105-1.028c-.172-1.709-1.492-3.084-3.302-3.084h-1.71V70.12h1.703v.57h-5.534v-.57h.851a.992.992 0 0 0 .959-1.028V56.344a1.001 1.001 0 0 0-.265-.714.981.981 0 0 0-.694-.314h-.743c-1.801 0-3.13 1.364-3.302 3.083l-.106 1.028h-.424v-5.476h.432Z" fill="#D9AB5E"/><path d="M239.563 71.079h-6.305v-1.342h1.236a.603.603 0 0 0 .573-.64V56.344a.589.589 0 0 0-.151-.44.613.613 0 0 0-.422-.2h-.743a2.93 2.93 0 0 0-2.916 2.726l-.144 1.373h-1.157v-6.237h1.147l.108.796h11.35l.108-.796h1.147v6.237h-1.157l-.144-1.37a2.93 2.93 0 0 0-2.916-2.73h-1.316v14.034h1.702v1.342Zm-4.372-.771h1.903V55.146h-1.903a1.426 1.426 0 0 1 .653 1.21v12.736a1.419 1.419 0 0 1-.658 1.216h.005Zm5.21-15.162a3.66 3.66 0 0 1 2.227 2.195v-2.208l-2.227.013Zm-10.091 0v2.195a3.66 3.66 0 0 1 2.227-2.195h-2.227Z" fill="#D9AB5E"/></svg>