<svg width="203" height="39" viewBox="0 0 203 39" fill="none" xmlns="http://www.w3.org/2000/svg"><path d="M31.94 4.87c2.931 4.81 5.496 17.537-7.694 29.968 17.88-10.063 12.58-24.172 7.694-29.968Z" fill="#FFCB09"/><path d="M38.535 15.229c-.122 6.783-4.543 21.015-21.25 23.679 19.345 1.48 22.227-15.17 21.25-23.679ZM.064 24.108C-.546 15.598 2.922-1.124 21.681.06 15.819.676 3.289 6.35.064 24.108Z" fill="#FFCB09"/><path d="M14.72 4.13C7.392 8.94-4.405 21.813 7.026 34.837.87 20.63 9.59 8.446 14.72 4.129Z" fill="#FFCB09"/><path d="M11.789 9.31C6.962 15.17.285 34.245 17.285 37.796 5.854 30.99 8.858 15.97 11.789 9.31Z" fill="#FFCB09"/><path d="M11.422 15.599c.855-1.603 3.517-4.736 7.328-4.44-5.276-2.072-7.084 2.097-7.328 4.44Zm2.199-6.289c1.466-.74 5.642-1.259 10.625 2.59-2.198-2.59-7.4-6.735-10.625-2.59Z" fill="#FFCB09"/><path d="M28.276 17.819c-1.099-4.44-5.202-12.95-12.823-11.47 9.38-4.735 12.457 5.673 12.823 11.47Zm-8.061 10.729c1.587-.123 5.276-1.184 7.327-4.44 0 2.22-1.465 6.216-7.327 4.44Zm-5.861-1.11c1.954 1.357 6.96 3.774 11.357 2.59-1.832 1.726-6.668 3.626-11.357-2.59Z" fill="#FFCB09"/><path d="M10.69 20.778c.488 4.687 3.883 13.616 13.556 11.84-4.275 2.713-12.97 4.143-13.556-11.84ZM21.314 2.28c4.52 1.48 12.091 9.027 6.229 27.378 12.09-20.349-1.466-28.489-6.229-27.379Z" fill="#FFCB09"/><path d="M46.321 23h7.387c4.15 0 6.495-1.829 6.495-5.088 0-3.095-2.087-4.784-6.026-4.784h-4.854V9.095H59.1V6.586H46.32V23Zm3.002-2.345v-5.182h4.22c2.392 0 3.588.82 3.588 2.533 0 1.735-1.243 2.65-3.588 2.65h-4.22Zm18.556-10.317c-2.017 0-3.963.516-5.3 1.548l1.15 2.133c.937-.774 2.391-1.242 3.798-1.242 2.087 0 3.118 1.008 3.118 2.72v.187H67.41c-3.799 0-5.206 1.642-5.206 3.728 0 2.181 1.806 3.752 4.666 3.752 1.876 0 3.236-.61 3.94-1.688V23h2.766v-7.34c0-3.61-2.086-5.322-5.697-5.322ZM67.48 21.03c-1.5 0-2.392-.68-2.392-1.735 0-.914.54-1.665 2.533-1.665h3.025v1.454c-.493 1.29-1.736 1.946-3.166 1.946Zm18.728-10.55-3.963 9.262-3.94-9.262h-3.048l5.464 12.568-.211.492c-.563 1.243-1.173 1.735-2.204 1.735a3.176 3.176 0 0 1-2.158-.867l-1.172 2.157c.797.727 2.11 1.15 3.353 1.15 2.087 0 3.681-.868 4.83-3.706l5.862-13.53h-2.813ZM103.266 23h3.189l-7.41-16.414h-3.001L88.657 23H91.8l1.618-3.799h8.207L103.266 23Zm-8.817-6.19 3.072-7.176 3.095 7.176h-6.167Zm21.135-6.472c-1.712 0-3.165.586-4.15 1.782v-1.641h-2.791v17.07h2.931v-6.073c1.009 1.149 2.416 1.688 4.01 1.688 3.658 0 6.355-2.532 6.355-6.425 0-3.869-2.697-6.401-6.355-6.401Zm-.328 10.317c-2.111 0-3.728-1.524-3.728-3.916 0-2.391 1.617-3.916 3.728-3.916 2.11 0 3.705 1.525 3.705 3.916 0 2.392-1.595 3.916-3.705 3.916Zm21.324-3.845c0-3.916-2.673-6.472-6.331-6.472-3.728 0-6.472 2.673-6.472 6.401 0 3.729 2.72 6.425 6.917 6.425 2.158 0 3.916-.703 5.042-2.04l-1.571-1.805c-.891.914-1.993 1.36-3.4 1.36-2.181 0-3.705-1.173-4.057-3.002h9.825c.023-.281.047-.633.047-.867Zm-6.331-4.127c1.923 0 3.306 1.242 3.54 3.048h-7.104c.281-1.829 1.664-3.048 3.564-3.048ZM139.786 23h2.931v-4.948h6.307V23h2.931V10.479h-2.931v5.088h-6.307v-5.088h-2.931V23Zm27.611-2.485V10.479h-10.318l-.164 4.29c-.141 2.932-.445 5.675-2.204 5.746h-.586v5.275h2.72V23h9.661v2.79h2.743v-5.275h-1.852Zm-7.809-5.534.071-2.017h4.807v7.55h-6.167c1.008-.96 1.195-3.188 1.289-5.533Zm16.945-4.643c-2.017 0-3.963.516-5.299 1.548l1.149 2.133c.938-.774 2.391-1.242 3.798-1.242 2.087 0 3.119 1.008 3.119 2.72v.187h-3.236c-3.799 0-5.206 1.642-5.206 3.728 0 2.181 1.806 3.752 4.667 3.752 1.876 0 3.236-.61 3.939-1.688V23h2.767v-7.34c0-3.61-2.087-5.322-5.698-5.322Zm-.399 10.692c-1.5 0-2.391-.68-2.391-1.735 0-.914.539-1.665 2.532-1.665h3.025v1.454c-.493 1.29-1.735 1.946-3.166 1.946Z" fill="#1F1E1D"/><path d="M51.636 37h.924l-2.797-6.155h-.87L46.105 37h.906l.677-1.539h3.271L51.636 37Zm-3.64-2.242 1.328-3.016 1.328 3.016h-2.656Zm7.956-2.462c-.686 0-1.284.264-1.662.782v-.738h-.809v6.366h.844v-2.41c.387.502.968.757 1.627.757 1.363 0 2.357-.95 2.357-2.383 0-1.425-.994-2.374-2.357-2.374Zm-.07 4.018c-.888 0-1.565-.65-1.565-1.644 0-.985.677-1.636 1.565-1.636.897 0 1.574.651 1.574 1.636 0 .993-.677 1.644-1.574 1.644Zm7.865-1.618c0-1.433-.958-2.4-2.304-2.4-1.345 0-2.339.993-2.339 2.374 0 1.39 1.003 2.383 2.506 2.383.774 0 1.416-.264 1.838-.756l-.466-.546c-.343.379-.8.563-1.345.563-.924 0-1.583-.545-1.689-1.363h3.781c.01-.079.018-.184.018-.255Zm-2.304-1.688c.818 0 1.407.554 1.495 1.336h-2.99c.088-.79.686-1.336 1.495-1.336ZM65.057 37h.844v-1.952h2.655V37h.844v-4.66h-.844v1.978h-2.655V32.34h-.844V37Zm10.012-.739V32.34h-3.614l-.07 1.574c-.062 1.178-.176 2.312-.845 2.347h-.246v1.82h.8V37h3.896v1.082h.791v-1.82h-.712Zm-2.91-2.286.043-.897h2.023v3.183h-2.612c.422-.369.51-1.319.546-2.286Zm6.384-1.68c-.748 0-1.442.212-1.926.599l.352.633c.36-.308.923-.502 1.477-.502.835 0 1.249.414 1.249 1.126v.167h-1.337c-1.39 0-1.873.616-1.873 1.363 0 .809.668 1.372 1.724 1.372.73 0 1.248-.246 1.53-.668V37h.8v-2.814c0-1.275-.721-1.89-1.996-1.89Zm-.194 4.107c-.642 0-1.028-.29-1.028-.756 0-.396.237-.721 1.072-.721h1.302v.65c-.211.537-.712.827-1.346.827Zm8.102.65c.836 0 1.53-.351 1.9-1.002l-.642-.404c-.299.457-.756.668-1.266.668-.915 0-1.6-.633-1.6-1.644 0-.994.685-1.636 1.6-1.636.51 0 .967.211 1.266.669l.642-.414c-.37-.65-1.064-.993-1.9-.993-1.433 0-2.462.985-2.462 2.374 0 1.39 1.03 2.383 2.462 2.383Zm6.406-4.712H88.6v.738h1.706V37h.844v-3.922h1.706v-.738Zm3.334-.044c-.686 0-1.284.264-1.662.782v-.738h-.809v6.366h.844v-2.41c.387.502.967.757 1.627.757 1.363 0 2.356-.95 2.356-2.383 0-1.425-.993-2.374-2.356-2.374Zm-.07 4.018c-.888 0-1.566-.65-1.566-1.644 0-.985.677-1.636 1.566-1.636.897 0 1.574.651 1.574 1.636 0 .993-.677 1.644-1.574 1.644Zm5.649.739c1.398 0 2.418-.994 2.418-2.383 0-1.39-1.02-2.374-2.418-2.374-1.398 0-2.427.985-2.427 2.374 0 1.39 1.029 2.383 2.427 2.383Zm0-.739c-.897 0-1.574-.65-1.574-1.644 0-.994.677-1.636 1.574-1.636s1.565.642 1.565 1.636c0 .993-.668 1.644-1.565 1.644Zm3.637.686h.774l2.849-3.394V37h.844v-4.66h-.765l-2.858 3.394V32.34h-.844V37Zm9.579-4.66h-4.256v.738h1.706V37h.844v-3.922h1.706v-.738Zm4.869 2.356c0-1.433-.959-2.4-2.304-2.4-1.346 0-2.339.993-2.339 2.374 0 1.39 1.002 2.383 2.506 2.383.774 0 1.416-.264 1.838-.756l-.466-.546c-.343.379-.801.563-1.346.563-.923 0-1.583-.545-1.688-1.363h3.781c.009-.079.018-.184.018-.255Zm-2.304-1.688c.818 0 1.407.554 1.495 1.336h-2.99c.088-.79.686-1.336 1.495-1.336Zm3.958-.668-.079 1.723c-.062 1.1-.097 2.242-.853 2.242a.98.98 0 0 1-.211-.026l-.053.712c.194.053.361.08.519.08 1.055 0 1.275-1.31 1.354-2.955l.053-1.038h2.005V37h.844v-4.66h-3.579Zm7.365 1.582-1.31-.008V32.34h-.844V37l2.022.009c1.249.009 1.952-.554 1.952-1.565 0-.959-.633-1.513-1.82-1.522Zm-.202 2.445-1.108-.009V34.53l1.108.018c.774.009 1.161.272 1.161.888 0 .624-.396.94-1.161.932Zm3.106.633h.844v-1.952h2.655V37h.844v-4.66h-.844v1.978h-2.655V32.34h-.844V37Zm7.981.053c1.398 0 2.418-.994 2.418-2.383 0-1.39-1.02-2.374-2.418-2.374-1.398 0-2.427.985-2.427 2.374 0 1.39 1.029 2.383 2.427 2.383Zm0-.739c-.897 0-1.574-.65-1.574-1.644 0-.994.677-1.636 1.574-1.636s1.565.642 1.565 1.636c0 .993-.668 1.644-1.565 1.644Zm5.818-4.581c.853 0 1.371-.422 1.389-1.213h-.589c-.009.44-.326.72-.809.72-.475 0-.792-.28-.8-.72h-.572c.009.79.528 1.213 1.381 1.213ZM143.396 37h.774l2.849-3.394V37h.844v-4.66h-.765l-2.858 3.394V32.34h-.844V37Zm11.94-4.66h-4.256v.738h1.706V37h.844v-3.922h1.706v-.738Zm4.869 2.356c0-1.433-.958-2.4-2.304-2.4-1.345 0-2.339.993-2.339 2.374 0 1.39 1.003 2.383 2.506 2.383.774 0 1.416-.264 1.838-.756l-.466-.546c-.343.379-.8.563-1.345.563-.924 0-1.583-.545-1.689-1.363h3.781c.009-.079.018-.184.018-.255Zm-2.304-1.688c.818 0 1.407.554 1.495 1.336h-2.99c.088-.79.686-1.336 1.495-1.336ZM165.255 37l-1.856-2.383 1.759-2.277h-.923l-1.275 1.68-1.284-1.68h-.941l1.75 2.277L160.647 37h.941l1.363-1.785L164.296 37h.959Zm.888 0h.844v-1.952h2.656V37h.844v-4.66h-.844v1.978h-2.656V32.34h-.844V37Zm5.985 0h.774l2.849-3.394V37h.844v-4.66h-.765l-2.858 3.394V32.34h-.844V37Zm9.482 0h.994l-1.891-2.418 1.768-2.242h-.906l-1.513 1.97h-.984v-1.97h-.845V37h.845v-1.97h.967L181.61 37Zm1.879 0h.773l2.849-3.394V37h.845v-4.66h-.765l-2.858 3.394V32.34h-.844V37Z" fill="#999"/></svg>