<svg width="115" height="24" viewBox="0 0 115 24" fill="none" xmlns="http://www.w3.org/2000/svg"><path d="M19.752 2.983c1.813 2.948 3.399 10.747-4.758 18.366 11.057-6.167 7.78-14.814 4.758-18.366Z" fill="#FFCB09"/><path d="M23.831 9.332c-.075 4.156-2.81 12.878-13.141 14.511 11.963.907 13.745-9.296 13.141-14.511ZM.04 14.775C-.338 9.56 1.807-.69 13.408.037 9.783.414 2.034 3.89.04 14.775Z" fill="#FFCB09"/><path d="M9.103 2.53C4.57 5.479-2.725 13.37 4.345 21.35.538 12.643 5.93 5.176 9.103 2.53Z" fill="#FFCB09"/><path d="M7.291 5.705C4.306 9.295.177 20.987 10.69 23.164c-7.07-4.172-5.212-13.378-3.4-17.46Z" fill="#FFCB09"/><path d="M7.063 9.559c.53-.983 2.176-2.902 4.532-2.72-3.263-1.27-4.38 1.284-4.532 2.72Zm1.361-3.855c.906-.454 3.49-.771 6.57 1.587-1.359-1.587-4.576-4.127-6.57-1.587Z" fill="#FFCB09"/><path d="M17.487 10.92c-.68-2.72-3.217-7.936-7.93-7.029 5.8-2.902 7.703 3.477 7.93 7.03Zm-4.985 6.574c.982-.075 3.263-.725 4.531-2.72 0 1.36-.906 3.809-4.531 2.72Zm-3.625-.68c1.208.832 4.305 2.313 7.024 1.588-1.133 1.058-4.124 2.222-7.024-1.588Z" fill="#FFCB09"/><path d="M6.61 12.733c.302 2.872 2.402 8.345 8.384 7.256-2.644 1.663-8.021 2.54-8.384-7.256Zm6.572-11.337c2.794.907 7.477 5.533 3.851 16.78 7.478-12.472-.906-17.46-3.851-16.78Z" fill="#FFCB09"/><path d="M28.646 14.095h4.568c2.567 0 4.017-1.12 4.017-3.118 0-1.897-1.29-2.932-3.727-2.932h-3.001V5.574h6.047V4.036h-7.903v10.06Zm1.857-1.437V9.482h2.61c1.479 0 2.218.503 2.218 1.553 0 1.063-.768 1.623-2.218 1.623h-2.61Zm11.475-6.323c-1.247 0-2.45.317-3.277.949l.71 1.308c.58-.475 1.48-.762 2.35-.762 1.29 0 1.928.618 1.928 1.667v.115h-2.001c-2.35 0-3.22 1.006-3.22 2.285 0 1.336 1.117 2.299 2.886 2.299 1.16 0 2.002-.374 2.437-1.035v.934h1.71V9.597c0-2.213-1.29-3.262-3.523-3.262Zm-.247 6.553c-.928 0-1.479-.416-1.479-1.063 0-.56.334-1.02 1.566-1.02h1.871v.89c-.304.79-1.073 1.193-1.958 1.193Zm11.582-6.466-2.45 5.676-2.437-5.676h-1.885l3.379 7.702-.13.302c-.349.761-.726 1.063-1.364 1.063-.493 0-.986-.2-1.334-.532l-.725 1.323c.493.445 1.305.704 2.074.704 1.29 0 2.276-.532 2.987-2.27l3.625-8.292h-1.74Zm10.549 7.673h1.973L61.252 4.036h-1.856l-4.568 10.06h1.943l1-2.329h5.076l1.015 2.328Zm-5.452-3.793 1.9-4.398 1.914 4.398H58.41Zm13.07-3.967c-1.058 0-1.957.36-2.566 1.093V6.422h-1.726v10.461h1.813v-3.722c.623.704 1.493 1.035 2.48 1.035 2.262 0 3.93-1.552 3.93-3.938 0-2.37-1.668-3.923-3.93-3.923Zm-.203 6.323c-1.305 0-2.305-.934-2.305-2.4 0-1.465 1-2.4 2.305-2.4 1.305 0 2.291.935 2.291 2.4 0 1.466-.986 2.4-2.29 2.4Zm13.188-2.356c0-2.4-1.653-3.967-3.916-3.967-2.305 0-4.002 1.639-4.002 3.923 0 2.285 1.682 3.938 4.278 3.938 1.334 0 2.422-.431 3.118-1.25l-.972-1.107c-.55.56-1.233.834-2.103.834-1.348 0-2.29-.719-2.508-1.84h6.076a7.31 7.31 0 0 0 .029-.531Zm-3.916-2.53c1.19 0 2.045.762 2.19 1.869h-4.394c.174-1.121 1.03-1.869 2.204-1.869Zm5.898 6.323h1.813v-3.032h3.9v3.032h1.813V6.422h-1.812V9.54H88.26V6.422h-1.813v7.673Zm17.076-1.523v-6.15h-6.38l-.102 2.63c-.087 1.796-.276 3.477-1.364 3.52h-.362v3.233h1.682v-1.71h5.975v1.71h1.696v-3.233h-1.145Zm-4.83-3.391.044-1.236h2.973v4.627h-3.814c.624-.59.74-1.954.798-3.391Zm10.48-2.846c-1.247 0-2.451.317-3.277.949l.71 1.308c.58-.475 1.479-.762 2.349-.762 1.291 0 1.929.618 1.929 1.667v.115h-2.001c-2.349 0-3.219 1.006-3.219 2.285 0 1.336 1.116 2.299 2.885 2.299 1.16 0 2.001-.374 2.436-1.035v.934h1.712V9.597c0-2.213-1.291-3.262-3.524-3.262Zm-.247 6.553c-.928 0-1.479-.416-1.479-1.063 0-.56.334-1.02 1.566-1.02h1.871v.89c-.305.79-1.073 1.193-1.958 1.193Z" fill="#1F1E1D"/><path d="M30.697 22.675h.57l-1.729-3.773H29l-1.724 3.773h.56l.42-.943h2.022l.419.943ZM28.445 21.3l.822-1.849.82 1.849h-1.642Zm4.921-1.508c-.424 0-.794.161-1.028.48v-.453h-.5v3.901h.522v-1.476c.239.307.598.463 1.006.463.843 0 1.457-.582 1.457-1.46 0-.873-.614-1.455-1.457-1.455Zm-.044 2.462c-.549 0-.968-.398-.968-1.007 0-.604.42-1.003.968-1.003.555 0 .974.4.974 1.003 0 .609-.42 1.007-.974 1.007Zm4.864-.991c0-.879-.592-1.471-1.424-1.471s-1.447.609-1.447 1.455c0 .851.62 1.46 1.55 1.46.478 0 .875-.162 1.136-.463l-.288-.334c-.212.231-.495.344-.832.344-.57 0-.979-.334-1.044-.835h2.338c.006-.048.011-.113.011-.156Zm-1.424-1.035c.505 0 .87.34.924.82h-1.849c.055-.486.424-.82.925-.82Zm2.234 2.447h.522v-1.197h1.642v1.197h.523v-2.856h-.523v1.212h-1.642V19.82h-.522v2.856Zm6.192-.453v-2.403h-2.235l-.043.964c-.038.722-.11 1.418-.522 1.439h-.153v1.115h.495v-.662h2.41v.662h.489v-1.115h-.44Zm-1.8-1.401.027-.55h1.251v1.951h-1.615c.261-.226.315-.808.337-1.401Zm3.948-1.029c-.462 0-.891.129-1.19.366l.217.388c.223-.188.571-.307.914-.307.516 0 .772.253.772.69v.102h-.827c-.859 0-1.158.377-1.158.835 0 .496.413.841 1.066.841.451 0 .772-.15.946-.41v.378h.495V20.95c0-.781-.446-1.158-1.235-1.158Zm-.12 2.516c-.396 0-.635-.178-.635-.463 0-.243.146-.442.663-.442h.805v.399c-.13.328-.44.506-.832.506Zm5.011.399c.517 0 .947-.216 1.175-.614l-.397-.248a.9.9 0 0 1-.783.41c-.566 0-.99-.389-.99-1.008 0-.61.424-1.003.99-1.003a.9.9 0 0 1 .783.41l.397-.253c-.228-.4-.658-.61-1.175-.61-.886 0-1.522.604-1.522 1.456 0 .851.636 1.46 1.522 1.46Zm3.962-2.888h-2.632v.452h1.055v2.404h.522V20.27h1.055v-.452Zm2.061-.027c-.424 0-.793.161-1.027.48v-.453h-.5v3.901h.522v-1.476c.239.307.598.463 1.006.463.842 0 1.457-.582 1.457-1.46 0-.873-.615-1.455-1.457-1.455Zm-.043 2.462c-.55 0-.968-.398-.968-1.007 0-.604.419-1.003.968-1.003.555 0 .973.4.973 1.003 0 .609-.418 1.007-.973 1.007Zm3.493.453c.865 0 1.496-.609 1.496-1.46 0-.852-.63-1.455-1.495-1.455-.865 0-1.501.603-1.501 1.455 0 .851.636 1.46 1.5 1.46Zm0-.453c-.554 0-.973-.398-.973-1.007 0-.61.419-1.003.974-1.003.554 0 .968.394.968 1.003 0 .609-.414 1.007-.968 1.007Zm2.25.421h.478l1.762-2.08v2.08h.522v-2.856h-.473l-1.767 2.08v-2.08h-.522v2.856Zm5.924-2.856h-2.632v.452h1.055v2.404h.522V20.27h1.055v-.452Zm3.011 1.444c0-.879-.593-1.471-1.425-1.471-.832 0-1.447.609-1.447 1.455 0 .851.62 1.46 1.55 1.46.479 0 .876-.162 1.137-.463l-.288-.334c-.212.231-.495.344-.832.344-.571 0-.98-.334-1.044-.835h2.338c.005-.048.01-.113.01-.156Zm-1.425-1.035c.506 0 .87.34.925.82h-1.85c.055-.486.425-.82.925-.82Zm2.448-.409-.05 1.056c-.037.673-.059 1.374-.527 1.374a.614.614 0 0 1-.13-.016l-.033.436a1.2 1.2 0 0 0 .321.049c.653 0 .789-.803.837-1.81l.033-.637h1.24v2.404h.522v-2.856h-2.213Zm4.555.97-.81-.006v-.964h-.523v2.856l1.251.005c.772.006 1.207-.34 1.207-.96 0-.586-.391-.926-1.125-.931Zm-.125 1.498-.685-.006v-1.12l.685.01c.478.006.718.167.718.544 0 .383-.245.577-.718.572Zm1.92.388h.522v-1.197h1.643v1.197h.522v-2.856h-.522v1.212H80.78V19.82h-.522v2.856Zm4.936.032c.865 0 1.495-.609 1.495-1.46 0-.852-.63-1.455-1.495-1.455-.865 0-1.5.603-1.5 1.455 0 .851.635 1.46 1.5 1.46Zm0-.453c-.555 0-.973-.398-.973-1.007 0-.61.418-1.003.973-1.003.555 0 .968.394.968 1.003 0 .609-.413 1.007-.968 1.007Zm3.598-2.807c.527 0 .848-.259.86-.744h-.365c-.006.27-.201.442-.5.442-.294 0-.49-.172-.495-.442h-.354c.006.485.326.744.854.744Zm-1.349 3.228h.479l1.762-2.08v2.08h.522v-2.856h-.473l-1.768 2.08v-2.08h-.522v2.856Zm7.384-2.856h-2.632v.452h1.055v2.404h.522V20.27h1.055v-.452Zm3.011 1.444c0-.879-.592-1.471-1.424-1.471s-1.447.609-1.447 1.455c0 .851.62 1.46 1.55 1.46.479 0 .876-.162 1.137-.463l-.289-.334c-.212.231-.494.344-.832.344-.57 0-.978-.334-1.044-.835h2.339a1.6 1.6 0 0 0 .01-.156Zm-1.424-1.035c.505 0 .87.34.924.82H95.49c.055-.486.424-.82.925-.82Zm4.547 2.447-1.147-1.46 1.088-1.396h-.571l-.789 1.029-.794-1.03h-.582l1.082 1.396-1.136 1.46h.582l.843-1.093.832 1.094h.592Zm.55 0h.522v-1.197h1.642v1.197h.522v-2.856h-.522v1.212h-1.642V19.82h-.522v2.856Zm3.701 0h.479l1.761-2.08v2.08h.523v-2.856h-.474l-1.767 2.08v-2.08h-.522v2.856Zm5.864 0h.614l-1.169-1.482 1.093-1.374h-.56l-.935 1.207h-.609v-1.207h-.522v2.856h.522v-1.207h.598l.968 1.207Zm1.162 0h.478l1.762-2.08v2.08H115v-2.856h-.473l-1.767 2.08v-2.08h-.522v2.856Z" fill="#999"/></svg>