<svg width="26" height="27" viewBox="0 0 26 27" fill="none" xmlns="http://www.w3.org/2000/svg"><path d="m7.499 24.082.003-.001-.003.001Zm1.253.491-.001-.002v.002Zm-.89.426-.298.954a1.058 1.058 0 0 0 .723-.035c.095-.038.178-.084.235-.117.12-.071.253-.163.381-.258.262-.194.59-.46.933-.75a29.04 29.04 0 0 0 1.663-1.528c2.302.162 4.617-.04 6.858-.6l-.002-.008.084-.021c.469-.116 1.754-.43 2.957-1.275 1.47-1.03 2.847-2.821 3.223-5.904.723-5.861-.28-9.962-2.57-11.96-.779-.708-3.33-2.452-8.674-2.48l-.054-.003-.215-.008a21.928 21.928 0 0 0-3.3.176c-1.938.256-4.46.876-6.177 2.451l-.016.015-.015.015C1.673 5.588 1.083 8.329 1.015 11.4c-.033 1.48-.08 3.796.631 5.948.679 2.056 2.06 3.992 4.72 4.955.04.309.091.698.148 1.09.062.433.132.881.2 1.232.033.172.07.344.11.486.02.066.05.162.094.258.022.046.062.128.128.215.047.064.21.273.518.369l.299-.954Z" fill="#7B519C" stroke="#fff" stroke-width="2"/><path d="M15.713 11.26v.013a.287.287 0 0 1-.572.014 1.37 1.37 0 0 0-.864-1.406 1.365 1.365 0 0 0-.579-.09h.004a.286.286 0 0 1 .015-.572h.016l.064-.001a1.917 1.917 0 0 1 1.915 2.048v-.006Zm.895.5c.044-1.873-1.125-3.338-3.346-3.502a.286.286 0 1 1 .041-.57h.015a3.866 3.866 0 0 1 3.86 4.094v-.01a.287.287 0 0 1-.57-.008v-.007.002Zm2.072.592v.002a.286.286 0 0 1-.572.002c-.022-3.599-2.423-5.558-5.331-5.579a.285.285 0 1 1 0-.57c3.257.022 5.874 2.27 5.9 6.144h.003Zm-.495 4.33v.008c-.476.839-1.368 1.765-2.286 1.47l-.008-.014a16.986 16.986 0 0 1-4.55-2.522l.04.028a11.628 11.628 0 0 1-1.855-1.848l-.018-.024a14.205 14.205 0 0 1-1.32-1.983l-.038-.074a12.863 12.863 0 0 1-1.123-2.367L7 9.264c-.296-.918.626-1.81 1.47-2.286h.008a.801.801 0 0 1 1.055.17v.002s.548.653.782.976c.22.3.517.781.67 1.05a.919.919 0 0 1-.162 1.173h-.001l-.53.424a.774.774 0 0 0-.233.621v-.003a5.554 5.554 0 0 0 3.682 3.711l.04.01a.778.778 0 0 0 .617-.232l.424-.53A.92.92 0 0 1 16 14.19l-.004-.002a11.5 11.5 0 0 1 2.031 1.458l-.01-.009a.785.785 0 0 1 .166 1.045l.002-.003.001.002Z" fill="#fff"/></svg>