<svg width="25" height="25" viewBox="0 0 25 25" fill="none" xmlns="http://www.w3.org/2000/svg"><path d="m6.607 21.487.41.202c1.702 1.014 3.61 1.487 5.517 1.487 5.995 0 10.9-4.865 10.9-10.811 0-2.838-1.159-5.608-3.203-7.635a10.865 10.865 0 0 0-7.697-3.176c-5.995 0-10.9 4.865-10.831 10.879 0 2.027.613 3.986 1.635 5.675l.272.406L2.52 22.5l4.087-1.013Z" fill="#00E676"/><path d="M21.39 3.649C19.073 1.284 15.872 0 12.602 0 5.654 0 .068 5.608.136 12.432c0 2.163.613 4.257 1.635 6.15L0 25l6.608-1.69c1.839 1.014 3.882 1.487 5.926 1.487C19.414 24.797 25 19.19 25 12.365c0-3.31-1.294-6.42-3.61-8.716Zm-8.788 19.054c-1.84 0-3.678-.473-5.245-1.42l-.409-.202-3.95 1.014 1.021-3.852-.272-.405C.749 13.04 2.18 6.689 7.084 3.716 11.99.743 18.324 2.162 21.322 7.027c2.997 4.865 1.566 11.149-3.338 14.122-1.567 1.013-3.475 1.554-5.382 1.554Zm5.995-7.5-.75-.338s-1.09-.473-1.77-.81c-.069 0-.137-.068-.205-.068-.204 0-.34.067-.477.135 0 0-.068.067-1.022 1.148a.375.375 0 0 1-.34.203h-.069a.519.519 0 0 1-.272-.135l-.34-.135c-.75-.338-1.431-.743-1.976-1.284-.136-.135-.34-.27-.477-.405-.477-.473-.954-1.014-1.294-1.622l-.068-.135c-.068-.068-.068-.135-.136-.27 0-.136 0-.27.068-.338 0 0 .272-.338.476-.54.137-.136.205-.339.341-.474.136-.202.205-.473.136-.675-.068-.338-.885-2.163-1.09-2.568-.136-.203-.272-.27-.476-.338h-.75c-.136 0-.272.068-.408.068l-.069.067c-.136.068-.272.203-.408.27-.137.136-.205.27-.34.406-.478.608-.75 1.351-.75 2.095 0 .54.136 1.08.34 1.554l.069.202a11.26 11.26 0 0 0 2.52 3.446l.272.27c.205.203.41.338.545.541 1.43 1.216 3.066 2.095 4.905 2.568.204.067.477.067.681.135h.681c.341 0 .75-.135 1.022-.27.204-.136.34-.136.477-.27l.136-.136c.137-.135.273-.203.409-.338.136-.135.273-.27.34-.405.137-.27.205-.608.273-.946v-.473s-.068-.068-.204-.135Z" fill="#fff"/></svg>