<svg width="30" height="30" viewBox="0 0 30 30" fill="none" xmlns="http://www.w3.org/2000/svg"><g clip-path="url(#a)" fill="#FFCB09"><path d="M23 0H7c-.827 0-1.5.673-1.5 1.5S6.173 3 7 3h16c.827 0 1.5-.673 1.5-1.5S23.827 0 23 0Zm0 2H7a.5.5 0 0 1 0-1h16a.5.5 0 0 1 0 1Zm0 25H7c-.827 0-1.5.673-1.5 1.5S6.173 30 7 30h16c.827 0 1.5-.673 1.5-1.5S23.827 27 23 27Zm0 2H7a.5.5 0 0 1 0-1h16a.5.5 0 0 1 0 1Z"/><path d="M18.563 13.144A13.353 13.353 0 0 0 22.5 3.64V2.5A.5.5 0 0 0 22 2H8a.5.5 0 0 0-.5.5v1.14c0 3.59 1.398 6.965 3.937 9.504l.502.503c.357.356.561.85.561 1.353 0 .504-.204.997-.56 1.354l-.503.502A13.353 13.353 0 0 0 7.5 26.361v1.14a.5.5 0 0 0 .5.5h14a.5.5 0 0 0 .5-.5v-1.14c0-3.59-1.398-6.966-3.937-9.505l-.502-.502A1.9 1.9 0 0 1 17.5 15a1.9 1.9 0 0 1 .56-1.353l.503-.503Zm-1.21-.204A2.893 2.893 0 0 0 16.5 15c0 .78.303 1.51.854 2.06l.502.503a12.36 12.36 0 0 1 3.644 8.798V27h-13v-.64c0-3.324 1.294-6.448 3.643-8.798l.503-.502c.551-.55.854-1.282.854-2.06a2.89 2.89 0 0 0-.854-2.061l-.502-.503A12.36 12.36 0 0 1 8.5 3.64V3h13v.64a12.36 12.36 0 0 1-3.644 8.797l-.503.503Z"/><path d="M19.225 8.424C19.175 8.296 19.003 8 18.5 8c-2.598 0-3.756-.557-4.215-.889a2.137 2.137 0 0 0-1.966-.289 1.97 1.97 0 0 0-1.317 1.632.527.527 0 0 0 .062.291c.469.831 1.01 1.707 1.787 2.485l.502.502A3.885 3.885 0 0 1 14.5 14.5a.5.5 0 1 0 1 0 3.89 3.89 0 0 1 1.146-2.768l.503-.503c.123-.122.284-.274.461-.44 1.293-1.216 1.836-1.808 1.615-2.365Zm-2.3 1.636c-.186.175-.355.333-.484.463l-.503.502a4.91 4.91 0 0 0-.939 1.31 4.91 4.91 0 0 0-.939-1.31l-.502-.502c-.614-.614-1.063-1.291-1.53-2.106a.977.977 0 0 1 .624-.652c.35-.124.74-.065 1.047.157.637.46 1.893 1.004 4.299 1.071-.31.348-.794.805-1.074 1.067Zm3.541 15.401c-.126-1.621-.776-2.294-1.528-3.074-.101-.106-.207-.215-.316-.331A3.346 3.346 0 0 0 16.188 21h-2.376c-.919 0-1.806.385-2.434 1.056-.109.116-.214.225-.316.33-.752.78-1.402 1.454-1.527 3.076a.5.5 0 0 0 .498.538h9.934a.5.5 0 0 0 .499-.539ZM10.603 25c.17-.873.573-1.291 1.18-1.919l.325-.342A2.34 2.34 0 0 1 13.812 22h2.376c.644 0 1.265.27 1.704.738.113.122.222.234.327.343.606.629 1.01 1.047 1.18 1.919h-8.796Zm4.382-9a.5.5 0 0 0-.5.5v.5a.5.5 0 1 0 1 0v-.5a.5.5 0 0 0-.5-.5Zm0 2.5a.5.5 0 0 0-.5.5v.5a.5.5 0 1 0 1 0V19a.5.5 0 0 0-.5-.5Z"/></g><defs><clipPath id="a"><path fill="#fff" d="M0 0h30v30H0z"/></clipPath></defs></svg>