<svg width="30" height="30" viewBox="0 0 30 30" fill="none" xmlns="http://www.w3.org/2000/svg"><path d="M27.657 15.469H25.79a8.912 8.912 0 0 0-.483-1.172l1.318-1.317a.47.47 0 0 0 0-.663l-2.547-2.548a4.215 4.215 0 0 0 4.65-5.79.47.47 0 0 0-.763-.15l-1.634 1.635a.47.47 0 0 0 .33.806.469.469 0 0 0 .333-.143l1.082-1.081a3.281 3.281 0 1 1-2.653-2.652l-2.235 2.235a.469.469 0 0 0 0 .663l1.99 1.989a.469.469 0 0 0 .662-.663L24.183 4.96l2.457-2.456a.468.468 0 0 0-.149-.763 4.213 4.213 0 0 0-5.64 5.225l-.767.769a.463.463 0 0 0-.396-.235h-1.98l-.16-.323.73-.195a.468.468 0 0 0 .33-.574l-.221-.83.828-.221a.469.469 0 0 0 .346-.426l.127-2.09a.47.47 0 0 0-.235-.434L17.016 1a.468.468 0 0 0-.64.172l-3.61 6.251-1.748-1.75.332-.332a.47.47 0 0 0 0-.664l-.458-.457a2.808 2.808 0 0 1 1.905-1.74.47.47 0 0 0 .088-.872l-.557-.278a3.708 3.708 0 0 0-3.937.392l-.358-.357a.469.469 0 0 0-.663 0L6.198 2.534a.469.469 0 0 0 .663.663l.839-.838 2.65 2.651-2.982 2.984-2.647-2.65.82-.82a.469.469 0 0 0-.663-.663l-1.151 1.15a.469.469 0 0 0 0 .663l.331.33-.663.664-.332-.331a.469.469 0 0 0-.662 0L1.075 7.662a.469.469 0 0 0 0 .663L4.39 11.64a.469.469 0 0 0 .662 0l1.326-1.327a.469.469 0 0 0 0-.663l-.331-.332.662-.663.332.332a.469.469 0 0 0 .663 0l.663-.664 1.843 1.844-2.147 2.148a.468.468 0 0 0 0 .664l1.317 1.317c-.173.35-.323.711-.449 1.082L3.516 12.25a.468.468 0 0 0-.64.171L1 15.67a.469.469 0 0 0 .171.64L5.834 19l-2.415 1.394a1.407 1.407 0 0 0-.515 1.922l1.875 3.248c.08.138.185.26.308.364l-2.509 1.446a.47.47 0 0 0-.171.641l.469.812a.467.467 0 0 0 .78.053.47.47 0 0 0 .031-.522l-.234-.406 3.578-2.066 1.694-.977 2.653 2.653a.468.468 0 0 0 .663 0l1.317-1.318c.38.189.771.35 1.173.483v1.866a.468.468 0 0 0 .47.469h4.687a.469.469 0 0 0 .469-.47v-1.865a8.912 8.912 0 0 0 1.171-.483l1.317 1.317a.47.47 0 0 0 .664 0l3.316-3.314a.468.468 0 0 0 0-.664l-1.318-1.318c.189-.379.35-.77.483-1.172h1.867a.468.468 0 1 0 0-.938h-2.213a.469.469 0 0 0-.45.34 7.937 7.937 0 0 1-.672 1.632.469.469 0 0 0 .079.558l1.23 1.23-2.652 2.652-1.229-1.23a.469.469 0 0 0-.558-.079 7.937 7.937 0 0 1-1.632.672.47.47 0 0 0-.34.45v1.744h-3.75v-1.743a.47.47 0 0 0-.339-.45 7.937 7.937 0 0 1-1.633-.673.469.469 0 0 0-.557.079l-1.23 1.23-2.653-2.652 1.23-1.228a.469.469 0 0 0 .08-.558 7.94 7.94 0 0 1-.673-1.633.469.469 0 0 0-.45-.34H7.5v-3.75h1.743a.468.468 0 0 0 .451-.34 7.94 7.94 0 0 1 .672-1.632.469.469 0 0 0-.079-.558l-1.23-1.23 2.652-2.652 1.229 1.23a.469.469 0 0 0 .557.079 7.937 7.937 0 0 1 1.633-.673.469.469 0 0 0 .341-.45V8.438h3.75v1.743a.468.468 0 0 0 .339.45 7.939 7.939 0 0 1 1.633.673.469.469 0 0 0 .557-.08l1.23-1.23 2.652 2.653-1.23 1.228a.469.469 0 0 0-.078.558c.284.518.51 1.065.672 1.633a.468.468 0 0 0 .45.339h1.744v2.343a.469.469 0 0 0 .937 0v-2.81a.469.469 0 0 0-.468-.47ZM4.72 10.646 2.069 7.994l.663-.663 2.652 2.654-.663.66Zm.663-1.99L4.058 7.332l.663-.663 1.326 1.326-.663.663Zm-1.931 4.641.812.469-.703 1.219a.47.47 0 1 0 .812.469l.703-1.22.812.47-.703 1.218a.47.47 0 1 0 .811.469l.704-1.219.515.297H7.03a.469.469 0 0 0-.468.47v2.401l-4.516-2.608 1.406-2.435Zm3.352 8.55a.468.468 0 1 1-.243.906.468.468 0 1 1 .243-.907Zm2.093-.753c.133.401.294.793.483 1.172l-1.318 1.318a.466.466 0 0 0-.019.636L6.23 25.266a.469.469 0 0 1-.64-.172l-1.874-3.248a.469.469 0 0 1 .171-.64l2.675-1.543v.962c.002.1.036.196.098.274a1.404 1.404 0 0 0 .025 2.806 1.4 1.4 0 0 0 .71-2.611h1.502Zm2.64-19.078a3.757 3.757 0 0 0-1.36 1.494L9.061 2.39a2.781 2.781 0 0 1 2.477-.374Zm1.822 8.302L12.04 9a.468.468 0 0 0-.663 0l-.503.505-1.843-1.843 1.325-1.326 3.683 3.682a8.18 8.18 0 0 0-.68.3ZM15 7.5a.469.469 0 0 0-.469.469v1.219L13.454 8.11l3.502-6.063 1.781 1.027-.088 1.466-.954.255a.469.469 0 0 0-.332.575l.222.828-.828.221a.47.47 0 0 0-.303.66l.208.421h-1.66Zm6.328 2.818a8.912 8.912 0 0 0-1.171-.483v-.848l1.12-1.12c.315.507.736.94 1.234 1.27l-1.183 1.181Z" fill="#FFCB09"/><path d="M17.344 14.531a3.742 3.742 0 0 1 1.993.578.47.47 0 1 0 .5-.793 4.698 4.698 0 1 0 1.472 1.473.47.47 0 1 0-.793.5 3.748 3.748 0 1 1-3.172-1.758Z" fill="#FFCB09"/></svg>