<svg width="30" height="30" viewBox="0 0 30 30" fill="none" xmlns="http://www.w3.org/2000/svg"><g clip-path="url(#a)" fill="#FFCB09"><path d="M29.998 18.184a1.575 1.575 0 0 0-1.57-1.504h-3.969l1.388-.526a2 2 0 0 0 .819-.582l2.835-3.378a1.996 1.996 0 0 0 .338-1.99l-1.952-5.142a1.996 1.996 0 0 0-1.573-1.265l-4.362-.645a1.998 1.998 0 0 0-1 .109L16.373 5a2 2 0 0 0-.82.582l-2.835 3.377a1.99 1.99 0 0 0-.084.107 1.285 1.285 0 0 0-1.025-.51H6.062c-.535 0-1.029.268-1.32.717l-1.03 1.589a.429.429 0 1 0 .72.466l1.03-1.588a.712.712 0 0 1 .6-.327H9.15v4.088a.43.43 0 0 1-.429.43H2.747l.628-.97a.429.429 0 1 0-.72-.467l-.689 1.063a2.713 2.713 0 0 0-.437 1.48v.923A1.657 1.657 0 0 0 0 17.61c0 .87.675 1.585 1.529 1.65v.8c0 .48.215.927.59 1.227l1.525 1.222v.803c0 .394.32.715.715.715h.71a3.345 3.345 0 0 0 3.302 2.842 3.345 3.345 0 0 0 3.303-2.842h.71a.716.716 0 0 0 .715-.715v-.151h5.215v.15c0 .395.32.716.715.716h.709a3.345 3.345 0 0 0 4.75 2.514.429.429 0 1 0-.372-.774 2.485 2.485 0 0 1-3.557-2.238 2.485 2.485 0 0 1 2.482-2.482 2.485 2.485 0 0 1 2.225 3.584.429.429 0 0 0 .768.382 3.3 3.3 0 0 0 .31-.986h.71a.715.715 0 0 0 .714-.715v-.151H29c.552 0 1.001-.45 1.001-1.001v-3.941a.499.499 0 0 0-.002-.035ZM.858 17.61c0-.397.291-.726.671-.786v1.572a.798.798 0 0 1-.671-.786Zm25.33-12.964c.407.06.75.336.897.72l1.951 5.143c.146.384.073.819-.192 1.134l-2.65 3.157-4.085-10.757 4.08.603ZM13.375 9.51l2.773-3.302.653 1.72a.43.43 0 0 0 .802-.305l-.721-1.899 4.325-1.642 4.285 11.289-3.41 1.31H21.04l-2.767-7.29a.429.429 0 0 0-.802.305l2.651 6.984h-2.921l-1.171-.173a1.137 1.137 0 0 1-.896-.72l-1.952-5.143a1.137 1.137 0 0 1 .192-1.134Zm-.48 2.794.806 2.122-.805.289v-2.41Zm0 3.322 1.11-.397.328.862c.083.219.203.417.35.59h-1.787v-1.055ZM2.388 19.129v-4.093c0-.083.006-.166.017-.248H8.72c.71 0 1.287-.577 1.287-1.287V9.414h1.6a.43.43 0 0 1 .43.428v9.308h-.299a1.578 1.578 0 0 0-1.289-.673H6.293c-.515 0-.997.255-1.289.673H2.387v-.02Zm1.529 1.893a2.029 2.029 0 0 0-.192.452l-1.07-.857a.723.723 0 0 1-.267-.609H4.5l-.585 1.014Zm4.455 4.99a2.485 2.485 0 0 1-2.482-2.483 2.485 2.485 0 0 1 2.482-2.482 2.485 2.485 0 0 1 2.482 2.482 2.485 2.485 0 0 1-2.482 2.482Zm3.87-2.843h-.55a3.345 3.345 0 0 0-3.32-2.98 3.345 3.345 0 0 0-3.32 2.98H4.5v-1.132c0-.205.055-.408.158-.586l1.015-1.759a.717.717 0 0 1 .62-.357h4.155a.72.72 0 0 1 .62.357l1.014 1.759c.103.178.158.38.158.586v1.132Zm6.344-2.147c-.178.308-.271.66-.271 1.015v.266h-5.216v-.266c0-.356-.094-.707-.272-1.015l-.585-1.014h6.93l-.586 1.014Zm8.325 2.147h-.549a3.345 3.345 0 0 0-3.32-2.98 3.345 3.345 0 0 0-3.32 2.98h-.55v-1.132c0-.205.055-.408.157-.586l1.016-1.759a.717.717 0 0 1 .619-.357h4.156c.254 0 .491.137.619.357l1.015 1.759c.103.178.157.38.157.586v1.132Zm2.232-1.01a.143.143 0 0 1-.143.144h-1.23v-.266c0-.356-.095-.707-.273-1.015l-.585-1.014h2.231v2.152Zm0-3.009h-2.734a1.577 1.577 0 0 0-1.29-.673h-4.155a1.58 1.58 0 0 0-1.29.673h-6.778v-1.612h15.532c.394 0 .715.32.715.715v.897Z"/><path d="M8.371 21.936c-.878 0-1.593.715-1.593 1.593 0 .879.715 1.594 1.593 1.594.879 0 1.594-.715 1.594-1.594 0-.878-.715-1.593-1.594-1.593Zm0 2.329a.736.736 0 1 1 .002-1.473.736.736 0 0 1-.002 1.473Zm13.076-.735c0 .878.715 1.593 1.594 1.593.878 0 1.593-.715 1.593-1.594 0-.878-.715-1.593-1.593-1.593-.879 0-1.594.715-1.594 1.593Zm2.33 0a.736.736 0 1 1-1.473-.002.736.736 0 0 1 1.472.001ZM7.058 16.629h1.255a.429.429 0 1 0 0-.858H7.058a.429.429 0 0 0 0 .858Z"/></g><defs><clipPath id="a"><path fill="#fff" d="M0 0h30v30H0z"/></clipPath></defs></svg>