<svg width="30" height="30" viewBox="0 0 30 30" fill="none" xmlns="http://www.w3.org/2000/svg"><path d="M29.14 9.825c-.448-.66-1.262-1.659-2.59-2.666C24.5 5.604 20.832 3.75 15 3.75c-5.832 0-9.5 1.854-11.55 3.409C1.07 8.964 0 11.003 0 11.875v13.75c0 .345.28.625.625.625h28.751c.344 0 .624-.28.624-.624V11.875c0-.499-.313-1.246-.86-2.05ZM4.205 8.155C6.102 6.714 9.516 5 15 5c5.485 0 8.897 1.715 10.794 3.154 1.77 1.344 2.598 2.715 2.86 3.372a12.974 12.974 0 0 0-2.084-2.164C24.51 7.657 20.83 5.625 15 5.625S5.49 7.658 3.43 9.362a12.95 12.95 0 0 0-2.084 2.164c.262-.657 1.089-2.028 2.86-3.372Zm10.17 16.844H5.624v-7.5h8.75V25Zm9.999 0h-8.75v-7.5h8.75V25Zm1.25 0v-8.124a.625.625 0 0 0-.626-.624H5a.625.625 0 0 0-.625.624v8.124H1.25V14.375c0-.336.744-2.203 2.976-4.05C6.13 8.751 9.543 6.875 15 6.875c5.458 0 8.871 1.876 10.774 3.45 2.232 1.847 2.975 3.714 2.975 4.05V25h-3.123Z" fill="#FFCB09"/><path d="M13.125 20.625h-6.25a.625.625 0 0 0 0 1.25h6.25a.625.625 0 0 0 0-1.25Zm0-1.875h-6.25a.625.625 0 0 0 0 1.25h6.25a.625.625 0 0 0 0-1.25Zm0 3.75h-6.25a.625.625 0 0 0 0 1.25h6.25a.625.625 0 0 0 0-1.25Zm9.999-1.875h-6.249a.625.625 0 0 0 0 1.25h6.25a.626.626 0 1 0 0-1.25Zm0-1.875h-6.249a.625.625 0 0 0 0 1.25h6.25a.626.626 0 1 0 0-1.25Zm0 3.75h-6.249a.625.625 0 0 0 0 1.25h6.25a.626.626 0 1 0 0-1.25ZM21.875 10H8.125a.625.625 0 0 0-.625.625v2.5c0 .345.28.625.625.625h13.75c.345 0 .625-.28.625-.625v-2.5a.625.625 0 0 0-.625-.625Zm-7.5 2.5H8.75v-1.25h5.625v1.25Zm6.874 0h-5.624v-1.25h5.624v1.25Z" fill="#FFCB09"/></svg>