<?xml version="1.0" encoding="utf-8"?><svg width="148" height="148" viewBox="0 0 148 148" xmlns="http://www.w3.org/2000/svg" xmlns:xlink="http://www.w3.org/1999/xlink"><view id="image-comments-close" viewBox="89 111 12 11"/><svg width="12" height="11" fill="none" viewBox="-1 -1 12 11" x="89" y="111" xmlns="http://www.w3.org/2000/svg"><path d="M1 .5l8 8m0-8l-8 8" stroke="#1F1E1D" stroke-linecap="round" stroke-linejoin="round"/></svg><view id="image-comments-white" viewBox="73 111 16 13"/><svg width="16" height="13" fill="none" viewBox="-1 -1 16 13" x="73" y="111" xmlns="http://www.w3.org/2000/svg"><path d="M7 0C3.134 0 0 2.286 0 5.107c0 1.218.585 2.333 1.559 3.21C1.217 9.553.074 10.656.06 10.667a.18.18 0 00-.04.214.216.216 0 00.199.118c1.813 0 3.172-.78 3.844-1.262A9.186 9.186 0 007 10.214c3.866 0 7-2.286 7-5.107S10.866 0 7 0z" fill="#fff"/></svg><view id="image-hotline1" viewBox="0 0 37 37"/><svg width="37" height="37" fill="none" viewBox="-1 -1 37 37" xmlns="http://www.w3.org/2000/svg"><g fill="#FFCB09" clip-path="url(#cclip0_1978_35115)"><path d="M34.78 13.158l-.911-1.579a.684.684 0 10-1.184.684l.911 1.579a.266.266 0 01-.097.364l-2.411 1.392a.267.267 0 01-.364-.098l-4.85-8.4a.267.267 0 01.097-.364l2.411-1.392a.267.267 0 01.365.098l.862 1.493a.683.683 0 101.184-.684l-.863-1.493a1.636 1.636 0 00-2.232-.598l-2.41 1.392c-.367.211-.62.544-.74.919h-6.834c-.96 0-1.861.373-2.54 1.052l-.7.7a8.087 8.087 0 00-1.876-.222h-2.122a1.629 1.629 0 00-.764-1.006l-2.41-1.391a1.624 1.624 0 00-1.24-.164 1.623 1.623 0 00-.992.762l-4.85 8.4a1.624 1.624 0 00-.164 1.24c.113.421.384.774.762.992l2.41 1.392a1.624 1.624 0 001.115.19l1.973 1.974a2.443 2.443 0 00.674 2.215 2.45 2.45 0 001.603.714 2.443 2.443 0 00.706 1.998c.465.465 1.082.72 1.739.72h.053l-.001.053c0 .657.256 1.274.72 1.739.465.464 1.082.72 1.74.72l.052-.001v.053c0 .657.255 1.274.72 1.739.464.464 1.081.72 1.738.72s1.275-.256 1.74-.72l.971-.973c.286-.285.485-.623.6-.983.433.319.946.478 1.46.478a2.452 2.452 0 002.349-1.728c.396.26.858.398 1.342.398.657 0 1.274-.256 1.739-.72.345-.345.575-.775.67-1.242a2.465 2.465 0 002.514-.596 2.462 2.462 0 000-3.478l-1.595-1.595 2.912-2.913a1.63 1.63 0 001.01-.206l2.41-1.392c.378-.218.649-.57.761-.992a1.623 1.623 0 00-.163-1.24zM1.501 15.65a.266.266 0 01-.097-.364l4.85-8.4a.265.265 0 01.364-.098l2.41 1.391a.267.267 0 01.098.365l-4.85 8.4a.267.267 0 01-.364.098l-2.41-1.392zm6.136 5.215c0-.291.114-.566.32-.772l.59-.59a1.089 1.089 0 011.864.772c0 .292-.113.566-.32.773l-.59.59a1.093 1.093 0 01-1.864-.773zm3.401 3.806c-.292 0-.566-.114-.772-.32a1.085 1.085 0 01-.32-.772c0-.292.114-.566.32-.772l.972-.973a1.089 1.089 0 011.864.772c0 .292-.113.566-.32.773l-.972.972c-.206.206-.48.32-.772.32zm2.511 2.511c-.292 0-.566-.114-.772-.32a1.085 1.085 0 01-.32-.772c0-.292.114-.566.32-.772l.972-.973c.213-.212.493-.319.773-.319a1.089 1.089 0 011.092 1.092c0 .291-.114.566-.32.772l-.973.972c-.206.206-.48.32-.772.32zm4.256 1.219l-.973.972c-.206.206-.48.32-.772.32-.291 0-.566-.114-.772-.32a1.085 1.085 0 01-.32-.772c0-.292.114-.566.32-.772l.973-.973c.212-.212.492-.319.772-.319s.559.107.772.32a1.093 1.093 0 010 1.544zm10.674-4.393c-.207.206-.48.32-.773.32-.291 0-.566-.114-.772-.32l-6.524-6.525a.684.684 0 00-.967.966l5.851 5.852c.206.206.32.48.32.772 0 .292-.114.566-.32.772-.206.207-.48.32-.772.32-.292 0-.566-.113-.772-.32l-7.032-7.031a.684.684 0 00-.966.967l5.851 5.851c.206.206.32.48.32.772a1.093 1.093 0 01-1.864.772l-1.287-1.286-.006-.005a2.451 2.451 0 00-1.786-.713v-.054a2.452 2.452 0 00-2.512-2.457l.002-.055a2.456 2.456 0 00-2.694-2.447 2.441 2.441 0 00-.718-1.623 2.462 2.462 0 00-3.478 0l-.59.59c0 .001 0 .002-.002.002L5.47 17.611l4.759-8.243h2.37c.231 0 .463.013.693.037l-.781.781a2.443 2.443 0 00-.72 1.739c0 .657.255 1.274.72 1.739.48.48 1.109.72 1.739.72.63 0 1.26-.24 1.739-.72l1.845-1.845 10.645 10.644a1.093 1.093 0 010 1.544zM21.91 13.962a3.88 3.88 0 001.604-3.144.684.684 0 10-1.367 0c0 .893-.471 1.707-1.224 2.157l-2.604-2.603a.683.683 0 00-.966-.007l-2.332 2.332a1.093 1.093 0 01-1.864-.772c0-.292.113-.566.32-.772l2.663-2.664a2.21 2.21 0 011.573-.651h7.007l4.819 8.346c.01.02.023.039.036.058l-2.693 2.692-4.972-4.972z"/><path d="M31.738 9.941a.69.69 0 00.484-.2.69.69 0 00.2-.483.69.69 0 00-.2-.484.687.687 0 00-1.167.484.687.687 0 00.683.683z"/></g><defs><clipPath id="cclip0_1978_35115"><path fill="#fff" d="M0 0h35v35H0z"/></clipPath></defs></svg><view id="image-hotline2" viewBox="37 0 37 37"/><svg width="37" height="37" fill="none" viewBox="-1 -1 37 37" x="37" xmlns="http://www.w3.org/2000/svg"><g clip-path="url(#dclip0_1978_35124)" fill="#FFCB09"><path d="M22.118 22.588c5.35 0 9.704-4.353 9.704-9.704 0-5.35-4.353-9.704-9.704-9.704-5.35 0-9.704 4.353-9.704 9.704 0 5.35 4.353 9.704 9.704 9.704zm0-18.041c4.597 0 8.337 3.74 8.337 8.337 0 4.597-3.74 8.337-8.337 8.337-4.597 0-8.337-3.74-8.337-8.337 0-4.597 3.74-8.337 8.337-8.337z"/><path d="M22.016 25.969c7.16 0 12.984-5.825 12.984-12.985C35 5.824 29.175 0 22.016 0 14.856 0 9.03 5.825 9.03 12.984c0 2.718.84 5.242 2.273 7.33L9.18 22.436l-.29-.29a.684.684 0 00-.966 0L1.02 29.052A3.463 3.463 0 000 31.515c0 .93.363 1.806 1.02 2.464A3.462 3.462 0 003.486 35c.93 0 1.806-.363 2.464-1.02l6.903-6.903a.684.684 0 000-.968l-.29-.289 2.125-2.124a12.91 12.91 0 007.329 2.273zm0-24.602c6.406 0 11.617 5.212 11.617 11.617 0 6.406-5.212 11.617-11.617 11.617-6.406 0-11.617-5.211-11.617-11.617 0-6.405 5.211-11.617 11.617-11.617zM4.983 33.013c-.4.4-.932.62-1.498.62s-1.097-.22-1.497-.62a2.12 2.12 0 010-2.996l6.419-6.42.29.29 2.705 2.706-6.42 6.42zm6.613-8.16l-1.45-1.45 1.997-1.996c.444.52.93 1.006 1.45 1.45l-1.997 1.996z"/><path d="M19.777 11.086a.684.684 0 00.684-.684 1.66 1.66 0 011.848-1.646 1.657 1.657 0 01.615 3.094c-.919.514-1.49 1.464-1.49 2.48v.976a.684.684 0 101.367 0v-.976c0-.521.303-1.014.79-1.287a3.028 3.028 0 001.531-2.982 3.033 3.033 0 00-2.663-2.664 3.039 3.039 0 00-2.358.752 3.028 3.028 0 00-1.007 2.253c0 .378.306.684.683.684zM22.113 17.287a.689.689 0 00-.483.2.687.687 0 00.483 1.167.686.686 0 00.684-.683.688.688 0 00-.684-.684z"/></g><defs><clipPath id="dclip0_1978_35124"><path fill="#fff" d="M0 0h35v35H0z"/></clipPath></defs></svg><view id="image-hotline3" viewBox="0 37 37 37"/><svg width="37" height="37" fill="none" viewBox="-1 -1 37 37" y="37" xmlns="http://www.w3.org/2000/svg"><g clip-path="url(#eclip0_1978_35092)" fill="#FFCB09"><path d="M24.296 35.002a1.758 1.758 0 001.691-1.294l1.613-6.021 6.107-1.633a1.753 1.753 0 001.234-2.142L31.774 12.11l.25-.933a1.75 1.75 0 00-1.054-2.075l-1.426-5.323A1.762 1.762 0 0027.4 2.54L16.985 5.334 8.252 2.993a1.715 1.715 0 00-1.083.058L4.987.873A2.916 2.916 0 10.863 4.996l3.976 3.977L.075 26.759a1.754 1.754 0 001.234 2.145l22.533 6.038c.148.04.3.06.454.06zm9.516-10.788c.083.309-.1.627-.408.712l-5.455 1.458 3.22-12.02 2.643 9.85zM27.7 3.668a.583.583 0 01.718.415l1.244 4.647-10.423-2.793L27.7 3.668zM17.67 17.682l-2.944-.982 1.963-1.964.98 2.944v.002zm-2.374-3.2l-4.948-4.95a.583.583 0 10-.824.826l4.948 4.947-.824.826-8.248-8.248.825-.825 1.649 1.65a.583.583 0 00.825-.825L7.05 6.233l.825-.824 8.246 8.247-.825.825zM3.75 6.233l2.474-2.475.825.825-2.474 2.474-.825-.824zm-2.575-3.3a1.75 1.75 0 012.987-1.236L5.4 2.935 2.925 5.409 1.687 4.172a1.738 1.738 0 01-.512-1.237zm.027 24.132l4.59-17.14 7.442 7.441c.06.06.134.105.215.133.004 0 .008.006.013.008l3.841 1.283a1.174 1.174 0 00.992-.124l6.706 1.8a.583.583 0 10.302-1.126l-6.473-1.737a1.208 1.208 0 00-.053-.292l-1.284-3.842c0-.005-.006-.009-.008-.014a.578.578 0 00-.132-.213L8.339 4.226l22.144 5.931a.583.583 0 01.413.715l-6.035 22.53a.583.583 0 01-.715.414L1.615 27.78a.585.585 0 01-.413-.715z"/><path d="M26.964 13.727a.583.583 0 00.15-1.146l-8.294-2.223a.582.582 0 10-.303 1.126l8.296 2.223c.049.013.1.02.15.02zM26.06 17.105a.583.583 0 00.15-1.146l-5.639-1.509a.583.583 0 10-.3 1.127l5.639 1.508c.048.014.1.02.15.02zM8.063 18.342l-1.691-.453a.583.583 0 10-.303 1.126l1.691.453a.583.583 0 10.303-1.127zM24.813 23.432a.583.583 0 00-.412-.714l-12.956-3.47a.583.583 0 00-.302 1.123L24.1 23.842a.583.583 0 00.714-.41zM7.157 21.723l-1.691-.454a.583.583 0 00-.302 1.127l1.692.453a.583.583 0 00.302-1.126h-.001zM23.494 26.1l-12.955-3.472a.584.584 0 10-.303 1.126l12.956 3.471a.584.584 0 10.302-1.126z"/></g><defs><clipPath id="eclip0_1978_35092"><path fill="#fff" d="M0 0h35v35H0z"/></clipPath></defs></svg><view id="image-hotline4" viewBox="37 37 37 37"/><svg width="37" height="37" fill="none" viewBox="-1 -1 37 37" x="37" y="37" xmlns="http://www.w3.org/2000/svg"><g fill="#FFCB09"><path d="M20.964 27.685l-4.306-4.127a2.856 2.856 0 00-3.695-.246l-.02.015a.074.074 0 01-.058.015.055.055 0 01-.04-.027 14.442 14.442 0 01-2-5.16 14.434 14.434 0 01.076-5.535.05.05 0 01.024-.034.064.064 0 01.053-.006l.03.009a2.86 2.86 0 003.381-1.526l2.818-5.835a2.131 2.131 0 00-.422-2.445 5.862 5.862 0 00-9.106 1.056l-.002.001a14.35 14.35 0 00-.858 1.453l-.06.113c-.07.127-1.693 3.133-2.093 5.25-.62 3.282-.566 6.677.16 9.817.765 3.316 2.221 6.266 4.327 8.77.534.634 1.524-.197.99-.833-1.974-2.345-3.339-5.113-4.058-8.228-.685-2.967-.737-6.178-.149-9.286.362-1.917 1.942-4.844 1.96-4.875l.062-.117c.25-.465.513-.913.8-1.355l.005-.007a4.57 4.57 0 017.112-.84c.257.252.325.64.168.964L13.245 10.5a1.573 1.573 0 01-1.853.847l-.025-.007a1.348 1.348 0 00-1.712 1.015 15.711 15.711 0 00-.081 6.029 15.723 15.723 0 002.178 5.618 1.355 1.355 0 001.97.356l.018-.013a1.567 1.567 0 012.023.145l4.306 4.127c.525.504.535 1.354.19 1.958-.603 1.053-1.855 1.758-3.021 1.956a4.554 4.554 0 01-3.377-.753c-.681-.474-1.42.587-.737 1.061a5.835 5.835 0 004.33.967c1.547-.263 3.13-1.2 3.927-2.587l.015-.026c.632-1.101.504-2.611-.432-3.509z"/><path d="M23.305 6.955a6.963 6.963 0 00-6.883 7.961l-1.152 3.746a.658.658 0 00.583.835l3.574.188a6.905 6.905 0 003.878 1.18 6.963 6.963 0 006.955-6.955 6.963 6.963 0 00-6.955-6.955zm0 12.617a5.623 5.623 0 01-3.285-1.05.644.644 0 00-.342-.119l-2.93-.153.954-3.096c.112-.364-.06-.866-.06-1.244a5.668 5.668 0 015.663-5.662 5.668 5.668 0 015.662 5.662 5.669 5.669 0 01-5.662 5.662z"/><path d="M20.951 13.447a.654.654 0 00-.646.647c0 .351.295.646.646.646.341 0 .63-.278.645-.618a.652.652 0 00-.645-.675zM11.38 30.113a.654.654 0 00-.646.647c0 .351.296.646.647.646.341 0 .63-.278.645-.618a.653.653 0 00-.645-.675zM23.498 13.447a.652.652 0 00-.646.647c0 .352.294.646.646.646.341 0 .63-.278.644-.618a.652.652 0 00-.644-.675zM26.037 13.447a.654.654 0 00-.646.647c0 .351.295.646.646.646.341 0 .63-.278.645-.618a.652.652 0 00-.645-.675z"/></g></svg><view id="image-intro-next" viewBox="37 129 11 14"/><svg width="11" height="14" fill="none" viewBox="-1 -1 11 14" x="37" y="129" xmlns="http://www.w3.org/2000/svg"><path d="M1.448.568L7.656 6l-6.208 5.432" stroke="#1F1E1D" stroke-linecap="round" stroke-linejoin="round"/></svg><view id="image-intro-prev" viewBox="48 129 9 14"/><svg width="9" height="14" fill="none" viewBox="-1 -1 9 14" x="48" y="129" xmlns="http://www.w3.org/2000/svg"><path d="M6.481.815L.556 6l5.925 5.185" stroke="#1F1E1D" stroke-linecap="round" stroke-linejoin="round"/></svg><view id="image-prices1" viewBox="74 0 37 37"/><svg width="37" height="37" fill="none" viewBox="-1 -1 37 37" x="74" xmlns="http://www.w3.org/2000/svg"><g fill="#FFCB09" clip-path="url(#iclip0_1953_28772)"><path d="M32.267 9.854v-1.64a.547.547 0 00-.288-.482L17.76.076a.547.547 0 00-.519 0L7.945 5.082l.519.963 9.035-4.866L31.173 8.54v1.313h1.094zM3.022 7.732a.547.547 0 00-.288.482v1.64h1.094V8.54l3.774-2.032-.518-.963-4.062 2.187zM1.64 16.964a.547.547 0 00-.546.547v1.253c0 .133.048.262.137.362a4.928 4.928 0 002.632 1.55 21.178 21.178 0 007.942 10.51l5.384 3.727a.547.547 0 00.623 0l5.384-3.727-.623-.9-5.072 3.513-5.073-3.512a20.084 20.084 0 01-7.364-9.497 4.942 4.942 0 003.95-2.186h2.638l1.473 3.928v3.729h1.094v-3.828a.548.548 0 00-.035-.192l-1.606-4.283v-1.815c0-.452.368-.82.82-.82h6.29a2.19 2.19 0 01-2.188 2.188h-1.64a.547.547 0 00-.475.818l1.737 3.04c.247.433.378.926.378 1.424v1.28h1.094v-1.28c0-.688-.18-1.369-.523-1.967l-1.27-2.222h.699c.945 0 1.798-.401 2.397-1.043a1.916 1.916 0 002.373.923l-.645 2.15 1.047.315.704-2.345h2.61a4.942 4.942 0 003.95 2.186 19.905 19.905 0 01-6.216 8.64l.685.853a21 21 0 006.732-9.607 4.928 4.928 0 002.632-1.55.547.547 0 00.137-.362V17.51a.547.547 0 00-.547-.547h-2.988l-.73-1.094.73-1.094h2.988a.547.547 0 00.547-.547v-1.253a.547.547 0 00-.137-.362 4.926 4.926 0 00-3.69-1.666c-1.645 0-3.185.83-4.094 2.188h-2.47v-.82a1.916 1.916 0 00-2.826-1.683 1.918 1.918 0 00-2.644-1.14 1.914 1.914 0 00-3.536-.924 1.916 1.916 0 00-3.024 1.558v3.008h-2.47a4.94 4.94 0 00-4.093-2.187 4.926 4.926 0 00-3.691 1.666.547.547 0 00-.137.362v1.253c0 .302.245.547.547.547h2.988l.73 1.094-.73 1.094H1.641zm21.876-2.735h2.772a.547.547 0 00.474-.273 3.843 3.843 0 013.316-1.914c1.03 0 2.016.416 2.735 1.149v.491h-2.735a.547.547 0 00-.455.244l-1.094 1.64a.547.547 0 000 .607l1.094 1.64a.547.547 0 00.455.244h2.735v.492a3.832 3.832 0 01-2.735 1.15 3.843 3.843 0 01-3.316-1.915.547.547 0 00-.474-.273h-2.772v-3.282zm-2.735-1.914a.821.821 0 011.64 0v4.375a.821.821 0 01-1.64 0v-4.375zm-2.734-1.093a.821.821 0 011.64 0v3.007h-1.64v-3.007zM15.312 9.58a.821.821 0 011.641 0v4.648h-1.64V9.581zm-2.734.547a.821.821 0 011.64 0v4.101h-.82c-.293 0-.571.067-.82.185v-4.286zm-7.201 7.686l1.094-1.64a.547.547 0 000-.607l-1.094-1.64a.547.547 0 00-.455-.244H2.188v-.492a3.831 3.831 0 012.734-1.149c1.362 0 2.633.733 3.316 1.914a.547.547 0 00.474.274h2.772v3.28H8.712a.547.547 0 00-.474.274 3.843 3.843 0 01-3.316 1.914 3.831 3.831 0 01-2.734-1.149v-.491h2.734a.547.547 0 00.455-.244z"/><path d="M21.875 23.606l.47-1.563-1.048-.315-.493 1.641a.547.547 0 00-.023.157v2.735h1.094v-2.655z"/><path d="M13.98 28.095a17.17 17.17 0 01-5.868-6.984l-.995.456a18.265 18.265 0 006.243 7.428l3.828 2.638a.547.547 0 00.62 0l3.828-2.637a18.265 18.265 0 006.241-7.43l-.994-.455a17.17 17.17 0 01-5.868 6.984l-3.517 2.423-3.518-2.423zM6.27 10.349l11.228-5.892 11.232 5.892.509-.968-11.487-6.026a.547.547 0 00-.508 0L5.762 9.38l.508.969z"/></g><defs><clipPath id="iclip0_1953_28772"><path fill="#fff" d="M0 0h35v35H0z"/></clipPath></defs></svg><view id="image-prices2" viewBox="74 37 37 37"/><svg width="37" height="37" fill="none" viewBox="-1 -1 37 37" x="74" y="37" xmlns="http://www.w3.org/2000/svg"><g fill="#FFCB09" clip-path="url(#jclip0_1953_28784)"><path d="M33.808 28.226h.063v-5.08c0-.934-.76-1.694-1.694-1.694H24.84v-1.694c0-.122-.015-.241-.04-.357l3.774-8.626a1.46 1.46 0 00-.032-1.244l-.126-.253c-.249-.5-.752-.81-1.31-.81-.36 0-.69.144-.954.372L8.573 1.915l-.221-.486A2.444 2.444 0 006.132 0h-.307a2.433 2.433 0 00-2.411 2.177l-.02-.002L1.7 13.465l-.004.804a1.124 1.124 0 00-.567.973V17.5a1.13 1.13 0 001.13 1.129v2.823a.565.565 0 01-1.13 0v-.565H0v.565c0 .933.76 1.693 1.694 1.693.933 0 1.693-.76 1.693-1.693v-2.823a1.13 1.13 0 001.13-1.129v-2.258c0-.366-.178-.688-.449-.894l1.684-5.892 7.842 18.298.013-.006-.048.238-.01 1.24h.062a3.937 3.937 0 00-1.192 2.822A3.957 3.957 0 0016.371 35h14.677A3.957 3.957 0 0035 31.048a3.937 3.937 0 00-1.192-2.822zm-8.97-3.387V22.58h7.34c.311 0 .564.253.564.564v.565h-6.774v3.387h-1.13v-1.13H23.71v1.13H16.37c-.606 0-1.18.141-1.694.386v-.33l1.502-7.506a.566.566 0 01.553-.453h6.413c.312 0 .565.253.565.564v5.08h1.129zm7.904 0v2.645a3.915 3.915 0 00-1.13-.342v-2.303h1.13zm-2.258 0v2.258h-1.13v-2.258h1.13zm-2.258 0v2.258h-1.13v-2.258h1.13zM11.076 7.422l9.075 3.698.006.006.002-.003 3.999 1.629-2.5 5.312h-4.926c-.263 0-.513.067-.738.177L11.076 7.422zm3.08 9.505l-1.336-.632.393-1.443.943 2.075zm-2.132-4.692l-.91-.413.271-.992.639 1.405zM26.799 9.79c.11-.233.491-.238.607-.006l.127.252c.044.09.047.194.007.286l-3.501 8.003a1.682 1.682 0 00-.894-.26h-.24L26.8 9.79zm-1.258.022l-.902 1.916-3.613-1.472 1.594-1.594 2.921 1.15zm-4.066-1.601L19.89 9.794l-.87-.355 1.574-1.575.88.347zm-2.025-.798l-1.564 1.564-7.49-3.051-1.15-2.533 10.204 4.02zM9.204 6.032l.78 1.716-1.098-.55.318-1.166zM2.258 17.5v-2.258h1.13V17.5h-1.13zm.703-3.387h-.138v-.522l1.33-8.867.894 2.087-2.086 7.302zm2.768-8.577L4.622 2.953a1.31 1.31 0 011.202-1.824h.308c.512 0 .98.301 1.192.767l.387.85-.014.037.037.015.643 1.414L5.73 5.536zm1.49 3.48L6.464 7.25l1.09.545-.333 1.22zM6.908 6.21l1.248-.624-.3 1.098-.948-.474zm2.445 7.782l-.92-2.149 1.34.61-.42 1.539zM8.01 10.41l.573-2.101 2.041 1.02-.55 2.018-2.064-.937zm3.13 7.752l-.76-1.773 1.102.52-.342 1.253zm-.911-3.094l.585-2.143 1.561.71-.591 2.169-1.555-.736zm1.626 4.762l.663-2.43 2.361 1.116.28.616a1.693 1.693 0 00-.088.292l-1.079 5.393-2.137-4.987zm19.193 14.04H16.371a2.826 2.826 0 01-2.823-2.823 2.826 2.826 0 012.823-2.822h14.677a2.826 2.826 0 012.823 2.822 2.826 2.826 0 01-2.823 2.823z"/><path d="M30.486 28.79c-.678 0-1.28.306-1.693.78a2.244 2.244 0 00-1.694-.78c-.678 0-1.28.306-1.694.78a2.244 2.244 0 00-1.693-.78c-.678 0-1.28.306-1.694.78a2.244 2.244 0 00-1.693-.78c-.678 0-1.28.306-1.694.78a2.243 2.243 0 00-1.693-.78 2.26 2.26 0 00-2.258 2.258 2.26 2.26 0 002.258 2.258c.678 0 1.279-.306 1.693-.78.415.474 1.016.78 1.694.78.678 0 1.279-.306 1.693-.78.415.474 1.016.78 1.694.78.678 0 1.28-.306 1.694-.78.414.474 1.015.78 1.693.78.678 0 1.28-.306 1.694-.78.414.474 1.015.78 1.693.78a2.26 2.26 0 002.258-2.258 2.26 2.26 0 00-2.258-2.258zm-13.548 3.387a1.13 1.13 0 010-2.258 1.13 1.13 0 010 2.258zm3.387 0a1.13 1.13 0 010-2.258 1.13 1.13 0 010 2.258zm3.387 0a1.13 1.13 0 010-2.258 1.13 1.13 0 010 2.258zm3.387 0a1.13 1.13 0 010-2.258 1.13 1.13 0 010 2.258zm3.387 0a1.13 1.13 0 010-2.258 1.13 1.13 0 010 2.258zM16.382 23.599l-.01 1.24h6.209v-4.516h-5.543l-.656 3.276zm1.581-2.147h3.489v2.258h-3.94l.451-2.258z"/></g><defs><clipPath id="jclip0_1953_28784"><path fill="#fff" d="M0 0h35v35H0z"/></clipPath></defs></svg><view id="image-prices3" viewBox="0 74 37 37"/><svg width="37" height="37" fill="none" viewBox="-1 -1 37 37" y="74" xmlns="http://www.w3.org/2000/svg"><g clip-path="url(#kclip0_1953_28758)" fill="#FFCB09"><path d="M30.625 25.703a2.734 2.734 0 002.688-2.274 1.637 1.637 0 001.14-1.554V20.78a1.64 1.64 0 00-1.094-1.54v-1.194h-1.093v1.194a1.64 1.64 0 00-1.094 1.54v1.094a1.64 1.64 0 001.03 1.52 1.64 1.64 0 01-1.577 1.214h-.547v-9.843h.547a.547.547 0 00.547-.547V12.03a.547.547 0 00-.16-.386L27.73 8.363a.547.547 0 00-.386-.16h-4.061a6.016 6.016 0 10-11.566 0h-4.06a.547.547 0 00-.387.16l-3.282 3.282a.547.547 0 00-.16.386v2.188a.547.547 0 00.547.547h.547v9.843h-.547a1.64 1.64 0 01-1.577-1.214 1.641 1.641 0 001.03-1.52V20.78a1.64 1.64 0 00-1.094-1.54v-1.194H1.641v1.194a1.64 1.64 0 00-1.094 1.54v1.094a1.637 1.637 0 001.14 1.554 2.735 2.735 0 002.688 2.274h.547v5.469H1.094a.547.547 0 00-.547.547v2.187a.547.547 0 00.547.547h32.812a.547.547 0 00.547-.547V31.72a.547.547 0 00-.547-.547h-3.828v-5.469h.547zm1.64-4.922a.547.547 0 011.094 0v1.094a.547.547 0 11-1.093 0V20.78zm-30.624 0a.547.547 0 011.093 0v1.094a.547.547 0 11-1.093 0V20.78zm3.28-7.11v-1.093h25.157v1.094H4.922zm22.196-4.374l2.188 2.187h-8.357a6.049 6.049 0 001.904-2.187h4.265zM17.5 1.64a4.921 4.921 0 110 9.842 4.921 4.921 0 010-9.842zM7.883 9.297h4.265a6.05 6.05 0 001.907 2.187h-8.36l2.188-2.187zm25.476 24.062H1.641v-1.093h31.718v1.093zm-22.968-9.843h14.218v1.093H10.391v-1.093zm0 2.187h14.218v1.094H10.391v-1.094zm-1.094-5.469v-1.093h16.406v1.093H9.297zm15.312 1.094v1.094H10.391v-1.094h14.218zm-14.218 6.563h14.218v3.28H10.391v-3.28zm15.312 3.28v-9.843h.547a.547.547 0 00.547-.547v-2.187a.547.547 0 00-.547-.547H8.75a.547.547 0 00-.547.547v2.187a.547.547 0 00.547.547h.547v9.844H6.016V14.766h22.968v16.406h-3.28z"/><path d="M16.953 8.75V7.656H15.54l.867-.867a1.852 1.852 0 00.547-1.32 1.64 1.64 0 10-3.281 0h1.094a.547.547 0 111.093 0 .78.78 0 01-.226.547l-1.8 1.8a.547.547 0 00.386.934h2.734zM18.047 8.203h1.64v.547h1.094v-.547h.547V7.109h-.547V4.375a.547.547 0 00-1.002-.304l-2.187 3.282a.546.546 0 00.455.85zm1.64-2.023v.93h-.618l.619-.93z"/></g><defs><clipPath id="kclip0_1953_28758"><path fill="#fff" d="M0 0h35v35H0z"/></clipPath></defs></svg><view id="image-prices4" viewBox="37 74 37 37"/><svg width="37" height="37" fill="none" viewBox="-1 -1 37 37" x="37" y="74" xmlns="http://www.w3.org/2000/svg"><g clip-path="url(#lclip0_1953_28766)"><path d="M35 14.677h-1.269l-1.89.995a2.807 2.807 0 00-.673-.277L28.79 14.8v-.27a3.965 3.965 0 001.694-3.24v-.986c0-2.193-1.719-4.029-3.83-4.093a4.23 4.23 0 00-.32.007l.617-1.444-2.99-2.988L22.2 2.933a9.548 9.548 0 00-2.113-.877L19.65 0H15.35l-.435 2.057c-.736.205-1.444.499-2.113.876l-1.762-1.147-2.987 2.987.606 1.445c-.023-.001-.045-.006-.068-.006a3.922 3.922 0 00-2.873 1.114 3.915 3.915 0 00-1.2 2.835v1.13c0 1.291.64 2.504 1.693 3.238v.271l-1.552.388-2.811-1.64H0v11.698l5.554 1.85h1.081l.135-.472 1.703 1.022c.028.925.77 1.67 1.695 1.703.032.92.772 1.66 1.693 1.693a1.757 1.757 0 001.694 1.694 1.76 1.76 0 001.755 1.7c.353 0 .699-.11.99-.306l.5.441c.313.276.717.429 1.136.429h.104c.94 0 1.704-.76 1.716-1.696a1.717 1.717 0 001.693-1.693 1.717 1.717 0 001.694-1.695 1.736 1.736 0 001.687-1.902L35 22.93v-8.253zm-5.645-4.373v.986a2.833 2.833 0 01-1.413 2.443l-.282.163.002 1.787 2.82.704-6.208 3.268v-1.521c0-.759-.306-1.454-.808-1.967l1.937-.484v-1.788l-.281-.163a2.83 2.83 0 01-1.412-2.442v-1.129c0-.77.304-1.49.857-2.026a2.784 2.784 0 012.053-.795c1.508.046 2.735 1.375 2.735 2.963zM18.35 19.21l-2.555-.817a6.971 6.971 0 00-3.618-.165l-.323.072v-.167c0-.778.528-1.454 1.282-1.643l3.234-.808v-1.788l-.282-.163a2.83 2.83 0 01-1.412-2.442v-1.129c0-.77.305-1.49.858-2.026a2.791 2.791 0 012.052-.795c1.508.046 2.736 1.375 2.736 2.963v.987a2.834 2.834 0 01-1.413 2.443l-.283.163.003 1.787 3.233.808c.754.189 1.282.865 1.282 1.643v2.115l-.14.074h-.345l-3.47-.992a3.563 3.563 0 00-.839-.12zm-6.37-10.762A6.229 6.229 0 0117.5 5.081a6.239 6.239 0 015.495 3.323 3.925 3.925 0 00-.414 1.757v1.13c0 1.291.641 2.504 1.693 3.238v.271l-2.258.566-2.258-.566v-.27a3.965 3.965 0 001.694-3.24v-.986c0-2.193-1.719-4.029-3.83-4.093a3.922 3.922 0 00-2.873 1.114 3.92 3.92 0 00-1.2 2.836v1.13c0 1.291.64 2.504 1.693 3.238v.271l-2.258.566-2.259-.566v-.27a3.965 3.965 0 001.694-3.24v-.986c0-.665-.16-1.295-.438-1.855zM9.385 5.035L11.19 3.23l1.587 1.033.304-.186a8.424 8.424 0 012.444-1.014l.348-.083.392-1.852h2.472l.392 1.852.347.082c.861.207 1.684.548 2.445 1.015l.303.186 1.588-1.033 1.801 1.802-.64 1.499c-.436.187-.84.451-1.192.792-.023.023-.043.047-.065.07A7.372 7.372 0 0017.5 3.952a7.363 7.363 0 00-6.236 3.476 3.983 3.983 0 00-1.245-.883l-.634-1.51zM7.34 15.683v-1.788l-.282-.163a2.83 2.83 0 01-1.412-2.442v-1.129c0-.77.304-1.49.858-2.026a2.786 2.786 0 012.052-.795c1.508.046 2.735 1.375 2.735 2.963v.987a2.833 2.833 0 01-1.413 2.443l-.282.163.002 1.787 1.937.484a2.809 2.809 0 00-.808 1.967v.418l-1.761.392.046-.16.021-1.044-2.977-1.736 1.284-.321zm-6.21-1.006h.412l4.06 2.369-2.05 8.194-2.422-.808v-9.755zm4.608 11.29l-1.111-.37 1.99-7.96 1.287.752v.16l-2.119 7.419h-.047zm3.86 1.626c0-.167.067-.33.185-.448l.992-.992a.634.634 0 01.895.895l-.992.993a.634.634 0 01-1.08-.448zm1.693 1.694c0-.167.068-.33.186-.448l.992-.992a.634.634 0 01.895.895l-.992.992a.634.634 0 01-1.08-.448zm1.694 1.693c0-.166.067-.33.185-.448l.992-.992a.634.634 0 01.895.895l-.992.993a.634.634 0 01-1.08-.448zm2.326 2.326a.634.634 0 01-.447-1.08l.992-.992a.634.634 0 01.895.895l-.992.992a.637.637 0 01-.448.185zm2.73.565h-.104a.585.585 0 01-.39-.148l-.421-.372.424-.424c.15-.151.268-.331.355-.524l.513.427a.59.59 0 01-.377 1.041zm5.063-5.08h-.098a.605.605 0 01-.388-.142l-3.062-2.55-.723.867 2.973 2.477a.589.589 0 01-.378 1.04h-.123a.589.589 0 01-.376-.136l-3.067-2.555-.723.868 2.973 2.477a.59.59 0 01-.377 1.04.932.932 0 01-.594-.215l-1.26-1.05a1.756 1.756 0 00-1.516-.986 1.758 1.758 0 00-1.694-1.694 1.757 1.757 0 00-1.693-1.693 1.76 1.76 0 00-3-1.184l-.993.992c-.06.06-.109.127-.158.193L7.09 25.5l1.52-5.32 3.812-.848c1-.224 2.053-.175 3.028.137l.832.266-2.82 1.41a1.882 1.882 0 00-1.044 1.69v.113a1.893 1.893 0 002.864 1.62l2.102-1.26a1.165 1.165 0 011.354.13l4.77 4.293a.607.607 0 01-.406 1.059zm10.768-6.56l-9.51 4.756a1.572 1.572 0 00-.098-.094L19.495 22.6a2.266 2.266 0 00-2.691-.26l-2.103 1.261a.763.763 0 01-1.153-.654v-.111c0-.29.162-.552.422-.681l3.149-1.575a2.453 2.453 0 011.759-.163l3.547 1.013.86.022L33.87 15.88v6.352z" fill="#FFCB09"/></g><defs><clipPath id="lclip0_1953_28766"><path fill="#fff" d="M0 0h35v35H0z"/></clipPath></defs></svg><view id="image-time-white" viewBox="37 111 18 18"/><svg width="18" height="18" fill="none" viewBox="-1 -1 18 18" x="37" y="111" xmlns="http://www.w3.org/2000/svg"><path fill-rule="evenodd" clip-rule="evenodd" d="M8.003 13.334a4.667 4.667 0 110-9.334 4.667 4.667 0 010 9.334zm-.667-8h1v3.5l2.667 1.58-.5.82-3.167-1.9v-4zM5.256 2.26l-.853-1.02-3.067 2.567.86 1.02 3.06-2.567zm9.413 1.554L11.603 1.24l-.86 1.02 3.066 2.574.86-1.02z" fill="#fff"/><path fill-rule="evenodd" clip-rule="evenodd" d="M8.003 3c-1.592 0-2.875.542-4 1.667-1.126 1.125-1.667 2.409-1.667 4 0 1.591.541 2.875 1.667 4 1.125 1.125 2.408 1.667 4 1.667 1.59 0 2.874-.542 4-1.667 1.125-1.125 1.666-2.409 1.666-4 0-1.591-.541-2.875-1.666-4C10.877 3.542 9.593 3 8.003 3zm-3.3 8.967a4.667 4.667 0 106.6-6.6 4.667 4.667 0 00-6.6 6.6z" fill="#fff"/></svg><view id="image-views-white" viewBox="55 111 18 13"/><svg width="18" height="13" fill="none" viewBox="-1 -1 18 13" x="55" y="111" xmlns="http://www.w3.org/2000/svg"><path d="M10.5 5.5a2.5 2.5 0 11-5 0 2.5 2.5 0 015 0z" fill="#fff"/><path d="M0 5.5S3 0 8 0s8 5.5 8 5.5S13 11 8 11 0 5.5 0 5.5zM8 9a3.5 3.5 0 100-7 3.5 3.5 0 000 7z" fill="#fff"/></svg><view id="image-work-icon1" viewBox="74 74 37 35"/><svg width="37" height="35" fill="none" viewBox="-1 -1 37 35" x="74" y="74" xmlns="http://www.w3.org/2000/svg"><path fill-rule="evenodd" clip-rule="evenodd" d="M10.972.45l20.85-.014.546.157c.3.089.704.253.889.355.191.11.52.376.738.595.212.219.479.574.588.793.11.212.246.574.308.8.095.362.109 1.21.109 7.04 0 6.256-.014 6.652-.13 7.008-.068.205-.205.54-.307.738-.096.191-.363.54-.588.765-.226.226-.588.5-.807.609a5.42 5.42 0 01-.766.308c-.212.061-.615.109-1.504.109v6.084l-.17.17a.521.521 0 01-.376.172c-.13 0-.288-.069-.431-.199-.116-.109-.848-.888-1.62-1.736-.773-.848-1.422-1.531-1.456-1.51-.028.013-.048.136-.048.266s-.048.417-.11.636a3.841 3.841 0 01-.307.731c-.103.192-.37.52-.588.745-.219.219-.554.479-.738.575-.192.102-.513.239-.718.314-.362.13-.602.137-10.664.178l-2.646 2.925a275.13 275.13 0 01-2.94 3.213c-.252.246-.327.288-.546.274a.482.482 0 01-.39-.212c-.136-.191-.143-.267-.177-6.2H5.01c-1.573 0-2.051-.028-2.38-.11a4.546 4.546 0 01-.785-.3c-.205-.103-.56-.37-.786-.595-.226-.226-.506-.588-.623-.814a4.106 4.106 0 01-.328-.847C.014 23.083 0 22.256 0 9.767l.157-.41c.082-.226.219-.534.301-.684.075-.15.267-.41.41-.581.15-.171.465-.438.711-.602.24-.164.636-.362.882-.437.41-.137.629-.15 5.64-.205l.04-1.75c.035-1.518.062-1.819.185-2.202a4.26 4.26 0 01.41-.854c.144-.226.417-.547.602-.71a4.54 4.54 0 01.608-.438c.15-.076.445-.206.65-.294l.376-.15zm-.431 1.448c-.178.09-.451.315-.615.5a2.573 2.573 0 00-.43.69c-.117.321-.13.54-.13 2.064v1.71c13.445 0 14.444.013 14.799.109.226.054.581.184.786.287.205.102.581.383.827.629s.52.588.609.752c.089.17.218.478.3.683.137.37.137.527.178 5.989l.034 5.612 2.803 3.083c.068-5.1.068-5.107.226-5.264.143-.143.225-.157 1.162-.191.889-.028 1.046-.055 1.38-.205.206-.096.513-.315.684-.479.164-.17.376-.472.479-.683l.17-.376c.028-10.72.014-13.105-.033-13.33-.035-.185-.171-.506-.288-.711a2.803 2.803 0 00-.567-.636 3.311 3.311 0 00-.65-.362c-.266-.09-1.613-.103-10.595-.137-6.63-.02-10.377-.007-10.548.04a3.522 3.522 0 00-.574.226h-.007zM2.454 8.311a2.501 2.501 0 00-.642.478 3.17 3.17 0 00-.445.67l-.178.376v13.398c.274.588.493.896.657 1.06.164.164.471.383.676.479.376.17.383.17 2.803.205 1.593.027 2.475.061 2.564.116a.552.552 0 01.191.184c.027.062.048 1.238.048 2.605 0 1.374.02 2.502.055 2.502.027 0 1.087-1.149 2.358-2.55 1.271-1.401 2.413-2.618 2.53-2.7l.218-.157c6.781-.007 9.194-.028 9.741-.062.882-.041 1.032-.068 1.354-.232.191-.103.471-.301.615-.445.137-.143.328-.417.424-.601l.17-.335.035-13.433c-.233-.608-.41-.902-.54-1.046a3.094 3.094 0 00-.52-.444 2.775 2.775 0 00-.615-.26c-.273-.075-2.05-.089-9.33-.075-4.943.007-9.62.027-10.392.048-1.34.034-1.415.048-1.777.219zm7.164 4.368c3.11 0 3.876.013 4.033.089a.71.71 0 01.274.293c.068.15.068.24.013.397a.843.843 0 01-.19.294c-.09.061-1.088.082-8.15.082l-.17-.17c-.096-.097-.171-.247-.171-.356a.72.72 0 01.11-.349.708.708 0 01.259-.219c.075-.027 1.873-.061 3.992-.061zm3.74 3.493c4.798-.007 7.615.014 7.779.061.198.048.273.117.355.301.09.219.09.267 0 .479-.082.191-.157.26-.355.307-.171.048-2.988.069-15.552.035l-.164-.185c-.089-.103-.164-.274-.164-.376-.007-.103.061-.274.137-.37.075-.102.211-.197.293-.211.083-.02 3.535-.034 7.67-.041zm-7.766 3.54h15.627l.143.158c.082.082.164.205.192.274.02.068-.007.225-.062.355-.082.185-.164.26-.355.315-.178.047-2.728.061-15.552.027l-.164-.185a.69.69 0 01-.164-.396.652.652 0 01.17-.376l.165-.171z" fill="#FFCB09"/></svg><view id="image-work-icon2" viewBox="111 0 37 37"/><svg width="37" height="37" fill="none" viewBox="-1 -1 37 37" x="111" xmlns="http://www.w3.org/2000/svg"><g clip-path="url(#pclip0_1922_23511)"><path fill-rule="evenodd" clip-rule="evenodd" d="M13.365.007C23.701 0 25.431.014 25.635.096c.13.054.363.184.513.294.165.123.35.341.65.943v11.621l-.157.157a.55.55 0 01-.39.158c-.17 0-.287-.055-.581-.363l-.014-5.646c-.013-4.375-.04-5.688-.102-5.81a.583.583 0 00-.26-.22c-.11-.047-4.259-.061-23.803-.034l-.328.376v31.856l.41.41h11.792c10.343 0 11.82-.014 11.997-.103.11-.054.22-.17.24-.26.02-.081.04-1.524.068-6.254l.17-.178a.508.508 0 01.411-.178c.15 0 .294.062.554.308l-.007 6.494-.164.342c-.096.184-.24.41-.328.492-.09.082-.301.226-.807.499H1.369l-.288-.144a2.353 2.353 0 01-.52-.362c-.13-.116-.293-.335-.526-.759V1.265L.185.99C.269.841.433.622.563.5.685.383.91.226 1.06.15c.266-.136.45-.136 12.304-.143zM33.224 7.04c.341 0 .526.041.786.164.191.096.41.24.492.328.082.09.225.301.321.479.137.253.178.424.178.752 0 .369-.041.499-.273.923-.274.499-.274.499-.137.615a.433.433 0 01.136.342c0 .157-.225.615-1.503 2.823l.43.273c.233.15.506.39.602.527.096.143.212.369.26.499.04.13.075.362.075.512 0 .15-.034.383-.069.513-.04.13-.622 1.19-1.291 2.358-.677 1.162-1.265 2.154-1.32 2.202-.048.047-.191.102-.308.123-.19.027-.26 0-.444-.192-.178-.177-.205-.26-.178-.424.021-.109.581-1.141 1.245-2.29.82-1.422 1.203-2.153 1.203-2.29a.798.798 0 00-.103-.362c-.054-.082-.225-.212-.376-.287-.15-.075-.287-.13-.3-.123-.014.014-1.142 1.955-4.984 8.634l-1.032 1.244c-.568.69-1.224 1.552-1.456 1.914-.24.369-.513.759-.616.868-.109.11-.362.28-.567.37-.3.136-.451.163-1.128.108l-.704.89c-.39.491-.807.963-.923 1.045-.123.082-.342.171-.492.191a1.027 1.027 0 01-.547-.054 1.377 1.377 0 01-.444-.301c-.096-.102-.267-.417-.376-.69-.116-.274-.219-.5-.24-.493-.02 0-.13.13-.239.288-.116.164-.32.348-.465.41a1.336 1.336 0 01-.492.123 1.213 1.213 0 01-.834-.349 1.673 1.673 0 01-.246-.403c-.054-.13-.143-.725-.191-1.32-.062-.649-.123-1.066-.164-1.052-.034.013-.37.95-.732 2.071-.369 1.121-.724 2.099-.786 2.16a.87.87 0 01-.294.157.561.561 0 01-.39-.102.62.62 0 01-.273-.328c-.034-.137.157-.773.732-2.51.546-1.62.834-2.385.957-2.521.095-.11.273-.24.396-.295.116-.047.349-.088.513-.088.184 0 .369.054.526.157.13.089.308.267.39.396.13.199.17.424.266 1.463.062.677.13 1.244.15 1.265.015.02.049-.014.07-.068.02-.055.156-.233.314-.383.17-.178.369-.308.52-.335.129-.028.355-.028.498-.007.15.02.356.137.513.267.17.157.328.416.492.792.13.308.26.534.28.506.02-.027.308-.382 1.224-1.524l-.137-.342a2.225 2.225 0 01-.137-.752c0-.369.042-.485.404-1.182.225-.417.683-1.504 1.634-4.047l4.935-8.545-.294-.178a2.122 2.122 0 01-.369-.273.643.643 0 01-.096-.233.948.948 0 01.028-.328c.034-.13.123-.219.307-.294.247-.102.267-.096.63.082.362.178.375.178.464.055.048-.069.403-.663.786-1.32.383-.649.759-1.216.834-1.257a.841.841 0 01.363-.041c.205.027.239 0 .416-.315.11-.191.288-.424.39-.526.11-.103.322-.246.472-.321.184-.096.417-.137.718-.144zm-.588 1.613c-.11.164-.185.315-.164.328.02.014.232.137.478.274.246.137.479.24.513.225.04-.013.143-.177.232-.362.103-.212.144-.39.117-.492a.766.766 0 00-.178-.287.533.533 0 00-.356-.137.735.735 0 00-.335.075c-.061.035-.198.205-.307.376zm-2.4 3.063c.007.013.451.28.991.595.534.314.985.56.999.54.013-.02.28-.472.594-1.012.315-.533.56-.985.54-.998-.02-.014-.465-.274-.99-.574-.527-.308-.972-.561-.992-.561-.02 0-.287.444-.602.991-.307.547-.553 1.005-.54 1.019zm-.793 1.292c-.095.157-1.141 1.968-2.33 4.026-1.19 2.065-2.154 3.76-2.14 3.767.007.013.458.28 1.005.588.758.437 1.004.546 1.039.478.034-.054 1.066-1.845 2.31-3.992 1.237-2.147 2.256-3.924 2.256-3.965 0-.04-.287-.232-.636-.424-.341-.198-.786-.45-.984-.567l-.356-.198-.164.287zm-5.407 9.994c-.212.56-.383 1.039-.383 1.06 0 .02.09.082.192.136.102.062.355.205.56.321l.376.22c1.142-1.375 1.463-1.799 1.45-1.826-.014-.027-.301-.205-.636-.396a49.376 49.376 0 00-.855-.5c-.136-.082-.26-.13-.28-.095-.02.027-.212.513-.424 1.08zm-1.217 2.974c0 .164.055.28.178.39a.669.669 0 00.37.156.764.764 0 00.341-.102c.082-.055.212-.226.287-.376.075-.15.137-.287.137-.308 0-.02-.198-.143-.445-.273-.239-.13-.471-.24-.505-.24-.034 0-.13.117-.212.253-.09.144-.157.363-.15.5zm-9.454-22.49c5.968 0 7.643.013 7.827.081a.53.53 0 01.322.308c.047.123.068.28.047.342-.027.068-.109.191-.334.43h-14.8v1.163h7.266c5.695-.007 7.315.013 7.5.082a.53.53 0 01.32.307c.048.123.069.28.048.342-.027.068-.109.191-.334.43H5.607l-.171-.17c-.171-.171-.171-.171-.171-1.525 0-1.128.02-1.374.109-1.504a.647.647 0 01.26-.218c.082-.034 3.561-.062 7.731-.069zM7.343 8.202h12.14l.171.171c.11.103.171.246.171.376 0 .116-.068.28-.328.581l-5.9.02c-3.985.014-5.988-.006-6.159-.054-.198-.055-.28-.123-.362-.308-.055-.13-.082-.294-.055-.362.021-.062.103-.185.185-.273l.137-.15zm15.62 4.068l.178.17a.514.514 0 01.17.397c0 .144-.061.28-.334.56l-6.618.007c-6.548 0-6.617 0-6.801-.136-.15-.11-.192-.199-.192-.397.007-.143.041-.307.09-.376a.685.685 0 01.259-.184c.102-.041 2.604-.062 13.248-.041zm-6.426 3.486l.178.17a.54.54 0 01.178.41c0 .172-.055.295-.356.582H4.431l-.164-.185c-.09-.102-.164-.273-.164-.376 0-.102.061-.273.136-.376.082-.095.212-.191.294-.211.082-.014 2.817-.028 12.004-.014zm6.446 0l.165.191a.67.67 0 01.163.39c0 .123-.068.287-.328.581h-4.511l-.178-.17a.5.5 0 01-.178-.411c0-.16.05-.287.15-.383a.898.898 0 01.295-.184c.075-.021 1.1-.028 4.422-.014zm-12.318 2.905l.205.205c.13.13.205.28.212.397 0 .11-.075.26-.37.56H4.445l-.17-.17a.537.537 0 01-.171-.39c.006-.123.04-.274.088-.328a.996.996 0 01.22-.192c.095-.055 1.025-.075 6.254-.082zm4.204.007c1.545 0 2.167.02 2.29.082a.855.855 0 01.267.253c.055.11.082.246.055.362a.791.791 0 01-.199.322c-.15.136-.246.143-2.379.143-2.064 0-2.235-.007-2.392-.13a.643.643 0 01-.219-.307.449.449 0 01.055-.37.818.818 0 01.253-.273c.116-.062.683-.082 2.27-.082zM7.281 22.77c.301 0 .745.041.991.09.247.054.677.19.957.307.28.116.67.328.855.472.253.191.349.314.362.465.014.109.007.266-.013.355-.028.096-.137.191-.294.26-.24.095-.274.095-.5-.028-.13-.068-.423-.225-.649-.341a4.276 4.276 0 00-.854-.315 4.213 4.213 0 00-.855-.102c-.225 0-.608.04-.854.102a5.147 5.147 0 00-.889.322c-.28.136-.608.382-.889.663-.246.246-.54.628-.656.854a6.86 6.86 0 00-.342.786c-.082.253-.123.588-.123 1.026 0 .485.034.772.144 1.128.082.266.266.663.417.888.143.226.383.533.533.684.144.143.451.39.677.533.225.143.629.328.888.41.356.11.65.15 1.128.15.438-.006.773-.047 1.026-.13.205-.068.56-.218.786-.334.226-.123.608-.417.854-.663.28-.28.527-.609.664-.89.123-.238.266-.642.32-.888.062-.239.11-.574.11-.731 0-.212.048-.349.171-.5.123-.15.232-.204.397-.204.15 0 .28.054.417.184.191.192.198.205.157.773-.02.362-.103.793-.219 1.128-.096.3-.3.765-.458 1.025-.157.274-.513.711-.813 1.012-.452.437-.657.58-1.238.861-.39.185-.875.376-1.08.43-.205.049-.71.09-1.128.09-.574 0-.875-.041-1.299-.158a7.299 7.299 0 01-.99-.39 5.7 5.7 0 01-.821-.546 5.604 5.604 0 01-.697-.697 5.624 5.624 0 01-.56-.841c-.13-.24-.309-.69-.39-.991-.13-.431-.158-.704-.158-1.3.007-.47.048-.915.123-1.196.062-.239.226-.67.356-.957.136-.28.376-.676.533-.888a5.75 5.75 0 01.663-.69c.205-.178.526-.41.71-.52.192-.11.514-.267.719-.349.205-.089.574-.198.82-.246.246-.055.69-.096.991-.103zm2.277 3.213c.006 0 .116.035.239.082.143.062.253.171.307.308.069.178.069.26-.013.444-.048.123-.581.704-1.176 1.292-.595.588-1.176 1.108-1.292 1.149-.11.048-.328.082-.478.082-.15 0-.383-.041-.513-.103-.13-.061-.568-.45-.97-.861-.63-.643-.74-.793-.74-.978a.536.536 0 01.179-.41c.123-.13.253-.191.396-.184.178 0 .328.116 1.607 1.394l1.114-1.066c.615-.581 1.162-1.08 1.217-1.1a.507.507 0 01.123-.049z" fill="#FFCB09"/></g><defs><clipPath id="pclip0_1922_23511"><path fill="#fff" d="M0 0h35v35H0z"/></clipPath></defs></svg><view id="image-work-icon3" viewBox="111 37 37 37"/><svg width="37" height="37" fill="none" viewBox="-1 -1 37 37" x="111" y="37" xmlns="http://www.w3.org/2000/svg"><g clip-path="url(#qclip0_1922_23496)" fill="#FFCB09"><path d="M33.808 28.226h.063v-5.08c0-.934-.76-1.694-1.694-1.694H24.84v-1.694c0-.122-.015-.241-.04-.357l3.774-8.626a1.46 1.46 0 00-.032-1.244l-.126-.253c-.249-.5-.752-.81-1.31-.81-.36 0-.69.144-.954.372L8.573 1.915l-.221-.486A2.444 2.444 0 006.132 0h-.307a2.433 2.433 0 00-2.411 2.177l-.02-.002L1.7 13.465l-.004.804a1.124 1.124 0 00-.567.973V17.5a1.13 1.13 0 001.13 1.129v2.823a.565.565 0 01-1.13 0v-.565H0v.565c0 .933.76 1.693 1.694 1.693.933 0 1.693-.76 1.693-1.693v-2.823a1.13 1.13 0 001.13-1.129v-2.258c0-.366-.178-.688-.449-.894l1.684-5.892 7.842 18.298.013-.006-.048.238-.01 1.24h.062a3.937 3.937 0 00-1.192 2.822A3.957 3.957 0 0016.371 35h14.677A3.957 3.957 0 0035 31.048a3.937 3.937 0 00-1.192-2.822zm-8.97-3.387V22.58h7.34c.311 0 .564.253.564.564v.565h-6.774v3.387h-1.13v-1.13H23.71v1.13H16.37c-.606 0-1.18.141-1.694.386v-.33l1.502-7.506a.566.566 0 01.553-.453h6.413c.312 0 .565.253.565.564v5.08h1.129zm7.904 0v2.645a3.915 3.915 0 00-1.13-.342v-2.303h1.13zm-2.258 0v2.258h-1.13v-2.258h1.13zm-2.258 0v2.258h-1.13v-2.258h1.13zM11.076 7.422l9.075 3.698.006.006.002-.003 3.999 1.629-2.5 5.312h-4.926c-.263 0-.513.067-.738.177L11.076 7.422zm3.08 9.505l-1.336-.632.393-1.443.943 2.075zm-2.132-4.692l-.91-.413.271-.992.639 1.405zM26.799 9.79c.11-.233.491-.238.607-.006l.127.252c.044.09.047.194.007.286l-3.501 8.003a1.682 1.682 0 00-.894-.26h-.24L26.8 9.79zm-1.258.022l-.902 1.916-3.613-1.472 1.594-1.594 2.921 1.15zm-4.066-1.601L19.89 9.794l-.87-.355 1.574-1.575.88.347zm-2.025-.798l-1.564 1.564-7.49-3.051-1.15-2.533 10.204 4.02zM9.204 6.032l.78 1.716-1.098-.55.318-1.166zM2.258 17.5v-2.258h1.13V17.5h-1.13zm.703-3.387h-.138v-.522l1.33-8.867.894 2.087-2.086 7.302zm2.768-8.577L4.622 2.953a1.31 1.31 0 011.202-1.824h.308c.512 0 .98.301 1.192.767l.387.85-.014.037.037.015.643 1.414L5.73 5.536zm1.49 3.48L6.464 7.25l1.09.545-.333 1.22zM6.908 6.21l1.248-.624-.3 1.098-.948-.474zm2.445 7.782l-.92-2.149 1.34.61-.42 1.539zM8.01 10.41l.573-2.101 2.041 1.02-.55 2.018-2.064-.937zm3.13 7.752l-.76-1.773 1.102.52-.342 1.253zm-.911-3.094l.585-2.143 1.561.71-.591 2.169-1.555-.736zm1.626 4.762l.663-2.43 2.361 1.116.28.616a1.693 1.693 0 00-.088.292l-1.079 5.393-2.137-4.987zm19.193 14.04H16.371a2.826 2.826 0 01-2.823-2.823 2.826 2.826 0 012.823-2.822h14.677a2.826 2.826 0 012.823 2.822 2.826 2.826 0 01-2.823 2.823z"/><path d="M30.486 28.79c-.678 0-1.28.306-1.693.78a2.244 2.244 0 00-1.694-.78c-.678 0-1.28.306-1.694.78a2.244 2.244 0 00-1.693-.78c-.678 0-1.28.306-1.694.78a2.244 2.244 0 00-1.693-.78c-.678 0-1.28.306-1.694.78a2.243 2.243 0 00-1.693-.78 2.26 2.26 0 00-2.258 2.258 2.26 2.26 0 002.258 2.258c.678 0 1.279-.306 1.693-.78.415.474 1.016.78 1.694.78.678 0 1.279-.306 1.693-.78.415.474 1.016.78 1.694.78.678 0 1.28-.306 1.694-.78.414.474 1.015.78 1.693.78.678 0 1.28-.306 1.694-.78.414.474 1.015.78 1.693.78a2.26 2.26 0 002.258-2.258 2.26 2.26 0 00-2.258-2.258zm-13.548 3.387a1.13 1.13 0 010-2.258 1.13 1.13 0 010 2.258zm3.387 0a1.13 1.13 0 010-2.258 1.13 1.13 0 010 2.258zm3.387 0a1.13 1.13 0 010-2.258 1.13 1.13 0 010 2.258zm3.387 0a1.13 1.13 0 010-2.258 1.13 1.13 0 010 2.258zm3.387 0a1.13 1.13 0 010-2.258 1.13 1.13 0 010 2.258zM16.382 23.599l-.01 1.24h6.209v-4.516h-5.543l-.656 3.276zm1.581-2.147h3.489v2.258h-3.94l.451-2.258z"/></g><defs><clipPath id="qclip0_1922_23496"><path fill="#fff" d="M0 0h35v35H0z"/></clipPath></defs></svg><view id="image-work-icon4" viewBox="111 74 37 37"/><svg width="37" height="37" fill="none" viewBox="-1 -1 37 37" x="111" y="74" xmlns="http://www.w3.org/2000/svg"><g clip-path="url(#rclip0_1922_23506)"><path fill-rule="evenodd" clip-rule="evenodd" d="M21.636.007l.267.184c.15.103.321.294.39.424.068.13.15.472.232 1.285l.513.028c.355.02.588.068.752.17.13.076.314.26.403.404.123.191.178.403.246 1.258h.444c.28 0 .547.048.718.123.15.068.37.246.684.65l.04 3.226.732.048c.404.027.944.088 1.21.15.267.055.677.164.923.246.246.089.69.267.991.403.301.144.793.417 1.094.623.3.205.807.622 1.128.93.321.307.78.826 1.012 1.161.239.335.567.889.731 1.224.157.335.356.813.43 1.06.083.246.213.738.288 1.093.096.465.137.903.137 1.538 0 .643-.041 1.067-.144 1.538-.075.356-.212.882-.308 1.163-.095.28-.273.724-.403.99-.13.267-.383.712-.574.992-.185.28-.438.629-.568.766-.184.205-.273.252-.478.26-.205 0-.287-.042-.397-.192-.081-.103-.143-.232-.143-.287 0-.055.205-.383.458-.718a9.086 9.086 0 001.08-1.982c.041-.13-.184-.199-6.83-1.956l-5.058 5.052.479.342c.267.192.725.472 1.025.622.301.15.759.349 1.026.445.266.088.8.211 1.196.28.54.089.923.11 1.538.082a7.614 7.614 0 001.47-.205 9.56 9.56 0 001.353-.486c.581-.26.725-.3.868-.246.096.041.199.13.24.205a.793.793 0 01.068.322.428.428 0 01-.116.307c-.069.062-.356.219-.636.349-.28.13-.765.314-1.073.417-.315.096-.855.225-1.196.28-.35.055-.841.103-1.559.103v5.298L21.295 35H4.717l-.28-.191c-.15-.103-.328-.26-.39-.356-.068-.102-.123-.383-.184-1.265l-.581-.034c-.321-.02-.643-.075-.718-.116a1.435 1.435 0 01-.287-.24 1.439 1.439 0 01-.253-.416c-.061-.137-.11-.451-.11-1.142h-.457c-.294 0-.568-.048-.739-.123-.15-.068-.362-.246-.683-.65l-.02-14.67C.006 7.732.014 1.026.034.903.055.786.137.588.226.472.316.349.493.198.623.13.848.007 1.252 0 21.636.007zM1.04 15.688l.02 14.493.855.034.034-27.446c.225-.37.41-.554.554-.65l.266-.17c3.965-.042 4.04-.042 4.225.095.136.11.184.198.184.383 0 .15-.054.294-.136.376-.13.13-.226.136-2.03.136-1.47-.006-1.922.014-1.983.082-.068.069-.082 3.254-.068 14.581l.013 14.493.923.034c0-26.688.007-27.494.123-27.734.062-.136.24-.328.383-.423l.273-.178L23.38 3.76c0-.506-.035-.69-.082-.739-.069-.068-1.518-.082-7.014-.082-6.83 0-6.918 0-7.055-.136a.548.548 0 01-.137-.376c0-.185.048-.274.185-.376.191-.137.26-.144 6.187-.137h6.001c0-.478-.034-.677-.068-.752-.068-.137-.137-.137-10.185-.137-8.033 0-10.124.02-10.152.082-.02.048-.027 6.61-.02 14.581zm3.896 3.76l.02 14.492 15.62.035c0-3.35.021-3.883.09-4.054.054-.116.191-.3.307-.41.123-.103.335-.212.472-.253.143-.034 1.066-.069 2.05-.069h1.799v-4.58c-.24-.048-.527-.116-.787-.17a8.575 8.575 0 01-1.06-.342 9.644 9.644 0 01-1.024-.479 12.857 12.857 0 01-.89-.567c-.245-.178-.69-.568-.99-.868-.301-.301-.752-.855-1.005-1.23a9.845 9.845 0 01-.67-1.163c-.116-.267-.287-.71-.376-.991-.089-.28-.219-.793-.28-1.128-.09-.479-.103-.868-.076-1.743.028-.923.062-1.244.205-1.778.096-.355.274-.882.39-1.162.116-.28.349-.745.513-1.025.164-.28.512-.773.765-1.087.253-.321.663-.752.91-.964.246-.205.642-.513.888-.684.246-.164.704-.43 1.026-.587.32-.158.827-.363 1.128-.458.3-.096.67-.192.82-.22.15-.027.328-.06.39-.074.116-.028.123-.15.102-1.552l-.014-1.518C7.05 4.785 4.984 4.8 4.957 4.867c-.02.048-.028 6.61-.02 14.581zM24.371 9.126c-.226.068-.643.232-.923.355-.28.13-.759.397-1.06.595-.3.205-.745.56-.998.8-.246.24-.595.636-.779.882a9.84 9.84 0 00-.629.991c-.157.3-.37.78-.465 1.06-.095.28-.218.758-.273 1.06-.062.3-.103.915-.103 1.366 0 .472.048 1.067.11 1.402.061.321.184.793.28 1.06.096.259.294.71.437.99.15.28.424.725.616.992l.348.478 5.175-5.195 3.008-6.7a9.941 9.941 0 00-1.36-.341 7.671 7.671 0 00-1.3-.096c-.396 0-.936.041-1.196.089a9.442 9.442 0 00-.888.212zm2.919 6.76c.013.014 1.483.41 3.267.883 1.784.471 3.261.84 3.282.82.02-.02.061-.328.095-.697a6.62 6.62 0 00-.014-1.374 9.413 9.413 0 00-.252-1.333 8.738 8.738 0 00-.472-1.23 8.38 8.38 0 00-.711-1.163 8.717 8.717 0 00-.875-.984 7.873 7.873 0 00-.984-.773c-.28-.184-.534-.335-.554-.328-.02 0-.663 1.38-1.415 3.076-.759 1.689-1.374 3.09-1.367 3.104zM21.589 31.76l.013 1.463c2.201-2.236 2.844-2.912 2.85-2.947.014-.034-.567-.061-1.332-.054-.739 0-1.395.02-1.45.04-.082.028-.095.267-.082 1.498zM8.073 8.477h5.264c5.168 0 5.256 0 5.393.136a.524.524 0 01.137.322c.007.109-.055.266-.26.533l-5.086.02c-3.206.014-5.168-.007-5.318-.048a.535.535 0 01-.328-.239 1.37 1.37 0 01-.09-.273c-.006-.048.062-.171.144-.274l.144-.177zm0 3.76h4.095c4.005 0 4.101.006 4.231.136a.595.595 0 01.144.328c0 .103-.062.267-.267.526l-3.985.021c-2.557.014-4.054-.007-4.163-.048a.653.653 0 01-.253-.24 1.166 1.166 0 01-.096-.266c0-.054.061-.177.143-.273l.15-.185zm0 3.76h7.102l.137.15a.597.597 0 01.137.328c0 .088-.055.246-.267.512l-3.438.014c-2.188.014-3.5 0-3.61-.048a.55.55 0 01-.26-.24.801.801 0 01-.088-.266c-.007-.048.054-.17.136-.273l.15-.178zm4.983 5.741c1.47 0 1.504.007 1.64.157.124.137.138.24.138 2.168h2.324l.137.19c.136.179.143.274.136 5.244l.287.048c.185.027.342.102.417.205.069.089.123.24.117.349a.524.524 0 01-.137.32c-.137.138-.226.138-5.059.138s-4.922 0-5.058-.137a.547.547 0 01-.137-.356.51.51 0 01.116-.348c.069-.062.253-.144.704-.219v-1.88c-.007-1.784 0-1.887.274-2.256h2.324v-1.675c0-1.585.007-1.681.137-1.811.13-.13.225-.137 1.64-.137zm-.752 7.793h1.504v-6.767h-1.504v6.767zm2.53 0h1.572v-4.443h-1.572v4.443zm-5.127 0h1.572v-3.144H9.708v3.144z" fill="#FFCB09"/></g><defs><clipPath id="rclip0_1922_23506"><path fill="#fff" d="M0 0h35v35H0z"/></clipPath></defs></svg><view id="image-work-icon5" viewBox="0 111 37 37"/><svg width="37" height="37" fill="none" viewBox="-1 -1 37 37" y="111" xmlns="http://www.w3.org/2000/svg"><path fill-rule="evenodd" clip-rule="evenodd" d="M9.331.014c.533.02.684.048 1.06.232.246.123.594.37.779.547.184.185.424.52.533.745.103.226.192.465.192.533 0 .11.239.116 3.999.116 3.67 0 4.02.007 4.251.124.137.061.308.184.5.423h3.452c2.693 0 3.5.02 3.677.09.117.047.315.211.424.355.198.253.205.294.24 1.743h.649c.478 0 .718.034.902.116.137.068.342.246.643.67l-.007 14.205c0 11.628-.014 14.24-.089 14.417-.055.123-.212.328-.629.67H7.793l-.294-.294c-.185-.178-.314-.376-.342-.526-.027-.13-.048-.492-.048-1.367l-.745-.021c-.622-.014-.779-.034-.936-.15-.096-.076-.246-.226-.472-.52l-.02-6.87c-.014-6.46-.021-6.87-.137-6.925-.062-.027-.185-.17-.424-.554l.014-7.444c.02-7.328.02-7.451.157-7.636a2.48 2.48 0 01.328-.328c.17-.123.3-.143 1.757-.178l.04-.19a3.75 3.75 0 01.206-.514c.089-.177.294-.464.458-.635.185-.205.485-.41.834-.581.533-.267.567-.274 1.162-.253zM8.203 1.429c-.13.102-.314.341-.41.526l-.17.328c0 6.29.006 6.371.143 6.638.082.15.28.39.444.526.164.144.424.294.574.335.15.041.445.062.656.055.267-.02.472-.082.711-.233.212-.13.41-.328.54-.54l.212-.335c.034-2.905.028-2.994-.102-3.124a.734.734 0 00-.328-.177.537.537 0 00-.356.048.724.724 0 00-.253.266c-.054.103-.089.445-.089.855.007.622-.013.697-.15.834a.544.544 0 01-.328.157c-.096.007-.246-.055-.342-.13-.164-.13-.17-.157-.17-1.012 0-.724.02-.916.13-1.114.067-.13.204-.328.307-.43.095-.11.294-.254.437-.329.137-.068.383-.15.547-.17.157-.021.41-.007.56.027.151.04.404.17.568.287.185.13.349.328.458.56.164.356.17.404.17 1.88 0 1.36-.013 1.566-.136 1.914a3.609 3.609 0 01-.369.704 2.9 2.9 0 01-.56.56 2.9 2.9 0 01-.78.404c-.355.116-.554.144-.991.116-.403-.02-.65-.075-.943-.212a3.49 3.49 0 01-.745-.519 3.136 3.136 0 01-.547-.697 3.583 3.583 0 01-.26-.745c-.041-.212-.069-1.47-.069-2.926V3.213H5.4l.035 14.321h14.287V3.247C9.358 3.18 9.023 3.172 8.907 3.056c-.075-.069-.123-.22-.123-.363 0-.177.048-.28.171-.376.15-.116.28-.136 1.04-.13.485 0 .874-.02.874-.054 0-.028-.089-.178-.205-.342a2.279 2.279 0 00-.43-.451 2.093 2.093 0 00-.459-.24 2.062 2.062 0 00-.512-.075c-.15.007-.397.048-.547.103-.15.055-.383.191-.513.3zm12.578 9.18c0 4.088-.027 6.966-.068 7.13-.034.15-.164.37-.287.5-.15.15-.328.245-.533.286-.171.035-3.35.062-7.13.069H5.947v13.193H22.49c-.007-4.183 0-4.204.15-4.443.09-.13.267-.294.397-.356.212-.11.472-.123 2.304-.123h2.071V8.545c.26-.267.383-.342.444-.342.055 0 .178.041.274.082a.618.618 0 01.24.24c.047.102.067 3.335.067 9.33 0 8.224-.006 9.222-.109 9.557-.102.356-.219.486-2.406 2.687-1.272 1.271-2.44 2.399-2.611 2.495l-.308.184-14.868.035v1.162H29.6V5.947h-1.163c0 .684-.027.786-.17.923a.544.544 0 01-.356.171.535.535 0 01-.342-.15c-.15-.15-.157-.199-.157-1.648V3.76h-6.63v6.85zm2.735 20.392c2.385-2.386 3.076-3.09 3.076-3.097 0-.006-.69-.02-1.538-.02h-1.538V31zM15.572 7.109c1.388 0 1.497.007 1.675.137.144.11.185.198.185.376 0 .15-.048.294-.137.376-.13.13-.226.144-1.689.144-1.394 0-1.572-.014-1.722-.123-.11-.082-.164-.192-.164-.356-.007-.17.04-.273.184-.39.185-.157.219-.164 1.668-.164zm8.47 0c.376 0 .71.041.807.09a.625.625 0 01.246.252.475.475 0 010 .362.528.528 0 01-.212.253c-.075.041-.458.069-.855.069-.622 0-.731-.014-.854-.137a.622.622 0 01-.144-.37c0-.177.041-.266.185-.375.157-.116.287-.144.827-.144zm-8.47 2.735c1.388 0 1.497.007 1.675.136.144.11.185.199.185.376 0 .15-.048.294-.137.376-.13.13-.226.144-1.689.144-1.394 0-1.572-.014-1.722-.123-.11-.082-.164-.191-.164-.355-.007-.171.04-.274.184-.39.185-.157.219-.164 1.668-.164zm8.504 0c.656 0 .677.007.875.205.164.164.198.253.171.396a.564.564 0 01-.191.308c-.123.102-.274.123-.882.123-.643 0-.752-.02-.875-.144a.622.622 0 01-.144-.369c0-.178.041-.266.185-.376.157-.116.287-.143.861-.143zM8.06 12.578l4.545.02c4.43.014 4.546.021 4.69.151a.511.511 0 01.143.362c-.006.13-.061.28-.143.356-.13.136-.226.136-9.365.136l-.137-.184c-.075-.103-.137-.246-.13-.315 0-.068.096-.211.205-.32l.192-.206zm16.091.02c.636.014.684.021.841.199.09.11.164.246.164.307 0 .069-.061.206-.136.308-.137.191-.15.191-.923.191-.698 0-.807-.013-.923-.136a.504.504 0 01-.137-.308c0-.096.034-.232.082-.314a.555.555 0 01.219-.199c.075-.04.444-.061.813-.047zm.035 2.735c.601.014.649.02.806.198.09.11.164.246.164.308 0 .068-.061.205-.136.307-.137.192-.15.192-.923.192-.698 0-.807-.014-.923-.137a.526.526 0 01-.137-.328c0-.102.048-.253.103-.335a.498.498 0 01.26-.178c.081-.02.437-.034.786-.027zm-14.923 4.97c.69 0 .8.013.922.136a.524.524 0 01.137.322c0 .11-.054.266-.13.362-.13.164-.164.17-.895.17-.752 0-.773-.006-.93-.19-.096-.103-.17-.24-.17-.315-.008-.068.054-.205.136-.308.144-.17.17-.177.93-.177zm3.062 0h12.558l.137.184c.075.11.136.246.136.308 0 .068-.075.205-.335.499H12.373l-.157-.157a.552.552 0 01-.15-.349c0-.11.054-.26.13-.342l.13-.143zm-3.062 2.734c.69 0 .8.014.922.137a.524.524 0 01.137.321c0 .11-.054.267-.13.362-.123.165-.177.171-.854.185-.725.02-.725.02-.93-.185-.116-.116-.212-.26-.212-.334-.007-.069.055-.206.137-.308.144-.171.17-.178.93-.178zm9.324 0c5.92-.007 6.268 0 6.371.116a.694.694 0 01.157.308c.028.15-.007.24-.362.602H12.44l-.205-.206c-.164-.164-.198-.246-.17-.396a.864.864 0 01.15-.308c.102-.11.492-.116 6.37-.116zM9.29 25.772c.663 0 .773.013.896.136a.547.547 0 01.136.342.577.577 0 01-.17.376c-.158.157-.213.17-.82.17-.384 0-.726-.033-.821-.088a.508.508 0 01-.24-.24.703.703 0 01-.068-.252c0-.062.075-.185.171-.274.15-.164.205-.17.916-.17zm7.103 0c3.752-.007 4.02 0 4.17.116.123.089.164.191.164.362 0 .17-.048.28-.356.547h-7.93l-.205-.205c-.164-.157-.198-.246-.17-.397a.665.665 0 01.177-.307c.137-.11.438-.117 4.15-.117z" fill="#FFCB09"/></svg></svg>