<svg width="35" height="35" viewBox="0 0 35 35" fill="none" xmlns="http://www.w3.org/2000/svg"><g clip-path="url(#a)"><path d="M29.64 18.53a.686.686 0 1 0 0-1.373.686.686 0 0 0 0 1.372Zm-24.363 0a.686.686 0 1 0 0-1.373.686.686 0 0 0 0 1.372ZM17.63 30.54a.686.686 0 1 0 0-1.373.686.686 0 0 0 0 1.372Zm-.767-8.58h-4.216c.38-.626 1.158-1.338 1.867-1.988 1.36-1.245 2.765-2.532 2.765-4.087 0-1.953-1.587-3.12-3.12-3.12-1.565 0-3.392.888-3.392 3.39a.687.687 0 0 0 1.373 0c0-1.821 1.411-2.018 2.018-2.018.726 0 1.748.543 1.748 1.748 0 .951-1.232 2.08-2.32 3.075-1.31 1.2-2.549 2.335-2.549 3.687v.686h5.826a.687.687 0 0 0 0-1.372Zm7.5-2.745H22.99v-5.833a.687.687 0 0 0-1.266-.366l-4.118 6.52a.686.686 0 0 0 .58 1.052h3.432v2.06a.687.687 0 0 0 1.372-.001v-2.059h1.373a.687.687 0 0 0 0-1.373Zm-2.745 0h-2.186l2.186-3.46v3.46Z" fill="#FFCB09"/><path d="M33.97 16.47a1.03 1.03 0 0 0-1.029 1.03c0 8.514-6.927 15.441-15.441 15.441-8.514 0-15.441-6.927-15.441-15.441 0-8.514 6.927-15.441 15.441-15.441a15.29 15.29 0 0 1 9.45 3.228c.45.348 1.702.663 2.05.213.348-.45-.339-1.491-.788-1.84A17.331 17.331 0 0 0 17.5 0C7.85 0 0 7.85 0 17.5S7.85 35 17.5 35 35 27.15 35 17.5c0-.569-.46-1.03-1.03-1.03Z" fill="#FFCB09" stroke="#fff" stroke-width=".7"/><path d="M28.954.833v5h-5.02" stroke="#FFCB09" stroke-width="1.2" stroke-linecap="round" stroke-linejoin="round"/><path d="M17.63 6.52a.686.686 0 1 0 0-1.373.686.686 0 0 0 0 1.373Z" fill="#FFCB09"/></g><defs><clipPath id="a"><path fill="#fff" d="M0 0h35v35H0z"/></clipPath></defs></svg>