<svg width="35" height="35" viewBox="0 0 35 35" fill="none" xmlns="http://www.w3.org/2000/svg"><path d="M33.843 20.5h-.541v-4.717c0-.747-.384-1.409-.97-1.81v-.643c0-.931-.782-1.69-1.744-1.69h-.404l1.545-2.195a1.586 1.586 0 0 0-.44-2.245L20.81.281a1.699 1.699 0 0 0-1.25-.252c-.438.08-.817.32-1.068.677l-9.046 12.86H6.927l.608-5.956a.177.177 0 0 1 .114-.148 3.891 3.891 0 0 0 1.91-1.503.183.183 0 0 1 .17-.078l3.95.378a.511.511 0 0 0 .562-.447.503.503 0 0 0-.461-.546L9.83 4.89a1.218 1.218 0 0 0-1.141.534 2.86 2.86 0 0 1-1.404 1.105c-.433.159-.73.535-.776.984l-.617 6.054h-.657l.96-9.42a.633.633 0 0 1 .698-.554l7.98.763a.511.511 0 0 0 .562-.447.503.503 0 0 0-.461-.545L6.994 2.6c-.915-.087-1.733.562-1.823 1.449l-.774 7.592H3.079c-.962 0-1.744.758-1.744 1.69v.438C.548 14.12 0 14.89 0 15.784v17C0 34.006 1.026 35 2.288 35h28.726c1.262 0 2.288-.994 2.288-2.217v-4.717h.54c.639 0 1.158-.503 1.158-1.121v-5.323c0-.619-.52-1.121-1.157-1.121Zm-3.255-7.862c.394 0 .714.31.714.692v.255a2.372 2.372 0 0 0-.288-.019h-2.185l.653-.928h1.106ZM19.342 1.268a.636.636 0 0 1 .529-.27c.127 0 .25.036.358.107l10.481 6.92c.29.191.366.577.168.858l-3.295 4.683h-.79l1.615-2.296c.262-.372.284-.846.056-1.237a2.714 2.714 0 0 1-.345-1.72c.06-.44-.14-.868-.52-1.12l-5.434-3.586a1.237 1.237 0 0 0-1.266-.06c-.538.287-1.17.4-1.779.318a1.235 1.235 0 0 0-1.168.503l-6.47 9.198h-.791l8.651-12.298Zm.227 8.469c-2.242 0-4.082 1.693-4.232 3.83h-2.61l6.076-8.638a.185.185 0 0 1 .174-.076 4.023 4.023 0 0 0 2.42-.433.187.187 0 0 1 .188.01l5.434 3.588a.174.174 0 0 1 .08.166 3.69 3.69 0 0 0 .468 2.34.172.172 0 0 1-.01.184l-2.01 2.858h-1.745c-.15-2.136-1.99-3.829-4.233-3.829Zm3.2 3.83h-6.4c.148-1.586 1.526-2.832 3.2-2.832 1.674 0 3.053 1.246 3.2 2.831ZM2.364 13.33c0-.382.321-.692.715-.692h1.217l-.095.928H2.364v-.236ZM1.03 15.783c0-.672.564-1.22 1.258-1.22h28.726c.694 0 1.258.547 1.258 1.22v1.384H1.03v-1.384Zm31.242 17c0 .673-.564 1.22-1.258 1.22H2.288c-.694 0-1.258-.547-1.258-1.22V31.4h2.776a.507.507 0 0 0 .515-.498.507.507 0 0 0-.515-.499H1.03V18.164h31.242v2.337h-4.895c-1.542 0-2.878.87-3.512 2.131l-.007.013-.015.032a3.664 3.664 0 0 0-.37 1.606c0 2.086 1.751 3.783 3.904 3.783h4.895v2.336H7.102a.507.507 0 0 0-.514.499c0 .275.23.498.514.498h25.17v1.384Zm1.698-5.838a.126.126 0 0 1-.127.123h-6.466a2.892 2.892 0 0 1-2.59-1.579 2.696 2.696 0 0 1-.11-2.163 2.735 2.735 0 0 1 .173-.37 2.892 2.892 0 0 1 2.527-1.458h6.466c.07 0 .127.055.127.124v5.323Z" fill="#FFCB09"/><path d="M2.089 22.26C.937 22.26 0 23.168 0 24.283c0 1.116.937 2.024 2.089 2.024s2.089-.908 2.089-2.024c0-1.115-.937-2.023-2.09-2.023Zm0 3.05c-.584 0-1.06-.46-1.06-1.027 0-.565.476-1.026 1.06-1.026.584 0 1.059.46 1.059 1.026 0 .566-.475 1.026-1.06 1.026Z" fill="#FFCB09"/></svg>