<svg width="35" height="35" viewBox="0 0 35 35" fill="none" xmlns="http://www.w3.org/2000/svg"><path d="M33.871 28.288v-5.143c0-.735-.474-1.356-1.13-1.59v-.668c0-.934-.759-1.694-1.693-1.694h-6.313a1.691 1.691 0 0 0-1.59-1.129v-7.063a3.958 3.958 0 0 0-1.995-3.434L10.328 1.402A2.815 2.815 0 0 0 7.903 0a2.826 2.826 0 0 0-2.82 2.804H5.08l-.549 16.445a2.826 2.826 0 0 0-2.274 2.767 2.8 2.8 0 0 0 .524 1.627l-1.606 1.873a4.887 4.887 0 0 0 .254 6.632l1.695 1.694A3.926 3.926 0 0 0 5.919 35h5.936v-1.129h-1.13v-3.094l-1.938-1.55a2.804 2.804 0 0 1-1.042-1.893L7.34 23.69c.35-.47.563-1.046.563-1.675 0-.875-.408-1.648-1.036-2.166L9.492 5.152c.1-.068.188-.15.278-.23l5.792 5.792c-.199.336-.32.722-.32 1.14 0 1.049.722 1.925 1.694 2.178v4.031h-.204c-.804 0-1.503.573-1.66 1.362l-1.512 7.56-.008 1.3a3.934 3.934 0 0 0-1.133 2.762A3.956 3.956 0 0 0 16.371 35h14.677A3.956 3.956 0 0 0 35 31.048a3.936 3.936 0 0 0-1.129-2.76Zm-28.79-7.965c.933 0 1.693.76 1.693 1.693 0 .934-.76 1.694-1.693 1.694-.934 0-1.694-.76-1.694-1.694 0-.934.76-1.693 1.694-1.693Zm3 9.785 1.516 1.211v.294h-1.13v1.129h1.13v1.129H5.919a2.805 2.805 0 0 1-1.996-.827L2.229 31.35a3.757 3.757 0 0 1-.195-5.1l1.575-1.837c.43.265.93.426 1.472.426.438 0 .848-.11 1.219-.289l.323 2.908a3.925 3.925 0 0 0 1.459 2.65ZM5.819 19.304c-.053-.015-.102-.038-.155-.049l.474-14.249a2.792 2.792 0 0 0 1.766.64c.124 0 .241-.022.36-.038L5.819 19.304ZM7.903 4.516c-.933 0-1.693-.76-1.693-1.693 0-.934.76-1.694 1.693-1.694.934 0 1.694.76 1.694 1.694 0 .933-.76 1.693-1.694 1.693ZM24.84 22.581h1.129v-1.13h-1.13v-1.128h6.21c.311 0 .565.253.565.564v.565h-4.516v1.129h5.08c.312 0 .565.253.565.564v4.338a3.924 3.924 0 0 0-1.694-.386h-6.21V22.58ZM10.454 4.01c.156-.334.247-.7.262-1.089l9.875 5.626A2.827 2.827 0 0 1 22.016 11v7.063h-3.951v-4.031a2.256 2.256 0 0 0 1.693-2.178A2.26 2.26 0 0 0 17.5 9.597c-.418 0-.804.121-1.14.32L10.454 4.01Zm5.917 7.844a1.13 1.13 0 0 1 2.258 0 1.13 1.13 0 0 1-2.258 0Zm-1.694 15.298 1.502-7.506a.566.566 0 0 1 .553-.453h6.413c.311 0 .565.253.565.564v7.339h-7.34c-.607 0-1.18.141-1.694.386v-.33Zm16.371 6.718H16.371a2.826 2.826 0 0 1-2.823-2.823 2.826 2.826 0 0 1 2.823-2.822h14.677a2.826 2.826 0 0 1 2.823 2.822 2.826 2.826 0 0 1-2.823 2.823Z" fill="#FFCB09"/><path d="M30.484 28.79c-.678 0-1.28.306-1.694.78a2.244 2.244 0 0 0-1.693-.78c-.678 0-1.28.306-1.694.78a2.244 2.244 0 0 0-1.693-.78c-.678 0-1.28.306-1.694.78a2.244 2.244 0 0 0-1.693-.78c-.678 0-1.28.306-1.694.78a2.244 2.244 0 0 0-1.694-.78 2.26 2.26 0 0 0-2.258 2.258 2.26 2.26 0 0 0 2.259 2.258 2.24 2.24 0 0 0 1.693-.78c.414.474 1.016.78 1.694.78a2.24 2.24 0 0 0 1.693-.78c.415.474 1.016.78 1.694.78a2.24 2.24 0 0 0 1.693-.78c.415.474 1.016.78 1.694.78a2.24 2.24 0 0 0 1.693-.78c.415.474 1.017.78 1.694.78a2.26 2.26 0 0 0 2.258-2.258 2.26 2.26 0 0 0-2.258-2.258Zm-13.549 3.387a1.13 1.13 0 0 1 0-2.258 1.13 1.13 0 0 1 0 2.258Zm3.388 0a1.13 1.13 0 0 1 0-2.258 1.13 1.13 0 0 1 0 2.258Zm3.387 0a1.13 1.13 0 0 1 0-2.258 1.13 1.13 0 0 1 0 2.258Zm3.387 0a1.13 1.13 0 0 1 0-2.258 1.13 1.13 0 0 1 0 2.258Zm3.387 0a1.13 1.13 0 0 1 0-2.258 1.13 1.13 0 0 1 0 2.258Zm-7.339-11.854h-6.108l-.655 3.276-.011 1.24h6.774v-4.516Zm-1.129 3.387h-4.505l.452-2.258h4.053v2.258Zm9.597 0h-2.258v1.129h2.258v-1.13Zm-3.387 0h-2.258v1.129h2.258v-1.13Z" fill="#FFCB09"/></svg>