<svg width="16" height="12" viewBox="0 0 16 12" fill="none" xmlns="http://www.w3.org/2000/svg"><path d="M10.5 5.551c0 .67-.263 1.311-.732 1.784A2.488 2.488 0 0 1 8 8.075a2.488 2.488 0 0 1-1.768-.74A2.535 2.535 0 0 1 5.5 5.551c0-.67.263-1.31.732-1.784A2.488 2.488 0 0 1 8 3.027c.663 0 1.299.267 1.768.74.469.473.732 1.115.732 1.784Z" fill="#ACACAC"/><path d="M0 5.551S3 0 8 0s8 5.551 8 5.551-3 5.552-8 5.552S0 5.55 0 5.55Zm8 3.533c.928 0 1.819-.372 2.475-1.035A3.55 3.55 0 0 0 11.5 5.551a3.55 3.55 0 0 0-1.025-2.498A3.484 3.484 0 0 0 8 2.02c-.928 0-1.819.372-2.475 1.034A3.55 3.55 0 0 0 4.5 5.551 3.55 3.55 0 0 0 5.525 8.05 3.484 3.484 0 0 0 8 9.084Z" fill="#ACACAC"/></svg>