<svg width="252" height="47" viewBox="0 0 252 47" fill="none" xmlns="http://www.w3.org/2000/svg"><path d="M39.268 5.869c3.603 5.796 6.756 21.134-9.46 36.116 21.982-12.128 15.465-29.13 9.46-36.116Z" fill="#FFCB09"/><path d="M47.377 18.352c-.15 8.175-5.585 25.326-26.125 28.537 23.783 1.783 27.326-18.281 26.125-28.537ZM.08 29.054C-.672 18.799 3.592-1.355 26.654.072 19.448.815 4.043 7.652.079 29.054Z" fill="#FFCB09"/><path d="M18.096 4.976c-9.01 5.796-23.513 21.313-9.46 37.007-7.567-17.121 3.153-31.805 9.46-37.007Z" fill="#FFCB09"/><path d="M14.493 11.22C8.558 18.28.349 41.27 21.249 45.551c-14.053-8.204-10.36-26.307-6.756-34.333Z" fill="#FFCB09"/><path d="M14.043 18.799c1.051-1.932 4.324-5.707 9.009-5.35-6.487-2.498-8.709 2.526-9.009 5.35Zm2.703-7.581c1.802-.892 6.937-1.516 13.063 3.121-2.703-3.12-9.1-8.115-13.063-3.12Z" fill="#FFCB09"/><path d="M34.763 21.473C33.412 16.122 28.367 5.867 18.998 7.65c11.531-5.707 15.315 6.837 15.765 13.823Zm-9.909 12.931c1.951-.148 6.486-1.427 9.008-5.35 0 2.675-1.802 7.49-9.009 5.35Zm-7.208-1.337c2.403 1.635 8.559 4.548 13.964 3.121-2.252 2.081-8.198 4.37-13.963-3.12Z" fill="#FFCB09"/><path d="M13.14 25.041c.601 5.648 4.775 16.408 16.667 14.268-5.255 3.27-15.946 4.994-16.666-14.268ZM26.205 2.747c5.555 1.784 14.864 10.88 7.657 32.995 14.865-24.523-1.801-34.333-7.657-32.995Z" fill="#FFCB09"/><path d="M57.142 28h8.648c5.045 0 7.842-2.19 7.842-6.14 0-3.777-2.537-5.823-7.351-5.823h-6.285V10.27h12.367V7.82h-15.22V28Zm2.854-2.277v-7.41h5.68c3.372 0 5.073 1.183 5.073 3.662 0 2.45-1.759 3.748-5.074 3.748h-5.679Zm23.22-13.146c-2.451 0-4.728.692-6.314 1.96l1.153 2.076c1.182-1.009 3.027-1.643 4.843-1.643 2.739 0 4.094 1.355 4.094 3.69v.548H82.61c-4.555 0-6.14 2.018-6.14 4.468 0 2.652 2.19 4.497 5.65 4.497 2.392 0 4.093-.807 5.016-2.19V28h2.623v-9.225c0-4.18-2.364-6.198-6.544-6.198ZM82.58 26.04c-2.104 0-3.373-.952-3.373-2.48 0-1.297.779-2.363 3.517-2.363h4.267v2.133c-.692 1.758-2.335 2.71-4.41 2.71Zm23.087-13.319-5.275 12.223-5.333-12.223h-2.883l6.746 15.25-.49 1.067c-.75 1.758-1.586 2.364-2.912 2.364-1.038 0-1.99-.404-2.739-1.125L91.6 32.353c.952.922 2.45 1.413 3.92 1.413 2.336 0 4.094-1.01 5.449-4.238l7.409-16.807h-2.71ZM126.221 28h3.027l-9.167-20.18h-2.854L108.088 28h2.969l2.22-5.045h10.724l2.22 5.045Zm-11.935-7.351 4.353-9.888 4.353 9.888h-8.706Zm26.084-8.072c-2.249 0-4.209.865-5.449 2.566V12.72h-2.652v20.872h2.768v-7.9c1.268 1.644 3.171 2.48 5.333 2.48 4.468 0 7.726-3.113 7.726-7.812 0-4.67-3.258-7.784-7.726-7.784Zm-.231 13.174c-2.911 0-5.131-2.133-5.131-5.39 0-3.229 2.22-5.362 5.131-5.362 2.941 0 5.16 2.133 5.16 5.362 0 3.257-2.219 5.39-5.16 5.39Zm25.786-5.304c0-4.699-3.142-7.87-7.553-7.87s-7.668 3.258-7.668 7.784c0 4.554 3.286 7.812 8.216 7.812 2.537 0 4.641-.865 6.025-2.48l-1.528-1.787c-1.124 1.24-2.623 1.845-4.411 1.845-3.027 0-5.189-1.787-5.535-4.468h12.396c.029-.26.058-.605.058-.836Zm-7.553-5.535c2.681 0 4.612 1.816 4.901 4.382h-9.802c.289-2.595 2.249-4.382 4.901-4.382ZM170.218 28h2.768v-6.4h8.706V28h2.767V12.721h-2.767v6.487h-8.706V12.72h-2.768V28Zm32.825-2.422V12.721h-11.848l-.231 5.16c-.201 3.863-.576 7.582-2.767 7.697h-.807v5.968h2.623V28h12.771v3.546h2.594v-5.968h-2.335Zm-9.542-7.495.144-2.94h6.631v10.435h-8.562c1.384-1.21 1.672-4.324 1.787-7.495Zm20.931-5.506c-2.45 0-4.728.692-6.313 1.96l1.153 2.076c1.182-1.009 3.027-1.643 4.843-1.643 2.739 0 4.093 1.355 4.093 3.69v.548h-4.381c-4.555 0-6.141 2.018-6.141 4.468 0 2.652 2.191 4.497 5.651 4.497 2.392 0 4.093-.807 5.016-2.19V28h2.623v-9.225c0-4.18-2.364-6.198-6.544-6.198Zm-.634 13.463c-2.105 0-3.373-.952-3.373-2.48 0-1.297.778-2.363 3.517-2.363h4.266v2.133c-.691 1.758-2.335 2.71-4.41 2.71Z" fill="#1F1E1D"/><path d="M60.93 44h1.135l-3.438-7.567h-1.07L54.13 44h1.113l.833-1.892h4.021L60.93 44Zm-4.476-2.757 1.632-3.708 1.633 3.708h-3.265Zm9.781-3.027c-.843 0-1.578.325-2.043.963v-.909h-.994v7.827h1.037v-2.962c.476.616 1.19.93 2 .93 1.676 0 2.897-1.168 2.897-2.93 0-1.751-1.221-2.919-2.897-2.919Zm-.086 4.94c-1.092 0-1.924-.8-1.924-2.02 0-1.212.832-2.012 1.924-2.012 1.102 0 1.935.8 1.935 2.011 0 1.222-.833 2.022-1.935 2.022Zm9.67-1.988c0-1.762-1.179-2.952-2.833-2.952-1.654 0-2.875 1.222-2.875 2.92 0 1.707 1.232 2.929 3.08 2.929.952 0 1.741-.324 2.26-.93l-.573-.67c-.422.465-.984.692-1.654.692-1.135 0-1.946-.67-2.076-1.676h4.649a3.28 3.28 0 0 0 .022-.313Zm-2.833-2.076c1.005 0 1.73.681 1.838 1.643h-3.676c.109-.973.844-1.643 1.838-1.643ZM77.428 44h1.038v-2.4h3.265V44h1.038v-5.73H81.73v2.433h-3.265V38.27H77.43V44Zm12.31-.908V38.27h-4.443l-.087 1.936c-.075 1.448-.216 2.843-1.037 2.886h-.303v2.238h.984V44h4.789v1.33h.972v-2.238h-.875Zm-3.578-2.81.054-1.103H88.7v3.913h-3.21c.518-.454.626-1.622.67-2.81Zm7.849-2.066c-.92 0-1.773.26-2.368.736l.433.778c.443-.378 1.135-.616 1.816-.616 1.027 0 1.535.508 1.535 1.383v.206h-1.643c-1.708 0-2.303.757-2.303 1.675 0 .995.822 1.687 2.119 1.687.897 0 1.535-.303 1.88-.822V44h.985v-3.46c0-1.567-.887-2.324-2.454-2.324Zm-.238 5.049c-.79 0-1.265-.357-1.265-.93 0-.486.292-.886 1.319-.886h1.6v.8c-.26.66-.876 1.016-1.654 1.016Zm9.961.8c1.027 0 1.881-.433 2.335-1.232l-.789-.498c-.368.562-.93.822-1.557.822-1.124 0-1.968-.779-1.968-2.022 0-1.221.844-2.01 1.968-2.01.627 0 1.189.259 1.557.821l.789-.508c-.454-.8-1.308-1.222-2.335-1.222-1.762 0-3.027 1.211-3.027 2.92 0 1.707 1.265 2.929 3.027 2.929Zm7.875-5.794h-5.233v.908h2.098V44h1.037v-4.821h2.098v-.909Zm4.099-.055c-.844 0-1.579.325-2.044.963v-.909h-.994v7.827h1.038v-2.962c.475.616 1.189.93 2 .93 1.675 0 2.897-1.168 2.897-2.93 0-1.751-1.222-2.919-2.897-2.919Zm-.087 4.94c-1.092 0-1.924-.8-1.924-2.02 0-1.212.832-2.012 1.924-2.012 1.103 0 1.935.8 1.935 2.011 0 1.222-.832 2.022-1.935 2.022Zm6.945.909c1.719 0 2.973-1.222 2.973-2.93 0-1.708-1.254-2.919-2.973-2.919-1.718 0-2.983 1.211-2.983 2.92 0 1.707 1.265 2.929 2.983 2.929Zm0-.908c-1.102 0-1.935-.8-1.935-2.022 0-1.221.833-2.01 1.935-2.01 1.103 0 1.925.789 1.925 2.01 0 1.222-.822 2.022-1.925 2.022Zm4.472.843h.951l3.503-4.173V44h1.038v-5.73h-.941l-3.513 4.173v-4.172h-1.038V44Zm11.776-5.73h-5.232v.909h2.097V44h1.038v-4.821h2.097v-.909Zm5.986 2.898c0-1.762-1.178-2.952-2.832-2.952s-2.876 1.222-2.876 2.92c0 1.707 1.233 2.929 3.081 2.929.951 0 1.741-.324 2.26-.93l-.573-.67c-.422.465-.984.692-1.654.692-1.136 0-1.946-.67-2.076-1.676h4.648c.011-.097.022-.227.022-.313Zm-2.832-2.076c1.005 0 1.729.681 1.838 1.643h-3.676c.108-.973.843-1.643 1.838-1.643Zm4.866-.822-.097 2.12c-.076 1.35-.119 2.756-1.049 2.756-.076 0-.162-.01-.259-.032l-.065.875c.238.065.443.098.638.098 1.297 0 1.567-1.611 1.664-3.633l.065-1.275h2.465V44h1.038v-5.73h-4.4Zm9.055 1.946-1.611-.01V38.27h-1.038V44l2.487.01c1.535.012 2.4-.68 2.4-1.923 0-1.179-.779-1.86-2.238-1.87Zm-.249 3.006-1.362-.011v-2.249l1.362.022c.952.01 1.427.335 1.427 1.092 0 .767-.486 1.157-1.427 1.146Zm3.819.778h1.037v-2.4h3.265V44h1.038v-5.73h-1.038v2.433h-3.265V38.27h-1.037V44Zm9.812.065c1.719 0 2.973-1.222 2.973-2.93 0-1.708-1.254-2.919-2.973-2.919-1.719 0-2.984 1.211-2.984 2.92 0 1.707 1.265 2.929 2.984 2.929Zm0-.908c-1.103 0-1.935-.8-1.935-2.022 0-1.221.832-2.01 1.935-2.01 1.102 0 1.924.789 1.924 2.01 0 1.222-.822 2.022-1.924 2.022Zm7.152-5.632c1.049 0 1.687-.52 1.708-1.492h-.724c-.011.54-.4.886-.995.886-.583 0-.973-.346-.983-.886h-.703c.011.973.649 1.492 1.697 1.492ZM173.74 44h.951l3.503-4.173V44h1.038v-5.73h-.941l-3.513 4.173v-4.172h-1.038V44Zm14.679-5.73h-5.232v.909h2.097V44h1.038v-4.821h2.097v-.909Zm5.986 2.898c0-1.762-1.178-2.952-2.832-2.952s-2.875 1.222-2.875 2.92c0 1.707 1.232 2.929 3.081 2.929.951 0 1.74-.324 2.259-.93l-.573-.67c-.422.465-.984.692-1.654.692-1.135 0-1.946-.67-2.076-1.676h4.649c.011-.097.021-.227.021-.313Zm-2.832-2.076c1.006 0 1.73.681 1.838 1.643h-3.676c.109-.973.844-1.643 1.838-1.643ZM200.614 44l-2.281-2.93 2.162-2.8h-1.135l-1.568 2.065-1.578-2.065h-1.157l2.151 2.8-2.259 2.93h1.157l1.675-2.194L199.435 44h1.179Zm1.092 0h1.038v-2.4h3.264V44h1.038v-5.73h-1.038v2.433h-3.264V38.27h-1.038V44Zm7.358 0h.951l3.503-4.173V44h1.038v-5.73h-.941l-3.513 4.173v-4.172h-1.038V44Zm11.657 0h1.222l-2.324-2.973 2.172-2.757h-1.113l-1.859 2.422h-1.211V38.27h-1.038V44h1.038v-2.422h1.189L220.721 44Zm2.31 0h.951l3.503-4.173V44h1.038v-5.73h-.941l-3.513 4.173v-4.172h-1.038V44Z" fill="#ACACAC"/></svg>