<svg width="70" height="70" viewBox="0 0 70 70" fill="none" xmlns="http://www.w3.org/2000/svg"><g clip-path="url(#a)"><rect width="70" height="70" rx="10" fill="#E7EDF9"/><path d="M35.019 53.308c-4.045 0-7.716-1.72-10.424-4.5-.002 1.666-.063 4.071-.51 5.825.293.178.52.468.565.83.578 4.66 5.035 8.172 10.369 8.172 5.333 0 9.79-3.513 10.37-8.172a1.13 1.13 0 0 1 .563-.829c-.446-1.755-.507-4.16-.509-5.825-2.708 2.78-6.378 4.5-10.424 4.5Z" fill="#fff"/><path d="M45.217 49.02c-2.686 2.65-6.26 4.288-10.198 4.288-4.045 0-7.716-1.72-10.424-4.5-.002 1.666-.063 4.071-.51 5.825.293.178.52.468.565.83.255 2.06 1.27 3.893 2.783 5.3 6.973-.972 14.888-7.794 17.784-11.743Z" fill="#F9F9F9"/><path d="M45.456 24.621H25.767c-3.192 0-5.79 2.574-5.79 5.737v6.885c0 8.858 6.754 16.064 15.056 16.064s15.056-7.206 15.056-16.064v-8.032c0-2.53-2.078-4.59-4.633-4.59Z" fill="#fff"/><path d="M43.138 12H28.082a4.633 4.633 0 0 0-4.503 3.507c-3.987.502-7.079 3.884-7.079 7.967v5.738c0 2.957 1.267 5.716 3.474 7.676V30.36c0-3.163 2.599-5.737 5.791-5.737h19.69c2.554 0 4.632 2.059 4.632 4.59v7.675c2.208-1.96 3.475-4.719 3.475-7.675v-6.885C53.562 16.633 48.886 12 43.138 12Z" fill="#ACACAC"/><g fill="#ACACAC"><path d="M9.214 59.113A34.797 34.797 0 0 0 35.036 70.51c10.252 0 19.463-4.4 25.823-11.397-1.109-1.485-2.673-2.692-4.684-3.25a1.104 1.104 0 0 0-.14-.03L46.79 54.46a2.167 2.167 0 0 0-.235-.013c-.585 0-1.078.432-1.15 1.008-.578 4.658-5.036 8.172-10.369 8.172-5.334 0-9.79-3.513-10.369-8.172-.072-.593-.61-1.038-1.178-1.007a.995.995 0 0 0-.206.012l-9.245 1.374a1.094 1.094 0 0 0-.14.03c-2.011.558-3.575 1.765-4.684 3.25Z"/><path d="M60.86 59.113A34.797 34.797 0 0 1 35.035 70.51h34.746l-8.923-11.397Z"/><path d="M35.036 70.51A34.797 34.797 0 0 1 9.214 59.113L.219 70.51h34.817Z"/></g></g><rect x=".5" y=".5" width="69" height="69" rx="9.5" stroke="#E3E3E3" stroke-opacity=".5"/><defs><clipPath id="a"><rect width="70" height="70" rx="10" fill="#fff"/></clipPath></defs></svg>