<svg width="82" height="47" viewBox="0 0 82 47" fill="none" xmlns="http://www.w3.org/2000/svg"><path d="M60.099 33.65h-6.394v12.78h6.448v-5.766l7.611 5.765h6.445V33.651h-6.45v5.816l-7.66-5.816ZM40.998 0C18.356 0 0 18.786 0 41.96c0 1.51.078 3 .23 4.47h4.294a38.821 38.821 0 0 1-.257-4.47C4.267 21.198 20.713 4.367 41 4.367c20.287 0 36.733 16.83 36.733 37.593 0 1.513-.087 3.004-.256 4.47h4.293a43.47 43.47 0 0 0 .23-4.47C82 18.786 63.643 0 41 0Zm3.442 33.65h-6.857L29.46 46.43h6.655l.903-1.43h7.991l.904 1.43h6.655l-8.126-12.78Zm-1.558 7.953h-3.74l1.87-2.957 1.87 2.957Zm-29.16-7.952h-6.05v12.778h6.45v-5.053l3.853 3.942 3.852-3.942v5.053h6.45V33.651h-6.05l-4.252 4.352-4.253-4.352Z" fill="#1F1E1D"/></svg>