<svg width="88" height="48" viewBox="0 0 88 48" fill="none" xmlns="http://www.w3.org/2000/svg"><path fill-rule="evenodd" clip-rule="evenodd" d="M80.787 22.58h-26.59L45.12 0l-1.67 4.22-7.256 18.36H7.746L0 40.816l43.45 6.032 1.268.177 42.497-6.209-6.428-18.234Zm-36.194 19.2-1.143-.039-40.927-1.457 6.541-15.13h26.98l7.406-19.11 1.67-4.283 9.05 23.392h25.147l5.072 15.13-39.797 1.495Z" fill="#33348E"/><path fill-rule="evenodd" clip-rule="evenodd" d="m81.442 34.2-2.65-1.228 1.457-2.015-1.33-4.726H57.8l2.147 4.575H71.85l-1.633 2.166 2.047 1.913h-16.32L45.121 4.055l-1.67 4.385-8.989 23.746H30.42l-1.18-5.956h-7.219l-3.452 4.866-2.674-4.866H9.643L3.97 39.345h6.051l2.649-4.46 1.996 4.46h7.633l2.398-4.739 2.398 4.74h11.374l2.273-2.839 2.712 1.761 1.67 1.077 3.98-2.838 2.17 2.838h31.913l-1.745-5.144Zm-36.32-.95-1.67-1.178-1.782-1.267 1.782-4.258 1.67-3.966 3.351 8.224-3.351 2.446Z" fill="#33348E"/></svg>