<svg width="50" height="50" viewBox="0 0 50 50" fill="none" xmlns="http://www.w3.org/2000/svg"><circle cx="25" cy="25" r="25" fill="#FFCB09"/><path d="M22.992 26.907a14.712 14.712 0 0 0 5.345 3.46l2.722-2.168a.484.484 0 0 1 .55 0l5.055 3.258a1.445 1.445 0 0 1 .238 2.296l-2.369 2.34a2.889 2.889 0 0 1-2.621.773 25.344 25.344 0 0 1-12.386-6.5 24.404 24.404 0 0 1-6.695-12.155 2.73 2.73 0 0 1 .794-2.564l2.456-2.369a1.445 1.445 0 0 1 2.253.231l3.365 4.991a.454.454 0 0 1 0 .542l-2.217 2.665a14.263 14.263 0 0 0 3.51 5.2Z" fill="#fff"/></svg>