<svg width="187" height="166" viewBox="0 0 187 166" fill="none" xmlns="http://www.w3.org/2000/svg"><path d="M25.397 89.775h-3.386l-1.693 1.694v1.694l-1.693 1.694h-3.387l-1.693 1.694v-1.694l-1.693-1.694v-3.388l-1.693-1.694v-6.775l-1.693-1.694v-3.388h1.693l1.693 1.694h3.386l1.694-1.694h3.386l1.693 1.694h3.386v11.857Z" fill="#EAEEF4"/><path d="M13.545 96.55v1.695l1.693 1.694v5.081l1.693 1.694 3.387-3.388v-6.775l-1.694-1.694h-3.386l-1.693 1.694Z" fill="#EAEEF4"/><path d="M20.318 96.55h1.693l1.693-1.693h1.693l3.386 3.388v1.694h5.08l1.693-1.694 1.693 1.694 1.693-1.694-1.693-1.694v-3.388l-1.693-1.694-1.693 1.694-3.386-3.388-1.694 1.694H27.09l-1.693-1.694h-3.386l-1.693 1.694v1.694l-1.693 1.694 1.693 1.694Z" fill="#EAEEF4"/><path d="m28.783 101.632 1.694 1.694v1.694l1.693 1.694v1.694l-1.694 1.694-5.079-5.082h-3.386l-1.693-1.694v-6.775h1.693l1.693-1.694h1.693l3.386 3.388v3.387Z" fill="#EAEEF4"/><path d="m38.942 98.245 1.693 1.694-1.693 1.693 1.693 1.694-1.693 1.694H37.25l-1.693 1.694v1.694H32.17v-1.694l-1.693-1.694v-1.694l-1.694-1.694v-1.694h5.08l1.693-1.693 1.693 1.694 1.693-1.694Zm-22.01 8.469v8.469h1.693l1.693-1.694 1.693 1.694h3.386l1.693 1.694 1.694-1.694v-3.387l1.693-1.694-5.08-5.082h-3.386l-1.693-1.694-3.386 3.388Z" fill="#EAEEF4"/><path d="M35.556 108.408v1.694l1.693 1.694h5.08v-1.694l1.693-1.694h1.693l1.693-1.694v-6.775h-3.386l-1.693-1.694-1.694 1.694-1.693 1.693 1.693 1.694-1.693 1.694H37.25l-1.693 1.694v1.694Z" fill="#EAEEF4"/><path d="m47.408 99.939 1.693-1.694V96.55l1.693-1.694V91.47L49.1 89.775v-1.693h-1.693l-1.694-1.694H44.02l-3.386 3.387h-1.693l-1.693 1.694v5.082l1.693 1.694 1.693 1.694 1.693-1.694 1.693 1.694h3.387Z" fill="#EAEEF4"/><path d="M38.942 89.775v-1.694l-1.693-1.694v-1.694L35.556 83v-1.694h-1.693l-1.694-1.694v-3.388l-1.693-1.694-1.693 1.694H27.09l-1.693 1.694v11.857l1.693 1.694h1.693l1.693-1.694 3.387 3.388 1.693-1.694 1.693 1.694v-1.694l1.693-1.694Z" fill="#EAEEF4"/><path d="m32.17 76.224 1.693-1.694v-3.387l1.693-1.694h3.386l3.386-3.388h1.693l1.694-1.694 1.693 1.694v1.694l-1.795 1.694 1.795 1.694-1.694 1.694v1.694h-3.386l-5.08 5.081h-1.692v1.694h-1.693l-1.694-1.694v-3.388Z" fill="#EAEEF4"/><path d="m45.715 86.387 1.693-1.694v-3.387l1.693-1.694v-1.694l-3.386-3.388h-3.386l-5.08 5.082h-1.693V83l1.693 1.694v1.693l1.693 1.694v1.694h1.693l3.387-3.388h1.693Z" fill="#EAEEF4"/><path d="M50.794 94.857h3.386v-3.388l3.387-3.388h1.693l1.693-1.694h1.693v-1.694L60.953 83v-1.694H54.18l-1.693-1.694h-3.386l-1.693 1.694v3.388l-1.693 1.693 1.693 1.694H49.1v1.694l1.693 1.694v3.388Z" fill="#EAEEF4"/><path d="M54.18 94.857h5.08l1.693 1.694h1.693l1.693-1.694h1.693v-6.775l-1.693-1.694h-3.386l-1.693 1.694h-1.693l-3.386 3.387v3.388Zm-6.772-23.714H49.1l1.693-1.694h1.693v-1.694h1.693l1.694 1.694h1.693v1.694h1.693v1.694h3.386v1.693h1.693v1.694l-3.386 3.388v1.694H54.18l-1.693-1.694h-3.386v-1.694l-3.386-3.388v-1.694l1.693-1.693Z" fill="#EAEEF4"/><path d="m57.567 69.448 1.693-1.693V57.59h-5.08l-1.693-1.694h-1.693l-1.693 1.694v3.388l-1.693 1.694 1.693 1.694h1.693l1.693 1.694v1.694h1.693l1.694 1.694h1.693Zm1.693-1.693h3.386l3.386-3.388v-1.694l1.693-1.694v-1.694l1.694-1.693v-3.388h-1.694l-1.693-1.694v-1.694l-1.693-1.694h-1.693l-1.693 1.694v1.694l1.693 1.694-1.693 1.694H59.26v11.857Z" fill="#EAEEF4"/><path d="M62.646 49.122v-3.388l-3.386-3.387-1.694 1.694H54.18l-1.693 1.693v1.694l-1.693 1.694v6.776h1.693l1.693 1.694h5.08v-1.694h1.693l1.693-1.694-1.693-1.694v-1.694l1.693-1.694Z" fill="#EAEEF4"/><path d="m59.26 42.347 1.693-1.694v-1.694l1.693-1.694h6.772v-1.694l1.694-1.694H81.27l1.694 1.694v3.388l1.693 1.694v1.694h-6.773l-1.693 1.694H64.339l-1.693 1.694-3.386-3.388Z" fill="#EAEEF4"/><path d="m72.805 33.877-1.694-1.694h-5.079L64.34 30.49l1.693-1.693v-3.388l1.693-1.694v-3.388h3.387l5.079-5.081h3.386l1.693 1.694h3.386v1.693L81.27 22.02v3.388l1.693 1.694-1.693 1.694h-3.386l-1.693 1.694v3.387h-3.386Z" fill="#EAEEF4"/><path d="M82.963 27.102h10.16l1.692 1.694v3.388h-1.693l-1.693 1.694-1.693-1.694h-5.08v1.694l-1.693 1.693-1.693-1.693h-5.08V30.49l1.694-1.694h3.386l1.693-1.694Zm-3.386 15.245v1.694l1.694 1.694h1.693l1.693 1.693v1.694h1.693l1.693 1.694v1.694l1.693 1.694h8.466v-3.388l1.693-1.694h1.693v-3.388l-5.08-5.081H86.35l-1.693 1.694h-5.08Z" fill="#EAEEF4"/><path d="M98.201 42.347v-1.694l1.694-1.694v-5.082l1.693-1.693-1.693-1.694-1.694 1.694h-5.078l-1.693 1.694-1.693-1.694h-5.08v1.694l-1.693 1.693v3.388l1.694 1.694v1.694l1.693-1.694h10.158l1.694 1.694Z" fill="#EAEEF4"/><path d="M99.895 30.49v-3.388l1.693-1.694v-1.694h-3.386l-3.387-3.388h-1.693V16.94l-1.693-1.694-1.693 1.694h-5.08v1.693L81.27 22.02v3.388l1.693 1.694h10.16l1.692 1.694v3.387h3.386l1.694-1.694Z" fill="#EAEEF4"/><path d="M93.122 20.326h1.694l3.386 3.388h3.386l3.386-3.388-1.693-1.693v-1.694l-1.693-1.694v-3.388l1.693-1.694V6.775h-1.693L99.895 8.47l-1.693-1.694V5.082h-3.386l-3.387 3.387v1.694l-1.693 1.694h-1.693l-1.693 1.694v3.388h3.386l1.693-1.694 1.693 1.694v3.387Zm5.08 33.878 3.386 3.388 1.693-1.694v-1.694h3.386l1.694-1.694h1.693l1.693-1.694h1.693v-1.694l-1.693-1.694 3.386-3.387v-3.388h-5.079l-1.693 1.694h-3.387l-3.386 3.387v3.388h-1.693l-1.693 1.694v3.388Z" fill="#EAEEF4"/><path d="M106.667 54.204v1.694l1.693 1.694h1.693l1.693-1.694h10.159l1.693-1.694V52.51l-1.693-1.694v-3.388l-1.693-1.694V44.04h-5.079l-3.387 3.388 1.694 1.694v1.694h-1.694l-1.693 1.694h-1.693l-1.693 1.694Zm15.238 1.694v6.775l-1.693 1.694v3.388h1.693l3.387-3.388h5.079l1.693 1.694h1.693v-3.388l1.693-1.693v-1.694l-1.693-1.694h-1.693l-1.693-1.694v-1.694h-6.773l-1.693 1.694Z" fill="#EAEEF4"/><path d="M133.757 64.368h3.387l1.693 1.693h3.386l1.693-1.694v-1.693l1.693-1.694v-1.694l-3.386-3.388 1.693-1.694V52.51l1.693-1.694v-1.693h-6.772l-1.693 1.693v1.694l-1.693 1.694h-5.08v1.694l1.693 1.694h1.693l1.694 1.694v1.694l-1.694 1.694v1.694Z" fill="#EAEEF4"/><path d="m145.609 60.98 1.693 1.694h1.693l1.694-1.694h3.386l1.693-1.694h-1.693v-1.694l1.693-1.694V52.51h-3.386l-1.693-1.694h-1.694l-1.693-1.693h-1.693v1.693l-1.693 1.694v1.694l-1.693 1.694 3.386 3.388v1.694Zm-23.704-13.552 3.387-3.387h1.693l1.693-1.694h3.386l1.693 1.694h1.693l1.694 1.693h3.386l1.693 1.694v1.694h-3.386l-1.693 1.694v1.694l-1.694 1.694h-11.851V52.51l-1.694-1.694v-3.388Z" fill="#EAEEF4"/><path d="M147.302 49.122v-1.694l1.693-1.693V44.04h1.694v-1.694l1.693-1.694v-3.388l-1.693-1.694h-3.387l-3.386 3.388h-1.693l-1.693 1.694v5.082l1.693 1.693v1.694h5.079Z" fill="#EAEEF4"/><path d="m150.689 35.572-1.693-1.694V30.49l1.693-1.694V22.02h-1.693l-1.693 1.694-1.694 1.694h-3.386v1.694l-3.386 3.388h-6.773l-1.693 1.694v3.388l1.693 1.693v5.082l1.694 1.694h1.693l1.693 1.694h3.386v-5.082l1.693-1.694h1.693l3.387-3.388h3.386Z" fill="#EAEEF4"/><path d="M130.371 35.571h-1.693l-1.693 1.694v1.694h-3.387l-1.693 1.694v-1.694h-1.693l-1.693-1.694v-1.694l-1.693-1.694v5.082l-1.693 1.694v3.388h5.079v1.694l1.693 1.694 3.387-3.388h1.693l1.693-1.694h3.386v-5.082l-1.693-1.694Z" fill="#EAEEF4"/><path d="M130.371 32.184h-1.693l-1.693-1.694v-3.388l-3.387-3.388-3.386 3.388h-1.693l-3.386 3.388h-1.693l3.386 3.388 1.693 1.694v1.693l1.693 1.694h1.693v1.694l1.693-1.694h3.387v-1.694l1.693-1.694h1.693v-3.387Z" fill="#EAEEF4"/><path d="m113.44 30.49-3.386 3.387h-5.08l-1.693 1.694h-3.386v3.388l-1.693 1.694v1.694l3.386 3.388 3.386-3.388h3.387l1.693-1.694h5.079l1.693-1.694v-5.082l-3.386-3.387Z" fill="#EAEEF4"/><path d="M123.598 23.714v-5.082h-1.693l-1.693-1.694h-1.693l-1.693 1.694h-1.693l-1.694 1.694h-8.465l-3.386 3.388v1.694l-1.694 1.694v3.387l1.694 1.694-1.694 1.694v1.694h3.387l1.693-1.694h5.079l3.386-3.388h1.694l3.386-3.387h1.693l3.386-3.388Zm23.705 0-1.694-1.694v-1.694l-3.386-3.387h-1.693l-1.693-1.694h-8.466l-1.693 1.694h-3.386l-1.693 1.693v5.082l3.386 3.388v3.387l1.693 1.694h1.693l1.693-1.694h6.773l3.386-3.387v-1.694h3.386l1.694-1.694Z" fill="#EAEEF4"/><path d="M120.212 16.939v-1.694l1.693-1.694v-1.694l-1.693-1.694h-3.386l-1.693-1.694h-1.693l-3.387 3.388h-1.693v-1.694l-1.693-1.694V6.775h-3.386v3.388l-1.693 1.694v3.388l1.693 1.694v1.694l1.693 1.693h8.466l1.693-1.694h1.693l1.693-1.693h1.693Zm35.556 42.347 1.693 1.694v6.775l-1.693 1.694h-3.386l-1.693 1.694h-1.693l-1.693-1.694-1.694-1.694h-1.693l-1.693-1.694 1.693-1.694v-1.694l1.693-1.694 1.694 1.694h1.693l1.693-1.694h3.386l1.693-1.693Z" fill="#EAEEF4"/><path d="M155.768 69.449v3.388l1.693 1.693-1.693 1.694h-3.386l-1.694-1.694h-5.079l-1.693-1.694 1.693-1.693v-3.388l3.386 3.388h1.693l1.694-1.694h3.386Z" fill="#EAEEF4"/><path d="m155.768 76.224 1.693 1.694v3.388h1.693l1.693-1.694h5.079l1.694-1.694v-5.082h-1.694l-1.693-1.693h-1.693l-3.386-3.388h-1.693l-1.693 1.694v3.388l1.693 1.693-1.693 1.694Zm-22.011-10.163v1.694l-1.693 1.694v1.694l1.693 1.694h3.386l1.694 1.693h3.386l1.693-1.693 1.693-1.694v-3.388h-1.693l-1.693-1.694h-3.386l-1.694-1.694h-3.386v1.694Z" fill="#EAEEF4"/><path d="M132.064 71.143h-5.079l-1.693 1.694h-3.386v-5.082l3.386-3.388h5.079l1.693 1.694h1.693v1.694l-1.693 1.694v1.694Z" fill="#EAEEF4"/><path d="m121.905 72.837-1.693 1.693v5.082l1.693 1.694v3.388L123.598 83h1.694l1.693 1.694h1.693v-3.388l5.079-5.082v-3.388l-1.693-1.693h-5.079l-1.693 1.694h-3.387Z" fill="#EAEEF4"/><path d="M121.906 84.694h-3.386l-1.694 1.694h-1.693l-1.693 1.694h-1.693v5.081l1.693 1.694v1.694l1.693 1.694h1.693l1.694-1.694h1.693l6.772-6.776h1.693v-5.081h-1.693L125.292 83h-1.693l-1.693 1.694Z" fill="#EAEEF4"/><path d="M111.747 93.163v-3.388l-1.693-1.694h-3.387l-3.386 3.388h-1.693v3.388l1.693 1.694-1.693 1.694h-5.08v1.694l1.694 1.694h3.217l1.862 1.693h5.08l5.079-5.081h1.693l-1.693-1.694v-1.694l-1.693-1.694Zm-6.773 10.164v3.387l-1.693 1.694v1.694l-1.693 1.694v1.694l-1.693 1.694 1.693 1.694h8.465v-1.694l1.693-1.694v-5.082l-3.386-3.387v-1.694h-3.386Z" fill="#EAEEF4"/><path d="M111.747 111.796h3.386l1.693-1.694h5.079l1.694-1.694h3.386l-1.693-1.694v-3.388l-1.693-1.694h-5.08l-3.386-3.387h-1.693l-5.08 5.081v1.694l3.387 3.388v3.388Z" fill="#EAEEF4"/><path d="M125.292 103.326h1.693l1.693-1.693v-1.694l-1.693-1.694 1.693-1.694h1.693v-3.388l-1.693-1.694v-1.694h-1.693l-6.773 6.776h-1.693l-1.693 1.694h-1.693l3.386 3.388h5.08l1.693 1.693Z" fill="#EAEEF4"/><path d="M130.371 96.551h1.693l1.693 1.694h1.694v1.694h3.386l3.386-3.388h1.693v-3.388l1.693-1.694v-3.387l-1.693-1.694h-6.772l-1.693-1.694h-6.773v6.775l1.693 1.694v3.388Z" fill="#EAEEF4"/><path d="M143.916 86.388v-1.694L142.223 83l1.693-1.694v-1.694l1.693-1.694 1.693-1.693V74.53h-1.693l-1.693-1.694-1.693 1.694h-3.386l-1.693-1.694h-3.387v3.388l-5.079 5.081v3.388h6.773l1.693 1.694h6.772Z" fill="#EAEEF4"/><path d="M157.461 81.306h-1.693L154.075 83v1.694l-1.693 1.694h-1.693l-1.693 1.694h-1.693l-1.694 1.694v-1.694l-1.693-1.694v-1.694L142.223 83l1.693-1.694v-1.694l3.387-3.387V74.53h3.386l1.693 1.694h3.386l1.693 1.694v3.387Z" fill="#EAEEF4"/><path d="M154.075 84.694v5.081l1.693 1.694v1.694h6.773l1.693-1.694v-3.387l-3.386-3.388h-1.694L157.461 83v-1.694h-1.693L154.075 83v1.694Z" fill="#EAEEF4"/><path d="m164.234 88.082 1.693-1.694h1.693l1.693-1.694v-3.388h-1.693l-1.693-1.694h-5.08l-1.693 1.694h-1.693V83l1.693 1.694h1.693l3.387 3.388Z" fill="#EAEEF4"/><path d="M169.313 81.306h5.079L176.085 83h1.694l1.693 1.694v3.388l-5.08 5.081h-8.465l-1.693-1.694v-3.387l1.693-1.694h1.693l1.693-1.694v-3.388Z" fill="#EAEEF4"/><path d="m179.472 88.082 3.386 3.387h1.693v3.388l-6.773 6.776-1.693-1.694v-1.694l-1.693-1.694v-3.388l5.08-5.081Z" fill="#EAEEF4"/><path d="m177.779 101.632-3.387 3.388h-5.079l-3.386-3.388h-1.693v-1.693l1.693-1.694v-5.082h8.465v3.388l1.693 1.694v1.694l1.694 1.693Z" fill="#EAEEF4"/><path d="M164.234 101.632h-3.387l-1.693 1.694h-5.079l-1.693-1.694v-3.387l3.386-3.388v-1.694h6.772l1.694-1.694 1.693 1.694v5.082l-1.693 1.694v1.693Z" fill="#EAEEF4"/><path d="M152.382 98.245h-6.773l-1.693-1.694v-3.388l1.693-1.694v-1.694l1.693-1.693h1.693l1.693-1.694h1.694l1.693-1.694v5.081l1.693 1.694v3.388l-3.386 3.388Z" fill="#EAEEF4"/><path d="m154.074 103.326-1.693 1.694h-1.693l-3.386 3.388h-1.693l-1.693-1.694-1.693-1.694v-1.694l3.386-3.387v-1.694h6.772v3.387l1.693 1.694Z" fill="#EAEEF4"/><path d="M159.154 103.326v1.694l-1.693 1.694v1.694l-1.693 1.694v1.694h-1.694l-3.386 3.387v1.694h-1.693l-1.693-1.694v-1.694l-5.079-5.081 1.693-1.694 1.693 1.694h1.693l3.386-3.388h1.693l1.693-1.694h5.08Z" fill="#EAEEF4"/><path d="M142.223 108.408h-1.693v3.388l-1.693-1.694h-1.694l-1.693-1.694h-8.465l-1.693-1.694v-3.388h1.693l1.693-1.694v-1.694l-1.693-1.693 1.693-1.694h3.386l1.693 1.694h1.693v1.694h3.387l3.386-3.388h1.693l1.693 1.694v1.694l-3.386 3.387v1.694l1.693 1.694-1.693 1.694Z" fill="#EAEEF4"/><path d="m140.529 111.795-1.693 1.694v1.694l-1.693 1.694v5.082h-3.386l-1.694-1.694h-1.693l-1.693-1.694h-1.693l-5.079-5.082v-1.694l-1.693-1.693h1.693l1.693-1.694h11.852l1.693 1.694h1.693l1.693 1.693Z" fill="#EAEEF4"/><path d="m132.064 120.265-1.693 1.694v5.081l-1.694-1.694h-3.386l-1.693 1.694h-1.693l-1.693-1.694v-1.693l-1.693-1.694h-1.693v-1.694l1.693-1.694-1.693-1.694v-1.694l-1.694-1.694v-1.694l1.694-1.693h3.386l1.693 1.693v1.694l5.079 5.082h1.693l1.694 1.694h1.693Z" fill="#EAEEF4"/><path d="m116.826 121.959-1.694 1.694h-3.386l-1.693-1.694h-1.693l-1.693 1.694h-5.08v-3.388l1.693-1.694v-1.693h6.773v-1.694l1.693-1.694v-1.694h3.386v1.694l1.694 1.694v1.694l1.693 1.693-1.693 1.694v1.694Z" fill="#EAEEF4"/><path d="m101.587 123.653-1.693 1.694v1.694l-3.386 3.387v5.082l1.693 1.694v1.694h5.08l1.693-1.694h1.693l1.693-1.694h5.079v-3.388l-1.693-1.694v-1.694l1.693-1.693v-3.388h-1.693l-1.693-1.694h-1.693l-1.693 1.694h-5.08Z" fill="#EAEEF4"/><path d="M99.894 125.347h-3.386l-1.693-1.694h-1.693v1.694h-5.08l-1.692-1.694v-1.694h-1.694l-3.386 3.388v1.694l-1.693 1.693 1.693 1.694h1.693l1.693 1.694v5.082l1.694 1.694v1.694l-1.694 1.694v3.387l3.387-3.387h1.693l1.693-1.694h3.386l1.693-1.694h1.693v-1.694l-1.693-1.694v-5.082l3.386-3.387v-1.694Z" fill="#EAEEF4"/><path d="M84.656 145.673v6.776h3.386v3.388h1.694l1.693-1.694h3.386l3.386-3.388h1.693v1.694l1.693 1.694h1.694l1.693-1.694v-3.388l3.386-3.388v-3.387l-1.693-1.694h-1.693l-1.693-1.694h-6.773l-1.693 1.694h-3.386l-1.694 1.694h-1.693l-3.386 3.387Zm38.942 0 1.693-1.694v-1.693l5.08-5.082-3.386-3.388 1.693-1.694v-1.694l1.693-1.694v-1.693l-1.693-1.694h-3.387l-1.693 1.694h-1.693l-1.693-1.694v-1.694l-1.693-1.694h-1.693l-1.693 1.694h-1.693v3.388l-1.694 1.693v1.694l1.694 1.694v3.388h3.386l3.386 3.388v1.694l3.386 3.387v1.694Z" fill="#EAEEF4"/><path d="M108.36 145.673h1.693l1.693-1.694h8.466l1.693 1.694h1.693v-1.694l-3.386-3.388v-1.693l-3.386-3.388h-8.466l-1.693 1.694h-1.693l-1.693 1.694 1.693 1.693h1.693l1.693 1.694v3.388Z" fill="#EAEEF4"/><path d="M118.519 143.979v1.694l-1.693 1.694v3.388h-1.694v1.694l-1.693 1.694h-1.693l-1.693 1.694v3.387h-1.693l-1.693-1.693v-3.388h-3.386l1.693-1.694v-3.388l3.386-3.388h1.693l1.693-1.694h6.773Z" fill="#EAEEF4"/><path d="M116.826 150.755v3.388l1.693 1.694v3.387h3.386l3.386-3.387h1.694l1.693 1.694h3.386l-3.386-3.388v-1.694l-3.387-3.388v-1.694h-1.693v-1.694h-1.693l-1.693-1.694h-1.693v1.694l-1.693 1.694v3.388Z" fill="#EAEEF4"/><path d="m132.064 157.53 1.693-1.694h1.693v-1.694l-1.693-1.693v-1.694l-1.693-1.694 1.693-1.694v-1.694l1.693-1.694v-1.694l3.386-3.387v-1.694h-1.693l-1.693-1.694v-1.694h-1.693l-3.386 3.388-5.08 5.081v1.694l-1.693 1.694v1.694h1.693v1.694l3.387 3.388v1.693l3.386 3.388Z" fill="#EAEEF4"/><path d="m135.45 155.837 3.387 3.387v1.694l3.386 3.388 1.693-1.694v-6.775l-1.693-1.694v-1.694l1.693-1.694v-1.694l-1.693-1.694v-1.694l-1.693-1.693v-3.388l-1.693-1.694-3.387 3.388v1.694l-1.693 1.693v1.694l-1.693 1.694 1.693 1.694v1.694l1.693 1.694v1.694Zm3.386-18.633h3.386l3.387-3.388-1.693-1.694 1.693-1.694v-1.693l-3.387-3.388v-1.694h-3.386l-1.693-1.694h-3.386l-1.693-1.694-1.693 1.694v6.776l-1.694 1.693v1.694l-1.693 1.694 3.387 3.388 3.386-3.388h1.693v1.694l1.693 1.694h1.693Z" fill="#EAEEF4"/><path d="m143.915 149.061 1.694-1.694v-3.388l5.079-5.081v-1.694h-1.693l-3.386-3.388-3.387 3.388h-3.386v1.694l1.693 1.693v3.388l1.693 1.694v1.694l1.693 1.694Zm-1.692-25.408h1.693l1.693-1.694h3.386l1.693-1.694v-3.388h-1.693l-1.693-1.694v-1.694l-5.079-5.081h-1.693v3.387l-1.693 1.694v1.694l-1.694 1.694v5.082l1.694 1.694h3.386Z" fill="#EAEEF4"/><path d="m150.688 120.265 5.08 5.082v6.775l3.386 3.388-1.693 1.694v1.694h-1.693l-1.694-1.694h-5.079l-5.079-5.082 1.693-1.694v-1.693l-3.386-3.388v-1.694h1.693l1.693-1.694h3.386l1.693-1.694Z" fill="#EAEEF4"/><path d="M155.768 125.346v-1.693l1.693-1.694h1.693l3.386-3.388v-3.388l-1.693-1.694v-1.694l-3.386-3.387-1.693 1.694v1.693h-1.693l-3.387 3.388v5.082l5.08 5.081Z" fill="#EAEEF4"/><path d="M162.54 118.571v1.694l1.693 1.694-1.693 1.694v5.082l3.387 3.387v1.694l1.693 1.694v1.694h-3.387l-1.693-1.694h-3.386l-3.386-3.388v-8.469l1.693-1.694h1.693l3.386-3.388Zm-82.963 10.163-1.693-1.694v-1.694l-1.693-1.693v-6.776l-1.694-1.694 1.694-1.694h1.693v-3.387h6.772l1.693 1.693h1.694l1.693 1.694v3.388l1.693 1.694v1.694l1.693 1.694v3.387h-5.08l-1.693-1.693v-1.694h-1.693l-3.386 3.387v1.694l-1.693 1.694Z" fill="#EAEEF4"/><path d="m88.043 111.795 3.386-3.387h1.693l1.693 1.694h1.693l1.694 1.693h1.693l1.693 1.694-1.693 1.694 1.693 1.694h1.693v1.694l-1.693 1.694v3.388l-1.693 1.693h-3.387l-1.693-1.693h-1.693v-1.694l-1.693-1.694v-1.694l-1.693-1.694v-3.388l-1.693-1.694Z" fill="#EAEEF4"/><path d="M93.122 108.408v-3.388l1.694-1.694v-1.694h-3.387v-1.694l1.693-1.693V96.55h1.694l1.693 1.694v1.694l1.693 1.693h3.217l1.862 1.694h1.693v3.388l-1.693 1.694v1.694l-1.693 1.694v1.694l-1.693-1.694h-1.693l-1.693-1.694h-1.694l-1.693-1.694Z" fill="#EAEEF4"/><path d="m91.429 99.938-1.693-1.694h-1.693L86.35 96.55v-1.693l1.693-1.694-1.693-1.694v-1.694l-1.694-1.694v-1.694h3.387l1.693-1.694V83h1.693l3.386 3.388h1.693l1.694 1.694h1.693l1.693-1.694 3.386 3.388-1.693 1.694h-1.693v3.388l1.693 1.694-1.693 1.693h-5.08l-1.693-1.694h-1.693v1.694l-1.693 1.694Z" fill="#EAEEF4"/><path d="m91.43 83 1.692-1.694h3.387l3.386-3.388h3.386l1.693-1.694h1.693v1.694l1.694 1.694V83l1.693 1.694v3.387h-3.387l-1.693 1.694-3.386-3.388-1.693 1.694h-1.693l-1.693-1.694h-1.694L91.43 83Z" fill="#EAEEF4"/><path d="m106.667 76.224 1.693-1.694h3.386l1.694-1.694h3.386l3.386 3.388v3.388l1.693 1.694v3.388h-3.386l-1.693 1.693h-1.693l-1.693 1.694h-1.694v1.694l-1.693-1.694v-3.387L108.36 83v-3.388l-1.693-1.694v-1.694Z" fill="#EAEEF4"/><path d="M113.44 72.836v-3.388l-1.693-1.693v-3.388l-1.693-1.694v-5.082l1.693-1.694h10.159v6.776l-1.694 1.694v3.388h1.694v5.081l-1.694 1.694v1.694l-3.386-3.388h-3.386Z" fill="#EAEEF4"/><path d="m104.974 76.224-1.693-1.694v-1.694l-5.08-5.081v-3.388l-1.693-1.694 1.693-1.694-3.386-3.388-1.693-1.694v-1.693h5.08l3.386 3.387 1.693-1.694v-1.693h3.386v1.694l1.693 1.693h1.693v5.082l1.693 1.694v3.388l1.693 1.694v3.387l-1.693 1.694h-3.386l-1.693 1.694h-1.693Z" fill="#EAEEF4"/><path d="M93.122 81.306v-3.388l-1.693-1.694V74.53l-1.693-1.694 1.693-1.693h1.693l3.386-3.388h1.694l5.079 5.082v1.693l1.693 1.694-1.693 1.694h-3.386l-3.387 3.388h-3.386Z" fill="#EAEEF4"/><path d="m89.736 72.836-1.693-1.694H86.35v-1.694l-3.387-3.387 1.694-1.694v-8.47l3.386-3.387 1.693 1.694h3.386v1.694l5.08 5.081-1.694 1.694 1.694 1.694v3.388h-1.694l-3.386 3.387H91.43l-1.693 1.694Zm-5.08-23.714v1.694l-1.693 1.694H81.27l-1.693 1.694h-1.693L76.19 52.51h-1.694l-1.693-1.694h-5.079l-1.693 1.694v-1.694l-1.693-1.694h-1.693v-3.388l1.693-1.693H76.19l1.693-1.694h1.693v1.694l1.693 1.693h1.693l1.693 1.694v1.694Z" fill="#EAEEF4"/><path d="M67.725 60.98h3.387l1.693 1.693h1.693l1.693 1.694h3.386l1.693 1.694h1.693l1.694-1.694v-8.47l3.386-3.387v-1.694l-1.693-1.694h-1.694v1.694l-1.693 1.694H81.27l-1.693 1.694h-1.693l-1.693-1.694h-1.693l-1.693-1.694h-5.08l-1.693 1.694 1.693 1.694h1.693v3.388l-1.693 1.693v1.694Z" fill="#EAEEF4"/><path d="M81.27 66.061v3.388l-3.386 3.388h-5.08l-1.692-1.694h-1.694L64.34 66.06l1.693-1.694v-1.694l1.693-1.694h3.387l1.693 1.694h1.693l1.693 1.694h3.386l1.693 1.694Z" fill="#EAEEF4"/><path d="M77.884 72.837v1.693l-1.693 1.694v1.694l1.693 1.694h1.693L82.963 83v1.694l1.694 1.694h3.386l1.693-1.694V83h1.693l1.693-1.694v-3.388l-1.693-1.694V74.53l-1.693-1.694-1.693-1.693H86.35v-1.694l-3.387-3.388H81.27v3.388l-3.386 3.388Z" fill="#EAEEF4"/><path d="M76.19 77.918h-1.692l-1.693 1.694h-8.466l-1.693-1.694 1.693-1.694V74.53h-1.693v-1.694H59.26v-1.693h-1.694v-1.694l1.694-1.694h3.386l1.693-1.694 5.08 5.082h1.692l1.694 1.694h5.079v1.693l-1.693 1.694v1.694Z" fill="#EAEEF4"/><path d="M66.032 94.857v1.694h6.772v-1.694l1.693-1.694v-3.388l-1.693-1.694v-3.388L74.497 83v-1.694l-1.693-1.694H64.34l-1.694-1.694-1.693 1.694V83l1.694 1.694v1.693h1.693l1.693 1.694v6.776Z" fill="#EAEEF4"/><path d="M74.498 91.469h1.693l1.693-1.694h3.386l1.694-1.694v-1.694h1.693l-1.693-1.694V83l-3.387-3.388h-1.693l-1.693-1.694h-1.693l-1.693 1.694 1.693 1.694V83l-1.693 1.694v3.387l1.693 1.694v1.694Z" fill="#EAEEF4"/><path d="m72.805 94.857 1.693 1.694h3.386l1.693 1.694 1.694-1.694h1.693l1.693-1.694h1.693l1.693-1.694-1.693-1.694v-1.694l-1.693-1.693v-1.694h-1.693v1.694l-1.694 1.693h-3.386l-1.693 1.694h-1.693v1.694l-1.693 1.694Z" fill="#EAEEF4"/><path d="M82.963 96.55v1.695l1.694 1.694-6.773 6.775v3.388h6.772l1.694 1.694h1.693l3.386-3.388h1.693v-3.388l1.693-1.694v-1.694H91.43v-1.693l-1.693-1.694h-1.693L86.35 96.55v-1.694h-1.694l-1.693 1.694Z" fill="#EAEEF4"/><path d="m76.191 113.49-3.386-3.388v-1.694l-1.693-1.694v-1.694l1.693-1.694v-8.469l1.693 1.694h3.386l1.693 1.694 1.693-1.694h1.694v1.694l1.693 1.694-6.773 6.775v6.776h-1.693Z" fill="#EAEEF4"/><path d="M62.645 96.55v1.695l-1.693 1.694v1.693l1.795 1.694h4.978l1.693 1.694h1.693l1.693-1.694v-6.775h-6.772v-1.694h-1.693l-1.694 1.694Z" fill="#EAEEF4"/><path d="m64.339 103.326 1.693 1.694-3.386 3.388 1.693 1.694v3.387l1.693-1.693h1.693l3.386 3.387h3.386l1.694-1.694-3.387-3.387v-1.694l-1.693-1.694v-1.694h-1.693l-1.693-1.694h-3.386Zm-1.592 0H59.26l-1.694 1.694v3.388l-1.693 1.694H54.18l-1.693 1.694h-1.693l-3.386-3.388h-1.694l1.694-1.694v-6.775l1.693-1.694V96.55l1.693-1.694h8.466l1.693 1.694h1.693v1.694l-1.693 1.694v1.693l1.794 1.694Z" fill="#EAEEF4"/><path d="M52.487 111.796v1.693l3.386 3.388v1.694l3.387-3.388h1.693l1.693-1.694h1.693v-3.387l-1.693-1.694 3.386-3.388-1.693-1.694h-5.08l-1.692 1.694v3.388l-1.694 1.694H54.18l-1.693 1.694Z" fill="#EAEEF4"/><path d="m55.873 118.571 3.387 3.388h3.386l1.693 1.694h1.693l1.693 1.694 1.693-1.694v-3.388l3.386-3.387h3.387l-1.693-1.694H71.11l-3.386-3.388h-1.693l-1.693 1.694h-1.693l-1.693 1.694h-1.694l-3.386 3.387Z" fill="#EAEEF4"/><path d="M67.725 125.347h-1.693l-1.693 1.694v1.694l1.693 1.693v1.694l1.693 1.694h1.693l1.694 1.694h13.544v-3.388l-1.693-1.694H81.27l-1.693-1.693-1.693-1.694v-1.694l-1.693-1.694v-6.776h-3.386l-3.387 3.388v3.388l-1.693 1.694Z" fill="#EAEEF4"/><path d="m71.111 135.51-1.693 1.694h-1.693l-1.693 1.694h-1.693l-1.693 1.693 1.693 1.694v1.694l1.693 1.694h3.386l1.693 1.694h6.773l1.693 1.694v1.694l1.693 1.694h3.386v-10.164l1.694-1.694v-1.693l-1.694-1.694v-1.694H71.111Z" fill="#EAEEF4"/><path d="M59.26 121.959v1.694l-1.693 1.694h-6.773v5.081h1.693l1.693 1.694-1.693 1.694v1.694l-1.693 1.694v3.388l1.693 1.694h5.08l1.693 1.693h5.08v-1.693l-1.694-1.694 1.693-1.694h1.693l1.693-1.694h1.694l1.693-1.694-1.694-1.694h-1.693l-1.693-1.694v-1.694l-1.693-1.694v-1.693l1.693-1.694h1.693l-1.693-1.694H64.34l-1.693-1.694H59.26Z" fill="#EAEEF4"/><path d="m50.794 127.04-1.693-1.694h-1.693l-1.693-1.693h-1.693l-5.08-5.082h-3.386v-3.388l3.386-3.388h3.387v-1.693l1.693-1.694h3.386l3.386 3.387h1.694v1.694l3.386 3.388v1.694l3.386 3.388v1.694l-1.693 1.693h-6.773v1.694Z" fill="#EAEEF4"/><path d="M47.407 125.347h-1.693l-1.693 1.694v1.693l1.693 1.694-1.693 1.694v3.388l-1.693 1.694v3.388l1.693 1.693h5.08l1.693-1.693v-3.388l1.693-1.694v-1.694l1.693-1.694-1.693-1.694h-1.693v-3.387l-1.694-1.694h-1.693Z" fill="#EAEEF4"/><path d="M44.021 127.041h-5.08l-1.692 1.694h-3.387l-1.693-1.694v-3.388l-1.693-1.694v-1.694l1.693-1.694h6.773l5.08 5.082h1.692l1.694 1.694h-1.694l-1.693 1.694Z" fill="#EAEEF4"/><path d="M32.17 125.346h-1.693l-1.693 1.694-1.693-1.694h-1.694l-1.693 1.694h-1.693l-3.386-3.387v-1.694l-1.693-1.694v-5.082h1.693l1.693-1.694 1.693 1.694h3.386l1.694 1.694 1.693-1.694v-3.388l1.693-1.693 1.693-1.694h3.386v1.694l1.693 1.693h1.693l-3.386 3.388v3.388H32.17l-1.693 1.694v1.694l1.693 1.694v1.693Z" fill="#EAEEF4"/><path d="M16.931 118.571h-3.386l-1.693 1.694H8.466l-3.386 3.388v1.694l-1.694 1.694v1.694l-1.693 1.693 1.693 1.694H5.08l1.693 1.694v-3.388l1.693-1.693h1.693l3.386 3.387h1.693v-3.387h3.387l1.693-1.694h1.693l-3.386-3.388v-1.694l-1.694-1.694v-1.694Z" fill="#EAEEF4"/><path d="m6.773 133.816 1.693 1.694h1.693v1.694l1.693 1.694v1.694l-1.693 1.693v5.082l-1.693 1.694v5.082l1.693 1.693v-3.387l1.693-1.694h1.693v-3.388l1.693-1.694v-1.694l1.693-1.694v-1.693l1.693-1.694h1.694l-3.387-3.388v-1.694l-1.693-1.694h-1.693l-3.386-3.388H8.466l-1.693 1.694v3.388Z" fill="#EAEEF4"/><path d="M20.318 138.898h1.693v-1.694l1.693-1.694-1.693-1.694v-1.694l-1.693-1.694v-3.387l-1.693 1.693h-3.386v3.388l1.693 1.694v1.694l3.386 3.388Z" fill="#EAEEF4"/><path d="M13.545 150.755h1.693l1.694 1.694v1.694h1.693l1.693-1.694 5.08-5.082v-5.081l1.692-1.694-1.693-1.694h-6.772l-1.694 1.694v1.694l-1.693 1.694v1.693l-1.693 1.694v3.388Z" fill="#EAEEF4"/><path d="M25.397 142.285h6.773l1.693-1.693v-1.694l-1.693-1.694v-8.47h1.693l-1.693-1.693v-1.694h-1.694l-1.693 1.694-1.693-1.694h-1.693l-1.693 1.694h-3.386v3.387l1.693 1.694v1.694l1.693 1.694-1.693 1.694v1.694h3.386l1.693 1.694-1.693 1.693Z" fill="#EAEEF4"/><path d="M32.17 142.285h5.079l1.693-1.693h3.386v-3.388l1.694-1.694v-3.388l1.693-1.694-1.694-1.694v-1.693h-5.079l-1.693 1.693H32.17v8.47l1.693 1.694v1.694l-1.693 1.693Zm35.555-88.081-1.693-1.694v-1.694l-1.693-1.694h-1.693v-3.388l-3.386-3.387-1.693 1.694H54.18l-1.693 1.693v1.694l-1.693 1.694v6.776l-1.693 1.694v3.387l-1.693 1.694 1.693 1.694h1.693l1.693 1.694v3.388h-1.693l-1.693 1.694h-1.693l-1.795-1.694 1.795-1.694V66.06l-1.693-1.694-1.693 1.694h-1.694l-3.386 3.388h-3.386l-1.693 1.694v3.387l-1.693 1.694-1.693-1.694-1.694 1.694H27.09l-1.693 1.694h-3.386l-1.693-1.694H16.93l-1.693 1.694h-3.386l-1.693-1.694H8.466v3.388l1.693 1.694v6.775l1.693 1.694v3.388l1.693 1.694v3.388l1.693 1.694v5.081l1.694 1.694v8.469h1.693l1.693-1.693 1.693 1.693h3.386l1.693 1.694 1.693-1.694v-3.387l1.694-1.694 1.693-1.694h3.386v1.694l1.693 1.694h5.08v-1.694l1.693-1.694h1.693l1.693-1.694v-6.775l1.693-1.694V96.55l1.693-1.694h8.466l1.693 1.694h1.693l1.693-1.694h1.693V88.08l-1.693-1.694h-1.693v-1.693L60.953 83v-3.388l3.386-3.388V74.53h-1.693v-1.694H59.26v-1.693h-1.693v-1.694l1.693-1.694h3.386l3.386-3.388v-1.694l1.693-1.694v-1.694l1.694-1.693v-3.388h-1.694Zm88.043 1.694V52.51h-3.386l-1.693-1.694h-1.693l-1.694-1.694v-1.694l1.694-1.693V44.04h1.693v-1.694l1.693-1.694v-3.388l-1.693-1.694-1.693-1.694V30.49l1.693-1.694V22.02h-1.693l-1.694 1.694-1.693-1.694v-1.694l-3.386-3.387h-1.693l-1.693-1.694h-8.466l-1.693 1.694h-3.386l-1.693 1.694h-1.694l-1.693-1.694v-1.694l1.693-1.694v-1.694l-1.693-1.694h-3.386l-1.693-1.694h-1.693l-3.386 3.388h-1.694v-1.694l-1.693-1.694V6.775h-5.079L99.895 8.47l-1.693-1.694V5.082h-3.387L91.43 8.469v1.694l-1.693 1.694h-1.693l-1.693 1.694v3.388h-5.08l-1.693-1.694h-3.386l-5.08 5.081h-3.386v3.388l-1.693 1.694v3.388L64.34 30.49l1.693 1.694h5.08l1.693 1.694h-1.693l-1.694 1.693v1.694h-6.772l-1.693 1.694v1.694l-1.693 1.694 3.386 3.388 1.693-1.694h11.852l1.693-1.694h1.693v1.694l1.693 1.694h1.694l1.693 1.694v1.693h1.693l1.693 1.694v1.694l1.693 1.694h8.466l3.386 3.388 1.693-1.694v-1.694h3.386v1.694l1.693 1.694h1.694l1.693-1.694h10.158v6.775l-1.693 1.694v3.388h1.693l3.387-3.388h5.079l1.693 1.694h1.693v-1.694h3.387l1.693 1.694h3.386l1.693-1.694v-1.694l1.693-1.694 1.693 1.694h1.694l1.693-1.694h3.386l1.693-1.693h-1.693v-1.694l1.693-1.694Z" fill="#EAEEF4"/><path d="m182.858 91.47-3.386-3.388v-3.388L177.779 83h-1.693l-1.694-1.694h-6.772l-1.693-1.694 1.693-1.694v-5.081h-1.693l-1.693-1.694h-1.693l-3.387-3.388h-1.693v-6.776l-1.693-1.693-1.693 1.694h-3.386l-1.693 1.693h-1.694l-1.693-1.694-1.693 1.694v1.694l-1.693 1.694h-3.386l-1.693-1.694h-3.387v1.694h-1.693l-1.693-1.694h-5.079l-3.386 3.388v5.082l-1.694 1.694v5.081l1.694 1.694v3.388h-3.387l-1.693 1.694h-1.693l-1.693 1.694h-1.693v1.694l-1.693-1.694h-3.387l-3.386 3.387h-1.693v3.388l1.693 1.694-1.693 1.694h-5.08v1.694l1.694 1.694h3.217l1.862 1.693h1.693v3.388l-1.693 1.694v1.694l-1.693 1.694v1.694l-1.693 1.694 1.693 1.694h8.466v-1.694l1.693-1.694v-1.694h3.386l1.693-1.694h5.08l1.693-1.694h3.386l-1.693-1.694v-3.388h1.693l1.693-1.693v-1.694l-1.693-1.694 1.693-1.694h3.386l1.693 1.694h1.694v1.694h3.386l3.386-3.388h1.693l1.693 1.694h6.773v3.388l1.693 1.693h5.079l1.693-1.693h5.08l3.386 3.387h5.079l3.387-3.387 6.772-6.776V91.47h-1.693Z" fill="#EAEEF4"/><path d="M165.926 133.816v-1.694l-3.386-3.388v-5.081l1.693-1.694-1.693-1.694v-5.082l-1.693-1.693v-1.694l-3.386-3.388v-1.694l1.693-1.694v-1.694h-5.079l-1.694-1.694v-3.387h-6.772l-1.693-1.694h-1.693l-3.387 3.388h-3.386v-1.694h-1.693l-1.693-1.694h-3.386l-1.693 1.694 1.693 1.694v1.693l-1.693 1.694h-1.694v3.388l1.694 1.694h-3.387l-1.693 1.694h-5.079l-1.693 1.694h-3.387v1.694l-1.693 1.693v1.694h-6.772v1.694l-1.693 1.694v3.388l-1.694 1.694h-3.386l-1.693-1.694h-1.693v1.694h-5.08l-1.692-1.694v-1.694h-1.694l-3.386 3.388v1.694l-1.693 1.693 1.693 1.694h1.693l1.693 1.694v5.082l1.694 1.694v1.694l-1.694 1.693v10.164h3.387v3.388h1.693l1.693-1.694h3.386l3.386-3.388h1.694v1.694l1.693 1.694h5.079v3.387l1.693 1.694h1.693v-3.387l1.693-1.694h1.693l1.694-1.694v-1.694h1.693v3.388l1.693 1.694v3.387h3.386l3.386-3.387h1.694l1.693 1.693h3.386l1.693-1.693h1.693l3.386 3.387v1.694l3.387 3.388 1.693-1.694v-6.775l-1.693-1.694v-1.694l1.693-1.694v-1.694l1.693-1.694v-3.388l5.079-5.081v-1.694h3.387l1.693 1.694h1.693v-1.694l1.693-1.694h3.386l1.693 1.694h3.387v-1.694l-1.694-1.694Z" fill="#EAEEF4"/><path d="M121.905 62.673v-6.775h-10.159l-1.693 1.694h-1.693l-1.693-1.694v-1.694h-3.386v1.694l-1.693 1.694-3.386-3.388h-8.466l-1.693-1.694v-1.694l-1.693-1.694h-1.694v-1.694l-1.693-1.694H81.27l-1.693-1.693v-1.694h-1.693L76.19 44.04H64.339l-1.693 1.693v3.388h1.693l1.693 1.694v1.694l1.693 1.694h1.693v3.388l-1.693 1.694v1.693l-1.693 1.694v1.694l-1.693 1.694-1.693 1.694H59.26l-1.694 1.694v1.694h1.694v1.694h3.386v1.693h1.693v1.694l-1.693 1.694-1.693 1.694V83l1.693 1.694v1.694h1.693l1.693 1.693v6.776H64.34l-1.693 1.694v1.694l-1.693 1.694v1.693l1.794 1.694h1.592l1.693 1.694-3.386 3.388 1.693 1.694v3.388l1.693-1.694h1.693l3.386 3.387h3.387l1.693 1.694v6.776l1.693 1.694v1.694l1.693 1.693 1.693-1.693v-1.694l3.386-3.388h1.694v1.694l1.693 1.694h5.08v-1.694h1.692l1.693 1.694h3.387l1.693-1.694v-3.388l1.693-1.694v-1.694h-1.693l-1.693-1.694 1.693-1.693v-1.694l1.693-1.694v-1.694l1.693-1.694v-3.388h-1.693l-1.863-1.694h-3.217l-1.693-1.694v-1.693h5.08l1.693-1.694-1.693-1.694v-3.388h1.693l1.693-1.694 1.693-1.694h3.386l1.693 1.694v-1.694h1.694l1.693-1.694h1.693l1.693-1.693h3.386v-3.388l-1.693-1.694V74.53l1.693-1.694v-5.081h-1.693v-3.388l1.693-1.694Z" fill="#EAEEF4"/><path d="M84.656 137.204v-5.082l-1.693-1.694H81.27l-1.693-1.694-1.693-1.693v-1.694l-1.693-1.694v-6.776l-1.693-1.694h-3.386l-3.387-3.387h-1.693l-1.693 1.694v-3.388l-1.693-1.694 3.386-3.388-1.693-1.694h-1.591l-1.795-1.694v-1.693l1.693-1.694V96.55h-1.693l-1.693-1.694h-8.466l-1.693 1.694v1.694l-1.693 1.694v6.775l-1.693 1.694H44.02l-1.693 1.694v1.694H37.25l-1.693-1.694v-1.694H32.17l-1.694 1.694-1.693 1.694v3.387l-1.693 1.694-1.693-1.694h-3.386l-1.693-1.693-1.693 1.693H16.93v3.388h-3.386l-1.693 1.694H8.466l-3.386 3.388v1.694l-1.694 1.694v1.693l-1.693 1.694 1.693 1.694H5.08l1.693 1.694 1.693 1.694h1.693v1.694l1.693 1.694v1.694l-1.693 1.693v5.082l-1.693 1.694v5.082l1.693 1.694v-3.388l1.693-1.694h3.386l1.694 1.694v1.694h1.693l1.693-1.694 5.08-5.082v-5.082h11.85l1.693-1.693h3.386l1.694 1.693H49.1l1.693-1.693 1.693 1.693h5.08l1.693 1.694h5.079l1.693 1.694h3.386l1.694 1.694h6.772l1.693 1.694v1.694l1.693 1.694h3.386v-10.164l1.694-1.693v-1.694l-1.694-1.694Z" fill="#EAEEF4"/><path d="M57.567 136.865a1.354 1.354 0 1 0 0-2.709 1.354 1.354 0 0 0 0 2.709Zm-1.694-32.183a1.355 1.355 0 1 0 0-2.71 1.355 1.355 0 0 0 0 2.71Zm44.022-32.184a1.354 1.354 0 1 0 0-2.709 1.354 1.354 0 0 0 0 2.71Zm16.931 30.49a1.355 1.355 0 1 0-.001-2.71 1.355 1.355 0 0 0 .001 2.71Zm22.011-23.714a1.354 1.354 0 1 0 0-2.71 1.354 1.354 0 0 0 0 2.71ZM11.852 138.559a1.354 1.354 0 1 0 0-2.709 1.354 1.354 0 0 0 0 2.709ZM135.45 38.62a1.355 1.355 0 1 0 0-2.71 1.355 1.355 0 0 0 0 2.71Zm16.931 89.776a1.355 1.355 0 1 0 0-2.71 1.355 1.355 0 0 0 0 2.71ZM13.545 86.05a1.355 1.355 0 1 0 0-2.71 1.355 1.355 0 0 0 0 2.71Zm91.429-59.287a1.354 1.354 0 1 0 0-2.708 1.354 1.354 0 0 0 0 2.708ZM85.672 80.967a2.71 2.71 0 1 0-.001-5.419 2.71 2.71 0 0 0 .001 5.42Z" fill="#EAEEF4"/><path d="M88.462 77.964a22.612 22.612 0 0 1-2.657-2.68c-1.214-1.451-2.657-3.612-2.657-5.67a5.315 5.315 0 1 1 10.628 0c0 2.058-1.442 4.219-2.657 5.67a22.605 22.605 0 0 1-2.657 2.68Zm0-10.628a2.278 2.278 0 1 0 0 4.556 2.278 2.278 0 0 0 0-4.556ZM41.944 87.085a22.605 22.605 0 0 1-2.657-2.68c-1.215-1.451-2.657-3.612-2.657-5.67a5.315 5.315 0 1 1 10.628 0c0 2.058-1.442 4.219-2.657 5.67a22.612 22.612 0 0 1-2.657 2.68Zm0-10.628a2.277 2.277 0 1 0 0 4.555 2.277 2.277 0 0 0 0-4.555Zm97.74 14.387a22.642 22.642 0 0 1-2.658-2.68c-1.214-1.45-2.657-3.611-2.657-5.67a5.318 5.318 0 0 1 3.281-4.912 5.312 5.312 0 0 1 5.793 1.153 5.28 5.28 0 0 1 1.555 3.759c0 2.059-1.443 4.22-2.657 5.67a22.71 22.71 0 0 1-2.657 2.68Zm0-10.627a2.277 2.277 0 1 0-.002 4.553 2.277 2.277 0 0 0 .002-4.553Zm-12.148 48.079a22.577 22.577 0 0 1-2.657-2.681c-1.215-1.451-2.657-3.611-2.657-5.67a5.32 5.32 0 0 1 3.28-4.912 5.314 5.314 0 0 1 5.793 1.154 5.272 5.272 0 0 1 1.555 3.758c0 2.059-1.442 4.219-2.657 5.67a22.577 22.577 0 0 1-2.657 2.681Zm0-10.628a2.277 2.277 0 1 0 0 4.554 2.277 2.277 0 0 0 0-4.554Zm-75.914 8.603a22.606 22.606 0 0 1-2.657-2.68c-1.215-1.451-2.657-3.612-2.657-5.67a5.311 5.311 0 0 1 3.28-4.912 5.312 5.312 0 0 1 5.793 1.153 5.288 5.288 0 0 1 1.555 3.759c0 2.058-1.442 4.219-2.657 5.67a22.614 22.614 0 0 1-2.657 2.68Zm0-10.628a2.278 2.278 0 1 0 0 4.556 2.278 2.278 0 0 0 0-4.556Zm58.709-75.408a22.559 22.559 0 0 1-2.657-2.68c-1.215-1.452-2.657-3.612-2.657-5.67a5.31 5.31 0 0 1 3.28-4.913 5.317 5.317 0 0 1 6.947 2.877c.267.645.403 1.337.401 2.035 0 2.059-1.442 4.22-2.657 5.67a22.559 22.559 0 0 1-2.657 2.68Zm0-10.628a2.276 2.276 0 1 0 0 4.552 2.276 2.276 0 0 0 0-4.552Z" fill="#4D5051"/></svg>